<svg id="Слой_1" data-name="Слой 1" xmlns="http://www.w3.org/2000/svg" viewBox="0 0 126.015 126.015">
  <defs>
    <style>
      .cls-1 {
        fill: #dedede;
      }

      .cls-2 {
        fill: #fff;
      }

      .cls-3 {
        fill: #3d9be8;
      }
    </style>
  </defs>
  <title>1syn</title>
  <g id="Слой_1-2" data-name="Слой_1">
    <g id="_2306355581552" data-name=" 2306355581552">
      <path class="cls-1" d="M127.194,63.455a63.008,63.008,0,1,0-63.008,63.008A63.008,63.008,0,0,0,127.194,63.455Z" transform="translate(-1.178 -0.447)"/>
      <path class="cls-2" d="M122.3,63.455a58.11,58.11,0,1,0-58.11,58.11A58.11,58.11,0,0,0,122.3,63.455Z" transform="translate(-1.178 -0.447)"/>
    </g>
    <path class="cls-3" d="M97.643,29.428H71.957a5.443,5.443,0,0,0-5.437,5.437,2.823,2.823,0,0,1-2.819,2.82H30.674a5.442,5.442,0,0,0-5.436,5.437V89.908a5.442,5.442,0,0,0,5.436,5.437H97.643a5.442,5.442,0,0,0,5.437-5.437V34.865a5.443,5.443,0,0,0-5.437-5.437Z" transform="translate(-1.178 -0.447)"/>
    <path class="cls-2" d="M100.75,89.908a2.824,2.824,0,0,1-2.82,2.82H30.96a2.823,2.823,0,0,1-2.82-2.82c0-12.094.107-35.407,0-36.531-.453-1.394-2.048-1.894-3.287.25V41.478c0-1.555,3.98-4.249,5.535-4.249l16.071.286c-1.536.119-1.644,2.739-.107,2.787H63.986a5.443,5.443,0,0,0,5.436-5.437,2.824,2.824,0,0,1,2.82-2.82H97.929a2.824,2.824,0,0,1,2.82,2.82Z" transform="translate(-1.178 -0.447)"/>
    <path class="cls-3" d="M94.917,79.574H82.834c-.414,0-.749.585-.749,1.308s.335,1.308.749,1.308H94.917c.414,0,.749-.586.749-1.308S95.331,79.574,94.917,79.574Z" transform="translate(-1.178 -0.447)"/>
    <path class="cls-3" d="M95.229,64.439H83.145c-.414,0-.749.585-.749,1.308s.335,1.308.749,1.308H95.229c.414,0,.749-.586.749-1.308s-.335-1.308-.749-1.308Z" transform="translate(-1.178 -0.447)"/>
    <path class="cls-3" d="M95.005,49.439H82.922c-.414,0-.749.585-.749,1.308s.335,1.308.749,1.308H95.005c.414,0,.749-.586.749-1.308s-.336-1.308-.749-1.308Z" transform="translate(-1.178 -0.447)"/>
    <path class="cls-3" d="M95.643,84.227h-21.1a1.308,1.308,0,1,0,0,2.616h21.1a1.308,1.308,0,0,0,0-2.616Z" transform="translate(-1.178 -0.447)"/>
    <path class="cls-3" d="M95.955,69.093h-21.1a1.308,1.308,0,1,0,0,2.616h21.1a1.308,1.308,0,0,0,0-2.616Z" transform="translate(-1.178 -0.447)"/>
    <path class="cls-3" d="M95.732,54.093h-21.1a1.308,1.308,0,0,0,0,2.616h21.1a1.308,1.308,0,0,0,0-2.616Z" transform="translate(-1.178 -0.447)"/>
    <path class="cls-3" d="M39.151,37.407l-12.913,11.3a1.051,1.051,0,0,0-.1,1.483l25.5,29.14a1.053,1.053,0,0,0,.45.3L68.38,85.222a1.052,1.052,0,0,0,1.033-.2,1.028,1.028,0,0,0,.179-.2,1.05,1.05,0,0,0,.159-.794l-3.38-16.89a1.053,1.053,0,0,0-.239-.486l-25.5-29.14A1.051,1.051,0,0,0,39.151,37.407Z" transform="translate(-1.178 -0.447)"/>
    <polygon class="cls-2" points="63.187 67.372 64.645 74.655 58.855 79.688 51.858 77.286 27.236 49.148 38.565 39.234 63.187 67.372"/>
    <polygon class="cls-2" points="66.153 82.192 61.152 80.476 65.119 77.027 66.153 82.192"/>
    <path class="cls-3" d="M31.619,28.732l-13.031,11.4a1.037,1.037,0,0,0-.356.721,1.053,1.053,0,0,0,.257.762l4.722,5.4a1.051,1.051,0,0,0,1.483.1l13.03-11.4a1.034,1.034,0,0,0,.179-.2,1.052,1.052,0,0,0-.081-1.28l-4.723-5.4A1.051,1.051,0,0,0,31.619,28.732Z" transform="translate(-1.178 -0.447)"/>
    <path class="cls-3" d="M59.162,67.325a1.062,1.062,0,0,0,.179-.2,1.051,1.051,0,0,0-.081-1.279L42.5,46.684a1.051,1.051,0,0,0-1.582,1.384L57.679,67.226A1.051,1.051,0,0,0,59.162,67.325Z" transform="translate(-1.178 -0.447)"/>
    <polygon class="cls-2" points="34.497 34.248 23.049 44.266 19.711 40.452 31.159 30.433 34.497 34.248"/>
    <polygon class="cls-3" points="77.693 53.153 75.817 53.153 75.817 45.804 73.986 46.51 73.986 44.954 77.495 43.52 77.693 43.52 77.693 53.153"/>
    <path class="cls-3" d="M80.824,68.466H75.157V67.154l2.6-3.321a7.372,7.372,0,0,0,.731-1.209,2.435,2.435,0,0,0,.234-1,1.943,1.943,0,0,0-.221-1.008.706.706,0,0,0-.638-.365.819.819,0,0,0-.724.426,2.252,2.252,0,0,0-.268,1.2H75a3.584,3.584,0,0,1,.367-1.619A2.735,2.735,0,0,1,76.4,59.117a2.827,2.827,0,0,1,1.5-.406,2.7,2.7,0,0,1,2,.71,2.732,2.732,0,0,1,.71,2.018,3.831,3.831,0,0,1-.395,1.651,10.191,10.191,0,0,1-1.423,2.063l-1.236,1.77h3.27v1.542Z" transform="translate(-1.178 -0.447)"/>
    <path class="cls-3" d="M76.688,77.738h.9a.843.843,0,0,0,.758-.361,1.718,1.718,0,0,0,.241-.965,1.444,1.444,0,0,0-.248-.9.792.792,0,0,0-.663-.32.779.779,0,0,0-.638.307,1.2,1.2,0,0,0-.248.776H74.925a2.64,2.64,0,0,1,.347-1.353,2.416,2.416,0,0,1,.97-.933,3.191,3.191,0,0,1,3.466.395,2.662,2.662,0,0,1,.753,2A2.262,2.262,0,0,1,80.12,77.6a2.305,2.305,0,0,1-.9.855,2.068,2.068,0,0,1,1.015.875,2.738,2.738,0,0,1,.334,1.378,2.707,2.707,0,0,1-.816,2.059,2.987,2.987,0,0,1-2.144.776,2.631,2.631,0,0,1-2.774-2.769h1.869a1.393,1.393,0,0,0,.27.873.83.83,0,0,0,.688.354.913.913,0,0,0,.762-.361,1.514,1.514,0,0,0,.282-.958c0-.956-.37-1.437-1.1-1.441h-.918v-1.5Z" transform="translate(-1.178 -0.447)"/>
  </g>
</svg>
