<svg id="Слой_1" data-name="Слой 1" xmlns="http://www.w3.org/2000/svg" viewBox="0 0 126.015 126.015">
  <defs>
    <style>
      .cls-1 {
        fill: #dedede;
      }

      .cls-2 {
        fill: #fff;
      }

      .cls-3 {
        fill: #3d9be8;
      }
    </style>
  </defs>
  <title>2syn</title>
  <g id="Слой_1-2" data-name="Слой_1">
    <g id="_2270051353520" data-name=" 2270051353520">
      <path class="cls-1" d="M127.194,63.755a63.008,63.008,0,1,0-63.008,63.008A63.008,63.008,0,0,0,127.194,63.755Z" transform="translate(-1.178 -0.747)"/>
      <path class="cls-2" d="M122.3,63.755a58.11,58.11,0,1,0-58.11,58.11A58.11,58.11,0,0,0,122.3,63.755Z" transform="translate(-1.178 -0.747)"/>
    </g>
    <path class="cls-3" d="M47.372,22.161H86.29l13.743,14.931V96.02a3.357,3.357,0,0,1-3.347,3.347H47.372a3.357,3.357,0,0,1-3.347-3.347V90.742H19.384A3.654,3.654,0,0,1,15.741,87.1V60.381a3.654,3.654,0,0,1,3.643-3.643H44.025V25.508A3.356,3.356,0,0,1,47.372,22.161Zm-.265,34.614,40.529-.037a3.653,3.653,0,0,1,3.643,3.643V87.1a3.653,3.653,0,0,1-3.643,3.644L46.469,90.7l-.076,6.172,50.935.037L97.1,39.1l-13.8.026L83.413,24.5l-36.381.15Z" transform="translate(-1.178 -0.747)"/>
    <path class="cls-2" d="M25.92,78.056H24.2l-.761,5.305H21.178l.774-5.305H19.595V75.84h2.679l.541-3.669H20.4V69.954h2.732l.787-5.358h2.243l-.787,5.358h1.742L27.9,64.6h2.243l-.787,5.358h2.309v2.217h-2.63L28.5,75.84h2.345v2.217H28.177L27.4,83.361H25.146Zm-1.4-2.217h1.738l.532-3.669H25.058Z" transform="translate(-1.178 -0.747)"/>
    <path id="_1" data-name="1" class="cls-2" d="M37.036,72.3H38.8a1.644,1.644,0,0,0,1.478-.7,3.35,3.35,0,0,0,.471-1.882,2.817,2.817,0,0,0-.484-1.751,1.545,1.545,0,0,0-1.293-.625,1.519,1.519,0,0,0-1.245.6,2.346,2.346,0,0,0-.484,1.513H33.6a5.15,5.15,0,0,1,.677-2.639,4.713,4.713,0,0,1,1.892-1.821,6.226,6.226,0,0,1,6.761.77,5.2,5.2,0,0,1,1.469,3.911,4.419,4.419,0,0,1-.664,2.362A4.5,4.5,0,0,1,41.984,73.7a4.035,4.035,0,0,1,1.979,1.707,5.343,5.343,0,0,1,.651,2.688,5.281,5.281,0,0,1-1.593,4.016,5.823,5.823,0,0,1-4.183,1.513,5.133,5.133,0,0,1-5.41-5.4h3.646a2.719,2.719,0,0,0,.528,1.7,1.62,1.62,0,0,0,1.342.691,1.782,1.782,0,0,0,1.487-.7,2.954,2.954,0,0,0,.55-1.869c0-1.865-.721-2.8-2.155-2.811h-1.79Z" transform="translate(-1.178 -0.747)"/>
    <path id="_2" data-name="2" class="cls-2" d="M58.04,75.6a10.522,10.522,0,0,1-1.412,5.96,4.977,4.977,0,0,1-8.028.057,10.166,10.166,0,0,1-1.46-5.745V72.329a10.482,10.482,0,0,1,1.4-5.938,5,5,0,0,1,8.067-.022,10.317,10.317,0,0,1,1.43,5.815Zm-3.66-3.809a9.7,9.7,0,0,0-.435-3.339,1.463,1.463,0,0,0-1.368-1.113q-1.742,0-1.8,4.078v4.694a9.75,9.75,0,0,0,.444,3.391A1.474,1.474,0,0,0,52.6,80.617a1.411,1.411,0,0,0,1.32-1.043,9.063,9.063,0,0,0,.458-3.189Z" transform="translate(-1.178 -0.747)"/>
    <path id="_3" data-name="3" class="cls-2" d="M60.191,78.312a4.87,4.87,0,0,1,.6-2.406,9.313,9.313,0,0,1,2.248-2.428,14.343,14.343,0,0,1-1.122-2.125,5.4,5.4,0,0,1-.409-2.067A5.173,5.173,0,0,1,62.729,65.7,4.162,4.162,0,0,1,66,64.332,3.979,3.979,0,0,1,69.037,65.6a4.367,4.367,0,0,1,1.192,3.114,5.027,5.027,0,0,1-2.05,4.086l-1.03.84,2.411,3.365a8.873,8.873,0,0,0,.449-2.859h3.079a10.631,10.631,0,0,1-1.416,5.824L74.1,83.361H69.956l-.7-.972a6.274,6.274,0,0,1-3.84,1.236,5.084,5.084,0,0,1-3.8-1.456A5.265,5.265,0,0,1,60.191,78.312Zm5.424,2.3a3.168,3.168,0,0,0,1.922-.673l-2.965-4.2-.079.062a4.135,4.135,0,0,0-.642,2.287,3.041,3.041,0,0,0,.506,1.8A1.507,1.507,0,0,0,65.615,80.616Zm-.862-11.41a4.366,4.366,0,0,0,.875,2.256L66.235,71a2.652,2.652,0,0,0,.77-.862,2.56,2.56,0,0,0,.233-1.2,1.766,1.766,0,0,0-.365-1.135,1.1,1.1,0,0,0-.884-.462,1.034,1.034,0,0,0-.9.51A2.443,2.443,0,0,0,64.752,69.206Z" transform="translate(-1.178 -0.747)"/>
    <path id="_4" data-name="4" class="cls-2" d="M76.149,74.142l.928-9.545h9.083v3.114h-6.1l-.334,4.033a3.872,3.872,0,0,1,2.177-.708,4.225,4.225,0,0,1,3.576,1.649,7.539,7.539,0,0,1,1.258,4.663,6.685,6.685,0,0,1-1.5,4.548,5.011,5.011,0,0,1-3.994,1.729,5.519,5.519,0,0,1-2.745-.7,5.142,5.142,0,0,1-1.993-1.949,5.662,5.662,0,0,1-.739-2.837h3.607a3.452,3.452,0,0,0,.581,1.83,1.547,1.547,0,0,0,2.653-.22,5.413,5.413,0,0,0,.493-2.6,4.227,4.227,0,0,0-.59-2.455,1.894,1.894,0,0,0-1.641-.827,1.934,1.934,0,0,0-1.6.708l-.233.321-2.9-.748Z" transform="translate(-1.178 -0.747)"/>
  </g>
</svg>
