<svg id="Слой_1" data-name="Слой 1" xmlns="http://www.w3.org/2000/svg" xmlns:xlink="http://www.w3.org/1999/xlink" viewBox="0 0 126.015 126.015">
  <defs>
    <style>
      .cls-1 {
        fill: #dedede;
      }

      .cls-2, .cls-4, .cls-5 {
        fill: #fff;
      }

      .cls-3 {
        fill: #3d9be8;
      }

      .cls-4 {
        fill-opacity: 0.82;
      }

      .cls-5 {
        fill-opacity: 0.812;
      }

      .cls-6 {
        fill: #b1b6df;
      }

      .cls-7 {
        fill: url(#Безымянный_градиент);
      }

      .cls-8 {
        fill: url(#Безымянный_градиент_2);
      }

      .cls-9 {
        fill: #b6ffff;
      }

      .cls-10 {
        fill: #00005b;
        fill-opacity: 0.2;
      }

      .cls-11 {
        fill: url(#Безымянный_градиент_3);
      }

      .cls-12 {
        fill: url(#Безымянный_градиент_4);
      }

      .cls-13 {
        fill: url(#Безымянный_градиент_5);
      }

      .cls-14 {
        fill: url(#Безымянный_градиент_6);
      }

      .cls-15 {
        fill: url(#Безымянный_градиент_7);
      }

      .cls-16 {
        fill: url(#Безымянный_градиент_8);
      }

      .cls-17 {
        fill: url(#Безымянный_градиент_9);
      }

      .cls-18 {
        fill: url(#Безымянный_градиент_10);
      }

      .cls-19 {
        fill: url(#Безымянный_градиент_11);
      }

      .cls-20 {
        fill: url(#Безымянный_градиент_12);
      }

      .cls-21 {
        fill: url(#Безымянный_градиент_13);
      }

      .cls-22 {
        fill: url(#Безымянный_градиент_14);
      }

      .cls-23 {
        fill: url(#Безымянный_градиент_15);
      }

      .cls-24 {
        fill: url(#Безымянный_градиент_16);
      }

      .cls-25 {
        fill: none;
        stroke: #3d9be8;
        stroke-miterlimit: 22.926;
      }

      .cls-26 {
        fill: url(#Безымянный_градиент_17);
      }
    </style>
    <linearGradient id="Безымянный_градиент" data-name="Безымянный градиент" x1="13403.958" y1="-13435.395" x2="13672.538" y2="-13378.645" gradientTransform="matrix(0.028, 0, 0, -0.028, -350.767, -347.127)" gradientUnits="userSpaceOnUse">
      <stop offset="0" stop-color="#84bef1"/>
      <stop offset="1" stop-color="#605a78"/>
    </linearGradient>
    <linearGradient id="Безымянный_градиент_2" data-name="Безымянный градиент 2" x1="14113.914" y1="-14273.628" x2="14443.774" y2="-13614.108" gradientTransform="matrix(0.028, 0, 0, -0.028, -350.767, -347.127)" gradientUnits="userSpaceOnUse">
      <stop offset="0" stop-color="#3d9be8"/>
      <stop offset="0.38" stop-color="#6fb2f3"/>
      <stop offset="1" stop-color="#a2c9ff"/>
    </linearGradient>
    <linearGradient id="Безымянный_градиент_3" data-name="Безымянный градиент 3" x1="13810.281" y1="-13553.474" x2="14222.191" y2="-13647.394" xlink:href="#Безымянный_градиент"/>
    <linearGradient id="Безымянный_градиент_4" data-name="Безымянный градиент 4" x1="14286.086" y1="-13542.707" x2="14328.336" y2="-13581.177" gradientTransform="matrix(0.028, 0, 0, -0.028, -350.767, -347.127)" gradientUnits="userSpaceOnUse">
      <stop offset="0" stop-color="#605a78"/>
      <stop offset="0.38" stop-color="#6f81a7"/>
      <stop offset="1" stop-color="#7da9d7"/>
    </linearGradient>
    <linearGradient id="Безымянный_градиент_5" data-name="Безымянный градиент 5" x1="13610.387" y1="-13605.381" x2="13878.957" y2="-13548.631" xlink:href="#Безымянный_градиент"/>
    <linearGradient id="Безымянный_градиент_6" data-name="Безымянный градиент 6" x1="14320.338" y1="-14443.621" x2="14650.208" y2="-13784.101" xlink:href="#Безымянный_градиент_2"/>
    <linearGradient id="Безымянный_градиент_7" data-name="Безымянный градиент 7" x1="14016.712" y1="-13723.46" x2="14428.622" y2="-13817.38" xlink:href="#Безымянный_градиент"/>
    <linearGradient id="Безымянный_градиент_8" data-name="Безымянный градиент 8" x1="14492.508" y1="-13712.684" x2="14534.758" y2="-13751.164" xlink:href="#Безымянный_градиент_4"/>
    <linearGradient id="Безымянный_градиент_9" data-name="Безымянный градиент 9" x1="13816.817" y1="-13775.369" x2="14085.386" y2="-13718.619" xlink:href="#Безымянный_градиент"/>
    <linearGradient id="Безымянный_градиент_10" data-name="Безымянный градиент 10" x1="14526.772" y1="-14613.603" x2="14856.632" y2="-13954.092" xlink:href="#Безымянный_градиент_2"/>
    <linearGradient id="Безымянный_градиент_11" data-name="Безымянный градиент 11" x1="14223.131" y1="-13893.443" x2="14635.051" y2="-13987.373" xlink:href="#Безымянный_градиент"/>
    <linearGradient id="Безымянный_градиент_12" data-name="Безымянный градиент 12" x1="14698.941" y1="-13882.682" x2="14741.181" y2="-13921.152" xlink:href="#Безымянный_градиент_4"/>
    <linearGradient id="Безымянный_градиент_13" data-name="Безымянный градиент 13" x1="14023.236" y1="-13945.359" x2="14291.806" y2="-13888.609" xlink:href="#Безымянный_градиент"/>
    <linearGradient id="Безымянный_градиент_14" data-name="Безымянный градиент 14" x1="14733.192" y1="-14783.588" x2="15063.062" y2="-14124.068" xlink:href="#Безымянный_градиент_2"/>
    <linearGradient id="Безымянный_градиент_15" data-name="Безымянный градиент 15" x1="14429.561" y1="-14063.433" x2="14841.471" y2="-14157.363" xlink:href="#Безымянный_градиент"/>
    <linearGradient id="Безымянный_градиент_16" data-name="Безымянный градиент 16" x1="14905.37" y1="-14052.662" x2="14947.61" y2="-14091.142" xlink:href="#Безымянный_градиент_4"/>
    <linearGradient id="Безымянный_градиент_17" data-name="Безымянный градиент 17" x1="14229.62" y1="-15291.378" x2="13287.06" y2="-15253.898" gradientTransform="matrix(0.028, 0, 0, -0.028, -350.767, -347.127)" gradientUnits="userSpaceOnUse">
      <stop offset="0" stop-color="#d0e2f1"/>
      <stop offset="0.322" stop-color="#cddeee"/>
      <stop offset="1" stop-color="#65689e"/>
    </linearGradient>
  </defs>
  <title>3syn</title>
  <g id="Слой_1-2" data-name="Слой_1">
    <g id="_2270051302032" data-name=" 2270051302032">
      <path class="cls-1" d="M126.293,64.8a63.008,63.008,0,1,0-63.008,63.008A63.008,63.008,0,0,0,126.293,64.8Z" transform="translate(-0.278 -1.797)"/>
      <path class="cls-2" d="M121.4,64.8a58.11,58.11,0,1,0-58.11,58.11A58.11,58.11,0,0,0,121.4,64.8Z" transform="translate(-0.278 -1.797)"/>
    </g>
    <g id="_2270051296784" data-name=" 2270051296784">
      <g>
        <path class="cls-3" d="M42.364,52.267l3.59,3.14A21.689,21.689,0,0,1,86.121,67.33L85.2,66.5c0,.016,0,.035,0,.051l-3.492-3.145-2.772,3.074,6.929,6.237,0,0,2.991,2.691,2.77-3.072v0l6.238-6.927-2.991-2.693L90.832,67.2A26.4,26.4,0,0,0,42.364,52.267Z" transform="translate(-0.278 -1.797)"/>
        <path class="cls-3" d="M61.682,88.081a21.694,21.694,0,0,1-18.92-22.1l.922.83c0-.016,0-.034,0-.051l3.492,3.145,2.772-3.074L43.017,60.6l0,0-2.991-2.691-2.77,3.072h0l-6.238,6.927L34.012,70.6l4.039-4.486A26.4,26.4,0,0,0,86.52,81.052l-3.59-3.14a21.728,21.728,0,0,1-21.248,10.17Z" transform="translate(-0.278 -1.797)"/>
      </g>
    </g>
    <path class="cls-4" d="M94.026,87.343c5.943.75,10.913,5.342,10.913,11.58S98.987,109.174,92.3,109.174c-17.831,0-38.707.17-56.286.17-16.207,0-16.21-20.233-.568-21.806C34.727,77.484,41.66,66.1,53.42,66.1c6.839,0,14.073,5.055,17.3,10.4a19.886,19.886,0,0,1,9.552-2.106C85.212,74.392,92.493,80.554,94.026,87.343Z" transform="translate(-0.278 -1.797)"/>
    <g id="_2270051288912" data-name=" 2270051288912">
      <polygon class="cls-5" points="31.273 17.33 81.821 17.33 81.821 46.128 31.273 46.128 31.273 17.33"/>
      <path class="cls-6" d="M31.542,18.151l50.635.049c.062,0,.273-.031.315.039.166.279-.4.87-.4.87l0,.284H31.662L31.44,47.965c0,.026.664-.055.774.1.218.3-.2,1.079-.672,1.079a1.321,1.321,0,0,1-1.28-1.351V19.5A1.32,1.32,0,0,1,31.542,18.151Z" transform="translate(-0.278 -1.797)"/>
      <path class="cls-6" d="M82.518,49.292l-50.635-.049c-.062,0-.273.031-.314-.039-.166-.279.4-.871.4-.871l0-.284H82.4l.222-28.571c0-.026-.664.055-.774-.1-.218-.3.2-1.079.671-1.079a1.321,1.321,0,0,1,1.28,1.351V47.941A1.321,1.321,0,0,1,82.518,49.292Z" transform="translate(-0.278 -1.797)"/>
      <path class="cls-7" d="M30.951,47.667c0,.134-.074.243-.166.243s-.166-.109-.166-.243V19.948c.014-1.345,1.17-1.329,1.895-1.359l2.835.007c.233.011.229.272.011.274l-2.854-.009c-.942-.013-1.523.3-1.555,1.071Z" transform="translate(-0.278 -1.797)"/>
      <path class="cls-8" d="M75.451,49.179l-43.946-.056c.5-.835.126-1.209,3.038-1.236h4.713C49.925,48.083,64.75,48.733,75.451,49.179Z" transform="translate(-0.278 -1.797)"/>
      <path class="cls-9" d="M56.9,48.154a.533.533,0,1,1-.533.533A.533.533,0,0,1,56.9,48.154Z" transform="translate(-0.278 -1.797)"/>
      <path class="cls-9" d="M55.474,48.442a.239.239,0,1,1-.238.239A.239.239,0,0,1,55.474,48.442Z" transform="translate(-0.278 -1.797)"/>
      <path class="cls-3" d="M40.455,49.817H74.591a.512.512,0,0,1,.512.512h0a.512.512,0,0,1-.512.512H40.455a.512.512,0,0,1-.512-.512h0A.512.512,0,0,1,40.455,49.817Z" transform="translate(-0.278 -1.797)"/>
      <path class="cls-10" d="M73.809,37.785c-.442.446-2.4,2.551-2.883,3.122a1.8,1.8,0,0,1-2.53-2.552c.493-.582,2.794-2.953,3.36-3.483,1.712-1.6,4.382.565,2.053,2.912Z" transform="translate(-0.278 -1.797)"/>
      <path class="cls-3" d="M70.318,23.368a4.389,4.389,0,1,1-4.434,4.389A4.412,4.412,0,0,1,70.318,23.368Z" transform="translate(-0.278 -1.797)"/>
      <path class="cls-2" d="M70.313,24.158a3.6,3.6,0,1,1-3.632,3.6A3.614,3.614,0,0,1,70.313,24.158Z" transform="translate(-0.278 -1.797)"/>
      <path class="cls-2" d="M36.835,39.224A3.278,3.278,0,1,1,33.523,42.5,3.3,3.3,0,0,1,36.835,39.224Z" transform="translate(-0.278 -1.797)"/>
      <path class="cls-11" d="M39.19,42.149c-.4-.293.088-.361.2-.268a2.751,2.751,0,0,0,1.109.464c.862.164,1.127-.067,1.344-.279,5.706-5.586,1.776-1.737,7.981-7.931.931-.93,1.727-.128,2.254.348l1.975,1.945c.156.168-.026.347-.18.2l-1.988-1.959c-.649-.654-1.266-.836-1.82-.317L41.915,42.43a1.839,1.839,0,0,1-1.515.232A3.228,3.228,0,0,1,39.19,42.149Z" transform="translate(-0.278 -1.797)"/>
      <path class="cls-12" d="M54.426,36.789l.915.833a.136.136,0,0,1,.009.191h0a.136.136,0,0,1-.192.009l-.914-.833a.136.136,0,0,1-.009-.191h0A.136.136,0,0,1,54.426,36.789Z" transform="translate(-0.278 -1.797)"/>
      <path class="cls-10" d="M54.331,37.615c-.485-.49-2.171-2.093-3.522-3.351-2.464,2.376-7.619,7.378-8.284,8.105-2.166,2.369-7.171-.9-4.029-4.354.847-.932,9.372-9.026,10.336-9.868a2.9,2.9,0,0,1,4.34.287c.1.073.2.151.3.237.953.822,4.833,4.655,5.7,5.6C61.79,37.116,58.172,41.492,54.331,37.615Z" transform="translate(-0.278 -1.797)"/>
      <path class="cls-3" d="M32.051,46.515,50.5,28.067A.474.474,0,0,1,50.575,28h0a.486.486,0,0,1,.622.052L65.475,42.334l7.219-7.219a.489.489,0,0,1,.071-.091h0a.506.506,0,0,1,.7,0h0a.474.474,0,0,1,.062.076l8.343,8.343a.485.485,0,0,1,0,.684h0a.485.485,0,0,1-.684,0l-8.07-8.069-6.958,6.958,3.69,3.69a.485.485,0,0,1,0,.684h0a.486.486,0,0,1-.684,0L50.854,29.081,32.735,47.2a.485.485,0,0,1-.684,0h0a.485.485,0,0,1,0-.684Z" transform="translate(-0.278 -1.797)"/>
    </g>
    <g id="_2270051352624" data-name=" 2270051352624">
      <polygon class="cls-5" points="37.124 22.149 87.672 22.149 87.672 50.947 37.124 50.947 37.124 22.149"/>
      <path class="cls-6" d="M37.394,22.97l50.635.049c.062,0,.273-.031.315.039.166.279-.4.87-.4.87l0,.284H37.513l-.222,28.571c0,.026.664-.056.774.1.218.3-.2,1.079-.672,1.079a1.321,1.321,0,0,1-1.28-1.351V24.321A1.321,1.321,0,0,1,37.394,22.97Z" transform="translate(-0.278 -1.797)"/>
      <path class="cls-6" d="M88.369,54.111l-50.635-.049c-.062,0-.273.031-.315-.039-.165-.279.4-.871.4-.871l0-.284H88.25L88.472,24.3c0-.026-.664.055-.774-.1-.218-.3.2-1.079.672-1.079a1.321,1.321,0,0,1,1.28,1.351V52.759A1.321,1.321,0,0,1,88.369,54.111Z" transform="translate(-0.278 -1.797)"/>
      <path class="cls-13" d="M36.8,52.485c0,.134-.074.243-.166.243s-.166-.109-.166-.243V24.767c.015-1.345,1.17-1.329,1.9-1.359l2.834.007c.234.011.229.272.011.274l-2.854-.009c-.942-.013-1.523.3-1.555,1.071Z" transform="translate(-0.278 -1.797)"/>
      <path class="cls-14" d="M81.3,54l-43.946-.056c.5-.835.126-1.209,3.038-1.236h4.713C55.777,52.9,70.6,53.552,81.3,54Z" transform="translate(-0.278 -1.797)"/>
      <path class="cls-9" d="M62.749,52.972a.533.533,0,1,1-.533.533A.533.533,0,0,1,62.749,52.972Z" transform="translate(-0.278 -1.797)"/>
      <path class="cls-9" d="M61.325,53.261a.239.239,0,1,1-.239.239A.239.239,0,0,1,61.325,53.261Z" transform="translate(-0.278 -1.797)"/>
      <path class="cls-3" d="M46.306,54.635H80.442a.512.512,0,0,1,.512.512h0a.512.512,0,0,1-.512.512H46.306a.512.512,0,0,1-.512-.512h0A.512.512,0,0,1,46.306,54.635Z" transform="translate(-0.278 -1.797)"/>
      <path class="cls-10" d="M79.66,42.6c-.442.446-2.4,2.551-2.883,3.122a1.8,1.8,0,0,1-2.53-2.552c.493-.582,2.794-2.953,3.36-3.483,1.712-1.6,4.382.565,2.054,2.913Z" transform="translate(-0.278 -1.797)"/>
      <path class="cls-3" d="M76.169,28.186a4.389,4.389,0,1,1-4.434,4.389A4.412,4.412,0,0,1,76.169,28.186Z" transform="translate(-0.278 -1.797)"/>
      <path class="cls-2" d="M76.165,28.976a3.6,3.6,0,1,1-3.632,3.6A3.614,3.614,0,0,1,76.165,28.976Z" transform="translate(-0.278 -1.797)"/>
      <path class="cls-2" d="M42.686,44.043a3.278,3.278,0,1,1-3.311,3.278A3.295,3.295,0,0,1,42.686,44.043Z" transform="translate(-0.278 -1.797)"/>
      <path class="cls-15" d="M45.041,46.967c-.4-.293.088-.36.2-.268a2.753,2.753,0,0,0,1.109.464c.862.164,1.127-.067,1.344-.279,5.706-5.586,1.776-1.737,7.98-7.931.931-.93,1.727-.128,2.254.348.011.01,1.964,1.934,1.976,1.945.156.168-.026.347-.18.2l-1.988-1.959c-.649-.654-1.266-.836-1.82-.317l-8.153,8.081a1.84,1.84,0,0,1-1.515.232A3.231,3.231,0,0,1,45.041,46.967Z" transform="translate(-0.278 -1.797)"/>
      <path class="cls-16" d="M60.277,41.607l.915.833a.136.136,0,0,1,.009.192h0a.136.136,0,0,1-.192.009l-.914-.833a.136.136,0,0,1-.009-.191h0A.136.136,0,0,1,60.277,41.607Z" transform="translate(-0.278 -1.797)"/>
      <path class="cls-10" d="M60.183,42.433c-.485-.49-2.171-2.093-3.522-3.351-2.463,2.376-7.619,7.378-8.284,8.105-2.166,2.369-7.171-.9-4.029-4.354.847-.932,9.372-9.026,10.336-9.868a2.9,2.9,0,0,1,4.34.287c.1.073.2.151.3.237.953.822,4.833,4.655,5.7,5.6C67.642,41.934,64.024,46.31,60.183,42.433Z" transform="translate(-0.278 -1.797)"/>
      <path class="cls-3" d="M37.9,51.334,56.351,32.885a.459.459,0,0,1,.076-.062h0a.486.486,0,0,1,.622.052L71.326,47.152l7.219-7.22a.487.487,0,0,1,.071-.09h0a.506.506,0,0,1,.7,0h0a.467.467,0,0,1,.062.075l8.343,8.343a.485.485,0,0,1,0,.685h0a.485.485,0,0,1-.684,0l-8.069-8.069L72.01,47.837l3.69,3.69a.485.485,0,0,1,0,.684h0a.485.485,0,0,1-.684,0L56.7,33.9,38.587,52.018a.485.485,0,0,1-.684,0h0a.485.485,0,0,1,0-.684Z" transform="translate(-0.278 -1.797)"/>
    </g>
    <g id="_2270051343792" data-name=" 2270051343792">
      <polygon class="cls-5" points="42.975 26.967 93.523 26.967 93.523 55.765 42.975 55.765 42.975 26.967"/>
      <path class="cls-6" d="M43.245,27.788l50.635.049c.062,0,.274-.031.315.039.166.279-.4.871-.4.871l0,.284H43.365L43.143,57.6c0,.026.664-.056.774.1.218.3-.2,1.079-.672,1.079a1.321,1.321,0,0,1-1.28-1.351V29.14A1.321,1.321,0,0,1,43.245,27.788Z" transform="translate(-0.278 -1.797)"/>
      <path class="cls-6" d="M94.221,58.929,43.586,58.88c-.062,0-.273.031-.315-.039-.166-.279.4-.871.4-.871l0-.284H94.1l.222-28.572c0-.026-.664.056-.774-.1-.218-.3.2-1.079.672-1.079a1.321,1.321,0,0,1,1.28,1.351V57.578A1.32,1.32,0,0,1,94.221,58.929Z" transform="translate(-0.278 -1.797)"/>
      <path class="cls-17" d="M42.655,57.3c0,.134-.075.243-.166.243s-.166-.109-.166-.243V29.586c.014-1.345,1.17-1.329,1.9-1.359l2.834.007c.234.011.229.272.011.274L44.21,28.5c-.942-.013-1.523.3-1.555,1.071Z" transform="translate(-0.278 -1.797)"/>
      <path class="cls-18" d="M87.154,58.817,43.208,58.76c.5-.834.125-1.209,3.038-1.236h4.712C61.628,57.72,76.453,58.37,87.154,58.817Z" transform="translate(-0.278 -1.797)"/>
      <path class="cls-9" d="M68.6,57.791a.533.533,0,1,1-.532.533A.533.533,0,0,1,68.6,57.791Z" transform="translate(-0.278 -1.797)"/>
      <path class="cls-9" d="M67.177,58.08a.239.239,0,1,1-.239.238A.238.238,0,0,1,67.177,58.08Z" transform="translate(-0.278 -1.797)"/>
      <path class="cls-3" d="M52.158,59.454H86.294a.512.512,0,0,1,.512.512h0a.512.512,0,0,1-.512.512H52.158a.512.512,0,0,1-.512-.512h0A.512.512,0,0,1,52.158,59.454Z" transform="translate(-0.278 -1.797)"/>
      <path class="cls-10" d="M85.511,47.422c-.442.446-2.4,2.551-2.883,3.122a1.8,1.8,0,0,1-2.53-2.552c.493-.582,2.794-2.953,3.36-3.483,1.712-1.6,4.382.565,2.054,2.913Z" transform="translate(-0.278 -1.797)"/>
      <path class="cls-3" d="M82.021,33a4.389,4.389,0,1,1-4.434,4.389A4.412,4.412,0,0,1,82.021,33Z" transform="translate(-0.278 -1.797)"/>
      <path class="cls-2" d="M82.017,33.795a3.6,3.6,0,1,1-3.632,3.6A3.614,3.614,0,0,1,82.017,33.795Z" transform="translate(-0.278 -1.797)"/>
      <path class="cls-2" d="M48.538,48.861a3.278,3.278,0,1,1-3.311,3.278A3.295,3.295,0,0,1,48.538,48.861Z" transform="translate(-0.278 -1.797)"/>
      <path class="cls-19" d="M50.892,51.786c-.4-.293.088-.36.2-.268a2.748,2.748,0,0,0,1.109.464c.862.164,1.127-.067,1.344-.279,5.706-5.586,1.776-1.736,7.981-7.931.931-.93,1.727-.128,2.254.348l1.975,1.945c.156.168-.026.347-.179.2L63.59,44.3c-.649-.654-1.267-.836-1.82-.317l-8.153,8.081A1.84,1.84,0,0,1,52.1,52.3,3.231,3.231,0,0,1,50.892,51.786Z" transform="translate(-0.278 -1.797)"/>
      <path class="cls-20" d="M66.129,46.426l.915.833a.136.136,0,0,1,.009.192h0a.136.136,0,0,1-.191.009l-.915-.833a.136.136,0,0,1-.009-.192h0A.136.136,0,0,1,66.129,46.426Z" transform="translate(-0.278 -1.797)"/>
      <path class="cls-10" d="M66.034,47.252c-.485-.49-2.171-2.093-3.522-3.351-2.463,2.376-7.619,7.378-8.284,8.105-2.166,2.369-7.171-.9-4.029-4.354.847-.932,9.373-9.026,10.337-9.868a2.9,2.9,0,0,1,4.34.287c.1.073.2.151.3.236.953.823,4.833,4.655,5.7,5.6C73.493,46.753,69.875,51.129,66.034,47.252Z" transform="translate(-0.278 -1.797)"/>
      <path class="cls-3" d="M43.754,56.152,62.2,37.7a.471.471,0,0,1,.076-.062h0a.486.486,0,0,1,.622.052L77.178,51.971l7.219-7.22a.478.478,0,0,1,.071-.09h0a.505.505,0,0,1,.7,0h0a.483.483,0,0,1,.062.075l8.343,8.343a.485.485,0,0,1,0,.684h0a.485.485,0,0,1-.684,0L84.82,45.7l-6.958,6.958,3.69,3.69a.485.485,0,0,1,0,.684h0a.485.485,0,0,1-.684,0L62.556,38.718,44.438,56.837a.485.485,0,0,1-.684,0h0a.485.485,0,0,1,0-.684Z" transform="translate(-0.278 -1.797)"/>
    </g>
    <g id="_2270051335440" data-name=" 2270051335440">
      <polygon class="cls-5" points="48.827 31.786 99.375 31.786 99.375 60.584 48.827 60.584 48.827 31.786"/>
      <path class="cls-6" d="M49.1,32.607l50.635.049c.062,0,.274-.031.315.039.166.279-.4.871-.4.871l0,.284H49.216l-.222,28.571c0,.026.664-.055.774.1.218.3-.2,1.079-.672,1.079a1.321,1.321,0,0,1-1.28-1.351V33.958A1.321,1.321,0,0,1,49.1,32.607Z" transform="translate(-0.278 -1.797)"/>
      <path class="cls-6" d="M100.072,63.748,49.437,63.7c-.062,0-.273.031-.315-.039-.166-.279.4-.871.4-.871l0-.284H99.952l.222-28.571c0-.026-.664.056-.774-.1-.218-.3.2-1.079.671-1.079a1.321,1.321,0,0,1,1.28,1.351V62.4A1.32,1.32,0,0,1,100.072,63.748Z" transform="translate(-0.278 -1.797)"/>
      <path class="cls-21" d="M48.506,62.122c0,.134-.074.243-.166.243s-.166-.109-.166-.243V34.4c.014-1.346,1.17-1.329,1.895-1.359l2.835.007c.234.011.229.272.011.274l-2.854-.009c-.942-.013-1.523.3-1.556,1.071Z" transform="translate(-0.278 -1.797)"/>
      <path class="cls-22" d="M93.005,63.635l-43.946-.057c.5-.834.126-1.209,3.038-1.236h4.713C67.48,62.539,82.3,63.189,93.005,63.635Z" transform="translate(-0.278 -1.797)"/>
      <path class="cls-9" d="M74.452,62.609a.533.533,0,1,1-.533.533A.533.533,0,0,1,74.452,62.609Z" transform="translate(-0.278 -1.797)"/>
      <path class="cls-9" d="M73.028,62.9a.239.239,0,1,1-.238.238A.238.238,0,0,1,73.028,62.9Z" transform="translate(-0.278 -1.797)"/>
      <path class="cls-3" d="M58.009,64.272H92.145a.512.512,0,0,1,.512.512h0a.512.512,0,0,1-.512.512H58.009a.512.512,0,0,1-.512-.512h0A.512.512,0,0,1,58.009,64.272Z" transform="translate(-0.278 -1.797)"/>
      <path class="cls-10" d="M91.363,52.241c-.442.446-2.4,2.551-2.883,3.123a1.8,1.8,0,0,1-2.53-2.552c.493-.582,2.794-2.953,3.36-3.483,1.712-1.6,4.382.565,2.054,2.912Z" transform="translate(-0.278 -1.797)"/>
      <path class="cls-3" d="M87.873,37.823a4.389,4.389,0,1,1-4.434,4.389A4.412,4.412,0,0,1,87.873,37.823Z" transform="translate(-0.278 -1.797)"/>
      <path class="cls-2" d="M87.868,38.613a3.6,3.6,0,1,1-3.632,3.6A3.614,3.614,0,0,1,87.868,38.613Z" transform="translate(-0.278 -1.797)"/>
      <path class="cls-2" d="M54.389,53.68a3.278,3.278,0,1,1-3.311,3.278A3.295,3.295,0,0,1,54.389,53.68Z" transform="translate(-0.278 -1.797)"/>
      <path class="cls-23" d="M56.744,56.6c-.4-.293.088-.36.2-.268a2.752,2.752,0,0,0,1.109.464c.862.164,1.127-.067,1.344-.279,5.706-5.586,1.776-1.736,7.981-7.931.931-.93,1.727-.128,2.254.348l1.975,1.945c.156.168-.026.347-.179.2l-1.988-1.959c-.649-.654-1.266-.836-1.819-.317l-8.153,8.081a1.839,1.839,0,0,1-1.515.232A3.228,3.228,0,0,1,56.744,56.6Z" transform="translate(-0.278 -1.797)"/>
      <path class="cls-24" d="M71.98,51.244l.915.833a.136.136,0,0,1,.009.192h0a.136.136,0,0,1-.191.009l-.915-.833a.136.136,0,0,1-.009-.192h0A.135.135,0,0,1,71.98,51.244Z" transform="translate(-0.278 -1.797)"/>
      <path class="cls-10" d="M71.885,52.07c-.485-.49-2.171-2.093-3.522-3.351-2.464,2.376-7.619,7.378-8.284,8.105-2.166,2.369-7.171-.9-4.029-4.354.847-.931,9.372-9.026,10.337-9.868a2.9,2.9,0,0,1,4.34.287c.1.073.2.151.3.237.953.823,4.833,4.655,5.7,5.6C79.345,51.572,75.727,55.947,71.885,52.07Z" transform="translate(-0.278 -1.797)"/>
      <path class="cls-3" d="M49.605,60.971,68.054,42.523a.471.471,0,0,1,.076-.062h0a.485.485,0,0,1,.622.052L83.029,56.789l7.22-7.219a.456.456,0,0,1,.071-.09h0a.506.506,0,0,1,.7,0h0a.483.483,0,0,1,.062.075L99.425,57.9a.485.485,0,0,1,0,.684h0a.484.484,0,0,1-.684,0l-8.069-8.069-6.958,6.958,3.69,3.69a.485.485,0,0,1,0,.684h0a.485.485,0,0,1-.684,0L68.408,43.537,50.29,61.655a.486.486,0,0,1-.684,0h0a.485.485,0,0,1,0-.684Z" transform="translate(-0.278 -1.797)"/>
    </g>
    <path class="cls-25" d="M94.219,87.325c5.942.75,10.913,5.342,10.913,11.58s-5.952,10.252-12.638,10.252c-17.831,0-38.707.17-56.286.17C20,109.327,20,89.094,35.64,87.521c-.72-10.054,6.213-21.44,17.973-21.44,6.839,0,14.073,5.055,17.3,10.4a19.885,19.885,0,0,1,9.552-2.106C85.4,74.375,92.686,80.537,94.219,87.325Z" transform="translate(-0.278 -1.797)"/>
    <g id="_2270051330512" data-name=" 2270051330512">
      <path class="cls-10" d="M88.236,74.858c3.319,1.527,8,6.965,8.482,11.82.289,2.908-3.928,3.157-4.493.831-.778-3.2-2.429-6.088-6.47-8.891C83.629,77.143,84.868,73.309,88.236,74.858Z" transform="translate(-0.278 -1.797)"/>
      <path class="cls-10" d="M20.521,98.863c.044-9,10.879-13.156,12.294-12.879.461-22.543,26.177-30.06,39.539-14.213,3.593,3.591-1.89,7.675-4.612,4.5-10.213-11.61-20.773-6.6-25.69.223A16.92,16.92,0,0,0,39.23,86.845c.127,4.149-1.363,5.693-5.347,6.293-4.532.683-5.792,3.886-5.731,6.851C28.24,104.2,20.485,106.229,20.521,98.863Z" transform="translate(-0.278 -1.797)"/>
      <path class="cls-26" d="M54.6,68.882a12.987,12.987,0,0,0-4.27.732,17.438,17.438,0,0,0-8.79,6.617A16.8,16.8,0,0,0,38.788,85.7c-.089,3.241.5,5.963-4.255,6.768a11.183,11.183,0,0,0-4.266,1.411,6.007,6.007,0,0,0-2.2,3.039c-.915,3.042.586,5.533-3.771,6.463-.45.1-.624-.481-.094-.56a2.867,2.867,0,0,0,2.718-2.341,21.845,21.845,0,0,1,.653-4.236c1.2-3.14,3.831-4.036,7.175-4.483,3.614-.483,3.386-2.969,3.478-6.08.1-3.262.386-6.262,2.738-9.815a17.666,17.666,0,0,1,9.172-6.918,12.877,12.877,0,0,1,4.518-.733C55.365,68.241,55.548,68.867,54.6,68.882Z" transform="translate(-0.278 -1.797)"/>
    </g>
  </g>
</svg>
