<?xml version="1.0" encoding="UTF-8"?>
<!DOCTYPE svg PUBLIC "-//W3C//DTD SVG 1.1//EN" "http://www.w3.org/Graphics/SVG/1.1/DTD/svg11.dtd">
<!-- Creator: CorelDRAW 2017 -->
<svg xmlns="http://www.w3.org/2000/svg" xml:space="preserve" width="110mm" height="45mm" version="1.1" shape-rendering="geometricPrecision" text-rendering="geometricPrecision" image-rendering="optimizeQuality" fill-rule="evenodd" clip-rule="evenodd"
viewBox="0 0 11000 4500"
 xmlns:xlink="http://www.w3.org/1999/xlink"
 sodipodi:docbase="/home/mantisears"
 sodipodi:docname="Baidu.svg"
 inkscape:version="0.45.1"
 sodipodi:version="0.32"
 inkscape:output_extension="org.inkscape.output.svg.inkscape"
 xmlns:dc="http://purl.org/dc/elements/1.1/"
 xmlns:cc="http://web.resource.org/cc/"
 xmlns:rdf="http://www.w3.org/1999/02/22-rdf-syntax-ns#"
 xmlns:svg="http://www.w3.org/2000/svg"
 xmlns:sodipodi="http://sodipodi.sourceforge.net/DTD/sodipodi-0.dtd"
 xmlns:inkscape="http://www.inkscape.org/namespaces/inkscape"
 enable-background="new 0 0 231 79">
 <defs>
   <linearGradient id="id0" gradientUnits="userSpaceOnUse" x1="5955.54" y1="444.21" x2="4963.91" y2="2888.23">
    <stop offset="0" stop-opacity="1" stop-color="#1765AD"/>
    <stop offset="1" stop-opacity="1" stop-color="white"/>
   </linearGradient>
    <linearGradient id="id1" gradientUnits="userSpaceOnUse" x1="5462.92" y1="1680.13" x2="4258.21" y2="1642.69">
     <stop offset="0" stop-opacity="1" stop-color="#C4CEEF"/>
     <stop offset="1" stop-opacity="1" stop-color="#70ACE0"/>
    </linearGradient>
    <linearGradient id="id2" gradientUnits="userSpaceOnUse" x1="6661.56" y1="1680.12" x2="5456.85" y2="1642.69">
     <stop offset="0" stop-opacity="1" stop-color="#C4CEEF"/>
     <stop offset="1" stop-opacity="1" stop-color="#70ACE0"/>
    </linearGradient>
 </defs>
 <g id="Слой_x0020_1">
  <metadata id="CorelCorpID_0Corel-Layer"/>
  <g id="_1999199237216">
   <path fill="white" fill-rule="nonzero" d="M7370.21 3435.84c61.18,0 117.6,9.34 169.56,28.02 51.68,18.69 96.38,45.51 133.81,80 37.43,34.49 66.77,76.17 87.71,124.79 20.96,48.62 31.57,102.99 31.57,162.87 0,59.4 -10.34,113.53 -31.01,162.63 -20.95,49.1 -50,91.26 -87.43,126.71 -37.44,35.21 -81.85,62.51 -133.53,81.91 -51.68,19.4 -108.67,29.22 -170.68,29.22 -62.3,0 -119.56,-9.82 -171.52,-29.22 -51.68,-19.4 -96.38,-46.46 -133.81,-81.67 -37.44,-34.97 -66.49,-77.13 -87.44,-126.23 -20.67,-49.1 -31.01,-103.47 -31.01,-163.35 0,-60.36 10.62,-114.97 31.57,-163.59 20.95,-48.62 50.28,-90.06 88,-124.31 37.71,-34.49 82.41,-61.07 134.08,-79.76 51.68,-18.68 108.39,-28.02 170.13,-28.02zm-0.84 740.11c51.12,0 98.61,-7.67 142.19,-22.76 43.3,-15.33 81.01,-37.6 112.57,-67.06 31.85,-29.46 56.43,-65.63 73.75,-108.5 17.6,-42.64 26.26,-91.5 26.26,-146.11 0,-55.33 -8.94,-103.95 -26.54,-146.1 -17.88,-41.92 -42.46,-77.37 -73.75,-106.11 -31.56,-28.74 -68.71,-50.54 -111.45,-65.39 -43.02,-14.61 -89.96,-22.03 -140.8,-22.03 -51.68,0 -99.45,7.42 -143.02,22.51 -43.3,14.85 -81.01,36.89 -112.58,65.63 -31.85,28.74 -56.43,64.19 -74.31,106.1 -17.6,42.16 -26.54,90.54 -26.54,145.39 0,54.61 8.66,103.47 26.26,146.11 17.32,42.87 41.91,79.04 73.19,108.5 31.57,29.46 69,51.73 112.3,67.06 43.58,15.09 91.07,22.76 142.47,22.76z"/>
   <path fill="white" fill-rule="nonzero" d="M4105.15 3816.96c0,128.79 -38.22,226.14 -114.69,292.01 -76.51,65.9 -189.62,98.87 -339.36,98.87l-158.19 0 -125.03 -104.47 0 -641.51 0 -24.06 28.05 0 255.17 0c73.88,0 139,7.75 195.26,23.26 57.34,15.8 105.26,39.67 143.69,71.61l0.01 0c38.76,32.13 67.74,72.28 86.94,120.44 18.76,47.06 28.15,101.69 28.15,163.85zm-120.93 5.04c0,-45.6 -5.22,-86.01 -15.65,-121.4l-0.03 0.01c-5.03,-16.98 -11.85,-32.48 -20.39,-46.48 -8.6,-14.07 -19.02,-26.9 -31.22,-38.46 -12.06,-11.41 -26.32,-21.53 -42.76,-30.35l0 -0.1c-16.49,-8.84 -35.39,-16.37 -56.68,-22.59l-0.1 0c-21.73,-6.42 -46.23,-11.2 -73.51,-14.37 -27.72,-3.22 -58.87,-4.82 -93.48,-4.82l-163.52 0 0 568.38 163.52 0c34.22,0 65.14,-1.65 92.78,-4.99 27.24,-3.28 51.64,-8.2 73.2,-14.78 21.15,-6.39 40.17,-14.23 56.94,-23.51 16.34,-9.04 30.54,-19.43 42.49,-31.15 12.19,-11.94 22.74,-25.36 31.58,-40.25 8.81,-14.83 15.79,-30.99 20.89,-48.48 5.37,-18.29 9.36,-37.87 11.99,-58.73 2.64,-20.92 3.95,-43.57 3.95,-67.93z"/>
   <path fill="white" fill-rule="nonzero" d="M9851.35 3819.38c0,133.74 -39.68,234.82 -119.08,303.22 -79.45,68.43 -196.9,102.67 -352.39,102.67l-200.72 -4.62 -93.37 -77.17 0 -684.48 0 -24.97 29.12 0 264.97 0c76.72,0 144.33,8.04 202.75,24.15 59.54,16.41 109.31,41.19 149.21,74.36l0.01 0c40.25,33.36 70.34,75.05 90.28,125.06 19.48,48.87 29.22,97.23 29.22,161.78zm-65.54 9.78c0,-48.88 -0.29,-104.72 -27.1,-157.48 -28.25,-50.02 -55.17,-79.71 -67.85,-91.71 -45.1,-42.7 -114.29,-66.02 -207.03,-73.04 -28.79,-3.34 -69.5,-7.28 -105.44,-7.28l-227.67 -1.63 -4.27 669.45 231.19 2.15c35.52,0 78.27,-1.71 106.97,-5.17 53.77,-6.48 105.44,-16.78 166.29,-58.77 63.22,-34.96 102.33,-99.22 119.88,-159.42 11.95,-40.75 12.8,-75.07 15.03,-117.1z"/>
   <path fill="white" fill-rule="nonzero" d="M1256.01 3981.95c0,36.14 -7.26,68.35 -21.8,96.58 -14.76,28.68 -36.95,52.97 -66.57,72.83l-0.01 -0.02c-28.86,19.54 -64.05,34.06 -105.52,43.57 -40.4,9.27 -86.83,13.89 -139.26,13.89l-221.59 0 -113.14 -100.02 0 -647.32 0 -24.05 28.05 0 305.37 0c44.52,0 84.2,3.69 119.02,11.06 35.91,7.6 66.56,19.16 91.92,34.68 26.68,16.32 46.72,37.52 60.07,63.58 12.86,25.09 19.31,54.35 19.31,87.78 0,8.63 -0.55,17.98 -1.67,28.07 -1.05,9.44 -2.6,18.85 -4.66,28.17 -2.25,10.18 -5.42,20.06 -9.48,29.61 -4.01,9.42 -9.01,18.67 -14.98,27.74l0 0.19c-5.94,8.87 -13.08,17.42 -21.49,25.65 -7.98,7.8 -17.03,15.15 -27.21,22.04 7.6,2.69 14.75,5.69 21.45,9l0.02 -0.03c13.42,6.58 25.57,14.06 36.48,22.44 11.13,8.56 20.55,17.76 28.28,27.57l0.11 0.19c7.51,9.72 13.9,20.06 19.03,30.96 4.92,10.41 8.65,21.42 11.1,32.98l0.05 -0.01c2.34,10.49 4.09,21.11 5.29,31.86 1.23,11.04 1.83,21.36 1.83,31.01zm-550.29 126.02l216.61 0c73.73,0 128.07,-10.95 162.99,-32.83 32.23,-20.2 48.36,-51.27 48.36,-93.19 0,-12.05 -0.9,-22.89 -2.66,-32.5 -1.73,-9.48 -4.39,-18.36 -7.94,-26.6 -3.07,-7.14 -7.23,-13.6 -12.42,-19.35 -5.32,-5.9 -11.77,-11.2 -19.28,-15.88l-0.05 0.05c-8.37,-5.01 -18.02,-9.4 -29,-13.18 -11.47,-3.94 -24.7,-7.31 -39.75,-10.1l0.01 -0.04c-14.84,-2.65 -32.03,-4.68 -51.58,-6.08 -19.63,-1.4 -41.47,-2.1 -65.5,-2.1l-199.79 0 0 251.8zm0 -352.63l199 0c35.64,0 66.26,-2.41 91.88,-7.21 24.08,-4.52 43.47,-11.08 58.16,-19.66 13.35,-7.8 23.41,-18.31 30.13,-31.5 7.29,-14.28 10.95,-32.03 10.95,-53.23 0,-18.79 -3.37,-34.84 -10.09,-48.16l0.1 -0.04c-6.29,-12.45 -15.67,-22.74 -28.12,-30.88l-0.01 0.01c-13.27,-8.56 -31.28,-15.16 -53.99,-19.75 -24.18,-4.89 -53.34,-7.36 -87.45,-7.36l0 -0.09 -210.56 0.59 0 217.28z"/>
   <polygon fill="white" fill-rule="nonzero" points="6684.28,4226.52 6423.65,3601.52 6163.83,4224.59 5885.22,3589.93 5885.5,3417.91 6166.61,4065.59 6423.35,3418.7 6681.49,4067.53 6958.63,3419.02 6956.1,3586.66 "/>
   <polygon fill="white" fill-rule="nonzero" points="5798.55,3793.03 5799.76,4110.94 5899.48,4223.18 5898.28,3793.03 "/>
   <polygon fill="white" fill-rule="nonzero" points="5891.95,3892.88 5591.23,3891.67 5485.05,3791.95 5891.95,3793.15 "/>
   <path fill="white" fill-rule="nonzero" d="M5523.28 4220.95c-31.69,0 -62.16,-2.41 -91.46,-7.23 -29.15,-4.79 -57.1,-12.05 -83.9,-21.77l-0.11 0c-26.36,-9.62 -51.06,-21.32 -74,-35.07 -22.99,-13.76 -43.97,-29.42 -62.83,-46.92l0.05 -0.05c-38.15,-35.39 -67.44,-77.79 -87.85,-127.19 -10.09,-24.43 -17.72,-50.28 -22.85,-77.63 -5.12,-27.3 -7.7,-55.59 -7.7,-84.93 0,-29.57 2.58,-57.98 7.73,-85.27 5.16,-27.32 12.89,-53.13 23.19,-77.47l0 -0.1c10.42,-24.17 22.95,-46.7 37.59,-67.58 14.72,-21.01 31.47,-40.16 50.21,-57.44 18.89,-17.4 39.68,-32.81 62.34,-46.23 22.76,-13.48 47.21,-24.87 73.29,-34.18l0.11 0c26.24,-9.31 53.76,-16.32 82.58,-20.98 28.89,-4.68 58.86,-7.03 89.93,-7.03 23.85,0 47.37,1.33 70.55,3.99 23.14,2.67 45.29,6.61 66.41,11.82l0.11 0.09c21.48,5.33 41.69,11.76 60.59,19.24 19.27,7.63 37.41,16.42 54.37,26.32 12.37,7.53 -5.14,-3.81 23.66,15.69 0,0 2.55,126.02 2.74,128.26 -12.79,-15.48 -61.39,-48.8 -94.2,-62.11l-0.11 0c-11.61,-6.54 -23.9,-12.31 -36.89,-17.31 -13.52,-5.22 -27.96,-9.74 -43.32,-13.58 -15.28,-3.82 -31.41,-6.73 -48.41,-8.68 -16.67,-1.93 -34.56,-2.91 -53.66,-2.91 -23.09,0 -45.14,1.58 -66.1,4.75 -20.73,3.15 -40.43,7.83 -59.05,14.07l-0.22 0c-18.13,5.98 -35.22,13.63 -51.26,22.9 -15.99,9.25 -30.62,19.98 -43.86,32.15l-0.11 0.09c-13.5,12.29 -25.4,25.95 -35.73,41 -10.52,15.32 -19.54,32.23 -27.1,50.72l0 0.09c-7.66,18.45 -13.4,38.39 -17.24,59.86 -3.89,21.7 -5.81,44.97 -5.81,69.83 0,24.6 1.93,47.82 5.85,69.58 3.84,21.41 9.57,41.39 17.2,59.88l0 0.19c7.45,18.45 16.53,35.56 27.17,51.33 10.5,15.57 22.52,29.7 35.99,42.38 13.31,12.54 27.88,23.48 43.66,32.86 15.94,9.48 33.4,17.51 52.31,24.13l-0.01 0.03c18.94,6.51 38.91,11.42 59.81,14.69l0 0.02c20.74,3.24 42.88,4.87 66.34,4.87 32.84,0 63.44,-2.68 91.71,-8.01 27.94,-5.27 53.65,-13.12 77.06,-23.51l0.02 0.03c44.73,-20.07 83.01,-47.43 114.83,-82.04l44.31 68.86 -32.9 60.1c-10.66,8.2 -21.9,15.76 -33.69,22.72l-0.23 0.1c-12.72,7.4 -25.8,14.13 -39.22,20.14 -13.73,6.14 -27.64,11.51 -41.74,16.06 -14.15,4.61 -28.47,8.58 -42.91,11.89 -14.4,3.3 -29.42,6.06 -44.98,8.26l-0.21 0c-15.9,2.11 -31.14,3.67 -45.68,4.65 -15.52,1.04 -30.97,1.58 -46.37,1.58z"/>
   <polygon fill="white" fill-rule="nonzero" points="4156.4,4109.66 4156.4,3462.91 4156.4,3438.85 4273.99,3528.5 4273.99,4210.25 "/>
   <path fill="white" fill-rule="nonzero" d="M7829.95 4121.25l0 -646.75 0.76 -52.93 342.5 -0.62c72.75,-0.12 154.93,13.49 209.5,62.42 86.54,77.58 93.96,269.23 -8.63,341.39 -68.13,47.92 -142.75,43.49 -236.33,45.71l300.27 352.24 -81.11 0 -343.73 -401.75 241.56 -6.38c68.87,-1.81 89.36,-31.76 110.5,-53.03 51.31,-51.64 29.12,-189.97 -12.49,-237.76 -37.87,-43.49 -99.58,-46.43 -179.93,-46.36l-284.94 0.24 0.87 744.17 -58.8 -100.59z"/>
   <polygon fill="white" fill-rule="nonzero" points="2672.3,3718.76 2672.3,4195.52 2672.3,4219.57 2554.7,4118.11 2554.7,3472.23 2554.7,3448.18 3150.72,3973.79 3150.72,3472.23 3150.72,3448.18 3268.32,3537.82 3268.32,4195.52 3268.32,4219.57 "/>
   <polygon fill="white" fill-rule="nonzero" points="4458.78,3707.98 4458.78,4184.74 4458.78,4208.79 4341.19,4107.33 4341.19,3461.45 4341.19,3437.4 4937.21,3963.01 4937.21,3461.45 4937.21,3437.4 5054.8,3527.04 5054.8,4184.74 5054.8,4208.79 "/>
   <polygon fill="white" fill-rule="nonzero" points="2489.92,4211.76 1982.98,4211.76 1853.23,4110.9 1853.23,3464.42 1853.23,3440.37 1881.28,3440.37 2397.88,3440.37 2497.47,3541.2 2469.42,3541.2 1970.83,3541.2 1970.83,3760.78 2436.31,3760.78 2464.36,3760.78 2464.36,3784.83 2464.36,3837.56 2464.36,3861.61 2436.31,3861.61 1970.83,3861.61 1970.83,4110.93 2414.17,4110.93 2517.97,4211.76 "/>
   <polygon fill="white" fill-rule="nonzero" points="1822.64,4207.84 1325.95,4207.84 1297.9,4207.84 1297.9,4183.79 1297.9,3460.5 1297.9,3436.45 1415.5,3531.46 1415.5,4107.01 1739.88,4107.01 1850.69,4207.84 "/>
   <polygon fill="white" fill-rule="nonzero" points="9048,4223.79 8551.32,4223.79 8523.27,4223.79 8521.86,4193.83 8521.86,3470.54 8521.49,3425.97 8585.72,3488.88 8582.86,4172.9 8980.58,4172.89 9037.54,4223.79 "/>
   <path fill="white" d="M10249.59 3421.37c-200.77,0 -363.53,97.71 -363.53,218.24 0,200.37 269.64,218.4 363.54,218.01 216.92,5.16 294.29,55.24 292.01,158.2 -2.28,102.96 -131.65,158.22 -294.04,158.22 -153.79,0 -245.83,-34.79 -332.99,-170.6l-0.15 99.84c56.16,76.99 184.18,130.79 333.14,130.79 200.77,0 363.54,-97.72 363.54,-218.25 0,-159.73 -153.86,-211.97 -363.54,-218.24 -104.29,-2.44 -292.02,-17.1 -292.02,-157.96 0,-87.38 131.65,-158.22 294.04,-158.22 120.11,0 210.26,27.01 283.75,105.67 62.46,66.84 48.53,88.94 49.4,-34.92 -56.17,-76.99 -184.18,-130.78 -333.15,-130.78z"/>
  </g>
  <path fill="white" fill-rule="nonzero" d="M31050.58 -6517.42c240.36,0 462.06,36.7 666.2,110.1 203.05,73.41 378.67,178.8 525.73,314.31 147.07,135.51 262.32,299.26 344.63,490.29 82.32,191.04 124.02,404.66 124.02,639.92 0,233.38 -40.61,446.05 -121.82,638.97 -82.32,192.91 -196.46,358.54 -343.53,497.82 -147.08,138.33 -321.58,245.61 -524.64,321.83 -203.05,76.22 -426.94,114.81 -670.59,114.81 -244.76,0 -469.75,-38.59 -673.9,-114.81 -203.05,-76.22 -378.65,-182.56 -525.72,-320.89 -147.08,-137.4 -261.22,-303.02 -343.54,-495.93 -81.21,-192.92 -121.82,-406.54 -121.82,-641.8 0,-237.15 41.7,-451.71 124.02,-642.75 82.31,-191.03 197.56,-353.82 345.73,-488.4 148.17,-135.51 323.78,-239.96 526.82,-313.37 203.05,-73.4 425.85,-110.1 668.41,-110.1zm-3.3 2907.85c200.85,0 387.44,-30.12 558.65,-89.4 170.12,-60.24 318.3,-147.75 442.31,-263.5 125.12,-115.75 221.71,-257.84 289.76,-426.29 69.15,-167.51 103.17,-359.49 103.17,-574.04 0,-217.39 -35.13,-408.42 -104.28,-574.04 -70.24,-164.69 -166.81,-303.97 -289.74,-416.89 -124.02,-112.92 -270,-198.56 -437.92,-256.9 -169.02,-57.41 -353.41,-86.58 -553.17,-86.58 -203.05,0 -390.73,29.17 -561.95,88.45 -170.11,58.35 -318.28,144.92 -442.31,257.86 -125.12,112.92 -221.7,252.19 -291.95,416.88 -69.14,165.62 -104.26,355.72 -104.26,571.22 0,214.55 34.02,406.53 103.17,574.04 68.05,168.45 164.64,310.54 287.56,426.29 124.03,115.75 271.09,203.26 441.21,263.5 171.22,59.28 357.81,89.4 559.75,89.4z"/>
  <sodipodi:namedview inkscape:current-layer="g2993" inkscape:window-maximized="1" inkscape:window-y="-8" inkscape:window-x="-8" inkscape:window-height="1018" inkscape:pageshadow="2" inkscape:pageopacity="0" inkscape:window-width="1920" id="namedview2987" pagecolor="#ffffff" bordercolor="#666666" gridtolerance="10" guidetolerance="10" objecttolerance="10" borderopacity="1" inkscape:cx="278.75" inkscape:cy="106.25" inkscape:zoom="0.59730942" showgrid="false"/>
  <sodipodi:namedview id="base" inkscape:current-layer="Layer_1" inkscape:window-y="138" inkscape:window-x="138" inkscape:window-width="765" inkscape:window-height="575" inkscape:pageshadow="2" inkscape:pageopacity="0.0" inkscape:cy="87.802316" inkscape:cx="147" inkscape:zoom="1.2823129" pagecolor="#ffffff" bordercolor="#666666" borderopacity="1.0" objecttolerance="10.0" gridtolerance="10.0" guidetolerance="10.0"/>
  <polygon fill="url(#id0)" points="5459.73,329.68 6062.3,663.82 6664.88,997.95 6664.88,1666.22 6664.88,2334.49 6062.3,2668.63 5459.73,3002.76 4857.15,2668.63 4254.57,2334.49 4254.57,1666.22 4254.57,997.95 4857.15,663.82 "/>
  <g id="_1999198830784">
   <polygon fill="url(#id1)" points="4257.98,993.14 5463.14,1661.41 4257.98,2329.68 "/>
   <polygon fill="url(#id2)" points="6661.78,993.14 5456.63,1661.41 6661.78,2329.68 "/>
   <polygon fill="#1765AD" points="5451.23,534.25 5453.21,533.24 6461.88,1097.11 6337.06,1180.73 6325.83,1174.81 6325.87,1164.85 6305.3,1164 6253.4,1136.64 6253.18,1122.77 6227.28,1122.87 6174.78,1095.19 6174.68,1081.12 6147.61,1080.87 6095.15,1053.22 6095.07,1040.6 6070.01,1039.96 6016.94,1011.99 6016.76,997.7 5989.64,997.6 5937.14,969.92 5936.89,956.69 5911.92,956.63 5858.03,927.94 5832,927.73 5832,914.5 5780.5,887.36 5780.32,874.28 5754.7,873.76 5701.86,845.91 5702.13,832.22 5675.5,832.01 5623.26,804.48 5623.29,791.1 5597.83,791.07 5544.78,763.11 5544.6,749.44 5517.48,748.72 5464.67,720.89 5464.47,713.34 5451.23,713.17 "/>
   <polygon fill="#70ACE0" points="4441.04,1091.01 5452.29,533.39 5453.47,533.99 5453.47,713.37 5437.3,713.16 5437.11,723.11 5307.13,792.49 5280.89,792.61 5281.06,806.4 5228.55,834.43 5202.98,834.37 5202.91,848.12 5150.6,876.04 5124.66,876.03 5124.59,889.93 5071.44,918.3 5046.16,919.18 5046.45,931.64 4993.6,1003.56 4967.1,1004.9 4967.1,1031.73 4916.93,1005.69 4917.38,1057.33 4888.44,1057.98 4835.76,1044.11 4810.02,1044.28 4810.18,1057.75 4757.55,1085.85 4730.9,1087.2 4730.9,1099.51 4678.42,1127.49 4652.3,1127.15 4651.87,1141.64 4599.49,1138.19 4573.06,1138.39 4573.06,1135.88 4520.92,1128.99 4520.87,1101.98 4494.55,1102.07 "/>
   <rect fill="#70ACE0" x="4478.17" y="1426.98" width="52.47" height="51.46"/>
   <rect fill="#2086D1" x="5541.46" y="1584.75" width="52.47" height="51.46"/>
   <rect fill="#70ACE0" x="4439.84" y="1348.62" width="52.47" height="130.33"/>
   <rect fill="#99FFFF" x="5226.53" y="1428.36" width="52.47" height="51.46"/>
   <rect fill="#70ACE0" x="5306.85" y="1349.52" width="52.47" height="51.46"/>
   <rect fill="#1765AD" x="5541.08" y="1427.67" width="52.47" height="51.46"/>
   <rect fill="#2086D1" x="5697.99" y="1427.99" width="52.47" height="51.46"/>
   <rect fill="#2086D1" x="6325.67" y="1429.27" width="52.47" height="51.46"/>
   <rect fill="#70ACE0" x="4439.44" y="1270.4" width="133.61" height="51.46"/>
   <rect fill="#70ACE0" x="4479.14" y="1093.52" width="52.47" height="44.83"/>
   <rect fill="#70ACE0" x="4913.92" y="1189.41" width="51.2" height="160.71"/>
   <rect fill="#70ACE0" x="5226.14" y="1271.28" width="131.53" height="51.46"/>
   <rect fill="#1765AD" x="5540.68" y="1269.77" width="130.77" height="51.46"/>
   <rect fill="#1765AD" x="5697.61" y="1232.96" width="52.47" height="10.07"/>
   <rect fill="#1765AD" x="5854.53" y="1271.23" width="52.47" height="51.46"/>
   <rect fill="#1765AD" x="6011.44" y="1271.55" width="52.47" height="51.46"/>
   <rect fill="#28528C" x="6325.28" y="1272.19" width="52.47" height="129.73"/>
   <rect fill="#70ACE0" x="4599.48" y="1111.37" width="52.81" height="51.17"/>
   <rect fill="#1765AD" x="5544.17" y="1112.61" width="52.47" height="51.46"/>
   <rect fill="#1765AD" x="6172.76" y="1076.68" width="53.38" height="86.68"/>
   <rect fill="#70ACE0" x="4756.79" y="1034.52" width="52.47" height="51.46"/>
   <rect fill="#1765AD" x="5701.01" y="829.35" width="52.47" height="254.68"/>
   <rect fill="#70ACE0" x="5228.53" y="796.41" width="52.47" height="51.46"/>
   <rect fill="#1765AD" x="5463.04" y="794.48" width="133.62" height="53.8"/>
   <rect fill="#70ACE0" x="5150.13" y="1109.81" width="209.99" height="51.46"/>
   <rect fill="#70ACE0" x="4518.25" y="1353.72" width="52.48" height="206.87"/>
   <rect fill="#99FFFF" x="4988.54" y="1189.02" width="52.48" height="206.09"/>
   <rect fill="#99FFFF" x="5147.19" y="1427.33" width="52.48" height="53.51"/>
   <rect fill="#99FFFF" x="5306.7" y="1428.27" width="52.48" height="53.51"/>
   <rect fill="#70ACE0" x="5384.8" y="1265.67" width="52.48" height="133.35"/>
   <rect fill="#1765AD" x="5619.37" y="1425.63" width="52.48" height="53.51"/>
   <rect fill="#2086D1" x="5776.29" y="1425.95" width="52.48" height="53.51"/>
   <rect fill="#1765AD" x="6403.96" y="1427.23" width="52.48" height="128.84"/>
   <rect fill="#99FFFF" x="4836.2" y="1188.97" width="52.48" height="105.35"/>
   <rect fill="#70ACE0" x="5146.8" y="1270.25" width="52.48" height="53.51"/>
   <rect fill="#70ACE0" x="5227.15" y="1029.55" width="132.01" height="53.51"/>
   <rect fill="#70ACE0" x="5462.06" y="1268.23" width="52.48" height="53.51"/>
   <rect fill="#2086D1" x="5775.9" y="1268.87" width="52.48" height="53.51"/>
   <rect fill="#1765AD" x="5932.82" y="1269.19" width="52.48" height="53.51"/>
   <rect fill="#70ACE0" x="4678.33" y="1051.72" width="52.48" height="87.21"/>
   <rect fill="#1765AD" x="5620.01" y="1110.13" width="52.48" height="105.93"/>
   <rect fill="#1765AD" x="6252.17" y="1110.46" width="52.48" height="54.49"/>
   <rect fill="#70ACE0" x="4835.96" y="1004.97" width="52.48" height="112.86"/>
   <rect fill="#1765AD" x="5728.43" y="1031.23" width="104.36" height="53.51"/>
   <rect fill="#1765AD" x="5779.52" y="874.21" width="52.48" height="53.51"/>
   <rect fill="#70ACE0" x="4993.6" y="900.84" width="52.48" height="102.72"/>
   <rect fill="#70ACE0" x="5150.41" y="814.29" width="52.48" height="113.42"/>
   <rect fill="#70ACE0" x="5307.04" y="716.31" width="87.2" height="207.02"/>
   <rect fill="#70ACE0" x="5385.64" y="1109.79" width="52.48" height="134.24"/>
   <rect fill="#1765AD" x="5463.66" y="715.73" width="52.48" height="53.51"/>
   <rect fill="#1765AD" x="6409.4" y="1097.12" width="52.48" height="222.81"/>
   <rect fill="#70ACE0" x="4439.48" y="1090.12" width="53.08" height="72.39"/>
   <rect fill="#70ACE0" x="4441.54" y="1581.15" width="53.08" height="53.18"/>
   <rect fill="#70ACE0" x="5384.12" y="679.84" width="53.08" height="404.34"/>
   <rect fill="#2086D1" x="5541.04" y="1505.84" width="53.08" height="52.06"/>
   <rect fill="#28528C" x="6325.63" y="1507.44" width="53.08" height="52.06"/>
   <rect fill="#70ACE0" x="5068.47" y="1350.46" width="53.08" height="82.42"/>
   <rect fill="#99FFFF" x="5226.1" y="1349.45" width="53.08" height="52.06"/>
   <rect fill="#1765AD" x="5540.65" y="1348.76" width="53.08" height="130.37"/>
   <rect fill="#2086D1" x="5854.49" y="1349.4" width="53.08" height="52.06"/>
   <rect fill="#70ACE0" x="4439.02" y="1156.59" width="53.08" height="128.74"/>
   <rect fill="#70ACE0" x="4751.4" y="1111.93" width="53.08" height="130.82"/>
   <rect fill="#70ACE0" x="5225.72" y="1192.37" width="53.08" height="124.66"/>
   <rect fill="#1765AD" x="5540.27" y="1191.67" width="53.08" height="52.06"/>
   <rect fill="#1765AD" x="5636.88" y="1190.97" width="113.38" height="52.06"/>
   <rect fill="#1765AD" x="5854.1" y="1192.31" width="53.08" height="52.06"/>
   <rect fill="#1765AD" x="6171.63" y="1188.44" width="53.08" height="52.06"/>
   <rect fill="#1765AD" x="6324.85" y="1085.41" width="110.78" height="159.92"/>
   <rect fill="#1765AD" x="5858.02" y="909.01" width="53.08" height="249.66"/>
   <rect fill="#1765AD" x="5699.74" y="1112.02" width="53.08" height="52.06"/>
   <rect fill="#70ACE0" x="5071.48" y="818.84" width="53.08" height="501.81"/>
   <rect fill="#70ACE0" x="5228.11" y="874.32" width="53.08" height="122.96"/>
   <rect fill="#1765AD" x="5543.58" y="730.66" width="53.08" height="117.31"/>
   <rect fill="#70ACE0" x="5153.41" y="954.49" width="128.46" height="52.06"/>
   <rect fill="#1765AD" x="6015.75" y="988.95" width="53.08" height="251.39"/>
   <rect fill="#70ACE0" x="4914.01" y="956.62" width="53.08" height="208.52"/>
   <rect fill="#70ACE0" x="4520.58" y="1111.24" width="52.48" height="211.14"/>
   <rect fill="#70ACE0" x="6406.92" y="1573.27" width="52.48" height="52.48"/>
   <rect fill="#70ACE0" x="5385.59" y="1427.71" width="52.48" height="52.48"/>
   <rect fill="#2086D1" x="5620.59" y="1505.02" width="52.48" height="52.48"/>
   <rect fill="#70ACE0" x="4518.96" y="1303.8" width="52.48" height="147.73"/>
   <rect fill="#99FFFF" x="5148.02" y="1349.64" width="52.48" height="52.48"/>
   <rect fill="#1765AD" x="5463.28" y="1347.62" width="52.48" height="287.45"/>
   <rect fill="#2086D1" x="5620.2" y="1347.94" width="52.48" height="52.48"/>
   <rect fill="#1765AD" x="5701.01" y="1348.26" width="128.59" height="52.48"/>
   <rect fill="#1765AD" x="5934.04" y="1348.58" width="52.48" height="52.48"/>
   <rect fill="#1765AD" x="6404.79" y="1349.54" width="52.48" height="52.48"/>
   <rect fill="#99FFFF" x="5147.63" y="1192.56" width="52.48" height="52.48"/>
   <rect fill="#99FFFF" x="5302.54" y="952.98" width="52.48" height="52.48"/>
   <rect fill="#1765AD" x="5619.81" y="1190.86" width="52.48" height="52.48"/>
   <rect fill="#1765AD" x="5778.99" y="1110.37" width="52.48" height="133.29"/>
   <rect fill="#1765AD" x="5880.64" y="1191.5" width="105.49" height="52.48"/>
   <rect fill="#2086D1" x="6094.67" y="1188.54" width="52.48" height="52.48"/>
   <rect fill="#1765AD" x="5621.78" y="954.01" width="52.48" height="132.25"/>
   <rect fill="#1765AD" x="5936.13" y="953.18" width="52.48" height="131.69"/>
   <rect fill="#1765AD" x="5541.44" y="1033.78" width="132.51" height="52.48"/>
   <rect fill="#70ACE0" x="4751.41" y="1032.85" width="136.43" height="128.96"/>
   <rect fill="#1765AD" x="5780.9" y="953.64" width="52.48" height="51.61"/>
   <rect fill="#1765AD" x="5543.05" y="874.65" width="52.48" height="51.83"/>
   <rect fill="#70ACE0" x="4992.99" y="1029.39" width="52.48" height="52.48"/>
   <rect fill="#1765AD" x="5463.05" y="795.07" width="52.48" height="136"/>
   <rect fill="#1765AD" x="5621.9" y="795.57" width="52.48" height="131.05"/>
   <rect fill="#70ACE0" x="5149.72" y="954.49" width="52.48" height="131.44"/>
   <rect fill="#1765AD" x="6094.06" y="1034.69" width="52.87" height="76.76"/>
   <rect fill="#70ACE0" x="4914.01" y="1112.74" width="130.79" height="52.48"/>
   <rect fill="#1765AD" x="5936.67" y="1113.98" width="52.48" height="99.71"/>
   <rect fill="#99FFFF" x="5309.16" y="1505.35" width="52.48" height="53.51"/>
   <rect fill="#99FFFF" x="5387.06" y="1505.35" width="52.48" height="53.51"/>
   <rect fill="#99FFFF" x="5385.42" y="1582.43" width="52.48" height="53.51"/>
   <rect fill="#99FFFF" x="5231.27" y="1504.53" width="52.48" height="53.51"/>
   <rect fill="#99FFFF" x="4679.84" y="1161.76" width="52.48" height="53.51"/>
   <rect fill="#1765AD" x="5463.58" y="954.91" width="52.48" height="286.11"/>
   <rect fill="#1765AD" x="5893.23" y="952.81" width="52.48" height="51.61"/>
   <polygon fill="white" points="5451.71,2772.26 6462.85,2215.74 6338.03,2105.51 6326.8,2111.43 6326.84,2121.4 6306.28,2122.24 6254.37,2149.61 6254.15,2163.47 6228.25,2163.37 6175.75,2191.05 6175.65,2205.13 6148.58,2205.37 6096.12,2233.03 6096.05,2245.64 6070.98,2246.28 6017.91,2274.25 6017.74,2288.54 5990.61,2288.64 5938.11,2316.32 5937.86,2329.55 5912.89,2329.62 5859,2358.31 5832.97,2358.51 5832.97,2371.74 5781.47,2398.88 5781.3,2411.96 5755.67,2412.48 5702.83,2440.33 5703.1,2454.03 5676.47,2454.23 5624.23,2481.77 5624.26,2495.15 5598.8,2495.17 5545.75,2523.14 5545.57,2536.81 5518.45,2537.52 5465.65,2565.35 5465.45,2572.9 5452.2,2573.07 "/>
   <polygon fill="#0A3A7A" points="4443.5,2222 5451.71,2772.26 5454.44,2572.88 5438.27,2573.09 5438.08,2563.14 5308.1,2493.76 5281.86,2493.63 5282.04,2479.84 5229.53,2451.81 5203.95,2451.88 5203.88,2438.13 5151.57,2410.2 5125.63,2410.21 5125.56,2396.32 5072.41,2367.94 5047.13,2367.07 5047.43,2354.61 4994.57,2282.68 4968.07,2281.35 4968.07,2254.51 4917.9,2280.55 4918.35,2228.91 4889.41,2228.27 4836.73,2242.14 4810.99,2241.96 4811.16,2228.49 4758.52,2200.4 4731.87,2199.04 4731.87,2186.74 4679.39,2158.76 4653.27,2159.1 4652.84,2144.6 4600.46,2148.05 4574.03,2147.85 4574.03,2150.37 4521.89,2157.25 4521.84,2184.27 4495.52,2184.18 "/>
   <rect fill="white" x="5701.99" y="2202.21" width="52.47" height="254.68"/>
   <rect fill="#0A3A7A" x="5229.5" y="2438.37" width="52.47" height="51.46"/>
   <rect fill="white" x="5464.02" y="2437.97" width="133.62" height="53.8"/>
   <rect fill="#0A3A7A" x="5151.38" y="2358.53" width="52.48" height="113.42"/>
   <rect fill="#0A3A7A" x="5308.01" y="2362.92" width="87.2" height="207.02"/>
   <rect fill="white" x="5464.63" y="2517" width="52.48" height="53.51"/>
   <rect fill="#0A3A7A" x="5385.09" y="2202.06" width="53.08" height="404.34"/>
   <rect fill="#0A3A7A" x="5072.46" y="1965.59" width="53.08" height="501.81"/>
   <rect fill="white" x="5544.55" y="2438.27" width="53.08" height="117.31"/>
   <rect fill="white" x="5464.02" y="2355.17" width="52.48" height="136"/>
   <rect fill="white" x="5622.87" y="2359.62" width="52.48" height="131.05"/>
   <rect fill="#1765AD" x="4521.05" y="1583.44" width="52.47" height="51.46"/>
   <rect fill="#1765AD" x="4441.06" y="1508.7" width="52.47" height="51.46"/>
   <rect fill="#70ACE0" x="5541.66" y="1653.52" width="52.47" height="51.46"/>
   <rect fill="#70ACE0" x="6327.02" y="1648.43" width="52.47" height="51.46"/>
   <rect fill="#0A3A7A" x="4440.81" y="1807.29" width="52.47" height="130.33"/>
   <rect fill="#0A3A7A" x="5227.5" y="1806.42" width="52.47" height="51.46"/>
   <rect fill="#0A3A7A" x="5307.82" y="1885.27" width="52.47" height="51.46"/>
   <rect fill="white" x="5542.05" y="1807.11" width="52.47" height="51.46"/>
   <rect fill="#70ACE0" x="5698.97" y="1806.79" width="52.47" height="51.46"/>
   <rect fill="#70ACE0" x="6326.64" y="1805.51" width="52.47" height="51.46"/>
   <rect fill="#0A3A7A" x="4440.41" y="1964.38" width="133.61" height="51.46"/>
   <rect fill="#0A3A7A" x="4480.11" y="2147.89" width="52.47" height="44.83"/>
   <rect fill="#1765AD" x="4914.89" y="1936.12" width="51.2" height="160.71"/>
   <rect fill="#0A3A7A" x="5227.11" y="1963.5" width="131.53" height="51.46"/>
   <rect fill="white" x="5541.66" y="1965.01" width="130.77" height="51.46"/>
   <rect fill="white" x="5698.58" y="2043.21" width="52.47" height="10.07"/>
   <rect fill="white" x="5855.5" y="1963.55" width="52.47" height="51.46"/>
   <rect fill="#70ACE0" x="6012.41" y="1963.23" width="52.47" height="51.46"/>
   <rect fill="white" x="6326.25" y="1884.32" width="52.47" height="129.73"/>
   <rect fill="#0A3A7A" x="4600.45" y="2123.71" width="52.81" height="51.17"/>
   <rect fill="white" x="5545.14" y="2122.17" width="52.47" height="51.46"/>
   <rect fill="white" x="6173.73" y="2122.88" width="53.38" height="86.68"/>
   <rect fill="#0A3A7A" x="4757.76" y="2200.27" width="52.47" height="51.46"/>
   <rect fill="#0A3A7A" x="5151.1" y="2124.97" width="209.99" height="51.46"/>
   <rect fill="white" x="6405.31" y="1648.42" width="52.48" height="53.51"/>
   <rect fill="#0A3A7A" x="4519.1" y="1660.32" width="52.48" height="123.16"/>
   <rect fill="#0A3A7A" x="4989.51" y="1891.14" width="52.48" height="206.09"/>
   <rect fill="#1765AD" x="5148.16" y="1805.4" width="52.48" height="53.51"/>
   <rect fill="#0A3A7A" x="5307.67" y="1804.46" width="52.48" height="53.51"/>
   <rect fill="#0A3A7A" x="5385.77" y="1887.22" width="52.48" height="133.35"/>
   <rect fill="white" x="5620.34" y="1807.1" width="52.48" height="53.51"/>
   <rect fill="white" x="5777.26" y="1806.78" width="52.48" height="53.51"/>
   <rect fill="white" x="6404.93" y="1730.17" width="52.48" height="128.84"/>
   <rect fill="#0A3A7A" x="4837.17" y="1991.92" width="52.48" height="105.35"/>
   <rect fill="#0A3A7A" x="5147.77" y="1962.48" width="52.48" height="53.51"/>
   <rect fill="#0A3A7A" x="5228.12" y="2203.18" width="132.01" height="53.51"/>
   <rect fill="white" x="5463.04" y="1964.5" width="52.48" height="53.51"/>
   <rect fill="white" x="5776.87" y="1963.87" width="52.48" height="53.51"/>
   <rect fill="#70ACE0" x="5933.79" y="1963.55" width="52.48" height="53.51"/>
   <rect fill="#0A3A7A" x="4679.3" y="2147.31" width="52.48" height="87.21"/>
   <rect fill="white" x="5620.98" y="2070.19" width="52.48" height="105.93"/>
   <rect fill="white" x="6253.14" y="2121.29" width="52.48" height="54.49"/>
   <rect fill="#0A3A7A" x="4836.93" y="2168.42" width="52.48" height="112.86"/>
   <rect fill="white" x="5729.4" y="2201.5" width="104.36" height="53.51"/>
   <rect fill="white" x="5780.49" y="2358.52" width="52.48" height="53.51"/>
   <rect fill="#0A3A7A" x="4994.57" y="2282.69" width="52.48" height="102.72"/>
   <rect fill="#0A3A7A" x="5386.61" y="2042.21" width="52.48" height="134.24"/>
   <rect fill="white" x="6410.37" y="1966.3" width="52.48" height="250.24"/>
   <rect fill="#0A3A7A" x="4442" y="2123.35" width="53.08" height="98.66"/>
   <rect fill="white" x="6325.43" y="1573.16" width="53.08" height="52.06"/>
   <rect fill="#1765AD" x="4441.4" y="1662.04" width="53.08" height="116.49"/>
   <rect fill="white" x="5542.01" y="1728.34" width="53.08" height="52.06"/>
   <rect fill="white" x="6326.6" y="1726.74" width="53.08" height="52.06"/>
   <rect fill="#0A3A7A" x="5069.44" y="1853.36" width="53.08" height="82.42"/>
   <rect fill="#0A3A7A" x="5227.08" y="1884.73" width="53.08" height="52.06"/>
   <rect fill="white" x="5541.62" y="1807.12" width="53.08" height="130.37"/>
   <rect fill="white" x="5855.46" y="1884.79" width="53.08" height="52.06"/>
   <rect fill="#0A3A7A" x="4440" y="2000.92" width="53.08" height="128.74"/>
   <rect fill="#0A3A7A" x="4752.37" y="2043.5" width="53.08" height="130.82"/>
   <rect fill="#0A3A7A" x="5226.69" y="1969.22" width="53.08" height="124.66"/>
   <rect fill="white" x="5541.24" y="2042.51" width="53.08" height="52.06"/>
   <rect fill="white" x="5637.85" y="2043.21" width="113.38" height="52.06"/>
   <rect fill="white" x="5855.07" y="2041.87" width="53.08" height="52.06"/>
   <rect fill="white" x="6172.6" y="2045.74" width="53.08" height="52.06"/>
   <rect fill="white" x="6325.82" y="2040.91" width="110.78" height="159.92"/>
   <rect fill="white" x="5858.99" y="2127.58" width="53.08" height="249.66"/>
   <rect fill="white" x="5700.71" y="2122.16" width="53.08" height="52.06"/>
   <rect fill="#0A3A7A" x="5229.08" y="2288.96" width="53.08" height="122.96"/>
   <rect fill="#0A3A7A" x="5154.38" y="2279.69" width="128.46" height="52.06"/>
   <rect fill="white" x="6016.72" y="2045.91" width="53.08" height="251.39"/>
   <rect fill="#0A3A7A" x="4914.98" y="2121.11" width="53.08" height="208.52"/>
   <rect fill="#0A3A7A" x="4521.55" y="1963.87" width="52.48" height="211.14"/>
   <rect fill="#0A3A7A" x="5386.56" y="1806.06" width="52.48" height="52.48"/>
   <rect fill="#70ACE0" x="5621.56" y="1728.75" width="52.48" height="52.48"/>
   <rect fill="#0A3A7A" x="4519.93" y="1834.71" width="52.48" height="147.73"/>
   <rect fill="#1765AD" x="5148.99" y="1884.12" width="52.48" height="52.48"/>
   <rect fill="white" x="5464.26" y="1651.17" width="52.48" height="287.45"/>
   <rect fill="white" x="5621.17" y="1885.83" width="52.48" height="52.48"/>
   <rect fill="#70ACE0" x="5701.98" y="1885.51" width="128.59" height="52.48"/>
   <rect fill="white" x="5935.01" y="1885.19" width="52.48" height="52.48"/>
   <rect fill="white" x="6405.76" y="1884.23" width="52.48" height="52.48"/>
   <rect fill="#0A3A7A" x="5148.61" y="2041.2" width="52.48" height="52.48"/>
   <rect fill="#0A3A7A" x="5303.51" y="2280.78" width="52.48" height="52.48"/>
   <rect fill="white" x="5620.79" y="2042.91" width="52.48" height="52.48"/>
   <rect fill="white" x="5779.96" y="2042.59" width="52.48" height="133.29"/>
   <rect fill="white" x="5881.61" y="2042.27" width="105.49" height="52.48"/>
   <rect fill="#70ACE0" x="6095.64" y="2045.23" width="52.48" height="52.48"/>
   <rect fill="white" x="5622.75" y="2199.99" width="52.48" height="132.25"/>
   <rect fill="white" x="5937.1" y="2201.37" width="52.48" height="131.69"/>
   <rect fill="white" x="5542.41" y="2199.99" width="132.51" height="52.48"/>
   <rect fill="#0A3A7A" x="4752.38" y="2124.43" width="136.43" height="128.96"/>
   <rect fill="white" x="5781.87" y="2281" width="52.48" height="51.61"/>
   <rect fill="white" x="5544.02" y="2359.76" width="52.48" height="51.83"/>
   <rect fill="#0A3A7A" x="4993.96" y="2204.37" width="52.48" height="52.48"/>
   <rect fill="#0A3A7A" x="5150.69" y="2200.32" width="52.48" height="131.44"/>
   <rect fill="white" x="6095.03" y="2174.79" width="52.87" height="76.76"/>
   <rect fill="#0A3A7A" x="4914.98" y="2121.02" width="130.79" height="52.48"/>
   <rect fill="white" x="5937.64" y="2072.55" width="52.48" height="99.71"/>
   <rect fill="#0A3A7A" x="5310.13" y="1727.38" width="52.48" height="53.51"/>
   <rect fill="#0A3A7A" x="5388.03" y="1727.38" width="52.48" height="53.51"/>
   <rect fill="#1765AD" x="5387.17" y="1652.63" width="52.48" height="53.51"/>
   <rect fill="#1765AD" x="5232.24" y="1728.2" width="52.48" height="53.51"/>
   <rect fill="#1765AD" x="4680.81" y="2070.97" width="52.48" height="53.51"/>
   <rect fill="white" x="5464.55" y="2045.23" width="52.48" height="286.11"/>
   <rect fill="white" x="5894.21" y="2281.82" width="52.48" height="51.61"/>
  </g>
 </g>
</svg>
