<svg id="_1" data-name="1" xmlns="http://www.w3.org/2000/svg" viewBox="0 0 543.114 79.054">
  <defs>
    <style>
      .cls-1, .cls-2 {
        fill: #fff;
      }

      .cls-1, .cls-4, .cls-5 {
        fill-rule: evenodd;
      }

      .cls-3, .cls-5 {
        fill: #d0d1d1;
      }

      .cls-4 {
        fill: #1b85b4;
      }
    </style>
  </defs>
  <title>BWDS_</title>
  <path class="cls-1" d="M544.937,68.118l11.9-.02a1.988,1.988,0,0,0,1,1.644,6.059,6.059,0,0,0,2.865.506,6.546,6.546,0,0,0,2.508-.37,1.191,1.191,0,0,0,.845-1.117q0-1.286-4.438-1.69c-.585-.065-1.026-.11-1.332-.136H558.2q-7.154-.7-9.668-1.826a4.687,4.687,0,0,1-2.254-2.04,6.5,6.5,0,0,1-.793-3.275,5.813,5.813,0,0,1,3.463-5.535q3.469-1.754,11.045-1.754,7.153,0,10.649,1.787a6.322,6.322,0,0,1,3.723,5.542H563.155a1.884,1.884,0,0,0-1.02-1.6,6.556,6.556,0,0,0-2.956-.493,6.468,6.468,0,0,0-2.541.37,1.215,1.215,0,0,0-.812,1.15q0,1.257,3.807,1.559c.533.052.942.091,1.221.116.2.013.52.039.948.078a64.2,64.2,0,0,1,8.947,1.124,7.662,7.662,0,0,1,3.541,2.2,5.639,5.639,0,0,1,1.027,3.567,6.315,6.315,0,0,1-3.684,6.055q-3.684,1.861-12.078,1.864-7.456,0-10.954-1.858A6.528,6.528,0,0,1,544.937,68.118Z" transform="translate(-32.203 -35.278)"/>
  <path class="cls-1" d="M544.337,41.553l-.194,33.434h-9.271l-.071-2.151a12.591,12.591,0,0,1-3.925,2.027,15.814,15.814,0,0,1-4.736.676,12.052,12.052,0,0,1-8.719-3.132,11.014,11.014,0,0,1-3.255-8.329,10.976,10.976,0,0,1,3.281-8.375,12.363,12.363,0,0,1,8.843-3.1,15.6,15.6,0,0,1,4.347.578,13.718,13.718,0,0,1,3.762,1.76l.194-13.389ZM534.4,64.078a4.677,4.677,0,0,0-1.358-3.522,5.674,5.674,0,0,0-7.258,0,5.229,5.229,0,0,0,0,7.03,5.631,5.631,0,0,0,7.258,0A4.666,4.666,0,0,0,534.4,64.078Z" transform="translate(-32.203 -35.278)"/>
  <rect class="cls-2" x="471.174" y="6.242" width="9.934" height="33.434"/>
  <path class="cls-1" d="M479.394,74.986V53.155h9.667l.117,1.677a7.147,7.147,0,0,1,2.625-1.67,9.944,9.944,0,0,1,3.43-.559q3.762,0,5.529,2.047t1.761,6.458v1.9H493.9v-.15a4.29,4.29,0,0,0-.572-2.469,1.986,1.986,0,0,0-1.735-.806,1.856,1.856,0,0,0-1.761.929,6.991,6.991,0,0,0-.526,3.2V74.986Z" transform="translate(-32.203 -35.278)"/>
  <path class="cls-1" d="M447.88,64.239a10.2,10.2,0,0,1,4.015-8.616q4.015-3.05,11.344-3.054,7.348,0,11.338,3.047a10.215,10.215,0,0,1,3.989,8.622,10.194,10.194,0,0,1-3.989,8.6q-3.986,3.05-11.338,3.047-7.329,0-11.344-3.047a10.163,10.163,0,0,1-4.015-8.6Zm10.3,0a4.794,4.794,0,0,0,1.357,3.579,5.716,5.716,0,0,0,7.336,0,5.406,5.406,0,0,0,0-7.166,5.738,5.738,0,0,0-7.336,0A4.78,4.78,0,0,0,458.178,64.239Z" transform="translate(-32.203 -35.278)"/>
  <polygon class="cls-1" points="370.942 39.661 359.502 6.214 373.451 6.214 379.24 29.572 385.439 6.214 396.137 6.214 402.398 29.572 407.848 6.214 421.85 6.214 410.364 39.661 396.269 39.661 390.619 18.04 384.875 39.661 370.942 39.661"/>
  <path class="cls-1" d="M335.221,75.021v-21.4h9.554v2.223a14.455,14.455,0,0,1,3.993-1.994,15.025,15.025,0,0,1,4.459-.643q4.7,0,6.879,2.388t2.172,7.58V75.021h-9.554V64.963a5.249,5.249,0,0,0-.764-3.293,3.336,3.336,0,0,0-2.668-.9,5.017,5.017,0,0,0-3.312,1.007,3.436,3.436,0,0,0-1.2,2.783V75.021Z" transform="translate(-32.203 -35.278)"/>
  <rect class="cls-2" x="291.7" y="18.332" width="9.739" height="21.401"/>
  <path class="cls-1" d="M322.215,41.331v33.63h-9.089l-.07-2.109a12.338,12.338,0,0,1-3.848,1.987,15.5,15.5,0,0,1-4.643.662,11.815,11.815,0,0,1-8.548-3.07,10.8,10.8,0,0,1-3.191-8.165,10.759,10.759,0,0,1,3.217-8.21,12.12,12.12,0,0,1,8.669-3.038,15.292,15.292,0,0,1,4.261.567,13.427,13.427,0,0,1,3.688,1.726V41.331Zm-9.554,22.936a4.586,4.586,0,0,0-1.331-3.453,5.562,5.562,0,0,0-7.115,0,5.127,5.127,0,0,0,0,6.892,5.52,5.52,0,0,0,7.115,0A4.577,4.577,0,0,0,312.662,64.267Z" transform="translate(-32.203 -35.278)"/>
  <path class="cls-1" d="M264.914,75.023v-21.4h9.554v2.223a14.449,14.449,0,0,1,3.993-1.994,15.018,15.018,0,0,1,4.459-.643q4.7,0,6.879,2.388t2.172,7.58V75.023h-9.554V64.966a5.25,5.25,0,0,0-.764-3.293,3.336,3.336,0,0,0-2.668-.9,5.017,5.017,0,0,0-3.312,1.007,3.436,3.436,0,0,0-1.2,2.783V75.023Z" transform="translate(-32.203 -35.278)"/>
  <path class="cls-1" d="M263.945,68.253a8.748,8.748,0,0,1-5.019,5.408,25,25,0,0,1-10.491,1.847q-7.27,0-11.248-2.987a9.927,9.927,0,0,1-3.974-8.433,9.947,9.947,0,0,1,3.974-8.453q3.975-2.99,11.248-2.987,7.729,0,11.713,3.369t3.98,9.9v.376H243.455a3.028,3.028,0,0,0,1.459,2.688,7.459,7.459,0,0,0,4.082.949,8.366,8.366,0,0,0,2.892-.427,3.146,3.146,0,0,0,1.663-1.249Zm-20.974-6.535h11.344a3.681,3.681,0,0,0-1.605-2.745,6.5,6.5,0,0,0-3.751-.968,7.725,7.725,0,0,0-4.077.949A4.1,4.1,0,0,0,242.971,61.719Z" transform="translate(-32.203 -35.278)"/>
  <rect class="cls-2" x="190.683" y="6.035" width="9.739" height="33.744"/>
  <path class="cls-1" d="M208.242,41.623q7,0,9.919,1.93t2.9,6.415a8.2,8.2,0,0,1-1.128,4.323,8.305,8.305,0,0,1-3.326,3,8.182,8.182,0,0,1,4.361,3.018,8.86,8.86,0,0,1,1.474,5.219q0,4.77-3.118,7.155T209.94,75.07H181.333V41.623Zm-13.949,25.1h9.178c2.107,0,3.473-.193,4.1-.587a2.32,2.32,0,0,0,.942-2.13,2.345,2.345,0,0,0-.973-2.177,8.906,8.906,0,0,0-4.068-.6h-9.178v5.5Zm0-17.275v4.724h8.7a8.357,8.357,0,0,0,3.667-.509,1.98,1.98,0,0,0,.834-1.845,2.055,2.055,0,0,0-.772-1.861q-.764-.509-3.728-.509Z" transform="translate(-32.203 -35.278)"/>
  <path class="cls-1" d="M394.828,71.863a34.988,34.988,0,0,1-.2,4.4,6.1,6.1,0,0,1-.707,2.231,11.082,11.082,0,0,1-5.526,4.661,26.144,26.144,0,0,1-9.652,1.469q-6.94,0-10.558-1.847a7.828,7.828,0,0,1-4.366-5.766h13.791a1.808,1.808,0,0,0,.879,1.1,3.75,3.75,0,0,0,1.757.343,3.669,3.669,0,0,0,4.325-4.318c0-.336,0-.59-.007-.755s-.02-.329-.034-.474a11.852,11.852,0,0,1-3.961,1.909,18.832,18.832,0,0,1-5.087.625q-5.633,0-8.979-3.006a10.275,10.275,0,0,1-3.35-8.039,10.318,10.318,0,0,1,3.37-8.045,12.926,12.926,0,0,1,9-3.034,18.614,18.614,0,0,1,5.286.693,12.419,12.419,0,0,1,4.147,2.121l.075-2.231h9.8V71.863Zm-20.834-7.242a3.881,3.881,0,0,0,1.428,3.151,6.871,6.871,0,0,0,7.682,0,3.881,3.881,0,0,0,1.428-3.151,3.921,3.921,0,0,0-1.435-3.178,6.758,6.758,0,0,0-7.654,0A3.892,3.892,0,0,0,373.993,64.621Z" transform="translate(-32.203 -35.278)"/>
  <path class="cls-1" d="M328.9,52.918c3.408,0,6.188-2.517,6.188-5.6s-2.78-5.6-6.188-5.6-6.188,2.517-6.188,5.6S325.5,52.918,328.9,52.918Z" transform="translate(-32.203 -35.278)"/>
  <ellipse class="cls-3" cx="180.648" cy="50.181" rx="4.177" ry="3.782"/>
  <ellipse class="cls-3" cx="212.971" cy="50.456" rx="4.177" ry="3.782"/>
  <ellipse class="cls-3" cx="293.06" cy="50.253" rx="4.177" ry="3.782"/>
  <path class="cls-1" d="M53.149,62.2l117.1-21.937-8.669,22.194-15.635.163L139.931,85.5l-6.906-22.882L121.6,62.576l-3.427,8.345-3.411,14.538L108,62.618H92.609l.693,1.8q-.23-.164-.48-.313Q89.616,62.195,81.879,62.2Zm42.827,9.162a7.247,7.247,0,0,1-1.2,3.35,8.882,8.882,0,0,1-3.67,2.966,9.091,9.091,0,0,1,4.811,2.981,8.1,8.1,0,0,1,1.626,5.154,8,8,0,0,1-3.44,7.067q-3.449,2.356-10.355,2.356H52.194V64.577L32.2,114.332l113.37-18.882-12.4-.065L126.937,74.2,120.6,95.384H105.23L95.976,71.359ZM66.491,86.991H76.617c2.325,0,3.832-.19,4.522-.579a2.206,2.206,0,0,0,1.039-2.1,2.234,2.234,0,0,0-1.073-2.15,10.855,10.855,0,0,0-4.488-.595H66.491v5.428Zm0-17.062v4.666h9.6a10.189,10.189,0,0,0,4.045-.5,1.887,1.887,0,0,0,.92-1.822,1.946,1.946,0,0,0-.852-1.838q-.843-.5-4.113-.5Z" transform="translate(-32.203 -35.278)"/>
  <polygon class="cls-4" points="22.848 21.598 139.888 0 137.918 5.277 20.8 26.879 22.848 21.598"/>
  <path class="cls-5" d="M260.51,99.536a1.135,1.135,0,0,0,.592,1.094,4.824,4.824,0,0,0,2.1.318c.3,0,.523,0,.674,0s.308-.015.454-.024v4.417c-.983.043-1.877.082-2.684.106s-1.562.034-2.262.034q-3.8,0-5.305-.973a3.758,3.758,0,0,1-1.506-3.415V93.394h-2.823V89.878h2.823v-4.74h7.939v4.74h3.743v3.516H260.51Z" transform="translate(-32.203 -35.278)"/>
  <path class="cls-5" d="M296.486,98.311h8.493a2.619,2.619,0,0,0,1.273,1.623,5.957,5.957,0,0,0,2.747.5,5.859,5.859,0,0,0,2.407-.4,1.23,1.23,0,0,0,.876-1.108q0-1.127-3.667-1.835l-1.128-.212c-2-.4-3.6-.751-4.788-1.079a13.767,13.767,0,0,1-2.6-.91,6.4,6.4,0,0,1-2.35-2.062,4.884,4.884,0,0,1-.788-2.736,5.4,5.4,0,0,1,3.043-4.856,16.794,16.794,0,0,1,8.38-1.763,16.977,16.977,0,0,1,8.254,1.686,6.226,6.226,0,0,1,3.4,4.836h-8.285a1.963,1.963,0,0,0-1.058-1.368,5.344,5.344,0,0,0-2.451-.453,4.742,4.742,0,0,0-2.085.352,1.143,1.143,0,0,0-.68,1.074c0,.684,1.191,1.262,3.579,1.72.214.048.372.082.479.1.346.062.87.164,1.569.294a27.938,27.938,0,0,1,6.2,1.667,7.006,7.006,0,0,1,2.64,2.091,4.645,4.645,0,0,1,.832,2.765,5.82,5.82,0,0,1-3.144,5.289q-3.147,1.85-9.016,1.85a16.971,16.971,0,0,1-8.575-1.85A6.706,6.706,0,0,1,296.486,98.311Z" transform="translate(-32.203 -35.278)"/>
  <path class="cls-5" d="M353.13,105.234V89.891h7.258v2.245a9.246,9.246,0,0,1,3.125-2,10.935,10.935,0,0,1,3.906-.655,10.565,10.565,0,0,1,3.27.467,6.43,6.43,0,0,1,2.432,1.382,4.564,4.564,0,0,1,1.285,2.023,14.238,14.238,0,0,1,.378,3.9v7.977h-7.976V97.285a3.569,3.569,0,0,0-.611-2.408,2.769,2.769,0,0,0-2.1-.655,3.007,3.007,0,0,0-2.249.761,3.247,3.247,0,0,0-.737,2.331v7.919Z" transform="translate(-32.203 -35.278)"/>
  <rect class="cls-3" x="255.267" y="49.305" width="8.046" height="20.785"/>
  <rect class="cls-3" x="176.86" y="54.561" width="8.046" height="15.342"/>
  <rect class="cls-3" x="209.183" y="54.835" width="8.046" height="15.342"/>
  <rect class="cls-3" x="289.272" y="54.633" width="8.046" height="15.342"/>
  <path class="cls-5" d="M219.253,106.768h7.9a1.161,1.161,0,0,0,.693.79,4.316,4.316,0,0,0,1.651.241,3.487,3.487,0,0,0,2.369-.592,3.807,3.807,0,0,0,.617-2.611v-.834a7.012,7.012,0,0,1-2.406,1.123,12.283,12.283,0,0,1-3.182.376,9.576,9.576,0,0,1-6.508-2.124,7.106,7.106,0,0,1-2.445-5.65,7.749,7.749,0,0,1,2.337-5.915,8.692,8.692,0,0,1,6.225-2.2,11.138,11.138,0,0,1,3.793.588,7.251,7.251,0,0,1,2.8,1.811V89.779h7.069v14.157q0,4-2.564,5.684t-8.657,1.681a16.094,16.094,0,0,1-6.754-1.185,4.68,4.68,0,0,1-2.936-3.348Zm6.628-9.427a4.047,4.047,0,0,0,.794,2.746,3.061,3.061,0,0,0,2.413.9,3.331,3.331,0,0,0,2.539-.877,3.886,3.886,0,0,0,.819-2.736,3.584,3.584,0,0,0-.876-2.582,3.271,3.271,0,0,0-2.482-.915,3.117,3.117,0,0,0-2.413.867A3.737,3.737,0,0,0,225.881,97.341Z" transform="translate(-32.203 -35.278)"/>
  <path class="cls-5" d="M331.19,107.086h7.9a1.161,1.161,0,0,0,.693.79,4.313,4.313,0,0,0,1.651.241,3.488,3.488,0,0,0,2.369-.593,3.808,3.808,0,0,0,.617-2.611v-.834a7.012,7.012,0,0,1-2.407,1.123,12.281,12.281,0,0,1-3.182.376,9.576,9.576,0,0,1-6.509-2.124,7.107,7.107,0,0,1-2.445-5.65,7.748,7.748,0,0,1,2.338-5.915,8.692,8.692,0,0,1,6.225-2.2,11.138,11.138,0,0,1,3.793.588,7.251,7.251,0,0,1,2.8,1.811V90.1H352.1v14.157q0,4-2.564,5.684t-8.657,1.681a16.1,16.1,0,0,1-6.754-1.185,4.681,4.681,0,0,1-2.936-3.348Zm6.628-9.427a4.048,4.048,0,0,0,.794,2.746,3.061,3.061,0,0,0,2.413.9,3.331,3.331,0,0,0,2.539-.877,3.885,3.885,0,0,0,.819-2.736,3.582,3.582,0,0,0-.876-2.582,3.27,3.27,0,0,0-2.482-.915,3.117,3.117,0,0,0-2.413.867A3.737,3.737,0,0,0,337.819,97.659Z" transform="translate(-32.203 -35.278)"/>
  <path class="cls-5" d="M400.094,107.045h7.9a1.161,1.161,0,0,0,.693.79,4.312,4.312,0,0,0,1.651.241,3.487,3.487,0,0,0,2.369-.593,3.808,3.808,0,0,0,.617-2.611v-.833a7.014,7.014,0,0,1-2.407,1.122,12.275,12.275,0,0,1-3.182.376,9.576,9.576,0,0,1-6.508-2.124,7.107,7.107,0,0,1-2.445-5.65,7.748,7.748,0,0,1,2.337-5.915,8.693,8.693,0,0,1,6.225-2.2,11.137,11.137,0,0,1,3.793.588,7.251,7.251,0,0,1,2.8,1.811V90.056h7.069v14.157q0,4-2.564,5.684t-8.657,1.681a16.1,16.1,0,0,1-6.754-1.185,4.681,4.681,0,0,1-2.936-3.348Zm6.628-9.427a4.047,4.047,0,0,0,.794,2.746,3.061,3.061,0,0,0,2.413.9,3.33,3.33,0,0,0,2.539-.877,3.884,3.884,0,0,0,.819-2.736,3.582,3.582,0,0,0-.876-2.582,3.271,3.271,0,0,0-2.482-.915,3.117,3.117,0,0,0-2.413.867A3.738,3.738,0,0,0,406.722,97.619Z" transform="translate(-32.203 -35.278)"/>
  <path class="cls-5" d="M436.4,100.367h7.642a6.373,6.373,0,0,1-3.648,3.805,17.961,17.961,0,0,1-7.428,1.291,13.718,13.718,0,0,1-8.2-2.2,6.919,6.919,0,0,1-3.037-5.906,7.132,7.132,0,0,1,3.1-6.1q3.1-2.232,8.436-2.235,5.359,0,8.392,2.432a8.18,8.18,0,0,1,3.037,6.753v.366l-14.97.015a2.943,2.943,0,0,0,1.014,2.264,4.059,4.059,0,0,0,2.678.8,4.912,4.912,0,0,0,1.934-.332,1.894,1.894,0,0,0,1.052-.954Zm-6.678-4.856h7.107a2.9,2.9,0,0,0-1.033-2.134,4.115,4.115,0,0,0-2.6-.713,3.758,3.758,0,0,0-2.482.756A2.768,2.768,0,0,0,429.717,95.511Z" transform="translate(-32.203 -35.278)"/>
  <path class="cls-5" d="M182.565,105.241V84.456h10.56a47.279,47.279,0,0,1,5.986.275,13.173,13.173,0,0,1,3.427.91,9.277,9.277,0,0,1,4.24,3.569,10.548,10.548,0,0,1,1.424,5.66,9.753,9.753,0,0,1-1.764,5.935,10.322,10.322,0,0,1-5.192,3.574,14.351,14.351,0,0,1-3.333.665q-2,.2-6.414.2Zm8.732-5.265h2.344c2.174,0,3.686-.371,4.524-1.113s1.266-2.076,1.266-3.993q0-2.811-1.292-3.979t-4.391-1.171H191.3Z" transform="translate(-32.203 -35.278)"/>
  <path class="cls-5" d="M391.139,105.349l-.5-1.469a11.255,11.255,0,0,1-3.3,1.522,14.772,14.772,0,0,1-3.988.5,9.21,9.21,0,0,1-5.255-1.277,4.127,4.127,0,0,1-1.852-3.608,3.639,3.639,0,0,1,1.827-3.358q1.824-1.084,6.905-1.58c.428-.048,1.008-.1,1.733-.154q3.79-.311,3.787-1.5a1.012,1.012,0,0,0-.693-.963,5.808,5.808,0,0,0-2.186-.3,3.914,3.914,0,0,0-1.9.376,1.492,1.492,0,0,0-.775,1.146h-7.787a4.3,4.3,0,0,1,2.766-3.9q2.712-1.322,7.976-1.32a27.466,27.466,0,0,1,4.568.352,11.528,11.528,0,0,1,3.258.949,4.87,4.87,0,0,1,1.991,1.657,5.025,5.025,0,0,1,.573,2.645v8.55a1.35,1.35,0,0,0,.221.756,1.642,1.642,0,0,0,.649.544v.438ZM390.4,98.5q-1.144.34-3.043.718c-2,.4-2.993.949-2.993,1.623a1.136,1.136,0,0,0,.592,1.016,3.168,3.168,0,0,0,1.676.366,4.817,4.817,0,0,0,2.911-.7,2.655,2.655,0,0,0,.914-2.245c0-.217,0-.381-.006-.487A1.3,1.3,0,0,0,390.4,98.5Z" transform="translate(-32.203 -35.278)"/>
  <path class="cls-5" d="M279.34,105.324l-.5-1.469a11.256,11.256,0,0,1-3.3,1.522,14.765,14.765,0,0,1-3.988.5A9.21,9.21,0,0,1,266.3,104.6a4.128,4.128,0,0,1-1.852-3.608,3.639,3.639,0,0,1,1.827-3.358q1.824-1.084,6.906-1.58c.428-.048,1.008-.1,1.733-.154q3.79-.311,3.787-1.5a1.013,1.013,0,0,0-.693-.963,5.808,5.808,0,0,0-2.187-.3,3.914,3.914,0,0,0-1.9.376,1.492,1.492,0,0,0-.775,1.147h-7.787a4.3,4.3,0,0,1,2.766-3.9q2.712-1.322,7.976-1.32a27.485,27.485,0,0,1,4.568.352,11.531,11.531,0,0,1,3.258.949,4.874,4.874,0,0,1,1.991,1.657,5.024,5.024,0,0,1,.573,2.645v8.55a1.349,1.349,0,0,0,.22.756,1.642,1.642,0,0,0,.649.544v.438Zm-.737-6.845q-1.144.34-3.043.718c-2,.4-2.993.949-2.993,1.623a1.135,1.135,0,0,0,.592,1.016,3.166,3.166,0,0,0,1.676.366,4.819,4.819,0,0,0,2.911-.7,2.656,2.656,0,0,0,.914-2.245c0-.217,0-.381-.006-.487A1.309,1.309,0,0,0,278.6,98.479Z" transform="translate(-32.203 -35.278)"/>
</svg>
