<svg id="Слой_1" data-name="Слой 1" xmlns="http://www.w3.org/2000/svg" xmlns:xlink="http://www.w3.org/1999/xlink" viewBox="0 0 359.801 47.087">
  <defs>
    <style>
      .cls-1 {
        fill: #fff;
      }

      .cls-2 {
        fill: #e1fdff;
      }

      .cls-3 {
        fill: url(#Безымянный_градиент);
      }

      .cls-4 {
        fill: url(#Безымянный_градиент_2);
      }

      .cls-5 {
        fill: url(#Безымянный_градиент_3);
      }

      .cls-6 {
        fill: #186cfb;
      }

      .cls-7 {
        fill: #6cc7fb;
      }

      .cls-8 {
        fill: #3797f9;
      }

      .cls-9 {
        fill: #9ff7f7;
      }

      .cls-10 {
        fill: #0036cc;
      }

      .cls-11 {
        fill: #0013ce;
      }
    </style>
    <linearGradient id="Безымянный_градиент" data-name="Безымянный градиент" x1="9475.061" y1="-13746.174" x2="8858.691" y2="-15265.294" gradientTransform="matrix(0.028, 0, 0, -0.028, -238.617, -387.643)" gradientUnits="userSpaceOnUse">
      <stop offset="0" stop-color="#186cfb"/>
      <stop offset="1" stop-color="#fff"/>
    </linearGradient>
    <linearGradient id="Безымянный_градиент_2" data-name="Безымянный градиент 2" x1="9168.107" y1="-14526.169" x2="8419.337" y2="-14502.889" gradientTransform="matrix(0.028, 0, 0, -0.028, -238.617, -387.643)" gradientUnits="userSpaceOnUse">
      <stop offset="0" stop-color="#bbd4fd"/>
      <stop offset="1" stop-color="#6cc7fb"/>
    </linearGradient>
    <linearGradient id="Безымянный_градиент_3" data-name="Безымянный градиент 3" x1="9165.627" y1="-14526.183" x2="9914.388" y2="-14502.903" xlink:href="#Безымянный_градиент_2"/>
  </defs>
  <title>BWLogo</title>
  <g id="Слой_1-2" data-name="Слой_1">
    <g id="_2527353224096" data-name=" 2527353224096">
      <path class="cls-1" d="M266.308,12.933a14.578,14.578,0,0,1,4.972.822A11.488,11.488,0,0,1,275.2,16.1a10.639,10.639,0,0,1,2.572,3.659,11.958,11.958,0,0,1,.926,4.776,12.163,12.163,0,0,1-.909,4.768,10.98,10.98,0,0,1-2.564,3.715,11.578,11.578,0,0,1-3.915,2.4,15.114,15.114,0,0,1-10.034,0,11.6,11.6,0,0,1-3.923-2.395,10.783,10.783,0,0,1-2.564-3.7,12.22,12.22,0,0,1-.909-4.79,12.016,12.016,0,0,1,.926-4.8,10.433,10.433,0,0,1,2.58-3.645,11.588,11.588,0,0,1,3.932-2.339A14.573,14.573,0,0,1,266.308,12.933Zm-.024,21.7h0a12.672,12.672,0,0,0,4.169-.667,9.349,9.349,0,0,0,3.3-1.966,8.711,8.711,0,0,0,2.163-3.181,11.167,11.167,0,0,0,.77-4.284,11.041,11.041,0,0,0-.778-4.284,8.9,8.9,0,0,0-2.163-3.111,9.344,9.344,0,0,0-3.268-1.917,13.585,13.585,0,0,0-8.322.014,9.371,9.371,0,0,0-3.3,1.924,8.739,8.739,0,0,0-2.179,3.111,10.982,10.982,0,0,0-.778,4.263,11.167,11.167,0,0,0,.77,4.284A8.88,8.88,0,0,0,258.813,32a9.313,9.313,0,0,0,3.293,1.966A12.688,12.688,0,0,0,266.283,34.634Z" transform="translate(-1.534 -0.41)"/>
      <path class="cls-2" d="M170.572,24.108q0,5.664-3.363,8.562t-9.95,2.9h-4.638l-3.666-3.063V12.991h8.3a21.64,21.64,0,0,1,5.725.682,11.116,11.116,0,0,1,4.213,2.1h0a8.679,8.679,0,0,1,2.549,3.532A12.913,12.913,0,0,1,170.572,24.108Zm-3.546.148h0a12.6,12.6,0,0,0-.459-3.559h0a5.727,5.727,0,0,0-.6-1.363,5.484,5.484,0,0,0-.915-1.128,5.805,5.805,0,0,0-1.254-.89v0a8.642,8.642,0,0,0-1.662-.662h0a12.887,12.887,0,0,0-2.155-.422,24,24,0,0,0-2.741-.141h-4.795V32.754h4.795a22.93,22.93,0,0,0,2.72-.146,12.529,12.529,0,0,0,2.146-.433,8.574,8.574,0,0,0,1.67-.689,5.592,5.592,0,0,0,2.172-2.094,6.132,6.132,0,0,0,.613-1.421,11.015,11.015,0,0,0,.351-1.722,15.905,15.905,0,0,0,.116-1.992Z" transform="translate(-1.534 -0.41)"/>
      <path class="cls-1" d="M339.058,24.179q0,5.882-3.492,8.891t-10.332,3.01l-5.885-.135-2.738-2.263V12.88h8.623a22.463,22.463,0,0,1,5.945.708,11.538,11.538,0,0,1,4.375,2.18h0a9.015,9.015,0,0,1,2.647,3.667A12.115,12.115,0,0,1,339.058,24.179Zm-1.922.287h0a9.815,9.815,0,0,0-.795-4.618,11.813,11.813,0,0,0-1.99-2.689c-1.322-1.252-3.351-1.936-6.07-2.142a28.452,28.452,0,0,0-3.091-.213l-6.675-.048-.126,19.629,6.779.063A29.559,29.559,0,0,0,328.3,34.3a9.881,9.881,0,0,0,4.876-1.723A7.806,7.806,0,0,0,336.7,27.9a13.94,13.94,0,0,0,.441-3.433Z" transform="translate(-1.534 -0.41)"/>
      <path class="cls-2" d="M87.032,28.946a6.1,6.1,0,0,1-.639,2.832,5.713,5.713,0,0,1-1.952,2.135h0a9.09,9.09,0,0,1-3.094,1.278,18.367,18.367,0,0,1-4.083.407h-6.5l-3.317-2.933V12.979h9.776a16.957,16.957,0,0,1,3.49.324,8.519,8.519,0,0,1,2.7,1.017,4.655,4.655,0,0,1,1.761,1.864,5.575,5.575,0,0,1,.566,2.574,7.476,7.476,0,0,1-.049.823,7.859,7.859,0,0,1-.137.826,4.945,4.945,0,0,1-.278.869,5.129,5.129,0,0,1-.439.813v.005a4.758,4.758,0,0,1-.63.752,5.755,5.755,0,0,1-.8.646,5.762,5.762,0,0,1,.629.264h0a6.284,6.284,0,0,1,1.07.658,4.669,4.669,0,0,1,.829.808l0,.006a4.912,4.912,0,0,1,.558.908,4.391,4.391,0,0,1,.325.967h0a8.724,8.724,0,0,1,.155.934A8.166,8.166,0,0,1,87.032,28.946ZM70.9,32.641h6.351a9.231,9.231,0,0,0,4.779-.963,3,3,0,0,0,1.418-2.732,5.318,5.318,0,0,0-.078-.953,3.615,3.615,0,0,0-.233-.78,2.067,2.067,0,0,0-.364-.567,2.622,2.622,0,0,0-.566-.465h0a4.515,4.515,0,0,0-.85-.386,8.183,8.183,0,0,0-1.166-.3h0a14.529,14.529,0,0,0-1.512-.178q-.864-.062-1.921-.062H70.9Zm0-10.339h5.835a14.831,14.831,0,0,0,2.694-.211,5.36,5.36,0,0,0,1.706-.577,2.228,2.228,0,0,0,.883-.923,3.413,3.413,0,0,0,.321-1.561,3.108,3.108,0,0,0-.3-1.412h0a2.325,2.325,0,0,0-.824-.906h0a4.624,4.624,0,0,0-1.583-.579,13.155,13.155,0,0,0-2.564-.216v0l-6.174.018Z" transform="translate(-1.534 -0.41)"/>
      <polygon class="cls-1" points="244.661 35.707 237.019 17.381 229.401 35.65 221.232 17.041 221.241 11.998 229.483 30.988 237.011 12.021 244.58 31.045 252.706 12.03 252.632 16.946 244.661 35.707"/>
      <polygon class="cls-2" points="218.691 22.996 218.726 32.318 221.651 35.609 221.615 22.996 218.691 22.996"/>
      <polygon class="cls-2" points="221.429 25.924 212.612 25.889 209.499 22.965 221.429 23 221.429 25.924"/>
      <path class="cls-2" d="M212.154,35.954a16.485,16.485,0,0,1-2.682-.212,13.721,13.721,0,0,1-2.46-.639h0a12.619,12.619,0,0,1-2.17-1.028A11.051,11.051,0,0,1,203,32.7h0a10.481,10.481,0,0,1-2.576-3.73,11.487,11.487,0,0,1-.67-2.276,13.883,13.883,0,0,1,0-4.99,11.1,11.1,0,0,1,.68-2.272v0a11.074,11.074,0,0,1,1.1-1.981,10.407,10.407,0,0,1,1.472-1.685,10.856,10.856,0,0,1,1.828-1.355,12.31,12.31,0,0,1,2.149-1h0a13.8,13.8,0,0,1,2.421-.615,16.511,16.511,0,0,1,2.637-.206,18.136,18.136,0,0,1,2.068.117,15.578,15.578,0,0,1,1.947.346l0,0a13.977,13.977,0,0,1,1.776.564,11.756,11.756,0,0,1,1.594.772,6.31,6.31,0,0,1,.694.46s.075,3.7.08,3.761a9.668,9.668,0,0,0-2.762-1.821h0a8.284,8.284,0,0,0-1.082-.507,10.859,10.859,0,0,0-1.27-.4,11.15,11.15,0,0,0-1.419-.255,13.754,13.754,0,0,0-1.574-.085,12.921,12.921,0,0,0-1.938.139,10.285,10.285,0,0,0-1.731.412h-.006a7.992,7.992,0,0,0-1.5.672,7.286,7.286,0,0,0-1.286.942l0,0a6.9,6.9,0,0,0-1.048,1.2,7.9,7.9,0,0,0-.795,1.487v0a8.442,8.442,0,0,0-.505,1.755,12.3,12.3,0,0,0,0,4.088,8.557,8.557,0,0,0,.5,1.755V28a8.132,8.132,0,0,0,.8,1.5,7.31,7.31,0,0,0,2.335,2.206,8.435,8.435,0,0,0,1.534.707h0a10.272,10.272,0,0,0,1.754.431h0a12.625,12.625,0,0,0,1.945.143,14.51,14.51,0,0,0,2.689-.235,10.2,10.2,0,0,0,2.259-.689h0a10.175,10.175,0,0,0,3.367-2.405l1.3,2.019L220.8,33.45a9.739,9.739,0,0,1-.988.666l-.007,0a12.188,12.188,0,0,1-1.15.591,12.017,12.017,0,0,1-1.224.471q-.622.2-1.258.349t-1.319.242h-.006q-.7.093-1.339.136-.683.046-1.36.046Z" transform="translate(-1.534 -0.41)"/>
      <polygon class="cls-2" points="170.541 32.28 170.541 13.317 170.541 12.612 173.989 15.24 173.989 35.23 170.541 32.28"/>
      <path class="cls-1" d="M279.788,33.03V14.067l.022-1.552,10.042-.018c2.133,0,4.543.4,6.143,1.83,2.538,2.275,2.755,7.894-.253,10.01-2,1.405-4.186,1.275-6.93,1.34l8.8,10.328h-2.379l-10.078-11.78,7.083-.187a3.9,3.9,0,0,0,3.24-1.555c1.5-1.514.854-5.57-.366-6.972-1.111-1.275-2.92-1.361-5.276-1.359l-8.355.007.025,21.82-1.724-2.949Z" transform="translate(-1.534 -0.41)"/>
      <polygon class="cls-2" points="127.026 20.819 127.026 34.798 127.026 35.503 123.578 32.528 123.578 13.59 123.578 12.885 141.054 28.297 141.054 13.59 141.054 12.885 144.502 15.513 144.502 34.798 144.502 35.503 127.026 20.819"/>
      <polygon class="cls-2" points="179.408 20.503 179.408 34.482 179.408 35.187 175.96 32.212 175.96 13.274 175.96 12.569 193.435 27.98 193.435 13.274 193.435 12.569 196.883 15.197 196.883 34.482 196.883 35.187 179.408 20.503"/>
      <polygon class="cls-2" points="121.678 35.274 106.814 35.274 103.01 32.317 103.01 13.361 103.01 12.656 103.832 12.656 118.979 12.656 121.9 15.612 121.077 15.612 106.458 15.612 106.458 22.051 120.106 22.051 120.929 22.051 120.929 22.756 120.929 24.302 120.929 25.007 120.106 25.007 106.458 25.007 106.458 32.318 119.457 32.318 122.501 35.274 121.678 35.274"/>
      <polygon class="cls-2" points="102.112 35.159 87.549 35.159 86.727 35.159 86.727 34.454 86.727 13.246 86.727 12.541 90.175 15.327 90.175 32.203 99.686 32.203 102.935 35.159 102.112 35.159"/>
      <polygon class="cls-1" points="313.969 35.627 299.406 35.627 298.583 35.627 298.542 34.749 298.542 13.541 298.531 12.234 300.414 14.078 300.33 34.135 311.992 34.134 313.662 35.627 313.969 35.627"/>
      <path class="cls-1" d="M350.735,12.509c-5.887,0-10.659,2.865-10.659,6.4,0,5.875,7.906,6.4,10.66,6.392,6.36.151,8.629,1.619,8.562,4.638s-3.86,4.639-8.622,4.639c-4.509,0-7.208-1.02-9.764-5l0,2.927c1.647,2.258,5.4,3.835,9.768,3.835,5.887,0,10.659-2.865,10.659-6.4,0-4.683-4.511-6.215-10.659-6.4-3.058-.071-8.562-.5-8.562-4.632,0-2.562,3.86-4.639,8.622-4.639,3.521,0,6.165.792,8.32,3.1,1.831,1.96,1.423,2.608,1.448-1.024-1.647-2.258-5.4-3.835-9.768-3.835Z" transform="translate(-1.534 -0.41)"/>
      <polygon class="cls-3" points="21.225 0 31.85 5.889 42.463 11.766 42.463 23.544 42.463 35.322 31.85 41.211 21.225 47.087 10.613 41.211 0 35.322 0 23.544 0 11.766 10.613 5.889 21.225 0"/>
      <polygon class="cls-4" points="0.062 11.691 21.287 23.457 0.062 35.235 0.062 11.691"/>
      <polygon class="cls-5" points="42.413 11.691 21.176 23.457 42.413 35.235 42.413 11.691"/>
      <polygon class="cls-6" points="21.076 3.595 21.114 3.583 38.892 13.514 36.686 14.989 36.487 14.89 36.487 14.716 36.128 14.692 35.21 14.221 35.21 13.973 34.752 13.973 33.834 13.489 33.822 13.241 33.35 13.229 32.421 12.745 32.421 12.522 31.987 12.51 31.044 12.014 31.044 11.766 30.561 11.766 29.644 11.282 29.644 11.047 29.197 11.047 28.243 10.538 27.784 10.538 27.784 10.303 26.879 9.819 26.879 9.596 26.433 9.584 25.503 9.088 25.503 8.852 25.032 8.852 24.114 8.356 24.114 8.121 23.668 8.121 22.725 7.637 22.725 7.389 22.242 7.377 21.312 6.893 21.312 6.757 21.076 6.757 21.076 3.595"/>
      <polygon class="cls-7" points="3.286 13.415 21.101 3.583 21.126 3.595 21.126 6.757 20.841 6.757 20.829 6.93 18.547 8.145 18.076 8.158 18.089 8.393 17.159 8.889 16.713 8.889 16.7 9.137 15.783 9.621 15.324 9.621 15.324 9.869 14.394 10.365 13.948 10.377 13.948 10.6 13.018 11.865 12.547 11.89 12.547 12.361 11.667 11.902 11.679 12.819 11.17 12.832 10.241 12.584 9.782 12.584 9.782 12.819 8.865 13.315 8.393 13.34 8.393 13.563 7.464 14.059 7.005 14.047 6.993 14.307 6.075 14.245 5.604 14.245 5.604 14.196 4.687 14.084 4.687 13.601 4.228 13.601 3.286 13.415"/>
      <polygon class="cls-7" points="3.943 19.328 4.872 19.328 4.872 20.233 3.943 20.233 3.943 19.328"/>
      <polygon class="cls-8" points="22.676 22.106 23.606 22.106 23.606 23.011 22.676 23.011 22.676 22.106"/>
      <polygon class="cls-7" points="3.261 17.952 4.19 17.952 4.19 20.246 3.261 20.246 3.261 17.952"/>
      <polygon class="cls-9" points="17.122 19.353 18.051 19.353 18.051 20.258 17.122 20.258 17.122 19.353"/>
      <polygon class="cls-7" points="18.535 17.965 19.465 17.965 19.465 18.87 18.535 18.87 18.535 17.965"/>
      <polygon class="cls-6" points="22.664 19.341 23.593 19.341 23.593 20.246 22.664 20.246 22.664 19.341"/>
      <polygon class="cls-8" points="25.428 19.353 26.358 19.353 26.358 20.258 25.428 20.258 25.428 19.353"/>
      <polygon class="cls-8" points="36.487 19.366 37.417 19.366 37.417 20.271 36.487 20.271 36.487 19.366"/>
      <polygon class="cls-7" points="3.248 16.576 5.604 16.576 5.604 17.481 3.248 17.481 3.248 16.576"/>
      <polygon class="cls-7" points="3.955 13.452 4.885 13.452 4.885 14.245 3.955 14.245 3.955 13.452"/>
      <polygon class="cls-7" points="11.617 15.15 12.522 15.15 12.522 17.977 11.617 17.977 11.617 15.15"/>
      <polygon class="cls-7" points="17.109 16.588 19.428 16.588 19.428 17.493 17.109 17.493 17.109 16.588"/>
      <polygon class="cls-6" points="22.651 16.564 24.957 16.564 24.957 17.469 22.651 17.469 22.651 16.564"/>
      <polygon class="cls-6" points="25.416 15.907 26.346 15.907 26.346 16.08 25.416 16.08 25.416 15.907"/>
      <polygon class="cls-6" points="28.181 16.588 29.11 16.588 29.11 17.493 28.181 17.493 28.181 16.588"/>
      <polygon class="cls-6" points="30.945 16.588 31.875 16.588 31.875 17.493 30.945 17.493 30.945 16.588"/>
      <polygon class="cls-10" points="36.475 16.601 37.405 16.601 37.405 18.882 36.475 18.882 36.475 16.601"/>
      <polygon class="cls-7" points="6.075 13.774 7.005 13.774 7.005 14.679 6.075 14.679 6.075 13.774"/>
      <polygon class="cls-6" points="22.713 13.787 23.643 13.787 23.643 14.692 22.713 14.692 22.713 13.787"/>
      <polygon class="cls-6" points="33.797 13.154 34.739 13.154 34.739 14.679 33.797 14.679 33.797 13.154"/>
      <polygon class="cls-7" points="8.84 12.41 9.77 12.41 9.77 13.315 8.84 13.315 8.84 12.41"/>
      <polygon class="cls-6" points="25.478 8.803 26.408 8.803 26.408 13.291 25.478 13.291 25.478 8.803"/>
      <polygon class="cls-7" points="17.159 8.22 18.089 8.22 18.089 9.125 17.159 9.125 17.159 8.22"/>
      <polygon class="cls-6" points="21.287 8.183 23.643 8.183 23.643 9.125 21.287 9.125 21.287 8.183"/>
      <polygon class="cls-7" points="15.77 13.737 19.465 13.737 19.465 14.642 15.77 14.642 15.77 13.737"/>
      <polygon class="cls-7" points="4.637 18.039 5.567 18.039 5.567 21.684 4.637 21.684 4.637 18.039"/>
      <polygon class="cls-9" points="12.931 15.138 13.861 15.138 13.861 18.77 12.931 18.77 12.931 15.138"/>
      <polygon class="cls-9" points="15.721 19.341 16.65 19.341 16.65 20.283 15.721 20.283 15.721 19.341"/>
      <polygon class="cls-9" points="18.535 19.353 19.465 19.353 19.465 20.295 18.535 20.295 18.535 19.353"/>
      <polygon class="cls-7" points="19.911 16.489 20.841 16.489 20.841 18.845 19.911 18.845 19.911 16.489"/>
      <polygon class="cls-6" points="24.04 19.304 24.97 19.304 24.97 20.246 24.04 20.246 24.04 19.304"/>
      <polygon class="cls-8" points="26.804 19.316 27.734 19.316 27.734 20.258 26.804 20.258 26.804 19.316"/>
      <polygon class="cls-6" points="37.863 19.328 38.793 19.328 38.793 21.597 37.863 21.597 37.863 19.328"/>
      <polygon class="cls-9" points="10.241 15.138 11.17 15.138 11.17 16.998 10.241 16.998 10.241 15.138"/>
      <polygon class="cls-7" points="15.721 16.564 16.65 16.564 16.65 17.506 15.721 17.506 15.721 16.564"/>
      <polygon class="cls-7" points="17.134 12.324 19.465 12.324 19.465 13.266 17.134 13.266 17.134 12.324"/>
      <polygon class="cls-7" points="21.275 16.539 22.205 16.539 22.205 17.481 21.275 17.481 21.275 16.539"/>
      <polygon class="cls-8" points="26.804 16.539 27.734 16.539 27.734 17.481 26.804 17.481 26.804 16.539"/>
      <polygon class="cls-6" points="29.569 16.551 30.499 16.551 30.499 17.493 29.569 17.493 29.569 16.551"/>
      <polygon class="cls-7" points="7.464 12.72 8.393 12.72 8.393 14.258 7.464 14.258 7.464 12.72"/>
      <polygon class="cls-6" points="24.052 13.749 24.982 13.749 24.982 15.621 24.052 15.621 24.052 13.749"/>
      <polygon class="cls-6" points="35.198 13.749 36.128 13.749 36.128 14.704 35.198 14.704 35.198 13.749"/>
      <polygon class="cls-7" points="10.241 11.89 11.17 11.89 11.17 13.873 10.241 13.873 10.241 11.89"/>
      <polygon class="cls-6" points="25.961 12.361 27.796 12.361 27.796 13.303 25.961 13.303 25.961 12.361"/>
      <polygon class="cls-6" points="26.866 9.596 27.796 9.596 27.796 10.538 26.866 10.538 26.866 9.596"/>
      <polygon class="cls-7" points="13.018 10.055 13.948 10.055 13.948 11.865 13.018 11.865 13.018 10.055"/>
      <polygon class="cls-7" points="15.783 8.53 16.713 8.53 16.713 10.526 15.783 10.526 15.783 8.53"/>
      <polygon class="cls-7" points="18.535 6.807 20.072 6.807 20.072 10.452 18.535 10.452 18.535 6.807"/>
      <polygon class="cls-7" points="19.924 13.737 20.853 13.737 20.853 16.105 19.924 16.105 19.924 13.737"/>
      <polygon class="cls-6" points="21.3 6.794 22.23 6.794 22.23 7.736 21.3 7.736 21.3 6.794"/>
      <polygon class="cls-6" points="37.963 13.514 38.892 13.514 38.892 17.444 37.963 17.444 37.963 13.514"/>
      <polygon class="cls-7" points="3.261 13.39 4.19 13.39 4.19 14.667 3.261 14.667 3.261 13.39"/>
      <polygon class="cls-7" points="3.286 22.044 4.215 22.044 4.215 22.986 3.286 22.986 3.286 22.044"/>
      <polygon class="cls-7" points="19.899 6.162 20.829 6.162 20.829 13.291 19.899 13.291 19.899 6.162"/>
      <polygon class="cls-8" points="22.664 20.717 23.593 20.717 23.593 21.635 22.664 21.635 22.664 20.717"/>
      <polygon class="cls-10" points="36.487 20.742 37.417 20.742 37.417 21.659 36.487 21.659 36.487 20.742"/>
      <polygon class="cls-7" points="14.332 17.977 15.262 17.977 15.262 19.428 14.332 19.428 14.332 17.977"/>
      <polygon class="cls-9" points="17.109 17.965 18.039 17.965 18.039 18.882 17.109 18.882 17.109 17.965"/>
      <polygon class="cls-6" points="22.651 17.952 23.581 17.952 23.581 20.246 22.651 20.246 22.651 17.952"/>
      <polygon class="cls-8" points="28.181 17.965 29.11 17.965 29.11 18.882 28.181 18.882 28.181 17.965"/>
      <polygon class="cls-7" points="3.248 14.568 4.178 14.568 4.178 16.836 3.248 16.836 3.248 14.568"/>
      <polygon class="cls-7" points="8.753 13.774 9.683 13.774 9.683 16.08 8.753 16.08 8.753 13.774"/>
      <polygon class="cls-7" points="17.109 15.2 18.039 15.2 18.039 17.394 17.109 17.394 17.109 15.2"/>
      <polygon class="cls-6" points="22.651 15.187 23.581 15.187 23.581 16.105 22.651 16.105 22.651 15.187"/>
      <polygon class="cls-6" points="24.35 15.175 26.346 15.175 26.346 16.093 24.35 16.093 24.35 15.175"/>
      <polygon class="cls-6" points="28.181 15.2 29.11 15.2 29.11 16.118 28.181 16.118 28.181 15.2"/>
      <polygon class="cls-6" points="33.772 15.126 34.702 15.126 34.702 16.043 33.772 16.043 33.772 15.126"/>
      <polygon class="cls-6" points="36.475 13.315 38.421 13.315 38.421 16.13 36.475 16.13 36.475 13.315"/>
      <polygon class="cls-6" points="28.243 10.204 29.172 10.204 29.172 14.605 28.243 14.605 28.243 10.204"/>
      <polygon class="cls-6" points="25.466 13.787 26.395 13.787 26.395 14.704 25.466 14.704 25.466 13.787"/>
      <polygon class="cls-7" points="14.394 8.617 15.324 8.617 15.324 17.456 14.394 17.456 14.394 8.617"/>
      <polygon class="cls-7" points="17.146 9.596 18.076 9.596 18.076 11.766 17.146 11.766 17.146 9.596"/>
      <polygon class="cls-6" points="22.713 7.067 23.643 7.067 23.643 9.137 22.713 9.137 22.713 7.067"/>
      <polygon class="cls-7" points="15.832 11.009 18.101 11.009 18.101 11.927 15.832 11.927 15.832 11.009"/>
      <polygon class="cls-6" points="31.032 11.617 31.962 11.617 31.962 16.043 31.032 16.043 31.032 11.617"/>
      <polygon class="cls-7" points="11.617 11.047 12.547 11.047 12.547 14.716 11.617 14.716 11.617 11.047"/>
      <polygon class="cls-7" points="4.687 13.762 5.616 13.762 5.616 17.481 4.687 17.481 4.687 13.762"/>
      <polygon class="cls-7" points="37.913 21.907 38.843 21.907 38.843 22.837 37.913 22.837 37.913 21.907"/>
      <polygon class="cls-7" points="19.924 19.341 20.853 19.341 20.853 20.271 19.924 20.271 19.924 19.341"/>
      <polygon class="cls-8" points="24.064 20.705 24.994 20.705 24.994 21.635 24.064 21.635 24.064 20.705"/>
      <polygon class="cls-7" points="4.649 17.159 5.579 17.159 5.579 19.762 4.649 19.762 4.649 17.159"/>
      <polygon class="cls-9" points="15.733 17.965 16.663 17.965 16.663 18.894 15.733 18.894 15.733 17.965"/>
      <polygon class="cls-6" points="21.287 17.927 22.217 17.927 22.217 22.998 21.287 22.998 21.287 17.927"/>
      <polygon class="cls-8" points="24.052 17.94 24.982 17.94 24.982 18.87 24.052 18.87 24.052 17.94"/>
      <polygon class="cls-6" points="25.478 17.94 27.747 17.94 27.747 18.87 25.478 18.87 25.478 17.94"/>
      <polygon class="cls-6" points="29.582 17.952 30.512 17.952 30.512 18.882 29.582 18.882 29.582 17.952"/>
      <polygon class="cls-6" points="37.876 17.965 38.806 17.965 38.806 18.894 37.876 18.894 37.876 17.965"/>
      <polygon class="cls-9" points="15.733 15.2 16.663 15.2 16.663 16.13 15.733 16.13 15.733 15.2"/>
      <polygon class="cls-9" points="18.461 10.985 19.39 10.985 19.39 11.915 18.461 11.915 18.461 10.985"/>
      <polygon class="cls-6" points="24.052 15.175 24.982 15.175 24.982 16.105 24.052 16.105 24.052 15.175"/>
      <polygon class="cls-6" points="26.854 13.749 27.784 13.749 27.784 16.093 26.854 16.093 26.854 13.749"/>
      <polygon class="cls-6" points="28.652 15.175 30.512 15.175 30.512 16.105 28.652 16.105 28.652 15.175"/>
      <polygon class="cls-8" points="32.421 15.126 33.35 15.126 33.35 16.055 32.421 16.055 32.421 15.126"/>
      <polygon class="cls-6" points="24.089 10.997 25.019 10.997 25.019 13.328 24.089 13.328 24.089 10.997"/>
      <polygon class="cls-6" points="29.619 10.985 30.549 10.985 30.549 13.303 29.619 13.303 29.619 10.985"/>
      <polygon class="cls-6" points="22.676 12.398 25.007 12.398 25.007 13.328 22.676 13.328 22.676 12.398"/>
      <polygon class="cls-7" points="8.753 12.385 11.158 12.385 11.158 14.655 8.753 14.655 8.753 12.385"/>
      <polygon class="cls-6" points="26.891 10.985 27.821 10.985 27.821 11.89 26.891 11.89 26.891 10.985"/>
      <polygon class="cls-6" points="22.701 9.596 23.63 9.596 23.63 10.513 22.701 10.513 22.701 9.596"/>
      <polygon class="cls-7" points="13.005 12.324 13.935 12.324 13.935 13.253 13.005 13.253 13.005 12.324"/>
      <polygon class="cls-6" points="21.287 8.195 22.217 8.195 22.217 10.588 21.287 10.588 21.287 8.195"/>
      <polygon class="cls-6" points="24.089 8.207 25.019 8.207 25.019 10.513 24.089 10.513 24.089 8.207"/>
      <polygon class="cls-7" points="15.77 11.009 16.7 11.009 16.7 13.328 15.77 13.328 15.77 11.009"/>
      <polygon class="cls-6" points="32.408 12.423 33.338 12.423 33.338 13.774 32.408 13.774 32.408 12.423"/>
      <polygon class="cls-7" points="11.617 13.799 13.923 13.799 13.923 14.729 11.617 14.729 11.617 13.799"/>
      <polygon class="cls-6" points="29.631 13.811 30.561 13.811 30.561 15.572 29.631 15.572 29.631 13.811"/>
      <polygon class="cls-9" points="18.572 20.717 19.502 20.717 19.502 21.659 18.572 21.659 18.572 20.717"/>
      <polygon class="cls-9" points="19.948 20.717 20.878 20.717 20.878 21.659 19.948 21.659 19.948 20.717"/>
      <polygon class="cls-9" points="19.924 22.068 20.853 22.068 20.853 23.011 19.924 23.011 19.924 22.068"/>
      <polygon class="cls-9" points="17.208 20.692 18.138 20.692 18.138 21.635 17.208 21.635 17.208 20.692"/>
      <polygon class="cls-9" points="7.488 14.655 8.418 14.655 8.418 15.597 7.488 15.597 7.488 14.655"/>
      <polygon class="cls-6" points="21.3 11.009 22.23 11.009 22.23 16.055 21.3 16.055 21.3 11.009"/>
      <polygon class="cls-6" points="28.862 10.972 29.792 10.972 29.792 11.877 28.862 11.877 28.862 10.972"/>
      <polygon class="cls-1" points="21.089 43.033 38.905 33.227 36.71 31.28 36.512 31.392 36.512 31.565 36.14 31.578 35.235 32.061 35.223 32.309 34.776 32.309 33.847 32.793 33.847 33.041 33.363 33.041 32.446 33.536 32.446 33.759 31.999 33.759 31.069 34.256 31.057 34.516 30.586 34.516 29.656 34.999 29.656 35.235 29.21 35.235 28.267 35.743 27.809 35.743 27.809 35.979 26.904 36.45 26.891 36.685 26.445 36.698 25.515 37.181 25.515 37.43 25.044 37.43 24.127 37.913 24.127 38.148 23.68 38.148 22.75 38.644 22.738 38.88 22.267 38.892 21.337 39.388 21.337 39.525 21.101 39.525 21.089 43.033"/>
      <polygon class="cls-11" points="3.323 33.338 21.089 43.033 21.139 39.525 20.853 39.525 20.853 39.351 18.56 38.124 18.101 38.124 18.101 37.876 17.171 37.392 16.725 37.392 16.725 37.144 15.795 36.648 15.349 36.648 15.349 36.413 14.407 35.904 13.96 35.892 13.96 35.669 13.03 34.404 12.572 34.379 12.572 33.908 11.679 34.367 11.691 33.462 11.183 33.45 10.253 33.698 9.795 33.685 9.807 33.45 8.877 32.954 8.406 32.929 8.406 32.718 7.476 32.222 7.017 32.235 7.017 31.974 6.087 32.036 5.629 32.036 5.629 32.073 4.711 32.197 4.711 32.668 4.24 32.668 3.323 33.338"/>
      <polygon class="cls-1" points="25.503 32.991 26.433 32.991 26.433 37.479 25.503 37.479 25.503 32.991"/>
      <polygon class="cls-11" points="17.171 37.144 18.101 37.144 18.101 38.049 17.171 38.049 17.171 37.144"/>
      <polygon class="cls-1" points="21.312 37.144 23.668 37.144 23.668 38.087 21.312 38.087 21.312 37.144"/>
      <polygon class="cls-11" points="15.795 35.743 16.725 35.743 16.725 37.739 15.795 37.739 15.795 35.743"/>
      <polygon class="cls-11" points="18.56 35.818 20.097 35.818 20.097 39.463 18.56 39.463 18.56 35.818"/>
      <polygon class="cls-1" points="21.312 38.533 22.242 38.533 22.242 39.475 21.312 39.475 21.312 38.533"/>
      <polygon class="cls-11" points="19.911 32.991 20.841 32.991 20.841 40.12 19.911 40.12 19.911 32.991"/>
      <polygon class="cls-11" points="14.407 28.825 15.336 28.825 15.336 37.665 14.407 37.665 14.407 28.825"/>
      <polygon class="cls-1" points="22.725 37.144 23.655 37.144 23.655 39.215 22.725 39.215 22.725 37.144"/>
      <polygon class="cls-1" points="21.312 35.681 22.242 35.681 22.242 38.074 21.312 38.074 21.312 35.681"/>
      <polygon class="cls-1" points="24.102 35.768 25.032 35.768 25.032 38.074 24.102 38.074 24.102 35.768"/>
      <polygon class="cls-6" points="4.687 22.081 5.616 22.081 5.616 22.986 4.687 22.986 4.687 22.081"/>
      <polygon class="cls-6" points="3.286 20.767 4.215 20.767 4.215 21.672 3.286 21.672 3.286 20.767"/>
      <polygon class="cls-7" points="22.676 23.321 23.606 23.321 23.606 24.226 22.676 24.226 22.676 23.321"/>
      <polygon class="cls-7" points="36.512 23.234 37.442 23.234 37.442 24.139 36.512 24.139 36.512 23.234"/>
      <polygon class="cls-11" points="3.273 26.036 4.203 26.036 4.203 28.329 3.273 28.329 3.273 26.036"/>
      <polygon class="cls-11" points="17.134 26.011 18.064 26.011 18.064 26.916 17.134 26.916 17.134 26.011"/>
      <polygon class="cls-11" points="18.56 27.399 19.49 27.399 19.49 28.305 18.56 28.305 18.56 27.399"/>
      <polygon class="cls-1" points="22.676 26.023 23.606 26.023 23.606 26.928 22.676 26.928 22.676 26.023"/>
      <polygon class="cls-7" points="25.441 26.023 26.37 26.023 26.37 26.928 25.441 26.928 25.441 26.023"/>
      <polygon class="cls-7" points="36.5 25.999 37.43 25.999 37.43 26.904 36.5 26.904 36.5 25.999"/>
      <polygon class="cls-11" points="3.273 28.8 5.629 28.8 5.629 29.705 3.273 29.705 3.273 28.8"/>
      <polygon class="cls-11" points="3.967 32.036 4.897 32.036 4.897 32.83 3.967 32.83 3.967 32.036"/>
      <polygon class="cls-6" points="11.629 28.305 12.534 28.305 12.534 31.131 11.629 31.131 11.629 28.305"/>
      <polygon class="cls-11" points="17.134 28.788 19.452 28.788 19.452 29.693 17.134 29.693 17.134 28.788"/>
      <polygon class="cls-1" points="22.676 28.813 24.982 28.813 24.982 29.718 22.676 29.718 22.676 28.813"/>
      <polygon class="cls-1" points="25.441 30.189 26.37 30.189 26.37 30.362 25.441 30.362 25.441 30.189"/>
      <polygon class="cls-1" points="28.205 28.788 29.135 28.788 29.135 29.693 28.205 29.693 28.205 28.788"/>
      <polygon class="cls-7" points="30.97 28.776 31.9 28.776 31.9 29.681 30.97 29.681 30.97 28.776"/>
      <polygon class="cls-1" points="36.5 27.387 37.43 27.387 37.43 29.668 36.5 29.668 36.5 27.387"/>
      <polygon class="cls-11" points="6.087 31.602 7.017 31.602 7.017 32.507 6.087 32.507 6.087 31.602"/>
      <polygon class="cls-1" points="22.738 31.578 23.668 31.578 23.668 32.482 22.738 32.482 22.738 31.578"/>
      <polygon class="cls-1" points="33.809 31.59 34.752 31.59 34.752 33.115 33.809 33.115 33.809 31.59"/>
      <polygon class="cls-11" points="8.865 32.954 9.795 32.954 9.795 33.859 8.865 33.859 8.865 32.954"/>
      <polygon class="cls-11" points="15.795 31.627 19.49 31.627 19.49 32.532 15.795 32.532 15.795 31.627"/>
      <polygon class="cls-1" points="37.888 23.234 38.818 23.234 38.818 24.176 37.888 24.176 37.888 23.234"/>
      <polygon class="cls-11" points="4.662 23.445 5.592 23.445 5.592 25.614 4.662 25.614 4.662 23.445"/>
      <polygon class="cls-11" points="12.944 27.511 13.873 27.511 13.873 31.144 12.944 31.144 12.944 27.511"/>
      <polygon class="cls-6" points="15.745 25.999 16.675 25.999 16.675 26.941 15.745 26.941 15.745 25.999"/>
      <polygon class="cls-11" points="18.547 25.986 19.477 25.986 19.477 26.928 18.547 26.928 18.547 25.986"/>
      <polygon class="cls-11" points="19.924 27.437 20.853 27.437 20.853 29.792 19.924 29.792 19.924 27.437"/>
      <polygon class="cls-1" points="24.064 26.023 24.994 26.023 24.994 26.965 24.064 26.965 24.064 26.023"/>
      <polygon class="cls-1" points="26.829 26.023 27.759 26.023 27.759 26.965 26.829 26.965 26.829 26.023"/>
      <polygon class="cls-1" points="37.888 24.672 38.818 24.672 38.818 26.941 37.888 26.941 37.888 24.672"/>
      <polygon class="cls-11" points="10.266 29.284 11.195 29.284 11.195 31.144 10.266 31.144 10.266 29.284"/>
      <polygon class="cls-11" points="15.733 28.763 16.663 28.763 16.663 29.705 15.733 29.705 15.733 28.763"/>
      <polygon class="cls-11" points="17.146 33.003 19.477 33.003 19.477 33.945 17.146 33.945 17.146 33.003"/>
      <polygon class="cls-1" points="21.287 28.8 22.217 28.8 22.217 29.743 21.287 29.743 21.287 28.8"/>
      <polygon class="cls-1" points="26.817 28.788 27.747 28.788 27.747 29.73 26.817 29.73 26.817 28.788"/>
      <polygon class="cls-7" points="29.582 28.788 30.512 28.788 30.512 29.73 29.582 29.73 29.582 28.788"/>
      <polygon class="cls-11" points="7.476 32.024 8.406 32.024 8.406 33.561 7.476 33.561 7.476 32.024"/>
      <polygon class="cls-1" points="24.077 30.66 25.007 30.66 25.007 32.532 24.077 32.532 24.077 30.66"/>
      <polygon class="cls-1" points="35.21 31.565 36.14 31.565 36.14 32.52 35.21 32.52 35.21 31.565"/>
      <polygon class="cls-11" points="10.253 32.396 11.183 32.396 11.183 34.379 10.253 34.379 10.253 32.396"/>
      <polygon class="cls-1" points="25.986 32.979 27.821 32.979 27.821 33.921 25.986 33.921 25.986 32.979"/>
      <polygon class="cls-1" points="26.879 35.743 27.809 35.743 27.809 36.685 26.879 36.685 26.879 35.743"/>
      <polygon class="cls-11" points="13.03 34.404 13.96 34.404 13.96 36.214 13.03 36.214 13.03 34.404"/>
      <polygon class="cls-11" points="19.936 30.164 20.866 30.164 20.866 32.532 19.936 32.532 19.936 30.164"/>
      <polygon class="cls-1" points="37.975 28.838 38.905 28.838 38.905 33.251 37.975 33.251 37.975 28.838"/>
      <polygon class="cls-11" points="3.298 31.602 4.228 31.602 4.228 33.338 3.298 33.338 3.298 31.602"/>
      <polygon class="cls-1" points="36.487 21.907 37.417 21.907 37.417 22.825 36.487 22.825 36.487 21.907"/>
      <polygon class="cls-6" points="3.286 23.469 4.215 23.469 4.215 25.527 3.286 25.527 3.286 23.469"/>
      <polygon class="cls-1" points="22.676 24.635 23.606 24.635 23.606 25.552 22.676 25.552 22.676 24.635"/>
      <polygon class="cls-1" points="36.5 24.61 37.43 24.61 37.43 25.527 36.5 25.527 36.5 24.61"/>
      <polygon class="cls-11" points="14.357 26.842 15.287 26.842 15.287 28.292 14.357 28.292 14.357 26.842"/>
      <polygon class="cls-11" points="17.134 27.399 18.064 27.399 18.064 28.317 17.134 28.317 17.134 27.399"/>
      <polygon class="cls-1" points="22.676 26.023 23.606 26.023 23.606 28.317 22.676 28.317 22.676 26.023"/>
      <polygon class="cls-1" points="28.205 27.399 29.135 27.399 29.135 28.317 28.205 28.317 28.205 27.399"/>
      <polygon class="cls-11" points="3.261 29.445 4.19 29.445 4.19 31.714 3.261 31.714 3.261 29.445"/>
      <polygon class="cls-11" points="8.765 30.189 9.695 30.189 9.695 32.495 8.765 32.495 8.765 30.189"/>
      <polygon class="cls-11" points="17.122 28.887 18.051 28.887 18.051 31.082 17.122 31.082 17.122 28.887"/>
      <polygon class="cls-1" points="22.664 30.177 23.593 30.177 23.593 31.094 22.664 31.094 22.664 30.177"/>
      <polygon class="cls-1" points="24.374 30.189 26.37 30.189 26.37 31.107 24.374 31.107 24.374 30.189"/>
      <polygon class="cls-1" points="28.193 30.164 29.123 30.164 29.123 31.082 28.193 31.082 28.193 30.164"/>
      <polygon class="cls-1" points="33.784 30.226 34.714 30.226 34.714 31.144 33.784 31.144 33.784 30.226"/>
      <polygon class="cls-1" points="36.487 30.152 38.434 30.152 38.434 32.966 36.487 32.966 36.487 30.152"/>
      <polygon class="cls-1" points="28.267 31.677 29.197 31.677 29.197 36.078 28.267 36.078 28.267 31.677"/>
      <polygon class="cls-1" points="25.478 31.578 26.408 31.578 26.408 32.495 25.478 32.495 25.478 31.578"/>
      <polygon class="cls-11" points="17.171 34.516 18.101 34.516 18.101 36.685 17.171 36.685 17.171 34.516"/>
      <polygon class="cls-11" points="15.845 34.355 18.113 34.355 18.113 35.272 15.845 35.272 15.845 34.355"/>
      <polygon class="cls-1" points="31.044 30.239 31.975 30.239 31.975 34.665 31.044 34.665 31.044 30.239"/>
      <polygon class="cls-11" points="11.629 31.565 12.559 31.565 12.559 35.235 11.629 35.235 11.629 31.565"/>
      <polygon class="cls-11" points="4.699 28.788 5.629 28.788 5.629 32.507 4.699 32.507 4.699 28.788"/>
      <polygon class="cls-11" points="19.936 26.011 20.866 26.011 20.866 26.941 19.936 26.941 19.936 26.011"/>
      <polygon class="cls-7" points="24.077 24.647 25.007 24.647 25.007 25.577 24.077 25.577 24.077 24.647"/>
      <polygon class="cls-11" points="4.674 26.519 5.604 26.519 5.604 29.123 4.674 29.123 4.674 26.519"/>
      <polygon class="cls-6" points="15.758 27.387 16.688 27.387 16.688 28.317 15.758 28.317 15.758 27.387"/>
      <polygon class="cls-1" points="21.312 23.283 22.242 23.283 22.242 28.354 21.312 28.354 21.312 23.283"/>
      <polygon class="cls-1" points="24.077 27.412 25.007 27.412 25.007 28.342 24.077 28.342 24.077 27.412"/>
      <polygon class="cls-7" points="25.503 27.412 27.772 27.412 27.772 28.342 25.503 28.342 25.503 27.412"/>
      <polygon class="cls-1" points="29.606 27.399 30.536 27.399 30.536 28.329 29.606 28.329 29.606 27.399"/>
      <polygon class="cls-1" points="37.901 27.387 38.83 27.387 38.83 28.317 37.901 28.317 37.901 27.387"/>
      <polygon class="cls-11" points="15.745 30.152 16.675 30.152 16.675 31.082 15.745 31.082 15.745 30.152"/>
      <polygon class="cls-11" points="18.473 34.367 19.403 34.367 19.403 35.297 18.473 35.297 18.473 34.367"/>
      <polygon class="cls-1" points="24.064 30.177 24.994 30.177 24.994 31.107 24.064 31.107 24.064 30.177"/>
      <polygon class="cls-1" points="26.879 30.177 27.809 30.177 27.809 32.52 26.879 32.52 26.879 30.177"/>
      <polygon class="cls-1" points="28.664 30.177 30.524 30.177 30.524 31.107 28.664 31.107 28.664 30.177"/>
      <polygon class="cls-7" points="32.433 30.226 33.363 30.226 33.363 31.156 32.433 31.156 32.433 30.226"/>
      <polygon class="cls-1" points="24.102 32.954 25.032 32.954 25.032 35.285 24.102 35.285 24.102 32.954"/>
      <polygon class="cls-1" points="29.644 32.979 30.573 32.979 30.573 35.297 29.644 35.297 29.644 32.979"/>
      <polygon class="cls-1" points="22.688 32.954 25.019 32.954 25.019 33.884 22.688 33.884 22.688 32.954"/>
      <polygon class="cls-11" points="8.765 31.615 11.17 31.615 11.17 33.884 8.765 33.884 8.765 31.615"/>
      <polygon class="cls-1" points="26.904 34.379 27.833 34.379 27.833 35.285 26.904 35.285 26.904 34.379"/>
      <polygon class="cls-1" points="22.713 35.768 23.643 35.768 23.643 36.685 22.713 36.685 22.713 35.768"/>
      <polygon class="cls-11" points="13.018 33.028 13.948 33.028 13.948 33.958 13.018 33.958 13.018 33.028"/>
      <polygon class="cls-11" points="15.783 32.954 16.713 32.954 16.713 35.272 15.783 35.272 15.783 32.954"/>
      <polygon class="cls-1" points="32.421 32.507 33.35 32.507 33.35 33.859 32.421 33.859 32.421 32.507"/>
      <polygon class="cls-11" points="11.629 31.553 13.935 31.553 13.935 32.482 11.629 32.482 11.629 31.553"/>
      <polygon class="cls-1" points="29.656 30.71 30.586 30.71 30.586 32.47 29.656 32.47 29.656 30.71"/>
      <polygon class="cls-11" points="18.597 24.622 19.527 24.622 19.527 25.565 18.597 25.565 18.597 24.622"/>
      <polygon class="cls-11" points="19.973 24.622 20.903 24.622 20.903 25.565 19.973 25.565 19.973 24.622"/>
      <polygon class="cls-6" points="19.948 23.308 20.878 23.308 20.878 24.25 19.948 24.25 19.948 23.308"/>
      <polygon class="cls-6" points="17.221 24.635 18.151 24.635 18.151 25.577 17.221 25.577 17.221 24.635"/>
      <polygon class="cls-6" points="7.501 30.673 8.431 30.673 8.431 31.615 7.501 31.615 7.501 30.673"/>
      <polygon class="cls-1" points="21.312 30.226 22.242 30.226 22.242 35.272 21.312 35.272 21.312 30.226"/>
      <polygon class="cls-1" points="28.887 34.392 29.817 34.392 29.817 35.297 28.887 35.297 28.887 34.392"/>
    </g>
  </g>
</svg>
