<svg id="Layer_1" data-name="Layer 1" xmlns="http://www.w3.org/2000/svg" viewBox="0 0 378.375 378.374">
  <defs>
    <style>
      .cls-1 {
        fill: #231f20;
      }

      .cls-2 {
        fill: #fff;
        fill-rule: evenodd;
      }
    </style>
  </defs>
  <title>Facebook-icon</title>
  <circle id="_Path_" data-name="&lt;Path&gt;" class="cls-1" cx="189.188" cy="189.187" r="189.187"/>
  <path id="_Path_2" data-name="&lt;Path&gt;" class="cls-2" d="M226.354,313.1c0-17.705-.068-35.41.064-53.113.024-2.985-.82-3.918-3.8-3.8-5.516.224-11.049-.024-16.573.1-2.237.057-3.061-.563-3.036-2.933q.167-16.569.012-33.148c-.02-2.125.62-2.824,2.769-2.776,5.649.13,11.308-.158,16.946.121,3.268.16,3.944-1,3.876-4.033q-.3-12.61-.013-25.235c.224-10.268,2.98-19.856,9.1-28.206,7.74-10.574,18.745-15.408,31.441-15.975,13.039-.579,26.111-.258,39.166-.4,1.82-.021,2.363.63,2.355,2.4q-.088,16.759.008,33.523c.018,1.987-.631,2.6-2.582,2.564-6.279-.1-12.559-.05-18.834-.033-8.357.026-13.359,4.325-13.883,12.6-.42,6.632-.113,13.3-.267,19.955-.057,2.369,1.352,2.207,2.92,2.205,9.541-.015,19.086.095,28.627-.068,2.8-.049,3.724.6,3.4,3.544-1.2,11.1-2.232,22.225-3.184,33.354-.217,2.512-1.363,2.99-3.619,2.953-7.527-.116-15.062-.08-22.6-.032-5.41.032-4.885-.793-4.885,4.725-.026,34.654-.072,69.31.076,103.965.016,3.66-.92,4.568-4.541,4.5q-19.395-.358-38.8.006c-3.644.072-4.243-1.164-4.215-4.414C226.424,348,226.354,330.552,226.354,313.1Z" transform="translate(-66.812 -66.813)"/>
</svg>
