<svg id="Слой_1" data-name="Слой 1" xmlns="http://www.w3.org/2000/svg" viewBox="0 0 445.996 445.996">
  <defs>
    <style>
      .cls-1 {
        fill: #3d9be9;
      }

      .cls-2 {
        fill: #ddf2fc;
      }
    </style>
  </defs>
  <title>Fb</title>
  <g id="Слой_1-2" data-name="Слой_1">
    <circle id="_Path_" data-name=" Path " class="cls-1" cx="222.998" cy="222.998" r="222.998"/>
    <path id="_Path_2" data-name=" Path 2" class="cls-2" d="M256.651,339.815c0-20.869-.08-41.738.075-62.605.028-3.518-.966-4.618-4.479-4.479-6.5.264-13.024-.028-19.535.118-2.637.067-3.608-.664-3.579-3.457q.2-19.53.014-39.072c-.024-2.5.731-3.329,3.264-3.272,6.659.153,13.329-.186,19.975.143,3.852.189,4.649-1.179,4.569-4.754q-.353-14.864-.015-29.745c.264-12.1,3.513-23.4,10.726-33.247,9.123-12.464,22.095-18.162,37.06-18.83,15.369-.683,30.777-.3,46.166-.471,2.145-.025,2.785.742,2.776,2.829q-.1,19.754.009,39.514c.021,2.342-.744,3.065-3.043,3.022-7.4-.118-14.8-.059-22.2-.039-9.85.031-15.746,5.1-16.364,14.852-.495,7.817-.133,15.677-.315,23.521-.067,2.792,1.594,2.6,3.442,2.6,11.246-.018,22.5.112,33.743-.08,3.3-.058,4.389.707,4.008,4.177-1.414,13.084-2.631,26.2-3.753,39.315-.256,2.961-1.606,3.524-4.266,3.481-8.872-.137-17.754-.094-26.639-.038-6.377.038-5.758-.935-5.758,5.57-.03,40.847-.085,81.7.09,122.545.019,4.314-1.085,5.384-5.353,5.3q-22.862-.422-45.734.007c-4.3.085-5-1.372-4.968-5.2.167-20.568.085-41.134.085-61.7Z" transform="translate(-68.598 -49.513)"/>
  </g>
</svg>
