<svg id="Слой_1" data-name="Слой 1" xmlns="http://www.w3.org/2000/svg" viewBox="0 0 123.96 19.952">
  <defs>
    <style>
      .cls-1 {
        fill: #f3b508;
      }

      .cls-2 {
        fill: gray;
      }

      .cls-3 {
        fill: #f1f1ee;
      }

      .cls-4 {
        fill: #fada85;
      }

      .cls-5 {
        fill: #d9940d;
      }
    </style>
  </defs>
  <title>gs_gr</title>
  <g id="Слой_1-2" data-name="Слой_1">
    <path class="cls-1" d="M3.925,11.876c0-2.8-.532-2.441,3.457-2.438,2.666,0,3.553-.343,3.552.874v5.213c0,.718-.243.91-.945.91A39.632,39.632,0,0,1,4.1,16.323C3.781,15.581,3.925,12.936,3.925,11.876ZM14.418,6.7c-.869.025-1.739.016-2.608.02-1.061,0-1.5-.071-1.895-.874-.824-.742-.75-.649-.743-2.179a27.307,27.307,0,0,0-.045-3C7.812.669,1.439.456.852.916c-.845.663-.508,3.138-.508,4.7v6.907c0,8.649-1.373,7.428,6.516,7.428,7.969,0,7.559.714,7.558-2.737Z" transform="translate(-0.253 -0.62)"/>
    <path class="cls-2" d="M25.828,9.281c0,9.684,13.3,9.2,13.3,1.547v-1.7H33.1c-.6,0-.464.4-.464,1.392,0,.357.108.464.464.464h4.022c-.077,3.458-4.946,4.993-7.7,2.286-1.488-1.462-1.426-2.343-1.426-4.142,0-2.071,2.27-4.331,4.795-4.331a5.351,5.351,0,0,1,3.4,1.392l1.27-1.36C35.746,2.315,28.989,1.7,26.5,6.7A6.89,6.89,0,0,0,25.828,9.281Z" transform="translate(-0.253 -0.62)"/>
    <path class="cls-2" d="M63.414,9.59c3.151,0,2.877,5.1.309,5.1-1.78,0-2.8-1-2.708-2.59A2.388,2.388,0,0,1,63.414,9.59Zm-.464,6.96c2.341,0,1.605-.5,2.629-.773a3.066,3.066,0,0,1-.431,2.044c-.835,1.152-2.932,1.47-4.055-.652-.639.149-.941.442-1.7.619.114,1.371,2.229,2.784,3.867,2.784a3.977,3.977,0,0,0,4.176-4.022V8.043H65.579v.619a3.24,3.24,0,0,0-2.32-.928,4.477,4.477,0,0,0-3.206,7.383A4.171,4.171,0,0,0,62.95,16.55Z" transform="translate(-0.253 -0.62)"/>
    <path class="cls-3" d="M4.843,11.411l5.2.037-.005,3.015L4.8,14.444Zm-.918.465c0,1.06-.143,3.7.174,4.447a39.632,39.632,0,0,0,5.889.112c.7,0,.944-.192.945-.91V10.312c0-1.217-.886-.872-3.552-.874C3.393,9.435,3.923,9.08,3.925,11.876Z" transform="translate(-0.253 -0.62)"/>
    <path class="cls-2" d="M103.319,9.281c3.408,0,3.408,5.878,0,5.878C99.964,15.158,99.964,9.281,103.319,9.281Zm2.475-.309c-1.421-.952-1.036-1.083-3.094-1.083-1.93,0-3.557,2.14-3.557,4.331a4.08,4.08,0,0,0,4.021,4.331c1.679,0,1.849-.611,2.784-1.237v.928h1.547V4.8c0-.631-.485-.464-1.7-.464Z" transform="translate(-0.253 -0.62)"/>
    <path class="cls-2" d="M83.83,7.27c0,4.124,6.187,2.737,6.187,5.877,0,2.259-4.328,2.868-5.1-.464-.474.227-1.073.391-1.547.619A4.854,4.854,0,0,0,84.729,15.5c3.669,2.915,8.626-.555,6.468-4.148a4.606,4.606,0,0,0-2.746-1.894C87,8.977,85.531,8.53,85.531,7.27c0-2.01,3.677-2.3,4.176-.155a10.146,10.146,0,0,0,1.547-.464,1.456,1.456,0,0,0-.478-1.069C88.667,2.82,83.83,4.052,83.83,7.27Z" transform="translate(-0.253 -0.62)"/>
    <path class="cls-2" d="M51.349,12.374c0-2.931,2.974-3.44,4.223-2.058,1.266,1.4.888,4.378-1.9,4.378A2.549,2.549,0,0,1,51.349,12.374Zm-2.011-.155A4.379,4.379,0,0,0,53.36,16.55c1.567,0,2.518-.071,3.758-1.346a4.445,4.445,0,0,0-3.294-7.47A4.4,4.4,0,0,0,49.338,12.219Z" transform="translate(-0.253 -0.62)"/>
    <path class="cls-2" d="M44.544,14.694H43.77c-2.45,0-2.983-5.1.464-5.1C47.54,9.59,47.191,14.694,44.544,14.694Zm-4.795-2.629A4.344,4.344,0,0,0,43.77,16.55a4.471,4.471,0,0,0,3.754-1.35c2.47-2.675.731-7.466-3.136-7.466A4.379,4.379,0,0,0,39.749,12.065Z" transform="translate(-0.253 -0.62)"/>
    <path class="cls-2" d="M73.622,11.91a2.189,2.189,0,0,1,3.712-1.7A14.443,14.443,0,0,1,73.622,11.91Zm-2.011-.155c0,5.5,5.983,6.015,8.043,2.939a4.771,4.771,0,0,0-1.392-1.083c-1.185.793-.558,1.083-2.629,1.083a1.927,1.927,0,0,1-1.7-1.237l4.327-1.706a9.688,9.688,0,0,1,1.551-.615,6.563,6.563,0,0,0-1.35-2.363,4.136,4.136,0,0,0-6.848,2.981Z" transform="translate(-0.253 -0.62)"/>
    <path class="cls-2" d="M112.754,9.281a2.455,2.455,0,0,1,2.32,1.856h-4.64A2.383,2.383,0,0,1,112.754,9.281Zm-.31,7.269c1.725,0,3.584-.442,4.022-2.32a10.114,10.114,0,0,0-1.547-.464c-.528,1.978-4.37,2.013-4.64-1.237h6.5c0-2.45-1.3-4.64-3.557-4.64h-.928c-2.157,0-3.632,2.273-3.632,4.331a4.675,4.675,0,0,0,1,2.945A3.926,3.926,0,0,0,112.444,16.55Z" transform="translate(-0.253 -0.62)"/>
    <path class="cls-2" d="M122.5,13.921c0,1.4-2.455,2.068-3.712-.31-.679.158-.646.4-1.392.464a3.283,3.283,0,0,0,3.093,2.475h.928c2.835,0,4.206-3.849.743-4.919-1.168-.361-2.791-.363-2.908-1.268-.124-.955,2.385-1.924,3.4,0,.679-.158.646-.4,1.392-.464a2.125,2.125,0,0,0-.92-1.4c-2.5-1.786-7.034.41-5.145,2.98a3.789,3.789,0,0,0,2.177,1.226C120.888,12.917,122.5,13,122.5,13.921Z" transform="translate(-0.253 -0.62)"/>
    <path class="cls-2" d="M68.672,3.867V16.241h2.011V3.4H69.136C68.78,3.4,68.672,3.511,68.672,3.867Z" transform="translate(-0.253 -0.62)"/>
    <polygon class="cls-1" points="4.546 13.824 9.787 13.843 9.793 10.828 4.59 10.791 4.546 13.824"/>
    <path class="cls-4" d="M9.915,5.846a29.872,29.872,0,0,0,4.5.1,62.494,62.494,0,0,0-4.462-4.6A2.386,2.386,0,0,0,9.128.669a27.307,27.307,0,0,1,.045,3C9.165,5.2,9.092,5.1,9.915,5.846Z" transform="translate(-0.253 -0.62)"/>
    <polygon class="cls-2" points="92.703 15.621 94.249 15.621 94.249 3.711 92.703 3.711 92.703 15.621"/>
    <path class="cls-2" d="M96.2,8.507v7.733h1.7V8.507C97.905,7.8,96.2,7.8,96.2,8.507Z" transform="translate(-0.253 -0.62)"/>
    <path class="cls-5" d="M14.418,6.7V5.949a29.873,29.873,0,0,1-4.5-.1c.393.8.834.878,1.895.874C12.679,6.716,13.549,6.725,14.418,6.7Z" transform="translate(-0.253 -0.62)"/>
    <path class="cls-2" d="M97.132,6.5c1.558,0,1.2-2.32.154-2.32A1.167,1.167,0,1,0,97.132,6.5Z" transform="translate(-0.253 -0.62)"/>
  </g>
</svg>
