<svg id="Слой_1" data-name="Слой 1" xmlns="http://www.w3.org/2000/svg" viewBox="0 0 123.96 19.952">
  <defs>
    <style>
      .cls-1 {
        fill: #f3b508;
      }

      .cls-2 {
        fill: #fff;
      }

      .cls-3 {
        fill: #f1f1ee;
      }

      .cls-4 {
        fill: #fada85;
      }

      .cls-5 {
        fill: #d9940d;
      }
    </style>
  </defs>
  <title>gs_whr</title>
  <g id="Слой_1-2" data-name="Слой_1">
    <path class="cls-1" d="M4.115,11.884c0-2.8-.532-2.441,3.457-2.438,2.666,0,3.553-.343,3.552.874v5.213c0,.718-.243.91-.945.91a39.632,39.632,0,0,1-5.889-.112C3.971,15.589,4.115,12.944,4.115,11.884ZM14.608,6.708c-.869.025-1.739.016-2.608.02-1.061,0-1.5-.071-1.895-.874-.824-.742-.75-.649-.743-2.179a27.307,27.307,0,0,0-.045-3C8,.677,1.629.464,1.042.924.2,1.587.534,4.062.534,5.629v6.907c0,8.649-1.373,7.428,6.516,7.428,7.969,0,7.559.714,7.558-2.737Z" transform="translate(-0.443 -0.628)"/>
    <path class="cls-2" d="M26.018,9.289c0,9.684,13.3,9.2,13.3,1.547v-1.7H33.288c-.6,0-.464.4-.464,1.392,0,.357.108.464.464.464h4.022c-.077,3.458-4.946,4.993-7.7,2.286-1.488-1.462-1.426-2.343-1.426-4.142,0-2.071,2.27-4.331,4.795-4.331a5.351,5.351,0,0,1,3.4,1.392l1.27-1.36c-1.716-2.513-8.473-3.127-10.966,1.872A6.89,6.89,0,0,0,26.018,9.289Z" transform="translate(-0.443 -0.628)"/>
    <path class="cls-2" d="M63.6,9.6c3.151,0,2.877,5.1.309,5.1-1.78,0-2.8-1-2.708-2.59A2.388,2.388,0,0,1,63.6,9.6Zm-.464,6.96c2.341,0,1.605-.5,2.629-.773a3.066,3.066,0,0,1-.431,2.044c-.835,1.152-2.932,1.47-4.055-.652-.639.149-.941.442-1.7.619.114,1.371,2.229,2.784,3.867,2.784a3.977,3.977,0,0,0,4.176-4.022V8.051H65.769V8.67a3.24,3.24,0,0,0-2.32-.928,4.477,4.477,0,0,0-3.206,7.383A4.171,4.171,0,0,0,63.139,16.558Z" transform="translate(-0.443 -0.628)"/>
    <path class="cls-3" d="M5.033,11.419l5.2.037L10.23,14.47l-5.242-.018Zm-.918.465c0,1.06-.143,3.7.174,4.447a39.632,39.632,0,0,0,5.889.112c.7,0,.944-.192.945-.91V10.32c0-1.217-.886-.872-3.552-.874C3.583,9.443,4.113,9.088,4.115,11.884Z" transform="translate(-0.443 -0.628)"/>
    <path class="cls-2" d="M103.509,9.289c3.408,0,3.408,5.878,0,5.878C100.154,15.166,100.154,9.289,103.509,9.289Zm2.475-.309c-1.421-.952-1.036-1.083-3.094-1.083-1.93,0-3.557,2.14-3.557,4.331a4.08,4.08,0,0,0,4.021,4.331c1.679,0,1.849-.611,2.784-1.237v.928h1.547V4.8c0-.631-.485-.464-1.7-.464Z" transform="translate(-0.443 -0.628)"/>
    <path class="cls-2" d="M84.02,7.278c0,4.124,6.187,2.737,6.187,5.877,0,2.259-4.328,2.868-5.1-.464-.474.227-1.073.391-1.547.619A4.854,4.854,0,0,0,84.919,15.5c3.669,2.915,8.626-.555,6.468-4.148a4.606,4.606,0,0,0-2.746-1.894c-1.452-.477-2.92-.924-2.92-2.184,0-2.01,3.677-2.3,4.176-.155a10.146,10.146,0,0,0,1.547-.464,1.456,1.456,0,0,0-.478-1.069C88.857,2.828,84.02,4.06,84.02,7.278Z" transform="translate(-0.443 -0.628)"/>
    <path class="cls-2" d="M51.539,12.382c0-2.931,2.974-3.44,4.223-2.058,1.266,1.4.888,4.378-1.9,4.378A2.549,2.549,0,0,1,51.539,12.382Zm-2.011-.155a4.379,4.379,0,0,0,4.022,4.331c1.567,0,2.518-.071,3.758-1.346a4.445,4.445,0,0,0-3.294-7.47A4.4,4.4,0,0,0,49.528,12.227Z" transform="translate(-0.443 -0.628)"/>
    <path class="cls-2" d="M44.734,14.7H43.96c-2.45,0-2.983-5.1.464-5.1C47.729,9.6,47.381,14.7,44.734,14.7Zm-4.795-2.629a4.344,4.344,0,0,0,4.022,4.485,4.471,4.471,0,0,0,3.754-1.35c2.47-2.675.731-7.466-3.136-7.466A4.379,4.379,0,0,0,39.939,12.073Z" transform="translate(-0.443 -0.628)"/>
    <path class="cls-2" d="M73.812,11.918a2.189,2.189,0,0,1,3.712-1.7A14.443,14.443,0,0,1,73.812,11.918ZM71.8,11.763c0,5.5,5.983,6.015,8.043,2.939a4.771,4.771,0,0,0-1.392-1.083c-1.185.793-.558,1.083-2.629,1.083a1.927,1.927,0,0,1-1.7-1.237l4.327-1.706A9.688,9.688,0,0,1,80,11.145a6.563,6.563,0,0,0-1.35-2.363A4.136,4.136,0,0,0,71.8,11.763Z" transform="translate(-0.443 -0.628)"/>
    <path class="cls-2" d="M112.944,9.289a2.455,2.455,0,0,1,2.32,1.856h-4.64A2.383,2.383,0,0,1,112.944,9.289Zm-.31,7.269c1.725,0,3.584-.442,4.022-2.32a10.114,10.114,0,0,0-1.547-.464c-.528,1.978-4.37,2.013-4.64-1.237h6.5c0-2.45-1.3-4.64-3.557-4.64h-.928c-2.157,0-3.632,2.273-3.632,4.331a4.675,4.675,0,0,0,1,2.945A3.926,3.926,0,0,0,112.634,16.558Z" transform="translate(-0.443 -0.628)"/>
    <path class="cls-2" d="M122.688,13.929c0,1.4-2.455,2.068-3.712-.31-.679.158-.646.4-1.392.464a3.283,3.283,0,0,0,3.093,2.475h.928c2.835,0,4.206-3.849.743-4.919-1.168-.361-2.791-.363-2.908-1.268-.124-.955,2.385-1.924,3.4,0,.679-.158.646-.4,1.392-.464a2.125,2.125,0,0,0-.92-1.4c-2.5-1.786-7.034.41-5.145,2.98a3.789,3.789,0,0,0,2.177,1.226C121.078,12.925,122.688,13,122.688,13.929Z" transform="translate(-0.443 -0.628)"/>
    <path class="cls-2" d="M68.862,3.875V16.249h2.011V3.411H69.326C68.97,3.411,68.862,3.519,68.862,3.875Z" transform="translate(-0.443 -0.628)"/>
    <polygon class="cls-1" points="4.546 13.824 9.787 13.843 9.793 10.828 4.59 10.791 4.546 13.824"/>
    <path class="cls-4" d="M10.105,5.854a29.872,29.872,0,0,0,4.5.1,62.494,62.494,0,0,0-4.462-4.6A2.386,2.386,0,0,0,9.317.677a27.307,27.307,0,0,1,.045,3C9.355,5.205,9.281,5.112,10.105,5.854Z" transform="translate(-0.443 -0.628)"/>
    <polygon class="cls-2" points="92.703 15.621 94.249 15.621 94.249 3.711 92.703 3.711 92.703 15.621"/>
    <path class="cls-2" d="M96.394,8.515v7.733h1.7V8.515C98.1,7.808,96.394,7.808,96.394,8.515Z" transform="translate(-0.443 -0.628)"/>
    <path class="cls-5" d="M14.608,6.708V5.956a29.873,29.873,0,0,1-4.5-.1c.393.8.834.878,1.895.874C12.869,6.724,13.739,6.733,14.608,6.708Z" transform="translate(-0.443 -0.628)"/>
    <path class="cls-2" d="M97.322,6.5c1.558,0,1.2-2.32.154-2.32A1.167,1.167,0,1,0,97.322,6.5Z" transform="translate(-0.443 -0.628)"/>
  </g>
</svg>
