<svg id="_1" data-name="1" xmlns="http://www.w3.org/2000/svg" viewBox="0 0 182.884 23.851">
  <defs>
    <style>
      .cls-1 {
        fill: #f3b500;
      }

      .cls-1, .cls-2, .cls-3, .cls-4, .cls-5, .cls-6, .cls-7, .cls-8 {
        fill-rule: evenodd;
      }

      .cls-2 {
        fill: #4480f5;
      }

      .cls-3 {
        fill: #3566c4;
      }

      .cls-4 {
        fill: #af362a;
      }

      .cls-5 {
        fill: #db4533;
      }

      .cls-6 {
        fill: #ccc;
      }

      .cls-7 {
        fill: #b6b6b6;
      }

      .cls-8, .cls-9 {
        fill: gray;
      }
    </style>
  </defs>
  <title>gwb_gra</title>
  <g>
    <path class="cls-1" d="M34.748,12.428H26.813a12.664,12.664,0,0,0,4.145,9.5A13.173,13.173,0,0,0,40.1,25.513V17.794A5.43,5.43,0,0,1,34.748,12.428Z" transform="translate(-26.803 -1.669)"/>
    <path class="cls-2" d="M39.322,7.839V1.672a10.791,10.791,0,0,0-7.786,3.334,10.988,10.988,0,0,0-2.894,6.246s4.922.92,6.1,1.175A4.494,4.494,0,0,1,39.322,7.839Z" transform="translate(-26.803 -1.669)"/>
    <path class="cls-3" d="M28.646,11.253a4.986,4.986,0,0,0-.044,1.175h6.146Z" transform="translate(-26.803 -1.669)"/>
    <path class="cls-4" d="M39.322,7.839l1.184-4.261a6.661,6.661,0,0,0-1.184-.052Z" transform="translate(-26.803 -1.669)"/>
    <path class="cls-5" d="M39.322,7.839a3.915,3.915,0,0,1,3.972,4h4.151a8.213,8.213,0,0,0-6.939-8.265C40.214,4.638,39.322,7.839,39.322,7.839Z" transform="translate(-26.803 -1.669)"/>
    <path class="cls-6" d="M40.105,17.794l1.429-3.177A3.323,3.323,0,0,0,43.3,11.84c.546.24,1.862.783,2.463,1.05A5.975,5.975,0,0,1,40.105,17.794Z" transform="translate(-26.803 -1.669)"/>
    <path class="cls-7" d="M41.535,14.617a2.383,2.383,0,0,1-1.429.339v2.838l1.429-3.177Zm1.759-2.776H45.9a2.546,2.546,0,0,1-.146,1.049C45.212,12.653,43.294,11.84,43.294,11.84Z" transform="translate(-26.803 -1.669)"/>
  </g>
  <path class="cls-8" d="M55.032,13.341a5.83,5.83,0,0,0,.757,3.671c3.161,6.094,12.653,4.57,12.653-2.405,0-.907.125-1.265-.38-1.265h-6.2c0,2.416-.819,1.9,4.554,1.9-.268.559-.254,1.7-1.206,2.462a4.92,4.92,0,0,1-7.653-5.755,4.856,4.856,0,0,1,6.5-2.445l1.473.8c.163-.609.927-.6,1.139-1.392-.8-1.087-3-1.9-4.681-1.9C58.253,7.016,55.032,10.37,55.032,13.341Z" transform="translate(-26.803 -1.669)"/>
  <path class="cls-8" d="M115.943,20.362c2.1,0,1.211-.108,2.481-3.718a24.718,24.718,0,0,1,1.441-3.873,24.656,24.656,0,0,0,1.184,3.875l.612,1.919c.583,2.161.429,1.8,2,1.8.378,0,.318-.143.419-.466l.548-2.362c.3-1.047.541-1.906.83-2.965l1.2-4.5a10.02,10.02,0,0,0,.423-1.6H125.3a5.246,5.246,0,0,1-.268,1.124c-.112.37-.17.652-.27,1.122l-1.157,4.535c-.175.7-.365,1.95-.708,2.2-.074-.881-1.406-4.228-1.772-5.566a13.834,13.834,0,0,0-.632-1.9h-1.518c-.152.653-.435,1.308-.606,1.925l-1.925,5.666c-.056-.672-2.073-7.687-2.4-9.109-2.944,0-1.491-.5-.265,5.325.309,1.466,1.09,3.595,1.431,5.021C115.318,19.261,115.373,20.362,115.943,20.362Z" transform="translate(-26.803 -1.669)"/>
  <path class="cls-8" d="M90.2,16.377c0-3.272,4.681-3.8,4.681.253a2.37,2.37,0,0,1-2.373,2.342,2.552,2.552,0,0,1-1.621-.752,2.368,2.368,0,0,1-.687-1.843Zm-2.024-.253h0a4.335,4.335,0,0,0,4.555,4.681,3.371,3.371,0,0,0,2.024-.885c0,1.245-.13,2.63-1.659,2.9-2.3.412-2.634-1.386-2.9-1.386a5.706,5.706,0,0,0-1.645.633,3.584,3.584,0,0,0,1.395,1.894,4.181,4.181,0,0,0,4.192.53,4,4,0,0,0,2.51-3.942V12.076h-1.9v.759c-1.292-.865-.751-.886-2.784-.886C90.157,11.95,88.177,14.131,88.177,16.125Z" transform="translate(-26.803 -1.669)"/>
  <path class="cls-8" d="M179.7,16.313c0-3.945,4.934-3.588,4.934-.38,0,1.635-.58,3.163-2.53,3.163a2.628,2.628,0,0,1-2.4-2.783Zm-1.645-.38h0a4.1,4.1,0,0,0,1.208,3.473,3.1,3.1,0,0,0,1.065.833c1.957.922,3.16,0,4.306-.763,0,1.23-.2,2.7-1.673,3.008-1.441.3-2.714-.1-3.008-1.364-.8.018-.839.348-1.518.506.169,2.031,4.15,3.7,6.613,1.427a4.124,4.124,0,0,0,1.23-3.071V12.139h-1.645v1.012C182.2,10.349,178.059,12.6,178.059,15.934Z" transform="translate(-26.803 -1.669)"/>
  <path class="cls-8" d="M153.01,18.717h-2.4V9.988c2.434,0,4.773-.1,5.907,2.315s.031,6.414-3.5,6.414Zm-4.048,1.645h3.921a5.619,5.619,0,0,0,5.693-5.44c0-1.885-.068-3.3-1.607-4.844-2.072-2.072-4.954-1.608-8.007-1.608Z" transform="translate(-26.803 -1.669)"/>
  <path class="cls-8" d="M139.853,13.4a2.531,2.531,0,0,1,1.684.845c1.427,1.5.533,4.847-1.684,4.847a2.194,2.194,0,0,1-1.865-.791,3.4,3.4,0,0,1-.755-2.019,2.67,2.67,0,0,1,2.62-2.883Zm-4.175,6.578h0c0,.528.439.38,1.518.38V19.35c.721.483,2.039,2.01,4.433.891l.869-.649c3.591-3.463-.305-9.388-4.141-7.3a9.233,9.233,0,0,0-1.035.737V8.47h-1.645Z" transform="translate(-26.803 -1.669)"/>
  <path class="cls-8" d="M102.473,16.125c0-2.766,3.287-2.948,3.669-1.518l-3.669,1.518Zm-2.151.253h0a4.472,4.472,0,0,0,8.223,2.4,18.676,18.676,0,0,0-1.644-1.012,2.507,2.507,0,0,1-2.137,1.221,2.261,2.261,0,0,1-2.038-1.348,63.145,63.145,0,0,0,5.946-2.4c-.865-1.635-1.834-3.667-4.573-3.318a4.005,4.005,0,0,0-2.66,1.4A4.943,4.943,0,0,0,100.322,16.377Z" transform="translate(-26.803 -1.669)"/>
  <path class="cls-8" d="M80.713,16.757c0-1-.079-1.74.77-2.393a2.434,2.434,0,0,1,1.718-.593c3.018.253,3.079,4.8.1,5.2a2.365,2.365,0,0,1-2.59-2.213Zm-2.15-.506h0a4.392,4.392,0,0,0,4.175,4.554,4.119,4.119,0,0,0,3.578-1.356,4.481,4.481,0,1,0-7.752-3.2Z" transform="translate(-26.803 -1.669)"/>
  <path class="cls-8" d="M71.1,16.377a2.44,2.44,0,0,1,3.958-2.06c2.569,2.27-.853,6.585-3.318,3.825a3.427,3.427,0,0,1-.639-1.764Zm-2.024-.506h0v.759a4.485,4.485,0,0,0,7.484,3.057,4.643,4.643,0,0,0,.2-6.444c-1.416-1.379-2.244-1.293-3.894-1.293C71.16,11.95,69.074,14.142,69.074,15.872Z" transform="translate(-26.803 -1.669)"/>
  <path class="cls-8" d="M163.258,13.4a2.1,2.1,0,0,1,2.277,1.771h-4.428c.326-.615.781-1.771,2.151-1.771Zm-3.922,2.53h0a4.167,4.167,0,0,0,1.208,3.473,3.083,3.083,0,0,0,1.151.873c2.588,1.125,5.244-.7,5.358-2.069a10.036,10.036,0,0,0-1.518-.506c-.469,2.012-4.29,2.043-4.555-1.139h6.326a4.5,4.5,0,0,0-1.119-3.561,4.282,4.282,0,0,0-1.115-.783A4.1,4.1,0,0,0,159.336,15.934Z" transform="translate(-26.803 -1.669)"/>
  <path class="cls-8" d="M130.745,13.4a2.123,2.123,0,0,1,2.277,1.771h-4.428a2.4,2.4,0,0,1,2.151-1.771Zm-3.922,2.277h0a4.741,4.741,0,0,0,1.23,3.83,3.853,3.853,0,0,0,1.219.806c2.1.829,4.814-.156,5.268-2.105a11.75,11.75,0,0,0-1.518-.506c-.589,2.207-4.489,1.778-4.554-1.139h6.325v-.759A3.955,3.955,0,0,0,128,13.065,4.885,4.885,0,0,0,126.823,15.681Z" transform="translate(-26.803 -1.669)"/>
  <path class="cls-8" d="M199.693,13.4a2.177,2.177,0,0,1,2.277,1.771h-4.428a2.219,2.219,0,0,1,2.151-1.771Zm-3.922,2.277h0c0,1.925.287,3.622,2.274,4.558a4.521,4.521,0,0,0,4.057-.252,3.752,3.752,0,0,0,1.387-1.776c-.607-.142-.911-.365-1.518-.506-.573,2.148-4.554,1.863-4.554-1.139h6.325c0-4.639-3.812-5.283-5.7-4.307A4.166,4.166,0,0,0,195.771,15.681Z" transform="translate(-26.803 -1.669)"/>
  <path class="cls-8" d="M189.192,13.151V12.139h-1.518v8.223c2.112,0,1.653.576,1.64-4.306-.009-3.482,3.926-3.478,3.926-.5v4.807h1.645V15.428c0-3.192-2.565-4.253-4.644-3.126C189.7,12.6,189.646,12.847,189.192,13.151Z" transform="translate(-26.803 -1.669)"/>
  <path class="cls-8" d="M167.938,14.289c0,2.87,4.241,2.262,4.822,3.414.619,1.229-1.71,1.946-2.951.915a4.184,4.184,0,0,1-.731-1.039,4.649,4.649,0,0,1-1.392.506,3.846,3.846,0,0,0,1.231,1.805c1.665,1.476,5.6.625,5.6-1.805a2.684,2.684,0,0,0-.6-1.554A3,3,0,0,0,172.6,15.7c-.87-.313-2.915-.456-3.022-1.28-.144-1.111,2.867-1.58,3.289,0,.617-.051.7-.322,1.392-.379-.04-1.791-3.021-2.959-5.294-1.5A2.223,2.223,0,0,0,167.938,14.289Z" transform="translate(-26.803 -1.669)"/>
  <rect class="cls-9" x="70.989" y="5.853" width="1.898" height="13.031"/>
  <path class="cls-8" d="M206.145,13.277V12.139h-1.519v8.223c2.485,0,1.418.443,1.641-4.558.1-2.193,1.712-2.147,2.914-2.147a10,10,0,0,0,.506-1.518A2.951,2.951,0,0,0,206.145,13.277Z" transform="translate(-26.803 -1.669)"/>
  <path class="cls-8" d="M175.4,20.362h1.265c.292,0,.38-.088.38-.38V12.139H175.4Z" transform="translate(-26.803 -1.669)"/>
  <path class="cls-8" d="M175.023,9.482c0,1.318,2.277,1.838,2.277-.253C177.3,8.089,175.023,7.933,175.023,9.482Z" transform="translate(-26.803 -1.669)"/>
</svg>
