<svg id="_1" data-name="1" xmlns="http://www.w3.org/2000/svg" viewBox="0 0 182.887 23.852">
  <defs>
    <style>
      .cls-1 {
        fill: #f4b500;
      }

      .cls-1, .cls-2, .cls-3, .cls-4, .cls-5, .cls-6, .cls-7, .cls-8 {
        fill-rule: evenodd;
      }

      .cls-2 {
        fill: #4481f6;
      }

      .cls-3 {
        fill: #3566c5;
      }

      .cls-4 {
        fill: #af362b;
      }

      .cls-5 {
        fill: #db4533;
      }

      .cls-6 {
        fill: #ccc;
      }

      .cls-7 {
        fill: #b7b7b7;
      }

      .cls-8, .cls-9 {
        fill: #fff;
      }
    </style>
  </defs>
  <title>gwb_whr</title>
  <g>
    <path class="cls-1" d="M36.758,12.2H28.823a12.665,12.665,0,0,0,4.145,9.5,13.175,13.175,0,0,0,9.145,3.584V17.567A5.43,5.43,0,0,1,36.758,12.2Z" transform="translate(-28.813 -1.441)"/>
    <path class="cls-2" d="M41.332,7.611V1.444a10.792,10.792,0,0,0-7.786,3.335,10.989,10.989,0,0,0-2.894,6.246s4.922.921,6.1,1.175A4.494,4.494,0,0,1,41.332,7.611Z" transform="translate(-28.813 -1.441)"/>
    <path class="cls-3" d="M30.655,11.025a4.985,4.985,0,0,0-.044,1.175h6.146Z" transform="translate(-28.813 -1.441)"/>
    <path class="cls-4" d="M41.332,7.611,42.516,3.35A6.68,6.68,0,0,0,41.332,3.3Z" transform="translate(-28.813 -1.441)"/>
    <path class="cls-5" d="M41.332,7.611a3.915,3.915,0,0,1,3.972,4h4.151A8.213,8.213,0,0,0,42.516,3.35C42.224,4.411,41.332,7.611,41.332,7.611Z" transform="translate(-28.813 -1.441)"/>
    <path class="cls-6" d="M42.116,17.567l1.429-3.177a3.323,3.323,0,0,0,1.763-2.777c.546.239,1.862.783,2.463,1.049A5.976,5.976,0,0,1,42.116,17.567Z" transform="translate(-28.813 -1.441)"/>
    <path class="cls-7" d="M43.545,14.39a2.385,2.385,0,0,1-1.429.339v2.838l1.429-3.177ZM45.3,11.613h2.61a2.548,2.548,0,0,1-.146,1.049C47.222,12.425,45.3,11.613,45.3,11.613Z" transform="translate(-28.813 -1.441)"/>
  </g>
  <path class="cls-8" d="M57.042,13.114a5.831,5.831,0,0,0,.757,3.671c3.161,6.094,12.653,4.57,12.653-2.405,0-.907.125-1.265-.38-1.265h-6.2c0,2.416-.819,1.9,4.554,1.9-.268.56-.254,1.7-1.206,2.462a4.92,4.92,0,0,1-7.653-5.755,4.857,4.857,0,0,1,6.5-2.445l1.473.8c.163-.609.927-.6,1.139-1.392-.8-1.087-3-1.9-4.681-1.9C60.263,6.788,57.042,10.143,57.042,13.114Z" transform="translate(-28.813 -1.441)"/>
  <path class="cls-8" d="M117.954,20.135c2.1,0,1.211-.108,2.481-3.718a24.726,24.726,0,0,1,1.441-3.873,24.664,24.664,0,0,0,1.185,3.876l.612,1.919c.583,2.161.43,1.8,2,1.8.378,0,.318-.143.419-.466l.548-2.362c.3-1.047.541-1.906.83-2.965l1.2-4.5a10.049,10.049,0,0,0,.424-1.6h-1.771a5.242,5.242,0,0,1-.268,1.123c-.112.37-.17.652-.27,1.122l-1.157,4.535c-.175.7-.365,1.95-.708,2.2-.073-.881-1.405-4.228-1.772-5.566a13.838,13.838,0,0,0-.632-1.9H120.99c-.152.653-.435,1.309-.605,1.925l-1.925,5.666c-.056-.672-2.072-7.687-2.4-9.109-2.944,0-1.491-.5-.265,5.325.309,1.466,1.09,3.595,1.431,5.021C117.329,19.034,117.384,20.135,117.954,20.135Z" transform="translate(-28.813 -1.441)"/>
  <path class="cls-8" d="M92.212,16.15c0-3.273,4.681-3.805,4.681.253a2.37,2.37,0,0,1-2.373,2.342,2.551,2.551,0,0,1-1.621-.752,2.368,2.368,0,0,1-.687-1.843ZM90.188,15.9a4.335,4.335,0,0,0,4.555,4.681,3.368,3.368,0,0,0,2.024-.885c0,1.245-.13,2.63-1.659,2.9-2.3.412-2.634-1.386-2.9-1.386a5.7,5.7,0,0,0-1.645.632,3.584,3.584,0,0,0,1.395,1.894,4.182,4.182,0,0,0,4.192.53,4,4,0,0,0,2.51-3.942V11.849h-1.9v.759c-1.292-.865-.751-.886-2.783-.886C92.168,11.722,90.188,13.9,90.188,15.9Z" transform="translate(-28.813 -1.441)"/>
  <path class="cls-8" d="M181.716,16.086c0-3.945,4.934-3.589,4.934-.38,0,1.635-.58,3.163-2.53,3.163a2.628,2.628,0,0,1-2.4-2.783Zm-1.645-.38a4.1,4.1,0,0,0,1.208,3.473,3.1,3.1,0,0,0,1.065.833c1.957.922,3.16,0,4.305-.763,0,1.23-.2,2.7-1.673,3.008-1.441.3-2.714-.1-3.008-1.364-.8.018-.839.348-1.518.506.169,2.031,4.151,3.7,6.613,1.426a4.123,4.123,0,0,0,1.23-3.071V11.912H186.65v1.012C184.215,10.122,180.071,12.373,180.071,15.707Z" transform="translate(-28.813 -1.441)"/>
  <path class="cls-8" d="M155.022,18.49h-2.4V9.761c2.434,0,4.773-.1,5.908,2.315s.031,6.414-3.5,6.414Zm-4.048,1.645H154.9a5.62,5.62,0,0,0,5.693-5.44c0-1.886-.068-3.3-1.608-4.844-2.072-2.072-4.954-1.608-8.007-1.608Z" transform="translate(-28.813 -1.441)"/>
  <path class="cls-8" d="M141.865,13.177a2.53,2.53,0,0,1,1.684.845c1.427,1.5.533,4.847-1.684,4.847A2.194,2.194,0,0,1,140,18.078a3.4,3.4,0,0,1-.755-2.018,2.67,2.67,0,0,1,2.62-2.883Zm-4.175,6.578c0,.528.439.38,1.518.38V19.123c.721.482,2.039,2.01,4.433.89l.869-.649c3.591-3.463-.305-9.388-4.141-7.3a9.246,9.246,0,0,0-1.035.737V8.243h-1.645Z" transform="translate(-28.813 -1.441)"/>
  <path class="cls-8" d="M104.484,15.9c0-2.766,3.287-2.949,3.669-1.518L104.484,15.9Zm-2.151.253a4.473,4.473,0,0,0,8.224,2.4,18.629,18.629,0,0,0-1.645-1.012,2.507,2.507,0,0,1-2.137,1.221,2.26,2.26,0,0,1-2.038-1.348,63.286,63.286,0,0,0,5.946-2.4c-.865-1.635-1.833-3.667-4.574-3.318a4,4,0,0,0-2.659,1.4A4.943,4.943,0,0,0,102.333,16.15Z" transform="translate(-28.813 -1.441)"/>
  <path class="cls-8" d="M82.724,16.53c0-.995-.08-1.739.77-2.393a2.435,2.435,0,0,1,1.718-.593c3.018.253,3.079,4.8.1,5.2a2.364,2.364,0,0,1-2.59-2.213Zm-2.151-.506a4.392,4.392,0,0,0,4.175,4.554,4.119,4.119,0,0,0,3.578-1.356,4.481,4.481,0,1,0-7.753-3.2Z" transform="translate(-28.813 -1.441)"/>
  <path class="cls-8" d="M73.109,16.15a2.44,2.44,0,0,1,3.958-2.06c2.569,2.27-.853,6.585-3.318,3.825a3.429,3.429,0,0,1-.639-1.764Zm-2.024-.506V16.4a4.485,4.485,0,0,0,7.484,3.057,4.643,4.643,0,0,0,.2-6.445c-1.416-1.379-2.244-1.293-3.894-1.293C73.17,11.722,71.085,13.915,71.085,15.644Z" transform="translate(-28.813 -1.441)"/>
  <path class="cls-8" d="M165.269,13.177a2.1,2.1,0,0,1,2.277,1.771h-4.428c.325-.616.781-1.771,2.151-1.771Zm-3.922,2.53a4.167,4.167,0,0,0,1.208,3.473,3.082,3.082,0,0,0,1.151.873c2.588,1.125,5.244-.695,5.358-2.068a10.018,10.018,0,0,0-1.518-.506c-.469,2.012-4.29,2.043-4.555-1.139h6.326a4.506,4.506,0,0,0-1.119-3.562,4.276,4.276,0,0,0-1.115-.783A4.1,4.1,0,0,0,161.347,15.707Z" transform="translate(-28.813 -1.441)"/>
  <path class="cls-8" d="M132.756,13.177a2.123,2.123,0,0,1,2.277,1.771H130.6a2.406,2.406,0,0,1,2.151-1.771Zm-3.922,2.277a4.741,4.741,0,0,0,1.23,3.83,3.849,3.849,0,0,0,1.219.806c2.1.829,4.814-.156,5.268-2.105a11.743,11.743,0,0,0-1.518-.506c-.589,2.207-4.489,1.778-4.554-1.139H136.8V15.58a3.955,3.955,0,0,0-6.791-2.742A4.887,4.887,0,0,0,128.834,15.454Z" transform="translate(-28.813 -1.441)"/>
  <path class="cls-8" d="M201.7,13.177a2.178,2.178,0,0,1,2.277,1.771h-4.428a2.219,2.219,0,0,1,2.151-1.771Zm-3.922,2.277c0,1.925.287,3.622,2.274,4.558a4.52,4.52,0,0,0,4.057-.252,3.753,3.753,0,0,0,1.387-1.776c-.607-.141-.912-.365-1.518-.506-.573,2.148-4.554,1.863-4.554-1.139h6.325c0-4.639-3.812-5.283-5.7-4.308A4.167,4.167,0,0,0,197.783,15.454Z" transform="translate(-28.813 -1.441)"/>
  <path class="cls-8" d="M191.2,12.923V11.912h-1.518v8.223c2.112,0,1.653.575,1.64-4.306-.009-3.482,3.927-3.479,3.927-.5v4.807H196.9V15.2c0-3.192-2.565-4.254-4.644-3.126C191.708,12.37,191.658,12.62,191.2,12.923Z" transform="translate(-28.813 -1.441)"/>
  <path class="cls-8" d="M169.95,14.062c0,2.87,4.241,2.262,4.821,3.414.62,1.229-1.71,1.946-2.951.914a4.18,4.18,0,0,1-.732-1.039,4.645,4.645,0,0,1-1.392.506,3.845,3.845,0,0,0,1.231,1.805c1.665,1.476,5.6.625,5.6-1.805a2.684,2.684,0,0,0-.6-1.554,2.993,2.993,0,0,0-1.316-.835c-.871-.313-2.915-.456-3.022-1.28-.144-1.111,2.867-1.58,3.289,0,.617-.051.7-.322,1.392-.379-.04-1.791-3.021-2.959-5.294-1.5A2.223,2.223,0,0,0,169.95,14.062Z" transform="translate(-28.813 -1.441)"/>
  <rect class="cls-9" x="70.99" y="5.853" width="1.898" height="13.031"/>
  <path class="cls-8" d="M208.157,13.05V11.912h-1.518v8.223c2.485,0,1.417.443,1.641-4.558.1-2.193,1.711-2.147,2.914-2.147a10.006,10.006,0,0,0,.506-1.518A2.952,2.952,0,0,0,208.157,13.05Z" transform="translate(-28.813 -1.441)"/>
  <path class="cls-8" d="M177.414,20.135h1.265c.292,0,.38-.088.38-.38V11.912h-1.645Z" transform="translate(-28.813 -1.441)"/>
  <path class="cls-8" d="M177.035,9.255c0,1.318,2.277,1.838,2.277-.253C179.312,7.862,177.035,7.705,177.035,9.255Z" transform="translate(-28.813 -1.441)"/>
</svg>
