<svg id="Слой_1" data-name="Слой 1" xmlns="http://www.w3.org/2000/svg" xmlns:xlink="http://www.w3.org/1999/xlink" viewBox="0 0 126.015 126.015">
  <defs>
    <style>
      .cls-1 {
        fill: #dedede;
      }

      .cls-2 {
        fill: #fff;
      }

      .cls-3 {
        fill: none;
        stroke: #3d9be8;
        stroke-miterlimit: 22.926;
      }

      .cls-4 {
        fill: #3d9be8;
      }

      .cls-5 {
        fill: #00005b;
        fill-opacity: 0.2;
      }

      .cls-6 {
        fill: url(#Безымянный_градиент);
      }
    </style>
    <linearGradient id="Безымянный_градиент" data-name="Безымянный градиент" x1="13951.229" y1="-13678.108" x2="14535.549" y2="-13876.378" gradientTransform="matrix(0.028, 0, 0, -0.028, -343.965, -339.929)" gradientUnits="userSpaceOnUse">
      <stop offset="0" stop-color="#d0e2f1"/>
      <stop offset="0.322" stop-color="#cddeee"/>
      <stop offset="1" stop-color="#65689e"/>
    </linearGradient>
  </defs>
  <title>hdmi</title>
  <g id="Слой_1-2" data-name="Слой_1">
    <g id="_1823855145472" data-name=" 1823855145472">
      <path class="cls-1" d="M130.878,68.778a63.008,63.008,0,1,0-63.008,63.008A63.008,63.008,0,0,0,130.878,68.778Z" transform="translate(-4.863 -5.771)"/>
      <path class="cls-2" d="M125.981,68.778a58.11,58.11,0,1,0-58.11,58.11A58.11,58.11,0,0,0,125.981,68.778Z" transform="translate(-4.863 -5.771)"/>
    </g>
    <line class="cls-3" x1="89.023" y1="18.863" x2="75.07" y2="32.382"/>
    <polyline class="cls-3" points="98.661 29.327 96.392 31.525 97.383 32.633 95.742 34.265 94.73 33.135 88.995 38.692 90.043 39.816 88.157 41.702 87.063 40.564 84.709 42.845"/>
    <line class="cls-3" x1="109.445" y1="39.531" x2="95.493" y2="53.049"/>
    <path class="cls-3" d="M92.882,33.416l1.752,1.725a.528.528,0,0,1,.083.733L93,37.617a.528.528,0,0,1-.734-.072L90.513,35.82a.528.528,0,0,1-.083-.733l1.717-1.744A.528.528,0,0,1,92.882,33.416Z" transform="translate(-4.863 -5.771)"/>
    <path class="cls-3" d="M103.236,45.542l1.752,1.725a.528.528,0,0,1,.083.733l-1.717,1.744a.528.528,0,0,1-.734-.072l-1.752-1.725a.528.528,0,0,1-.083-.733L102.5,45.47A.528.528,0,0,1,103.236,45.542Z" transform="translate(-4.863 -5.771)"/>
    <g id="_1823855143328" data-name=" 1823855143328">
      <path class="cls-4" d="M74.612,52.546c-.408-.408-.939-.667-1.257-.35L70.4,55.154l-2.779-2.779,2.958-2.958c.317-.317.046-.861-.349-1.256s-.939-.667-1.257-.35L61.6,55.178c-.306.306-.069.86.338,1.267s.962.645,1.267.338l3.252-3.253,2.779,2.779-3.253,3.253c-.306.306-.069.86.338,1.267s.962.644,1.267.338L74.961,53.8c.317-.317.046-.861-.349-1.256Z" transform="translate(-4.863 -5.771)"/>
    </g>
    <g id="_1823855141280" data-name=" 1823855141280">
      <path class="cls-4" d="M79.787,57.722,77.6,55.535c-.42-.42-.92-.489-1.157-.251l-7.378,7.378c-.238.238-.169.737.251,1.157L71.5,66.007c1.63,1.63,3.605,2.2,5.5.307l3.094-3.094c1.893-1.893,1.323-3.868-.308-5.5Zm-1.3,3.892-3.094,3.094a1.645,1.645,0,0,1-2.6.006L71.51,63.43l5.7-5.7L78.5,59.014A1.645,1.645,0,0,1,78.489,61.614Z" transform="translate(-4.863 -5.771)"/>
    </g>
    <g id="_1823855141984" data-name=" 1823855141984">
      <path class="cls-4" d="M90.41,68.344a1.733,1.733,0,0,0-2.042-.478l-4.058,1.02,1.019-4.058c.261-1.076.115-1.449-.465-2.029a1.006,1.006,0,0,0-1.54-.066l-7.083,7.083c-.306.306-.069.86.338,1.267s.962.644,1.268.338l4.964-4.964-1.027,3.869a.819.819,0,0,0,.236.826.845.845,0,0,0,.838.249l3.8-.912-4.874,4.873c-.306.306-.069.86.338,1.267s.962.644,1.267.338l7.083-7.083a1,1,0,0,0-.066-1.539Z" transform="translate(-4.863 -5.771)"/>
    </g>
    <g id="_1823855142912" data-name=" 1823855142912">
      <path class="cls-4" d="M93.5,71.433c-.408-.407-.939-.667-1.256-.35L84.875,78.45c-.306.306-.069.86.338,1.268s.962.644,1.267.338l7.367-7.367c.317-.317.046-.861-.35-1.256Z" transform="translate(-4.863 -5.771)"/>
    </g>
    <g id="_1823855142880" data-name=" 1823855142880">
      <path class="cls-4" d="M77.288,81.683l-5.2-5.2a1.391,1.391,0,0,0-1.967,1.967l5.2,5.2a1.391,1.391,0,1,0,1.968-1.967Z" transform="translate(-4.863 -5.771)"/>
    </g>
    <g id="_1823855204928" data-name=" 1823855204928">
      <path class="cls-4" d="M66.812,71.207l-9.023-9.023a1.391,1.391,0,0,0-1.968,1.967l9.023,9.023a1.391,1.391,0,1,0,1.968-1.967Z" transform="translate(-4.863 -5.771)"/>
    </g>
    <g id="_1823855205792" data-name=" 1823855205792">
      <path class="cls-4" d="M69.747,85.114,54.358,69.725a1.391,1.391,0,0,0-1.968,1.967L67.78,87.081a1.391,1.391,0,1,0,1.968-1.967Z" transform="translate(-4.863 -5.771)"/>
    </g>
    <g id="_1823855204864" data-name=" 1823855204864">
      <path class="cls-4" d="M117.752,46.374,93.1,21.72a3.848,3.848,0,0,0-5.435,0l-11.6,11.6-2.378-2.378a5.261,5.261,0,0,0-7.441,0L62.085,35.1a1.391,1.391,0,0,0,1.968,1.967l4.155-4.155a2.479,2.479,0,0,1,3.506,0l34.844,34.844a2.482,2.482,0,0,1,0,3.506L90.1,87.723a2.133,2.133,0,0,1-1.064.579l-21,4.51a2.13,2.13,0,0,1-1.962-.579L47.238,73.4a2.131,2.131,0,0,1-.579-1.962l4.51-21a2.136,2.136,0,0,1,.579-1.064l7.058-7.058a1.391,1.391,0,0,0-1.967-1.967l-7.059,7.058a4.912,4.912,0,0,0-1.332,2.447l-4.511,21a4.9,4.9,0,0,0,1.332,4.514L46.3,76.4l-3.874,3.874a4.959,4.959,0,0,0,0,7.005l3.9,3.9L28.031,109.473A1.391,1.391,0,1,0,30,111.441L48.293,93.146l3.9,3.9a4.959,4.959,0,0,0,7.006,0l3.874-3.874L64.1,94.2a4.91,4.91,0,0,0,4.514,1.332l21-4.51a4.91,4.91,0,0,0,2.447-1.332l16.46-16.46a5.268,5.268,0,0,0,0-7.441l-2.378-2.378,11.6-11.6a3.848,3.848,0,0,0,0-5.435ZM57.232,95.08a2.174,2.174,0,0,1-3.07,0l-9.77-9.77a2.174,2.174,0,0,1,0-3.071l3.874-3.874L61.106,91.206Zm58.552-45.239-11.6,11.6L78.027,35.291l11.6-11.6a1.062,1.062,0,0,1,1.5,0l24.653,24.653A1.062,1.062,0,0,1,115.784,49.841Z" transform="translate(-4.863 -5.771)"/>
    </g>
    <path class="cls-5" d="M49.406,44.907C60.893,33.838,63.8,30.775,67,28.219c2.712-2.167,6.029-.379,8.485,2,.437.554,30.389,29.973,30.751,30.4,2.216,2.635-2.509,7.166-4.757,4.667-.361-.4-23.206-22.266-29.388-28.391-1.8-1.78-2.644-2.236-4.391-.771-3.363,2.819-9.694,9.591-13.5,13.283a6.373,6.373,0,0,0-1.6,3.007c-.623,4.768-2.964,15.8-3.013,15.985-.946,3.706-7.039,4-6.23-1.778.029-.21,2.053-11.873,3.526-17.443A6.8,6.8,0,0,1,49.406,44.907Z" transform="translate(-4.863 -5.771)"/>
    <path class="cls-6" d="M49.307,49.75a8.049,8.049,0,0,1,.971-1.78C54.011,43.167,64.24,33.857,67.661,31a3.9,3.9,0,0,1,3.924-.244,31.05,31.05,0,0,1,2.654,2.266c.641.7.012.694-.3.426a23.217,23.217,0,0,0-2.6-2.333,3.148,3.148,0,0,0-3.594.471c-1.392,1.1-12.113,11.489-16.429,16.03a8.743,8.743,0,0,0-2,3.83c-1.108,4.656-3.561,17.407-3.6,17.633-.133.7-.786.734-.587-.2.725-3.409,3.41-17.561,4.183-19.132Z" transform="translate(-4.863 -5.771)"/>
  </g>
</svg>
