<svg id="Слой_1" data-name="Слой 1" xmlns="http://www.w3.org/2000/svg" viewBox="0 0 29.364 29.86">
  <defs>
    <style>
      .cls-1 {
        fill: #3c9be9;
      }
    </style>
  </defs>
  <title>info</title>
  <g id="Слой_1-2" data-name="Слой_1">
    <path class="cls-1" d="M202.06,498.15c1.383-.117,1.948-2.694,2.367-1.77.1.22-.268.715-.426.966-2.469,3.921-5.51,2.742-5.427.983a14.923,14.923,0,0,1,.771-2.94c2.542-7.656,1.93-5.867.256-6.684a.914.914,0,0,0,.137-.556c1.419,0,2.773-.556,5.326-.556l-1.622,5.156c-.52,1.729-1.383,3.613-1.383,5.4Zm3.824-14.861a1.891,1.891,0,0,1-3.637.914,1.927,1.927,0,0,1,2.375-2.558,1.876,1.876,0,0,1,1.262,1.644Zm-17.891,6.528c0,4.2.452,6.149,2.648,9.528,2.27,3.492,7,6.3,11.146,6.3,4.131,0,6.047-.46,9.37-2.693a14.89,14.89,0,0,0,6.2-11.334,14.718,14.718,0,0,0-1.366-7.36,15.439,15.439,0,0,0-4.751-5.724c-3.36-2.273-5.261-2.748-9.453-2.748-6.959,0-13.794,6.918-13.794,14.027Z" transform="translate(-187.993 -475.79)"/>
  </g>
</svg>
