<svg id="Слой_1" data-name="Слой 1" xmlns="http://www.w3.org/2000/svg" viewBox="0 0 126.015 126.015">
  <defs>
    <style>
      .cls-1 {
        fill: #dedede;
      }

      .cls-2 {
        fill: #fff;
      }

      .cls-3 {
        fill: #3d9be8;
      }

      .cls-4 {
        fill: #00005b;
        fill-opacity: 0.2;
      }
    </style>
  </defs>
  <title>ip</title>
  <g id="Слой_1-2" data-name="Слой_1">
    <g id="_1823905576272" data-name=" 1823905576272">
      <path class="cls-1" d="M133.08,69.041a63.008,63.008,0,1,0-63.008,63.008A63.008,63.008,0,0,0,133.08,69.041Z" transform="translate(-7.065 -6.034)"/>
      <path class="cls-2" d="M128.183,69.041a58.11,58.11,0,1,0-58.11,58.11A58.11,58.11,0,0,0,128.183,69.041Z" transform="translate(-7.065 -6.034)"/>
    </g>
    <path class="cls-3" d="M79.51,95.541,65.845,81.876a1.25,1.25,0,1,0-1.768,1.768L77.742,97.309a1.25,1.25,0,0,0,1.768-1.768Z" transform="translate(-7.065 -6.034)"/>
    <path class="cls-3" d="M72.3,97.456,63.93,89.083a1.25,1.25,0,0,0-1.768,1.768l8.373,8.373A1.25,1.25,0,1,0,72.3,97.456Z" transform="translate(-7.065 -6.034)"/>
    <path class="cls-3" d="M71.926,78.827l-2.9-2.9a1.25,1.25,0,0,0-1.768,1.768l2.9,2.9a1.25,1.25,0,1,0,1.768-1.768Z" transform="translate(-7.065 -6.034)"/>
    <path class="cls-3" d="M85.464,92.365,76.64,83.541a1.25,1.25,0,1,0-1.768,1.768L83.7,94.133a1.25,1.25,0,0,0,1.768-1.768Z" transform="translate(-7.065 -6.034)"/>
    <path class="cls-3" d="M103.235,63.172l-5.022-5.021a2.076,2.076,0,0,0-2.935,0L83.206,70.223a5.626,5.626,0,0,0,0,7.957h0a5.633,5.633,0,0,0,7.957,0l12.072-12.072a2.076,2.076,0,0,0,0-2.936ZM89.4,76.412a3.13,3.13,0,0,1-4.421,0h0a3.127,3.127,0,0,1,0-4.421L96.746,60.219l4.421,4.421Z" transform="translate(-7.065 -6.034)"/>
    <path class="cls-3" d="M125.661,56.822l-21.1-21.1a3.4,3.4,0,0,0-4.813,0L82.193,53.284l-.326-.326a3.2,3.2,0,0,0-3.794-.539c-2,1.691-.1,3.114,1.051,2.307a.69.69,0,0,1,.975,0L85.571,60.2a1.25,1.25,0,1,0,1.768-1.768l-3.378-3.378,17.559-17.558a.9.9,0,0,1,1.277,0l1.376,1.376-6.811,6.81a3.2,3.2,0,0,0,0,4.518l13.827,13.827a3.195,3.195,0,0,0,4.518,0l6.811-6.81,1.375,1.376a.9.9,0,0,1,0,1.277L106.334,77.426l-3.378-3.378a1.25,1.25,0,0,0-1.768,1.768l5.472,5.472a.69.69,0,0,1,0,.975L92.278,96.641,71.9,104.674a1.858,1.858,0,0,1-2-.415L57.127,91.48a1.858,1.858,0,0,1-.415-2L61.993,76.09c.677-1.716-1.29-2.765-2.255-1.1L54.386,88.567a4.358,4.358,0,0,0,.973,4.681l1.44,1.44L54.818,96.67a3.557,3.557,0,0,0,0,5.024l1.553,1.553L42.153,117.465a1.25,1.25,0,0,0,1.768,1.768l14.219-14.219,1.553,1.553a3.557,3.557,0,0,0,5.024,0l1.981-1.981,1.44,1.44A4.357,4.357,0,0,0,72.82,107L93.2,98.967a2.508,2.508,0,0,0,.86-.564l14.373-14.373a3.194,3.194,0,0,0,0-4.511l-.326-.326,17.559-17.559a3.407,3.407,0,0,0,0-4.813Zm-4.912-1.375-6.811,6.81a.695.695,0,0,1-.982,0l-1.085-1.085,7.3-7.3,1.576,1.576ZM117.406,52.1l-7.3,7.3-1.529-1.529,7.3-7.3Zm-3.3-3.3-7.3,7.3-1.529-1.529,7.3-7.3Zm-3.3-3.3-7.3,7.3-1.529-1.529,7.3-7.3Zm-4.873-4.873,1.576,1.576-7.3,7.3L99.129,48.43a.7.7,0,0,1,0-.983ZM62.948,104.8a1.054,1.054,0,0,1-1.488,0l-4.874-4.874a1.054,1.054,0,0,1,0-1.488l1.981-1.981,6.363,6.363Z" transform="translate(-7.065 -6.034)"/>
    <path class="cls-3" d="M48.414,59.517H48.4a3.2,3.2,0,0,0,.016,6.408h.016A3.207,3.207,0,0,0,51.616,62.7h0a3.2,3.2,0,0,0-3.2-3.188Zm0,4.279h-.005a1.076,1.076,0,0,1-1.075-1.07,1.077,1.077,0,0,1,1.07-1.08h.006a1.062,1.062,0,0,1,.755.31,1.075,1.075,0,0,1-.75,1.84Z" transform="translate(-7.065 -6.034)"/>
    <path class="cls-3" d="M55,57.575a3.2,3.2,0,0,0-.675-5.022,11.748,11.748,0,0,0-5.917-1.6h-.057a11.751,11.751,0,0,0-5.86,1.6,3.2,3.2,0,0,0-.672,5.016l.01.01a3.207,3.207,0,0,0,3.894.507,5.349,5.349,0,0,1,2.659-.721h.027a5.349,5.349,0,0,1,2.693.726,3.2,3.2,0,0,0,3.9-.517Zm-2.826-1.321a7.476,7.476,0,0,0-3.766-1.017h-.037a7.481,7.481,0,0,0-3.718,1.009,1.078,1.078,0,0,1-1.309-.162l-.01-.011a1.056,1.056,0,0,1-.3-.89,1.076,1.076,0,0,1,.529-.793,9.644,9.644,0,0,1,9.689,0,1.084,1.084,0,0,1,.534.8,1.052,1.052,0,0,1-.308.9,1.073,1.073,0,0,1-1.3.167Z" transform="translate(-7.065 -6.034)"/>
    <path class="cls-3" d="M58.838,52.356a3.193,3.193,0,0,0,2.273-.946l.012-.012a3.2,3.2,0,0,0-.307-4.774,20.319,20.319,0,0,0-24.793-.007,3.174,3.174,0,0,0-1.227,2.3,3.21,3.21,0,0,0,.917,2.468l.01.01a3.2,3.2,0,0,0,4.215.293,13.78,13.78,0,0,1,8.409-2.881h.071A13.773,13.773,0,0,1,56.9,51.7a3.159,3.159,0,0,0,1.935.658Zm-10.5-5.676A15.89,15.89,0,0,0,38.638,50a1.063,1.063,0,0,1-1.4-.1l-.01-.01a1.082,1.082,0,0,1-.309-.831,1.032,1.032,0,0,1,.4-.759,18.191,18.191,0,0,1,22.193.007,1.037,1.037,0,0,1,.4.762,1.063,1.063,0,0,1-.306.826l-.012.012a1.061,1.061,0,0,1-1.4.1,15.877,15.877,0,0,0-9.786-3.333h-.081Z" transform="translate(-7.065 -6.034)"/>
    <path class="cls-3" d="M64.891,46.237a3.192,3.192,0,0,0,2.271-.939l.012-.012a3.2,3.2,0,0,0-.222-4.707,28.888,28.888,0,0,0-18.679-6.737,1.064,1.064,0,0,0,.005,2.128h.006a26.766,26.766,0,0,1,17.3,6.24,1.072,1.072,0,0,1,.08,1.574l-.012.012a1.07,1.07,0,0,1-1.441.071,24.6,24.6,0,0,0-15.8-5.746h-.12a24.623,24.623,0,0,0-15.642,5.715,1.077,1.077,0,0,1-1.471-.063,1.072,1.072,0,0,1,.076-1.575A26.687,26.687,0,0,1,43.81,36.365a1.064,1.064,0,1,0-.364-2.1,28.813,28.813,0,0,0-13.556,6.3,3.2,3.2,0,1,0,4.126,4.9A22.491,22.491,0,0,1,48.3,40.25h.11A22.47,22.47,0,0,1,62.844,45.5a3.178,3.178,0,0,0,2.047.739Z" transform="translate(-7.065 -6.034)"/>
    <path class="cls-4" d="M58.918,71.834C69.663,60.045,73.671,54.373,76.872,51.817c2.712-2.166,6.029-.379,8.485,2,.437.554,4.35,4.529,4.711,4.958,2.216,2.635-2.51,7.167-4.757,4.667-.361-.4,2.834,3.178-3.349-2.946-1.8-1.78-2.644-2.236-4.391-.771C74.209,62.543,67.521,71.1,63.716,76.1c-1.026,1.349-4.637,11.98-5.091,13.761-.946,3.706-7.039,4-6.23-1.778.029-.21,2.144-6.52,4-11.974A33.517,33.517,0,0,1,58.918,71.834Z" transform="translate(-7.065 -6.034)"/>
  </g>
</svg>
