<svg id="_1" data-name="1" xmlns="http://www.w3.org/2000/svg" xmlns:xlink="http://www.w3.org/1999/xlink" viewBox="0 0 966.059 106.002">
  <defs>
    <style>
      .cls-1, .cls-14 {
        fill: #fff;
      }

      .cls-1, .cls-13, .cls-2, .cls-3, .cls-4, .cls-5, .cls-6, .cls-7 {
        fill-rule: evenodd;
      }

      .cls-2 {
        fill: #d0e9f5;
      }

      .cls-3 {
        fill: url(#GradientFill_1);
      }

      .cls-4 {
        fill: url(#GradientFill_2);
      }

      .cls-5 {
        fill: url(#GradientFill_2-2);
      }

      .cls-11, .cls-6 {
        fill: #1c5a9a;
      }

      .cls-7, .cls-8 {
        fill: #659ecc;
      }

      .cls-9 {
        fill: #2a74af;
      }

      .cls-10 {
        fill: #9fd1e9;
      }

      .cls-12 {
        fill: #2c4776;
      }

      .cls-13, .cls-15 {
        fill: #293d6a;
      }
    </style>
    <linearGradient id="GradientFill_1" data-name="GradientFill 1" x1="62.186" y1="17.522" x2="33.396" y2="88.48" gradientUnits="userSpaceOnUse">
      <stop offset="0" stop-color="#1c5a9a"/>
      <stop offset="1" stop-color="#fff"/>
    </linearGradient>
    <linearGradient id="GradientFill_2" data-name="GradientFill 2" x1="47.084" y1="54.27" x2="0.109" y2="52.809" gradientUnits="userSpaceOnUse">
      <stop offset="0" stop-color="#bac8e9"/>
      <stop offset="1" stop-color="#659ecc"/>
    </linearGradient>
    <linearGradient id="GradientFill_2-2" x1="48.511" y1="54.27" x2="95.486" y2="52.809" xlink:href="#GradientFill_2"/>
  </defs>
  <title>logo_one</title>
  <path class="cls-1" d="M657.029,257.021a55.382,55.382,0,0,1,18.884,3.121,43.636,43.636,0,0,1,14.9,8.909,40.416,40.416,0,0,1,9.769,13.9,45.421,45.421,0,0,1,3.515,18.14,46.2,46.2,0,0,1-3.453,18.113,41.715,41.715,0,0,1-9.738,14.111,43.96,43.96,0,0,1-14.872,9.123,57.416,57.416,0,0,1-38.111,0,44.039,44.039,0,0,1-14.9-9.1,40.979,40.979,0,0,1-9.738-14.058,46.41,46.41,0,0,1-3.453-18.193,45.631,45.631,0,0,1,3.515-18.22,39.628,39.628,0,0,1,9.8-13.844,44.022,44.022,0,0,1,14.933-8.883,55.363,55.363,0,0,1,18.947-3.121Zm-.094,82.427a48.143,48.143,0,0,0,15.836-2.534,35.5,35.5,0,0,0,12.538-7.469,33.077,33.077,0,0,0,8.214-12.084,42.409,42.409,0,0,0,2.924-16.272,41.923,41.923,0,0,0-2.956-16.272A33.824,33.824,0,0,0,685.279,273a35.51,35.51,0,0,0-12.413-7.282,51.589,51.589,0,0,0-31.61.053,35.561,35.561,0,0,0-12.538,7.309,33.178,33.178,0,0,0-8.276,11.817,41.707,41.707,0,0,0-2.955,16.192,42.407,42.407,0,0,0,2.924,16.272,33.716,33.716,0,0,0,8.151,12.084,35.374,35.374,0,0,0,12.507,7.469A48.2,48.2,0,0,0,656.936,339.448Z" transform="translate(-503.634 -248.629)"/>
  <path class="cls-2" d="M1269.854,300.77q0,21.515-12.773,32.521t-37.8,11.012h-17.618l-13.926-11.636V258.542h31.543a82.184,82.184,0,0,1,21.746,2.589,42.228,42.228,0,0,1,16,7.976h0a32.97,32.97,0,0,1,9.684,13.414,49.058,49.058,0,0,1,3.134,18.249Zm-13.467.56a47.825,47.825,0,0,0-1.743-13.52h0a21.764,21.764,0,0,0-2.272-5.176,20.864,20.864,0,0,0-3.477-4.284,22.026,22.026,0,0,0-4.763-3.38v-.01a32.8,32.8,0,0,0-6.312-2.516h-.012a48.905,48.905,0,0,0-8.186-1.6,90.91,90.91,0,0,0-10.411-.537H1201v63.3h18.212a86.937,86.937,0,0,0,10.333-.555,47.46,47.46,0,0,0,8.152-1.647,32.457,32.457,0,0,0,6.342-2.619,21.246,21.246,0,0,0,8.249-7.951,23.3,23.3,0,0,0,2.326-5.4,41.866,41.866,0,0,0,1.335-6.541A60.561,60.561,0,0,0,1256.386,301.33Z" transform="translate(-503.634 -248.629)"/>
  <path class="cls-2" d="M952.54,319.145a23.163,23.163,0,0,1-2.427,10.756,21.7,21.7,0,0,1-7.414,8.111l0,0a34.559,34.559,0,0,1-11.752,4.852,69.787,69.787,0,0,1-15.509,1.547H890.757l-12.6-11.14V258.5H915.29a64.373,64.373,0,0,1,13.256,1.232,32.351,32.351,0,0,1,10.237,3.863,17.68,17.68,0,0,1,6.69,7.081,21.167,21.167,0,0,1,2.15,9.776,28.36,28.36,0,0,1-.186,3.126,29.83,29.83,0,0,1-.519,3.137,18.808,18.808,0,0,1-1.056,3.3,19.444,19.444,0,0,1-1.668,3.089v.021a17.992,17.992,0,0,1-2.393,2.857,21.761,21.761,0,0,1-3.03,2.455,21.932,21.932,0,0,1,2.389,1l0,0a23.867,23.867,0,0,1,4.063,2.5,17.764,17.764,0,0,1,3.15,3.07l.012.021a18.651,18.651,0,0,1,2.119,3.448,16.728,16.728,0,0,1,1.235,3.673h.006a33.314,33.314,0,0,1,.589,3.548,31.186,31.186,0,0,1,.2,3.454Zm-61.287,14.034h24.125q12.318,0,18.153-3.656,5.384-3.375,5.386-10.378a20.208,20.208,0,0,0-.3-3.62,13.719,13.719,0,0,0-.884-2.962,7.83,7.83,0,0,0-1.384-2.156,9.954,9.954,0,0,0-2.148-1.768l0,.006a17.157,17.157,0,0,0-3.23-1.468,31.089,31.089,0,0,0-4.427-1.125v0a55.41,55.41,0,0,0-5.745-.677q-3.279-.234-7.3-.234H891.253v28.043Zm0-39.273h22.164a56.328,56.328,0,0,0,10.232-.8,20.36,20.36,0,0,0,6.478-2.189,8.468,8.468,0,0,0,3.355-3.508,12.962,12.962,0,0,0,1.219-5.928,11.806,11.806,0,0,0-1.123-5.364l.01,0a8.838,8.838,0,0,0-3.131-3.44v0a17.6,17.6,0,0,0-6.013-2.2,49.927,49.927,0,0,0-9.739-.82v-.01l-23.451.066Z" transform="translate(-503.634 -248.629)"/>
  <polygon class="cls-2" points="954.818 49.475 954.952 84.881 966.059 97.382 965.925 49.475 954.818 49.475"/>
  <polygon class="cls-2" points="965.22 60.595 931.728 60.461 919.902 49.354 965.22 49.489 965.22 60.595"/>
  <polygon class="cls-1" points="366.508 95.592 305.056 95.592 294.453 86.084 294.453 9.964 356.855 9.964 364.081 16.206 301.733 16.206 301.733 47.896 360.161 47.896 360.161 54.138 301.733 54.138 301.733 89.35 358.82 89.35 366.508 95.592"/>
  <polygon class="cls-1" points="285.333 96.119 214.772 27.755 214.772 96.119 207.492 89.528 207.492 10.491 278.053 79.975 278.053 10.491 285.333 17.214 285.333 96.119"/>
  <path class="cls-2" d="M1427.794,345.762a62.645,62.645,0,0,1-10.186-.805,52.1,52.1,0,0,1-9.344-2.425h-.012a48.079,48.079,0,0,1-8.242-3.9,41.908,41.908,0,0,1-7-5.226l.006-.005a39.8,39.8,0,0,1-9.784-14.166,43.611,43.611,0,0,1-2.546-8.646,52.71,52.71,0,0,1,0-18.955,42.131,42.131,0,0,1,2.583-8.629v-.01a42.024,42.024,0,0,1,4.186-7.526,39.573,39.573,0,0,1,5.592-6.4,41.179,41.179,0,0,1,6.944-5.148,46.845,46.845,0,0,1,8.162-3.807h.012a52.549,52.549,0,0,1,9.2-2.337,62.63,62.63,0,0,1,10.016-.783,68.737,68.737,0,0,1,7.857.445,59.068,59.068,0,0,1,7.4,1.316l.013.01a53.019,53.019,0,0,1,6.747,2.142,44.586,44.586,0,0,1,6.056,2.931,36.8,36.8,0,0,1,5.209,3.657,31.211,31.211,0,0,1,4.272,4.372h0l-9.288,8.569a13.419,13.419,0,0,0-1.781-2.693l-.012-.01a18.076,18.076,0,0,0-2.588-2.528,24.114,24.114,0,0,0-3.36-2.252h-.012a31.386,31.386,0,0,0-4.108-1.928,41.081,41.081,0,0,0-4.825-1.512,42.142,42.142,0,0,0-5.391-.967,52.16,52.16,0,0,0-5.976-.323,49.175,49.175,0,0,0-7.362.529,39.158,39.158,0,0,0-6.576,1.566h-.024a30.411,30.411,0,0,0-5.709,2.551,27.677,27.677,0,0,0-4.885,3.58l-.012.011a26.227,26.227,0,0,0-3.979,4.566,29.969,29.969,0,0,0-3.019,5.649v.01a32.087,32.087,0,0,0-1.92,6.667,46.717,46.717,0,0,0,0,15.526,32.52,32.52,0,0,0,1.916,6.668v.021a30.911,30.911,0,0,0,3.026,5.717,27.764,27.764,0,0,0,8.871,8.38,32.11,32.11,0,0,0,5.826,2.687l0,0a39.1,39.1,0,0,0,6.661,1.636v0a47.922,47.922,0,0,0,7.389.543,55.15,55.15,0,0,0,10.213-.892,38.786,38.786,0,0,0,8.582-2.619l0,0a38.648,38.648,0,0,0,12.789-9.137l4.935,7.669-3.665,6.694a37.125,37.125,0,0,1-3.752,2.53l-.025.011a46.489,46.489,0,0,1-4.369,2.243,45.667,45.667,0,0,1-4.648,1.789q-2.363.77-4.779,1.324t-5.009.92h-.024q-2.656.353-5.087.518Q1430.366,345.761,1427.794,345.762Z" transform="translate(-503.634 -248.629)"/>
  <polygon class="cls-2" points="771.928 84.739 771.928 12.708 771.928 10.03 785.025 20.013 785.025 95.941 771.928 84.739"/>
  <polygon class="cls-2" points="606.642 41.203 606.642 94.301 606.642 96.98 593.544 85.68 593.544 13.747 593.544 11.069 659.925 69.606 659.925 13.747 659.925 11.069 673.021 21.052 673.021 94.301 673.021 96.98 606.642 41.203"/>
  <polygon class="cls-2" points="805.605 40.002 805.605 93.1 805.605 95.779 792.508 84.479 792.508 12.547 792.508 9.868 858.888 68.406 858.888 12.547 858.888 9.868 871.985 19.851 871.985 93.1 871.985 95.779 805.605 40.002"/>
  <polygon class="cls-2" points="586.329 96.11 529.871 96.11 515.421 84.876 515.421 12.877 515.421 10.199 518.545 10.199 576.079 10.199 587.171 21.428 584.046 21.428 528.517 21.428 528.517 45.883 580.359 45.883 583.483 45.883 583.483 48.562 583.483 54.434 583.483 57.113 580.359 57.113 528.517 57.113 528.517 84.88 577.894 84.88 589.453 96.11 586.329 96.11"/>
  <polygon class="cls-2" points="512.013 95.673 456.696 95.673 453.572 95.673 453.572 92.995 453.572 12.441 453.572 9.762 466.669 20.343 466.669 84.444 502.797 84.444 515.137 95.673 512.013 95.673"/>
  <polygon class="cls-3" points="47.791 0 71.686 13.25 95.582 26.5 95.582 53.001 95.582 79.502 71.686 92.752 47.791 106.002 23.895 92.752 0 79.502 0 53.001 0 26.5 23.895 13.25 47.791 0"/>
  <polygon class="cls-4" points="0.135 26.309 47.926 52.81 0.135 79.311 0.135 26.309"/>
  <polygon class="cls-5" points="95.459 26.309 47.668 52.81 95.459 79.311 95.459 26.309"/>
  <polygon class="cls-6" points="47.454 8.112 47.533 8.072 87.532 30.432 82.582 33.749 82.137 33.514 82.138 33.119 81.323 33.085 79.264 32 79.256 31.45 78.228 31.454 76.147 30.357 76.143 29.798 75.069 29.789 72.989 28.692 72.986 28.192 71.992 28.166 69.888 27.057 69.88 26.491 68.805 26.487 66.723 25.389 66.713 24.864 65.723 24.862 63.586 23.724 62.554 23.716 62.554 23.191 60.511 22.115 60.505 21.596 59.488 21.576 57.393 20.471 57.403 19.928 56.348 19.92 54.276 18.828 54.277 18.298 53.267 18.296 51.164 17.188 51.157 16.646 50.081 16.617 47.987 15.513 47.979 15.214 47.454 15.207 47.454 8.112"/>
  <polygon class="cls-7" points="7.394 30.191 47.496 8.078 47.543 8.102 47.543 15.215 46.901 15.207 46.894 15.602 41.74 18.353 40.699 18.358 40.706 18.904 38.624 20.016 37.609 20.013 37.607 20.559 35.532 21.666 34.504 21.666 34.501 22.217 32.393 23.342 31.391 23.377 31.402 23.871 29.306 26.723 28.255 26.776 28.255 27.84 26.266 26.807 26.284 28.855 25.136 28.881 23.047 28.331 22.027 28.338 22.033 28.872 19.946 29.986 18.889 30.039 18.889 30.528 16.808 31.637 15.772 31.624 15.755 32.199 13.678 32.062 12.63 32.07 12.63 31.97 10.562 31.697 10.56 30.626 9.516 30.629 7.394 30.191"/>
  <rect class="cls-8" x="8.867" y="43.514" width="2.081" height="2.041"/>
  <rect class="cls-9" x="51.032" y="49.77" width="2.081" height="2.041"/>
  <rect class="cls-8" x="7.346" y="40.406" width="2.081" height="5.168"/>
  <rect class="cls-10" x="38.543" y="43.568" width="2.081" height="2.041"/>
  <rect class="cls-8" x="41.728" y="40.442" width="2.081" height="2.041"/>
  <rect class="cls-11" x="51.017" y="43.541" width="2.081" height="2.041"/>
  <rect class="cls-9" x="57.239" y="43.554" width="2.081" height="2.041"/>
  <rect class="cls-9" x="82.13" y="43.604" width="2.081" height="2.041"/>
  <rect class="cls-8" x="7.331" y="37.304" width="5.298" height="2.041"/>
  <rect class="cls-8" x="8.905" y="30.29" width="2.081" height="1.778"/>
  <rect class="cls-8" x="26.147" y="34.092" width="2.03" height="6.373"/>
  <rect class="cls-8" x="38.528" y="37.339" width="5.216" height="2.041"/>
  <rect class="cls-11" x="51.002" y="37.279" width="5.186" height="2.041"/>
  <rect class="cls-11" x="57.224" y="35.82" width="2.081" height="0.399"/>
  <rect class="cls-11" x="63.447" y="37.337" width="2.081" height="2.041"/>
  <rect class="cls-11" x="69.67" y="37.35" width="2.081" height="2.041"/>
  <rect class="cls-12" x="82.115" y="37.375" width="2.081" height="5.145"/>
  <rect class="cls-8" x="13.677" y="30.998" width="2.094" height="2.029"/>
  <rect class="cls-11" x="51.139" y="31.047" width="2.081" height="2.041"/>
  <rect class="cls-11" x="76.066" y="29.622" width="2.117" height="3.438"/>
  <rect class="cls-8" x="19.916" y="27.95" width="2.081" height="2.041"/>
  <rect class="cls-11" x="57.36" y="19.815" width="2.081" height="10.1"/>
  <rect class="cls-8" x="38.623" y="18.508" width="2.081" height="2.041"/>
  <rect class="cls-11" x="47.923" y="18.431" width="5.298" height="2.134"/>
  <rect class="cls-8" x="35.514" y="30.936" width="8.327" height="2.041"/>
  <rect class="cls-8" x="10.456" y="40.608" width="2.081" height="8.203"/>
  <rect class="cls-10" x="29.106" y="34.077" width="2.081" height="8.173"/>
  <rect class="cls-10" x="35.397" y="43.528" width="2.081" height="2.122"/>
  <rect class="cls-10" x="41.722" y="43.565" width="2.081" height="2.122"/>
  <rect class="cls-8" x="44.819" y="37.117" width="2.081" height="5.288"/>
  <rect class="cls-11" x="54.122" y="43.46" width="2.081" height="2.122"/>
  <rect class="cls-9" x="60.344" y="43.473" width="2.081" height="2.122"/>
  <rect class="cls-11" x="85.235" y="43.523" width="2.081" height="5.109"/>
  <rect class="cls-10" x="23.065" y="34.075" width="2.081" height="4.178"/>
  <rect class="cls-8" x="35.382" y="37.298" width="2.081" height="2.122"/>
  <rect class="cls-8" x="38.568" y="27.753" width="5.235" height="2.122"/>
  <rect class="cls-8" x="47.884" y="37.218" width="2.081" height="2.122"/>
  <rect class="cls-9" x="60.329" y="37.243" width="2.081" height="2.122"/>
  <rect class="cls-11" x="66.551" y="37.256" width="2.081" height="2.122"/>
  <rect class="cls-8" x="16.804" y="28.633" width="2.081" height="3.459"/>
  <rect class="cls-11" x="54.147" y="30.949" width="2.081" height="4.201"/>
  <rect class="cls-11" x="79.216" y="30.962" width="2.081" height="2.161"/>
  <rect class="cls-8" x="23.055" y="26.779" width="2.081" height="4.475"/>
  <rect class="cls-11" x="58.446" y="27.82" width="4.139" height="2.122"/>
  <rect class="cls-11" x="60.473" y="21.594" width="2.081" height="2.122"/>
  <rect class="cls-8" x="29.306" y="22.65" width="2.081" height="4.073"/>
  <rect class="cls-8" x="35.525" y="19.217" width="2.081" height="4.498"/>
  <rect class="cls-8" x="41.736" y="15.333" width="3.458" height="8.209"/>
  <rect class="cls-8" x="44.853" y="30.936" width="2.081" height="5.323"/>
  <rect class="cls-11" x="47.947" y="15.308" width="2.081" height="2.122"/>
  <rect class="cls-11" x="85.451" y="30.432" width="2.081" height="8.836"/>
  <rect class="cls-8" x="7.333" y="30.155" width="2.105" height="2.871"/>
  <rect class="cls-8" x="7.414" y="49.627" width="2.105" height="2.109"/>
  <rect class="cls-8" x="44.793" y="13.885" width="2.105" height="16.034"/>
  <rect class="cls-9" x="51.016" y="46.641" width="2.105" height="2.065"/>
  <rect class="cls-12" x="82.129" y="46.704" width="2.105" height="2.064"/>
  <rect class="cls-8" x="32.276" y="40.479" width="2.105" height="3.269"/>
  <rect class="cls-10" x="38.527" y="40.439" width="2.105" height="2.064"/>
  <rect class="cls-11" x="51" y="40.412" width="2.105" height="5.17"/>
  <rect class="cls-9" x="63.446" y="40.437" width="2.105" height="2.065"/>
  <rect class="cls-8" x="7.315" y="32.791" width="2.105" height="5.105"/>
  <rect class="cls-8" x="19.702" y="31.02" width="2.105" height="5.188"/>
  <rect class="cls-8" x="38.511" y="34.21" width="2.105" height="4.943"/>
  <rect class="cls-11" x="50.985" y="34.183" width="2.105" height="2.064"/>
  <rect class="cls-11" x="54.816" y="34.155" width="4.496" height="2.064"/>
  <rect class="cls-11" x="63.43" y="34.208" width="2.105" height="2.065"/>
  <rect class="cls-11" x="76.022" y="34.054" width="2.105" height="2.065"/>
  <rect class="cls-11" x="82.098" y="29.969" width="4.393" height="6.342"/>
  <rect class="cls-11" x="63.586" y="22.973" width="2.105" height="9.9"/>
  <rect class="cls-11" x="57.309" y="31.024" width="2.105" height="2.065"/>
  <rect class="cls-8" x="32.395" y="19.398" width="2.105" height="19.9"/>
  <rect class="cls-8" x="38.606" y="21.598" width="2.105" height="4.876"/>
  <rect class="cls-11" x="51.117" y="15.901" width="2.105" height="4.652"/>
  <rect class="cls-8" x="35.644" y="24.777" width="5.094" height="2.064"/>
  <rect class="cls-11" x="69.84" y="26.143" width="2.105" height="9.969"/>
  <rect class="cls-8" x="26.15" y="24.861" width="2.105" height="8.269"/>
  <rect class="cls-8" x="10.548" y="30.993" width="2.081" height="8.373"/>
  <rect class="cls-8" x="85.352" y="49.315" width="2.081" height="2.081"/>
  <rect class="cls-8" x="44.851" y="43.543" width="2.081" height="2.081"/>
  <rect class="cls-9" x="54.17" y="46.608" width="2.081" height="2.081"/>
  <rect class="cls-8" x="10.484" y="38.629" width="2.081" height="5.858"/>
  <rect class="cls-10" x="35.43" y="40.447" width="2.081" height="2.081"/>
  <rect class="cls-11" x="47.932" y="40.367" width="2.081" height="11.399"/>
  <rect class="cls-9" x="54.155" y="40.379" width="2.081" height="2.081"/>
  <rect class="cls-11" x="57.359" y="40.392" width="5.099" height="2.081"/>
  <rect class="cls-11" x="66.6" y="40.405" width="2.081" height="2.081"/>
  <rect class="cls-11" x="85.268" y="40.443" width="2.081" height="2.081"/>
  <rect class="cls-10" x="35.415" y="34.218" width="2.081" height="2.081"/>
  <rect class="cls-10" x="41.558" y="24.717" width="2.081" height="2.081"/>
  <rect class="cls-11" x="54.139" y="34.15" width="2.081" height="2.081"/>
  <rect class="cls-11" x="60.452" y="30.958" width="2.081" height="5.286"/>
  <rect class="cls-11" x="64.482" y="34.176" width="4.183" height="2.081"/>
  <rect class="cls-9" x="72.97" y="34.058" width="2.081" height="2.081"/>
  <rect class="cls-11" x="54.217" y="24.758" width="2.081" height="5.244"/>
  <rect class="cls-11" x="66.683" y="24.725" width="2.081" height="5.222"/>
  <rect class="cls-11" x="51.031" y="27.921" width="5.255" height="2.081"/>
  <rect class="cls-8" x="19.702" y="27.884" width="5.41" height="5.114"/>
  <rect class="cls-11" x="60.527" y="24.743" width="2.081" height="2.047"/>
  <rect class="cls-11" x="51.095" y="21.61" width="2.081" height="2.055"/>
  <rect class="cls-8" x="29.282" y="27.747" width="2.081" height="2.081"/>
  <rect class="cls-11" x="47.923" y="18.455" width="2.081" height="5.394"/>
  <rect class="cls-11" x="54.222" y="18.475" width="2.081" height="5.197"/>
  <rect class="cls-8" x="35.497" y="24.777" width="2.081" height="5.212"/>
  <rect class="cls-11" x="72.946" y="27.957" width="2.096" height="3.044"/>
  <rect class="cls-8" x="26.15" y="31.052" width="5.187" height="2.081"/>
  <rect class="cls-11" x="66.704" y="31.102" width="2.081" height="3.954"/>
  <rect class="cls-10" x="41.82" y="46.621" width="2.081" height="2.122"/>
  <rect class="cls-10" x="44.909" y="46.621" width="2.081" height="2.122"/>
  <rect class="cls-10" x="44.844" y="49.678" width="2.081" height="2.122"/>
  <rect class="cls-10" x="38.731" y="46.589" width="2.081" height="2.122"/>
  <rect class="cls-10" x="16.864" y="32.996" width="2.081" height="2.122"/>
  <rect class="cls-11" x="47.944" y="24.793" width="2.081" height="11.346"/>
  <rect class="cls-11" x="64.982" y="24.71" width="2.081" height="2.047"/>
  <polygon class="cls-1" points="47.473 96.862 87.57 74.793 82.621 70.421 82.175 70.656 82.177 71.051 81.361 71.085 79.303 72.17 79.294 72.72 78.267 72.716 76.185 73.813 76.181 74.372 75.108 74.381 73.027 75.478 73.025 75.978 72.031 76.004 69.926 77.113 69.919 77.679 68.844 77.683 66.761 78.781 66.752 79.306 65.761 79.308 63.624 80.446 62.592 80.454 62.592 80.979 60.55 82.055 60.543 82.574 59.527 82.594 57.431 83.699 57.442 84.242 56.386 84.25 54.315 85.342 54.316 85.872 53.306 85.873 51.202 86.983 51.195 87.524 50.12 87.553 48.026 88.656 48.018 88.956 47.492 88.963 47.473 96.862"/>
  <polygon class="cls-13" points="7.492 75.041 47.473 96.862 47.581 88.955 46.94 88.963 46.933 88.568 41.778 85.817 40.738 85.812 40.745 85.265 38.662 84.154 37.648 84.157 37.645 83.611 35.571 82.504 34.542 82.504 34.539 81.953 32.432 80.828 31.429 80.793 31.441 80.299 29.345 77.447 28.294 77.394 28.294 76.33 26.305 77.362 26.322 75.315 25.175 75.289 23.086 75.839 22.065 75.832 22.072 75.298 19.984 74.184 18.927 74.13 18.927 73.642 16.846 72.533 15.811 72.546 15.793 71.971 13.716 72.108 12.668 72.1 12.668 72.2 10.601 72.473 10.599 73.544 9.555 73.541 7.492 75.041"/>
  <rect class="cls-14" x="57.398" y="74.255" width="2.081" height="10.1"/>
  <rect class="cls-15" x="38.661" y="83.621" width="2.081" height="2.041"/>
  <rect class="cls-14" x="47.962" y="83.605" width="5.298" height="2.134"/>
  <rect class="cls-15" x="35.563" y="80.455" width="2.081" height="4.498"/>
  <rect class="cls-15" x="41.774" y="80.628" width="3.458" height="8.209"/>
  <rect class="cls-14" x="47.986" y="86.739" width="2.081" height="2.122"/>
  <rect class="cls-15" x="44.832" y="74.25" width="2.105" height="16.035"/>
  <rect class="cls-15" x="32.434" y="64.872" width="2.105" height="19.9"/>
  <rect class="cls-14" x="51.155" y="83.617" width="2.105" height="4.652"/>
  <rect class="cls-14" x="47.961" y="80.321" width="2.081" height="5.394"/>
  <rect class="cls-14" x="54.26" y="80.498" width="2.081" height="5.197"/>
  <rect class="cls-11" x="10.567" y="49.718" width="2.081" height="2.041"/>
  <rect class="cls-11" x="7.395" y="46.754" width="2.081" height="2.041"/>
  <rect class="cls-8" x="51.04" y="52.497" width="2.081" height="2.041"/>
  <rect class="cls-8" x="82.184" y="52.295" width="2.081" height="2.041"/>
  <rect class="cls-15" x="7.385" y="58.595" width="2.081" height="5.168"/>
  <rect class="cls-15" x="38.582" y="58.561" width="2.081" height="2.041"/>
  <rect class="cls-15" x="41.767" y="61.687" width="2.081" height="2.041"/>
  <rect class="cls-14" x="51.055" y="58.588" width="2.081" height="2.041"/>
  <rect class="cls-8" x="57.278" y="58.575" width="2.081" height="2.041"/>
  <rect class="cls-8" x="82.169" y="58.525" width="2.081" height="2.041"/>
  <rect class="cls-15" x="7.37" y="64.825" width="5.298" height="2.041"/>
  <rect class="cls-15" x="8.944" y="72.102" width="2.081" height="1.778"/>
  <rect class="cls-11" x="26.186" y="63.705" width="2.03" height="6.373"/>
  <rect class="cls-15" x="38.566" y="64.79" width="5.216" height="2.041"/>
  <rect class="cls-14" x="51.04" y="64.85" width="5.186" height="2.041"/>
  <rect class="cls-14" x="57.263" y="67.951" width="2.081" height="0.399"/>
  <rect class="cls-14" x="63.485" y="64.792" width="2.081" height="2.041"/>
  <rect class="cls-8" x="69.708" y="64.779" width="2.081" height="2.041"/>
  <rect class="cls-14" x="82.154" y="61.65" width="2.081" height="5.145"/>
  <rect class="cls-15" x="13.716" y="71.143" width="2.094" height="2.029"/>
  <rect class="cls-14" x="51.178" y="71.082" width="2.081" height="2.041"/>
  <rect class="cls-14" x="76.105" y="71.11" width="2.117" height="3.438"/>
  <rect class="cls-15" x="19.954" y="74.179" width="2.081" height="2.041"/>
  <rect class="cls-15" x="35.552" y="71.193" width="8.327" height="2.041"/>
  <rect class="cls-14" x="85.289" y="52.295" width="2.081" height="2.122"/>
  <rect class="cls-15" x="10.49" y="52.767" width="2.081" height="4.884"/>
  <rect class="cls-15" x="29.144" y="61.92" width="2.081" height="8.173"/>
  <rect class="cls-11" x="35.436" y="58.52" width="2.081" height="2.122"/>
  <rect class="cls-15" x="41.761" y="58.483" width="2.081" height="2.122"/>
  <rect class="cls-15" x="44.858" y="61.765" width="2.081" height="5.288"/>
  <rect class="cls-14" x="54.16" y="58.587" width="2.081" height="2.122"/>
  <rect class="cls-14" x="60.383" y="58.575" width="2.081" height="2.122"/>
  <rect class="cls-14" x="85.273" y="55.537" width="2.081" height="5.109"/>
  <rect class="cls-15" x="23.103" y="65.917" width="2.081" height="4.178"/>
  <rect class="cls-15" x="35.42" y="64.749" width="2.081" height="2.122"/>
  <rect class="cls-15" x="38.606" y="74.294" width="5.235" height="2.122"/>
  <rect class="cls-14" x="47.922" y="64.83" width="2.081" height="2.122"/>
  <rect class="cls-14" x="60.367" y="64.804" width="2.081" height="2.122"/>
  <rect class="cls-8" x="66.59" y="64.792" width="2.081" height="2.122"/>
  <rect class="cls-15" x="16.843" y="72.078" width="2.081" height="3.458"/>
  <rect class="cls-14" x="54.185" y="69.02" width="2.081" height="4.201"/>
  <rect class="cls-14" x="79.254" y="71.047" width="2.081" height="2.161"/>
  <rect class="cls-15" x="23.094" y="72.915" width="2.081" height="4.475"/>
  <rect class="cls-14" x="58.485" y="74.228" width="4.139" height="2.122"/>
  <rect class="cls-14" x="60.511" y="80.454" width="2.081" height="2.122"/>
  <rect class="cls-15" x="29.345" y="77.447" width="2.081" height="4.073"/>
  <rect class="cls-15" x="44.891" y="67.911" width="2.081" height="5.324"/>
  <rect class="cls-14" x="85.489" y="64.902" width="2.081" height="9.923"/>
  <rect class="cls-15" x="7.433" y="71.129" width="2.105" height="3.912"/>
  <rect class="cls-14" x="82.121" y="49.31" width="2.105" height="2.065"/>
  <rect class="cls-11" x="7.409" y="52.835" width="2.105" height="4.62"/>
  <rect class="cls-14" x="51.054" y="55.464" width="2.105" height="2.065"/>
  <rect class="cls-14" x="82.167" y="55.401" width="2.105" height="2.065"/>
  <rect class="cls-15" x="32.314" y="60.422" width="2.105" height="3.269"/>
  <rect class="cls-15" x="38.565" y="61.666" width="2.105" height="2.064"/>
  <rect class="cls-14" x="51.039" y="58.588" width="2.105" height="5.17"/>
  <rect class="cls-14" x="63.484" y="61.668" width="2.105" height="2.065"/>
  <rect class="cls-15" x="7.353" y="66.273" width="2.105" height="5.105"/>
  <rect class="cls-15" x="19.741" y="67.962" width="2.105" height="5.188"/>
  <rect class="cls-15" x="38.55" y="65.016" width="2.105" height="4.943"/>
  <rect class="cls-14" x="51.024" y="67.923" width="2.105" height="2.064"/>
  <rect class="cls-14" x="54.855" y="67.951" width="4.496" height="2.064"/>
  <rect class="cls-14" x="63.469" y="67.897" width="2.105" height="2.065"/>
  <rect class="cls-14" x="76.061" y="68.051" width="2.105" height="2.065"/>
  <rect class="cls-14" x="82.137" y="67.859" width="4.393" height="6.342"/>
  <rect class="cls-14" x="63.624" y="71.296" width="2.105" height="9.9"/>
  <rect class="cls-14" x="57.348" y="71.081" width="2.105" height="2.065"/>
  <rect class="cls-15" x="38.645" y="77.696" width="2.105" height="4.876"/>
  <rect class="cls-15" x="35.682" y="77.328" width="5.094" height="2.064"/>
  <rect class="cls-14" x="69.879" y="68.057" width="2.105" height="9.969"/>
  <rect class="cls-15" x="26.189" y="71.039" width="2.105" height="8.269"/>
  <rect class="cls-15" x="10.587" y="64.804" width="2.081" height="8.373"/>
  <rect class="cls-15" x="44.89" y="58.546" width="2.081" height="2.081"/>
  <rect class="cls-8" x="54.209" y="55.48" width="2.081" height="2.081"/>
  <rect class="cls-15" x="10.523" y="59.682" width="2.081" height="5.858"/>
  <rect class="cls-11" x="35.468" y="61.642" width="2.081" height="2.081"/>
  <rect class="cls-14" x="47.97" y="52.404" width="2.081" height="11.399"/>
  <rect class="cls-14" x="54.193" y="61.71" width="2.081" height="2.081"/>
  <rect class="cls-8" x="57.398" y="61.697" width="5.099" height="2.081"/>
  <rect class="cls-14" x="66.638" y="61.684" width="2.081" height="2.081"/>
  <rect class="cls-14" x="85.306" y="61.646" width="2.081" height="2.081"/>
  <rect class="cls-15" x="35.453" y="67.871" width="2.081" height="2.081"/>
  <rect class="cls-15" x="41.596" y="77.372" width="2.081" height="2.081"/>
  <rect class="cls-14" x="54.178" y="67.938" width="2.081" height="2.081"/>
  <rect class="cls-14" x="60.49" y="67.926" width="2.081" height="5.286"/>
  <rect class="cls-14" x="64.521" y="67.913" width="4.183" height="2.081"/>
  <rect class="cls-8" x="73.008" y="68.031" width="2.081" height="2.081"/>
  <rect class="cls-14" x="54.256" y="74.168" width="2.081" height="5.244"/>
  <rect class="cls-14" x="66.721" y="74.222" width="2.081" height="5.222"/>
  <rect class="cls-14" x="51.07" y="74.168" width="5.255" height="2.081"/>
  <rect class="cls-15" x="19.741" y="71.172" width="5.41" height="5.114"/>
  <rect class="cls-14" x="60.566" y="77.38" width="2.081" height="2.047"/>
  <rect class="cls-14" x="51.134" y="80.504" width="2.081" height="2.056"/>
  <rect class="cls-15" x="29.321" y="74.342" width="2.081" height="2.081"/>
  <rect class="cls-15" x="35.536" y="74.181" width="2.081" height="5.212"/>
  <rect class="cls-14" x="72.984" y="73.169" width="2.096" height="3.044"/>
  <rect class="cls-15" x="26.189" y="71.036" width="5.186" height="2.081"/>
  <rect class="cls-14" x="66.743" y="69.114" width="2.081" height="3.954"/>
  <rect class="cls-15" x="41.859" y="55.426" width="2.081" height="2.122"/>
  <rect class="cls-15" x="44.948" y="55.426" width="2.081" height="2.122"/>
  <rect class="cls-11" x="44.913" y="52.462" width="2.081" height="2.122"/>
  <rect class="cls-11" x="38.77" y="55.459" width="2.081" height="2.122"/>
  <rect class="cls-11" x="16.903" y="69.052" width="2.081" height="2.122"/>
  <rect class="cls-14" x="47.982" y="68.031" width="2.081" height="11.346"/>
  <rect class="cls-14" x="65.02" y="77.413" width="2.081" height="2.047"/>
</svg>
