<svg id="_1" data-name="1" xmlns="http://www.w3.org/2000/svg" xmlns:xlink="http://www.w3.org/1999/xlink" viewBox="0 0 1149.443 142.136">
  <defs>
    <style>
      .cls-1 {
        fill: #c5e2f6;
      }

      .cls-1, .cls-10, .cls-11, .cls-12, .cls-13, .cls-2, .cls-3, .cls-4, .cls-5, .cls-6, .cls-7, .cls-8, .cls-9 {
        fill-rule: evenodd;
      }

      .cls-2 {
        fill: #fff;
      }

      .cls-3 {
        fill: #005aa5;
      }

      .cls-4 {
        fill: #62a2d5;
      }

      .cls-5 {
        fill: #2177ba;
      }

      .cls-6 {
        fill: #07417c;
      }

      .cls-7 {
        fill: url(#GradientFill_1);
      }

      .cls-8 {
        fill: url(#GradientFill_2);
      }

      .cls-9 {
        fill: #002c70;
      }

      .cls-10 {
        fill: url(#GradientFill_3);
      }

      .cls-11 {
        fill: url(#GradientFill_3-2);
      }

      .cls-12 {
        fill: url(#GradientFill_3-3);
      }

      .cls-13 {
        fill: #065ea8;
      }
    </style>
    <linearGradient id="GradientFill_1" data-name="GradientFill 1" x1="15.832" y1="56.627" x2="51.381" y2="56.627" gradientUnits="userSpaceOnUse">
      <stop offset="0" stop-color="#002c66"/>
      <stop offset="0.184" stop-color="#04346f"/>
      <stop offset="0.484" stop-color="#104b87"/>
      <stop offset="0.861" stop-color="#2271af"/>
      <stop offset="1" stop-color="#2a80bf"/>
    </linearGradient>
    <linearGradient id="GradientFill_2" data-name="GradientFill 2" x1="96.982" y1="47.67" x2="91.302" y2="63.081" gradientUnits="userSpaceOnUse">
      <stop offset="0" stop-color="#7bbae1"/>
      <stop offset="0.13" stop-color="#75b3db"/>
      <stop offset="0.324" stop-color="#639ec9"/>
      <stop offset="0.559" stop-color="#467dac"/>
      <stop offset="0.823" stop-color="#1e4f84"/>
      <stop offset="1" stop-color="#002c66"/>
    </linearGradient>
    <linearGradient id="GradientFill_3" data-name="GradientFill 3" x1="392.387" y1="517.821" x2="440.923" y2="517.821" gradientUnits="userSpaceOnUse">
      <stop offset="0" stop-color="#ace5f0"/>
      <stop offset="1" stop-color="#e3f6fa"/>
    </linearGradient>
    <linearGradient id="GradientFill_3-2" x1="489.969" y1="517.475" x2="441.433" y2="517.475" xlink:href="#GradientFill_3"/>
    <linearGradient id="GradientFill_3-3" x1="446.576" y1="509.793" x2="435.063" y2="505.695" xlink:href="#GradientFill_3"/>
  </defs>
  <title>logo_bw_</title>
  <path class="cls-1" d="M1210.886,489.355a50.349,50.349,0,0,1,17.169,2.837,39.673,39.673,0,0,1,13.548,8.1,36.74,36.74,0,0,1,8.881,12.635,41.293,41.293,0,0,1,3.2,16.491,42,42,0,0,1-3.14,16.467,37.918,37.918,0,0,1-8.853,12.829,39.97,39.97,0,0,1-13.52,8.294,52.2,52.2,0,0,1-34.649,0,40.031,40.031,0,0,1-13.548-8.269,37.256,37.256,0,0,1-8.853-12.781,42.2,42.2,0,0,1-3.14-16.54,41.484,41.484,0,0,1,3.2-16.564,36.025,36.025,0,0,1,8.91-12.586,40.021,40.021,0,0,1,13.576-8.076,50.334,50.334,0,0,1,17.225-2.837Zm-.085,74.937a43.77,43.77,0,0,0,14.4-2.3,32.278,32.278,0,0,0,11.4-6.791,30.071,30.071,0,0,0,7.467-10.986,38.552,38.552,0,0,0,2.659-14.793,38.118,38.118,0,0,0-2.687-14.793,30.751,30.751,0,0,0-7.467-10.743,32.276,32.276,0,0,0-11.286-6.621,46.895,46.895,0,0,0-28.737.048,32.328,32.328,0,0,0-11.4,6.645,30.166,30.166,0,0,0-7.524,10.743,37.918,37.918,0,0,0-2.687,14.721,38.552,38.552,0,0,0,2.659,14.793,30.657,30.657,0,0,0,7.411,10.986,32.163,32.163,0,0,0,11.37,6.791A43.821,43.821,0,0,0,1210.8,564.292Z" transform="translate(-376.484 -457.026)"/>
  <path class="cls-2" d="M880.292,527.945q0,19.56-11.612,29.566t-34.361,10.011H818.3l-12.66-10.578V489.554h28.677a74.708,74.708,0,0,1,19.77,2.354,38.4,38.4,0,0,1,14.549,7.251h0a29.976,29.976,0,0,1,8.8,12.195,44.6,44.6,0,0,1,2.849,16.59Zm-12.244.51a43.5,43.5,0,0,0-1.585-12.292h0a19.8,19.8,0,0,0-2.066-4.706,18.966,18.966,0,0,0-3.161-3.894,20.034,20.034,0,0,0-4.33-3.073v-.009a29.832,29.832,0,0,0-5.738-2.288h-.011a44.476,44.476,0,0,0-7.442-1.455,82.73,82.73,0,0,0-9.465-.488H817.692V557.8h16.557a79.031,79.031,0,0,0,9.394-.5,43.2,43.2,0,0,0,7.411-1.5,29.517,29.517,0,0,0,5.766-2.381,19.316,19.316,0,0,0,7.5-7.229,21.181,21.181,0,0,0,2.115-4.908,38.039,38.039,0,0,0,1.214-5.947A55.036,55.036,0,0,0,868.049,528.454Z" transform="translate(-376.484 -457.026)"/>
  <path class="cls-1" d="M1451.179,527.264q0,20.311-12.058,30.7t-35.68,10.4H1386.81l-13.146-10.985v-69.13h29.778a77.571,77.571,0,0,1,20.529,2.445,39.853,39.853,0,0,1,15.107,7.53h0a31.125,31.125,0,0,1,9.142,12.663,41.84,41.84,0,0,1,2.958,16.381Zm-6.636.99c0-4.95-.03-10.6-2.744-15.945a40.773,40.773,0,0,0-6.87-9.286c-4.566-4.323-11.572-6.685-20.962-7.4a98.452,98.452,0,0,0-10.675-.737l-23.052-.165-.433,67.784,23.408.217a102.13,102.13,0,0,0,10.831-.524c5.444-.656,10.676-1.7,16.837-5.95,6.4-3.54,10.361-10.046,12.138-16.142C1444.231,535.984,1444.317,532.509,1444.543,528.254Z" transform="translate(-376.484 -457.026)"/>
  <path class="cls-2" d="M591.812,544.65a21.06,21.06,0,0,1-2.207,9.779,19.731,19.731,0,0,1-6.741,7.373h0a31.416,31.416,0,0,1-10.684,4.411,63.451,63.451,0,0,1-14.1,1.406H535.642l-11.456-10.128V489.514h33.759A58.5,58.5,0,0,1,570,490.634a29.408,29.408,0,0,1,9.307,3.512,16.072,16.072,0,0,1,6.082,6.437,19.242,19.242,0,0,1,1.955,8.888,25.7,25.7,0,0,1-.169,2.843,27.135,27.135,0,0,1-.472,2.852,17.1,17.1,0,0,1-.96,3,17.717,17.717,0,0,1-1.516,2.809v.019a16.379,16.379,0,0,1-2.176,2.6,19.789,19.789,0,0,1-2.755,2.232,19.931,19.931,0,0,1,2.172.911l0,0A21.684,21.684,0,0,1,585.16,529a16.132,16.132,0,0,1,2.864,2.791l.011.019a16.965,16.965,0,0,1,1.927,3.135,15.2,15.2,0,0,1,1.123,3.34h.006a30.318,30.318,0,0,1,.536,3.226,28.438,28.438,0,0,1,.185,3.14Zm-55.718,12.759h21.932q11.2,0,16.5-3.324,4.895-3.068,4.9-9.435a18.359,18.359,0,0,0-.269-3.292,12.465,12.465,0,0,0-.8-2.693,7.1,7.1,0,0,0-1.258-1.96,9.039,9.039,0,0,0-1.952-1.608l0,.005a15.6,15.6,0,0,0-2.937-1.335,28.325,28.325,0,0,0-4.025-1.023v0a50.5,50.5,0,0,0-5.222-.615q-2.981-.213-6.632-.213H536.093v25.5Zm0-35.7h20.15a51.2,51.2,0,0,0,9.3-.73,18.507,18.507,0,0,0,5.889-1.99,7.7,7.7,0,0,0,3.051-3.189,11.786,11.786,0,0,0,1.108-5.389,10.733,10.733,0,0,0-1.021-4.877l.009,0a8.038,8.038,0,0,0-2.846-3.127v0a15.993,15.993,0,0,0-5.466-2,45.389,45.389,0,0,0-8.854-.745v-.009l-21.32.06Z" transform="translate(-376.484 -457.026)"/>
  <polygon class="cls-1" points="764.95 112.387 738.561 49.105 712.253 112.192 684.043 47.932 684.072 30.514 712.535 96.093 738.53 30.593 764.668 96.289 792.728 30.626 792.472 47.6 764.95 112.387"/>
  <polygon class="cls-2" points="675.268 68.496 675.39 100.684 685.488 112.049 685.366 68.496 675.268 68.496"/>
  <polygon class="cls-2" points="684.725 78.605 654.276 78.483 643.526 68.386 684.725 68.508 684.725 78.605"/>
  <path class="cls-2" d="M1023.881,568.849a56.953,56.953,0,0,1-9.26-.732,47.353,47.353,0,0,1-8.495-2.2h-.011a43.725,43.725,0,0,1-7.493-3.55,38.1,38.1,0,0,1-6.362-4.751l.006,0a36.188,36.188,0,0,1-8.9-12.879,39.656,39.656,0,0,1-2.314-7.86,47.91,47.91,0,0,1,0-17.233,38.308,38.308,0,0,1,2.348-7.845v-.009a38.254,38.254,0,0,1,3.806-6.843,35.977,35.977,0,0,1,5.084-5.816,37.428,37.428,0,0,1,6.312-4.681,42.609,42.609,0,0,1,7.421-3.46h.01a47.782,47.782,0,0,1,8.361-2.125,56.934,56.934,0,0,1,9.106-.712,62.509,62.509,0,0,1,7.144.405,53.689,53.689,0,0,1,6.725,1.2l.011.01a48.106,48.106,0,0,1,6.134,1.948,40.508,40.508,0,0,1,5.506,2.664,21.8,21.8,0,0,1,2.4,1.589s.259,12.76.278,12.986c-1.295-1.567-6.216-4.941-9.538-6.289h-.011a28.518,28.518,0,0,0-3.735-1.753,37.387,37.387,0,0,0-4.386-1.375,38.284,38.284,0,0,0-4.9-.879,47.424,47.424,0,0,0-5.434-.294,44.732,44.732,0,0,0-6.693.481,35.585,35.585,0,0,0-5.979,1.424H1011a27.667,27.667,0,0,0-5.191,2.319,25.159,25.159,0,0,0-4.441,3.255l-.011.01a23.843,23.843,0,0,0-3.617,4.151A27.225,27.225,0,0,0,995,515.128v.009a29.2,29.2,0,0,0-1.746,6.061,42.463,42.463,0,0,0,0,14.116A29.56,29.56,0,0,0,995,541.377v.019a28.109,28.109,0,0,0,2.751,5.2,25.239,25.239,0,0,0,8.065,7.618,29.207,29.207,0,0,0,5.3,2.443l0,0a35.5,35.5,0,0,0,6.056,1.488v0a43.572,43.572,0,0,0,6.717.494,50.16,50.16,0,0,0,9.286-.811,35.266,35.266,0,0,0,7.8-2.381l0,0a35.136,35.136,0,0,0,11.627-8.307l4.487,6.972-3.332,6.085a33.709,33.709,0,0,1-3.411,2.3l-.023.01a42.251,42.251,0,0,1-3.972,2.039,41.514,41.514,0,0,1-4.226,1.626q-2.148.7-4.345,1.2t-4.554.836h-.022q-2.415.321-4.625.471Q1026.219,568.847,1023.881,568.849Z" transform="translate(-376.484 -457.026)"/>
  <polygon class="cls-2" points="508.997 100.555 508.997 35.07 508.997 32.635 520.904 41.711 520.904 110.739 508.997 100.555"/>
  <path class="cls-1" d="M1257.436,558.755V493.269l.077-5.359,34.678-.063c7.367-.013,15.687,1.366,21.212,6.32,8.763,7.856,9.513,27.261-.874,34.567-6.9,4.852-14.453,4.4-23.929,4.629l30.4,35.665h-8.213l-34.8-40.679,24.458-.645c6.974-.183,9.047-3.216,11.187-5.369,5.2-5.229,2.949-19.235-1.264-24.074-3.834-4.4-10.083-4.7-18.219-4.695l-28.851.025.088,75.348Z" transform="translate(-376.484 -457.026)"/>
  <polygon class="cls-2" points="358.73 60.975 358.73 109.249 358.73 111.684 346.823 101.411 346.823 36.014 346.823 33.579 407.171 86.798 407.171 36.014 407.171 33.579 419.078 42.655 419.078 109.249 419.078 111.684 358.73 60.975"/>
  <polygon class="cls-2" points="539.614 59.884 539.614 108.157 539.614 110.592 527.707 100.319 527.707 34.923 527.707 32.487 588.056 85.706 588.056 34.923 588.056 32.487 599.962 41.564 599.962 108.157 599.962 110.592 539.614 59.884"/>
  <polygon class="cls-2" points="340.263 110.893 288.935 110.893 275.797 100.68 275.797 35.223 275.797 32.788 278.638 32.788 330.944 32.788 341.028 42.997 338.188 42.997 287.704 42.997 287.704 65.23 334.835 65.23 337.675 65.23 337.675 67.666 337.675 73.004 337.675 75.439 334.835 75.439 287.704 75.439 287.704 100.684 332.594 100.684 343.103 110.893 340.263 110.893"/>
  <polygon class="cls-2" points="272.7 110.496 222.409 110.496 219.569 110.496 219.569 108.061 219.569 34.827 219.569 32.391 231.476 42.011 231.476 100.287 264.321 100.287 275.54 110.496 272.7 110.496"/>
  <polygon class="cls-1" points="1000.145 111.955 949.854 111.955 947.014 111.955 946.872 108.921 946.872 35.687 946.834 31.175 953.337 37.543 953.048 106.802 997.529 106.957 1002.985 111.955 1000.145 111.955"/>
  <path class="cls-1" d="M1489.323,487.774c-20.328,0-36.809,9.894-36.809,22.1,0,20.288,27.3,22.113,36.809,22.074,21.964.522,29.8,5.592,29.567,16.018s-13.33,16.02-29.772,16.02c-15.572,0-24.891-3.522-33.716-17.274l-.016,10.11c5.687,7.8,18.649,13.242,33.732,13.242,20.328,0,36.809-9.894,36.809-22.1,0-16.173-15.579-21.463-36.809-22.1-10.559-.247-29.567-1.731-29.567-15.994,0-8.847,13.33-16.02,29.772-16.02,12.161,0,21.289,2.735,28.73,10.7,6.324,6.768,4.913,9.006,5-3.535C1517.368,493.221,1504.406,487.774,1489.323,487.774Z" transform="translate(-376.484 -457.026)"/>
  <path class="cls-3" d="M440.622,457.026l32.029,17.767,32.029,17.767v71.068L472.652,581.4l-32.029,17.767L408.593,581.4l-32.03-17.767V492.56l32.03-17.767,32.029-17.767Zm0,11.553L413.8,483.457l-26.823,14.879v59.516L413.8,572.731l26.823,14.879,26.823-14.879,26.823-14.879V498.336l-26.823-14.879Z" transform="translate(-376.484 -457.026)"/>
  <polygon class="cls-4" points="117.784 41.31 64.138 11.552 64.138 0 128.197 35.534 117.784 41.31"/>
  <polygon class="cls-4" points="10.413 100.568 64.059 130.325 64.059 141.878 0 106.344 10.413 100.568"/>
  <polygon class="cls-2" points="117.502 100.708 63.857 130.466 63.857 142.019 127.916 106.485 117.502 100.708"/>
  <polygon class="cls-2" points="10.492 41.31 64.138 11.552 64.138 0 0.281 35.254 10.492 41.31"/>
  <g>
    <polygon class="cls-2" points="64.434 9.98 91.726 25.264 119.019 40.548 119.019 71.117 119.019 101.685 91.726 116.969 64.434 132.253 37.142 116.969 9.85 101.685 9.85 71.117 9.85 40.548 37.142 25.264 64.434 9.98"/>
    <polygon class="cls-5" points="15.814 49.828 64.427 71.435 66.286 72.027 66.286 73.073 62.456 73.098 62.469 71.986 50.923 75.238 42.135 78.092 41.965 78.147 42.024 77.742 38.278 78.797 33.926 73.184 31.741 70.367 30.007 68.131 27.115 64.401 15.814 49.828"/>
    <polygon class="cls-6" points="66.286 72.027 77.877 75.226 81.63 76.283 90.528 78.789 38.278 78.797 64.327 71.399 66.286 72.027"/>
    <polygon class="cls-4" points="64.418 29.762 64.413 71.438 46.353 63.403 64.418 29.762"/>
    <polygon class="cls-7" points="15.832 49.851 46.353 63.403 51.381 54.04 15.832 49.851"/>
    <polygon class="cls-8" points="113.083 49.98 82.641 63.513 77.63 54.181 113.083 49.98"/>
    <polygon class="cls-3" points="64.576 29.871 64.579 71.545 82.973 64.131 64.576 29.871"/>
    <polygon class="cls-9" points="113.18 49.937 64.573 71.544 90.716 78.907 113.18 49.937"/>
    <path class="cls-10" d="M392.5,506.94l48.311,21.484a.153.153,0,0,1,.112.139h0c0,.076-.054.165-.112.139L392.5,507.218c-.058-.026-.113-.062-.113-.139h0C392.387,507,392.441,506.915,392.5,506.94Z" transform="translate(-376.484 -457.026)"/>
    <path class="cls-11" d="M489.857,506.594l-48.311,21.484a.152.152,0,0,0-.113.139h0c0,.076.054.165.113.139l48.311-21.484c.058-.026.113-.062.113-.139h0C489.969,506.656,489.915,506.568,489.857,506.594Z" transform="translate(-376.484 -457.026)"/>
    <path class="cls-12" d="M440.653,486.98l.122,41.434a.192.192,0,0,0,.067.178h0a.1.1,0,0,0,.144-.084l-.122-41.434a.193.193,0,0,0-.067-.178h0A.1.1,0,0,0,440.653,486.98Z" transform="translate(-376.484 -457.026)"/>
    <path class="cls-2" d="M426.641,531.715a39.369,39.369,0,0,0,3.946.832l-.086-4.758a35.507,35.507,0,0,0-3.918-.857Z" transform="translate(-376.484 -457.026)"/>
    <path class="cls-2" d="M442.449,535.392a34.58,34.58,0,0,0,3.9.95,36.32,36.32,0,0,0-.214-4.781,34.86,34.86,0,0,0-3.813-1Z" transform="translate(-376.484 -457.026)"/>
    <path class="cls-2" d="M416.008,530.3l3.978.374-.034-4.739a27.633,27.633,0,0,0-3.966-.357Z" transform="translate(-376.484 -457.026)"/>
    <path class="cls-2" d="M410.649,530.128l3.979.076.012-4.7a29.132,29.132,0,0,0-3.987,0Z" transform="translate(-376.484 -457.026)"/>
    <path class="cls-13" d="M405.329,525.886c-.147.517-.057,3.8-.06,4.6l4-.312.024-4.6A25.718,25.718,0,0,0,405.329,525.886Z" transform="translate(-376.484 -457.026)"/>
    <path class="cls-13" d="M399.937,526.964l-.022,4.477c.563-.04,1.364-.306,1.952-.414a10.945,10.945,0,0,0,2.046-.365,38.392,38.392,0,0,0,.062-4.527A20.552,20.552,0,0,0,399.937,526.964Z" transform="translate(-376.484 -457.026)"/>
    <polygon class="cls-2" points="71.205 79.626 75.085 80.528 74.917 75.707 71.049 74.799 71.205 79.626"/>
    <path class="cls-2" d="M462.021,539.178a35.933,35.933,0,0,0-.255-4.658l-3.832-.546c.043,1.435.077,3.019.179,4.433.037.5.4.359,1.71.543C460.553,539.051,461.277,539.139,462.021,539.178Z" transform="translate(-376.484 -457.026)"/>
    <path class="cls-2" d="M452.916,537.765a27.9,27.9,0,0,0,3.891.729l-.192-4.677c-.046-.011-.072-.047-.08-.031l-1.875-.395c-.6-.11-1.348-.325-1.926-.372Z" transform="translate(-376.484 -457.026)"/>
    <path class="cls-13" d="M394.507,528.62l-.033,4.425,4.053-1.261.034-4.49a17.961,17.961,0,0,0-2.054.626C395.785,528.152,395.145,528.4,394.507,528.62Z" transform="translate(-376.484 -457.026)"/>
    <path class="cls-2" d="M419.956,536.781l.02-4.509a26.782,26.782,0,0,0-3.993-.357c-.005.484-.054,4.268.023,4.394A37.894,37.894,0,0,0,419.956,536.781Z" transform="translate(-376.484 -457.026)"/>
    <path class="cls-13" d="M435.907,539.912l-.032-4.513a28.773,28.773,0,0,0-3.946-.9c0,.585-.105,4.335.115,4.516C432.072,539.038,435.614,539.882,435.907,539.912Z" transform="translate(-376.484 -457.026)"/>
    <path class="cls-13" d="M467.223,539.48l-.179-4.547-3.9-.294c.055,1.439.1,2.909.183,4.347.03.518.4.369,1.718.428A19.857,19.857,0,0,0,467.223,539.48Z" transform="translate(-376.484 -457.026)"/>
    <path class="cls-13" d="M405.276,532.026l-.062,4.424c.532-.025,3.766-.217,3.981-.286a35.526,35.526,0,0,0,.055-4.409A32.972,32.972,0,0,0,405.276,532.026Z" transform="translate(-376.484 -457.026)"/>
    <path class="cls-2" d="M421.322,533.072l0,3.793c.065.2,1.585.353,1.944.408.686.105,1.368.28,2.036.342l-.017-4.525-3.965-.662Z" transform="translate(-376.484 -457.026)"/>
    <path class="cls-2" d="M426.657,537.883l3.956.846-.021-4.5-.956-.264c-.793-.169-2.348-.557-2.99-.625Z" transform="translate(-376.484 -457.026)"/>
    <polygon class="cls-2" points="34.12 79.135 38.124 79.227 38.145 74.766 34.144 74.64 34.12 79.135"/>
    <path class="cls-13" d="M437.255,540.265l3.906.952a34.5,34.5,0,0,0-.063-4.458c-.112-.164-.7-.263-.877-.308l-3-.709Z" transform="translate(-376.484 -457.026)"/>
    <path class="cls-13" d="M399.912,533l-.045,4.332c.684-.086,1.334-.3,2.008-.4s1.37-.162,2.018-.3l.039-4.38A22.847,22.847,0,0,0,399.912,533Z" transform="translate(-376.484 -457.026)"/>
    <path class="cls-13" d="M468.4,534.9l.185,4.542a23.946,23.946,0,0,0,3.853-.146l-.133-4.459Z" transform="translate(-376.484 -457.026)"/>
    <polygon class="cls-13" points="66.047 84.494 69.94 85.458 69.9 80.933 65.986 79.981 66.047 84.494"/>
    <polygon class="cls-13" points="71.302 85.712 75.207 86.598 75.137 82.11 71.235 81.218 71.302 85.712"/>
    <path class="cls-13" d="M415.957,542.088l4,.412a39.032,39.032,0,0,0-.013-4.293,26.724,26.724,0,0,0-3.962-.38Z" transform="translate(-376.484 -457.026)"/>
    <path class="cls-13" d="M410.587,541.852l4.015.123.024-4.27a21.885,21.885,0,0,0-4.021-.067Z" transform="translate(-376.484 -457.026)"/>
    <path class="cls-13" d="M473.637,534.667l.154,4.46a24.859,24.859,0,0,0,3.866-.591l-.116-4.329a10.679,10.679,0,0,0-1.843.254C475.064,534.553,474.289,534.612,473.637,534.667Z" transform="translate(-376.484 -457.026)"/>
    <path class="cls-13" d="M458.261,544.717a31.435,31.435,0,0,0,3.882.411l-.086-4.389-3.9-.454Z" transform="translate(-376.484 -457.026)"/>
    <path class="cls-13" d="M405.263,537.854a42.228,42.228,0,0,0-.064,4.24l4.014-.229.035-4.242A34.322,34.322,0,0,0,405.263,537.854Z" transform="translate(-376.484 -457.026)"/>
    <path class="cls-13" d="M421.311,542.711l3.981.63.028-4.292a37.394,37.394,0,0,0-3.987-.619Z" transform="translate(-376.484 -457.026)"/>
    <polygon class="cls-13" points="76.546 86.821 80.435 87.52 80.364 83.08 76.484 82.37 76.546 86.821"/>
    <path class="cls-13" d="M399.88,542.942c.537-.042,1.29-.274,1.868-.369.887-.145,2.055-.073,2.135-.472l.02-4.051a25.818,25.818,0,0,0-3.851.639c-.3.116-.189.482-.188.874C399.865,540.306,399.8,542.5,399.88,542.942Z" transform="translate(-376.484 -457.026)"/>
    <path class="cls-13" d="M432,544.743c.341.122,3.662.881,3.911.874l.011-4.228a30.859,30.859,0,0,0-3.949-.911A39.9,39.9,0,0,0,432,544.743Z" transform="translate(-376.484 -457.026)"/>
    <polygon class="cls-13" points="50.162 86.58 54.118 87.434 54.148 83.125 50.189 82.27 50.162 86.58"/>
    <path class="cls-13" d="M463.471,545.217a28.936,28.936,0,0,0,3.878.148l-.083-4.306-3.89-.194Z" transform="translate(-376.484 -457.026)"/>
    <polygon class="cls-13" points="60.775 88.94 64.714 89.891 64.731 85.604 60.804 84.665 60.775 88.94"/>
    <path class="cls-13" d="M442.543,547.239a37.415,37.415,0,0,0,3.936.845l0-4.176-3.929-.948Z" transform="translate(-376.484 -457.026)"/>
    <path class="cls-13" d="M468.642,541.006l.061,4.291a27.354,27.354,0,0,0,3.826-.224,40.681,40.681,0,0,0-.047-4.246Z" transform="translate(-376.484 -457.026)"/>
    <path class="cls-13" d="M410.558,547.333l4,.124a35.188,35.188,0,0,0-.007-4.1,37.412,37.412,0,0,0-3.955-.108Z" transform="translate(-376.484 -457.026)"/>
    <path class="cls-13" d="M405.191,547.559l4.006-.225.03-4.074a35.289,35.289,0,0,0-3.946.227A28.253,28.253,0,0,0,405.191,547.559Z" transform="translate(-376.484 -457.026)"/>
    <path class="cls-13" d="M447.813,548.391l3.9.86.021-4.181a40,40,0,0,0-3.925-.876Z" transform="translate(-376.484 -457.026)"/>
    <polygon class="cls-13" points="76.578 92.466 80.478 93.105 80.479 88.893 76.567 88.258 76.578 92.466"/>
    <path class="cls-13" d="M473.837,540.63l.054,4.238a22.229,22.229,0,0,0,3.83-.709l-.03-4.121a8.194,8.194,0,0,0-1.867.32C475.184,540.476,474.508,540.512,473.837,540.63Z" transform="translate(-376.484 -457.026)"/>
    <path class="cls-13" d="M458.289,550.261a25.288,25.288,0,0,0,3.9.4l0-4.134-3.9-.4Z" transform="translate(-376.484 -457.026)"/>
    <path class="cls-13" d="M431.9,550.141l3.951.925a35.926,35.926,0,0,0,.008-4.062,33.27,33.27,0,0,0-3.906-.86Z" transform="translate(-376.484 -457.026)"/>
    <path class="cls-13" d="M479.013,539.682l.054,4.175a25.428,25.428,0,0,0,3.833-1.229l-.012-4.054C482.716,538.585,479.731,539.542,479.013,539.682Z" transform="translate(-376.484 -457.026)"/>
    <path class="cls-13" d="M463.572,550.749l3.786.111.028-4.129-3.887-.092A33.122,33.122,0,0,0,463.572,550.749Z" transform="translate(-376.484 -457.026)"/>
    <path class="cls-13" d="M442.482,552.548a21.341,21.341,0,0,0,3.934.877l.056-3.941-3.915-.913Z" transform="translate(-376.484 -457.026)"/>
    <path class="cls-13" d="M399.834,549.776l-.039,3.916c.32-.028,3.934-.638,3.949-.648l.1-3.916A21.016,21.016,0,0,0,399.834,549.776Z" transform="translate(-376.484 -457.026)"/>
    <path class="cls-13" d="M468.763,546.7l-.026,4.063a25.529,25.529,0,0,0,3.861-.28l.01-4.033Z" transform="translate(-376.484 -457.026)"/>
    <path class="cls-13" d="M421.16,553.424a7.229,7.229,0,0,0,1.962.349,16.266,16.266,0,0,0,2,.3l.064-3.858a25.264,25.264,0,0,0-3.968-.651Z" transform="translate(-376.484 -457.026)"/>
    <path class="cls-13" d="M447.746,553.715a34.849,34.849,0,0,0,3.927.806l.057-3.962-3.914-.814Z" transform="translate(-376.484 -457.026)"/>
    <path class="cls-13" d="M473.915,546.348l.013,3.91a18.931,18.931,0,0,0,3.855-.712l0-3.991-2.939.532C474.256,546.175,474.068,546.1,473.915,546.348Z" transform="translate(-376.484 -457.026)"/>
    <path class="cls-13" d="M484.208,538.027l.027,4.082a34,34,0,0,0,3.846-1.732l0-3.959C487.506,536.494,485.234,537.786,484.208,538.027Z" transform="translate(-376.484 -457.026)"/>
    <path class="cls-13" d="M426.477,554.331a37.6,37.6,0,0,0,3.954.753l.076-3.864-3.949-.809Z" transform="translate(-376.484 -457.026)"/>
    <path class="cls-13" d="M431.78,555.393c.221.1,3.676.84,3.943.838l.085-3.832a30.822,30.822,0,0,0-3.958-.832Z" transform="translate(-376.484 -457.026)"/>
    <path class="cls-13" d="M468.791,552.107a35.906,35.906,0,0,0-.078,3.9,17.306,17.306,0,0,0,3.826-.345,28.85,28.85,0,0,0,.083-3.855Z" transform="translate(-376.484 -457.026)"/>
    <path class="cls-13" d="M415.772,557.946a32.355,32.355,0,0,0,3.986.38l.043-3.758a28.12,28.12,0,0,0-3.961-.382Z" transform="translate(-376.484 -457.026)"/>
    <path class="cls-13" d="M479.124,550.579l-.035,3.87a25.124,25.124,0,0,0,3.859-1.272l.02-3.887C482.794,549.319,479.174,550.543,479.124,550.579Z" transform="translate(-376.484 -457.026)"/>
    <path class="cls-13" d="M447.6,558.9c.682.121,3.489.791,3.926.732l.1-3.723-3.923-.841Z" transform="translate(-376.484 -457.026)"/>
    <path class="cls-13" d="M452.851,559.905a31.131,31.131,0,0,0,3.906.56l.107-3.74-3.916-.611Z" transform="translate(-376.484 -457.026)"/>
    <path class="cls-13" d="M463.325,561.083a27.362,27.362,0,0,0,3.894.079l.084-3.769-3.867-.053Z" transform="translate(-376.484 -457.026)"/>
  </g>
</svg>
