<svg id="_1" data-name="1" xmlns="http://www.w3.org/2000/svg" xmlns:xlink="http://www.w3.org/1999/xlink" viewBox="0 0 1499.491 189.476">
  <defs>
    <style>
      .cls-1 {
        fill: #fff;
      }

      .cls-1, .cls-10, .cls-11, .cls-12, .cls-13, .cls-2, .cls-3, .cls-4, .cls-5, .cls-6, .cls-7, .cls-8, .cls-9 {
        fill-rule: evenodd;
      }

      .cls-2 {
        fill: #e3f2fc;
      }

      .cls-3 {
        fill: #005aa5;
      }

      .cls-4 {
        fill: #62a2d5;
      }

      .cls-5 {
        fill: #2177ba;
      }

      .cls-6 {
        fill: #07417c;
      }

      .cls-7 {
        fill: url(#GradientFill_1);
      }

      .cls-8 {
        fill: url(#GradientFill_2);
      }

      .cls-9 {
        fill: #002c70;
      }

      .cls-10 {
        fill: url(#GradientFill_3);
      }

      .cls-11 {
        fill: url(#GradientFill_3-2);
      }

      .cls-12 {
        fill: url(#GradientFill_3-3);
      }

      .cls-13 {
        fill: #065ea8;
      }
    </style>
    <linearGradient id="GradientFill_1" data-name="GradientFill 1" x1="21.105" y1="75.487" x2="68.494" y2="75.487" gradientUnits="userSpaceOnUse">
      <stop offset="0" stop-color="#002c66"/>
      <stop offset="0.184" stop-color="#04346f"/>
      <stop offset="0.484" stop-color="#104b87"/>
      <stop offset="0.861" stop-color="#2271af"/>
      <stop offset="1" stop-color="#2a80bf"/>
    </linearGradient>
    <linearGradient id="GradientFill_2" data-name="GradientFill 2" x1="129.282" y1="63.547" x2="121.711" y2="84.091" gradientUnits="userSpaceOnUse">
      <stop offset="0" stop-color="#7bbae1"/>
      <stop offset="0.13" stop-color="#75b3db"/>
      <stop offset="0.324" stop-color="#639ec9"/>
      <stop offset="0.559" stop-color="#467dac"/>
      <stop offset="0.823" stop-color="#1e4f84"/>
      <stop offset="1" stop-color="#002c66"/>
    </linearGradient>
    <linearGradient id="GradientFill_3" data-name="GradientFill 3" x1="228.764" y1="514.367" x2="293.466" y2="514.367" gradientUnits="userSpaceOnUse">
      <stop offset="0" stop-color="#ace5f0"/>
      <stop offset="1" stop-color="#e3f6fa"/>
    </linearGradient>
    <linearGradient id="GradientFill_3-2" x1="358.847" y1="513.905" x2="294.146" y2="513.905" xlink:href="#GradientFill_3"/>
    <linearGradient id="GradientFill_3-3" x1="301.002" y1="503.664" x2="285.655" y2="498.202" xlink:href="#GradientFill_3"/>
  </defs>
  <title>logo_bw_</title>
  <path class="cls-1" d="M1312.609,482.672a60.524,60.524,0,0,1,20.637,3.411,47.691,47.691,0,0,1,16.286,9.736,44.162,44.162,0,0,1,10.676,15.188,49.636,49.636,0,0,1,3.842,19.823,50.484,50.484,0,0,1-3.774,19.793,45.582,45.582,0,0,1-10.642,15.421,48.047,48.047,0,0,1-16.252,9.969,62.744,62.744,0,0,1-41.649,0,48.128,48.128,0,0,1-16.286-9.941,44.781,44.781,0,0,1-10.642-15.363,50.718,50.718,0,0,1-3.774-19.881,49.865,49.865,0,0,1,3.842-19.911,43.3,43.3,0,0,1,10.71-15.129,48.1,48.1,0,0,1,16.32-9.707,60.5,60.5,0,0,1,20.706-3.411Zm-.1,90.078a52.615,52.615,0,0,0,17.305-2.769,38.8,38.8,0,0,0,13.7-8.163,36.148,36.148,0,0,0,8.976-13.205,46.342,46.342,0,0,0,3.2-17.782,45.816,45.816,0,0,0-3.23-17.783,36.964,36.964,0,0,0-8.976-12.914,38.8,38.8,0,0,0-13.566-7.958,56.372,56.372,0,0,0-34.543.058,38.864,38.864,0,0,0-13.7,7.988,36.259,36.259,0,0,0-9.044,12.914,45.578,45.578,0,0,0-3.23,17.7,46.342,46.342,0,0,0,3.2,17.782,36.847,36.847,0,0,0,8.908,13.205,38.653,38.653,0,0,0,13.668,8.163A52.677,52.677,0,0,0,1312.507,572.75Z" transform="translate(-207.565 -433.323)"/>
  <path class="cls-2" d="M915.221,529.058q0,23.512-13.958,35.54t-41.3,12.034H840.707l-15.218-12.716V482.911H859.96a89.805,89.805,0,0,1,23.765,2.83,46.149,46.149,0,0,1,17.489,8.716h0A36.034,36.034,0,0,1,911.8,509.116a53.612,53.612,0,0,1,3.425,19.942Zm-14.717.612A52.268,52.268,0,0,0,898.6,514.9h0a23.789,23.789,0,0,0-2.483-5.657,22.793,22.793,0,0,0-3.8-4.681,24.078,24.078,0,0,0-5.2-3.694v-.011a35.853,35.853,0,0,0-6.9-2.75H880.2a53.421,53.421,0,0,0-8.946-1.749,99.393,99.393,0,0,0-11.377-.586h-19.9v69.177h19.9a94.993,94.993,0,0,0,11.292-.607,51.917,51.917,0,0,0,8.909-1.8,35.491,35.491,0,0,0,6.931-2.862,23.215,23.215,0,0,0,9.015-8.69,25.46,25.46,0,0,0,2.542-5.9,45.741,45.741,0,0,0,1.459-7.148A66.151,66.151,0,0,0,900.5,529.67Z" transform="translate(-207.565 -433.323)"/>
  <path class="cls-1" d="M1614.588,529.352q0,24.415-14.494,36.9t-42.889,12.5l-24.429-.562-11.364-9.392V482.451H1557.2a93.233,93.233,0,0,1,24.677,2.939,47.9,47.9,0,0,1,18.16,9.051h0a37.417,37.417,0,0,1,10.988,15.221,50.289,50.289,0,0,1,3.557,19.691Zm-7.977,1.19c0-5.95-.036-12.746-3.3-19.167a49.019,49.019,0,0,0-8.258-11.162c-5.489-5.2-13.911-8.035-25.2-8.889a118.269,118.269,0,0,0-12.832-.886l-27.71-.2-.52,81.479,28.138.262a122.787,122.787,0,0,0,13.02-.629c6.544-.789,12.833-2.042,20.238-7.152,7.695-4.255,12.455-12.076,14.591-19.4C1606.236,539.835,1606.339,535.657,1606.611,530.543Z" transform="translate(-207.565 -433.323)"/>
  <path class="cls-2" d="M568.455,549.139a25.316,25.316,0,0,1-2.653,11.755,23.716,23.716,0,0,1-8.1,8.863l0,0a37.756,37.756,0,0,1-12.842,5.3,76.265,76.265,0,0,1-16.949,1.69h-26.97l-13.77-12.174V482.862h40.58a70.343,70.343,0,0,1,14.487,1.346,35.347,35.347,0,0,1,11.187,4.221,19.32,19.32,0,0,1,7.311,7.738,23.13,23.13,0,0,1,2.349,10.683,30.992,30.992,0,0,1-.2,3.417,32.586,32.586,0,0,1-.567,3.428,20.532,20.532,0,0,1-1.155,3.6,21.235,21.235,0,0,1-1.823,3.376v.023a19.678,19.678,0,0,1-2.616,3.122,23.771,23.771,0,0,1-3.312,2.683,23.965,23.965,0,0,1,2.611,1.1l0,0a26.077,26.077,0,0,1,4.44,2.732,19.4,19.4,0,0,1,3.443,3.355l.013.023a20.371,20.371,0,0,1,2.316,3.768,18.281,18.281,0,0,1,1.35,4.014h.007a36.345,36.345,0,0,1,.643,3.877,34.068,34.068,0,0,1,.223,3.774Zm-66.976,15.337h26.364q13.461,0,19.838-4,5.884-3.688,5.886-11.341a22.1,22.1,0,0,0-.323-3.956,15,15,0,0,0-.967-3.237,8.554,8.554,0,0,0-1.512-2.356,10.874,10.874,0,0,0-2.347-1.932l-.005.006a18.726,18.726,0,0,0-3.53-1.6,33.984,33.984,0,0,0-4.838-1.23v0a60.475,60.475,0,0,0-6.278-.74q-3.583-.256-7.972-.256H501.479v30.646Zm0-42.918H525.7a61.569,61.569,0,0,0,11.182-.878,22.25,22.25,0,0,0,7.079-2.393,9.251,9.251,0,0,0,3.667-3.833,14.168,14.168,0,0,0,1.332-6.479,12.9,12.9,0,0,0-1.227-5.862l.011,0a9.66,9.66,0,0,0-3.422-3.759l0,0a19.224,19.224,0,0,0-6.571-2.4,54.572,54.572,0,0,0-10.643-.9v-.011l-25.628.073Z" transform="translate(-207.565 -433.323)"/>
  <polygon class="cls-1" points="1021.56 145.582 989.839 69.514 958.216 145.347 924.307 68.103 924.342 47.167 958.555 125.996 989.803 47.262 1021.221 126.231 1054.951 47.302 1054.643 67.705 1021.56 145.582"/>
  <polygon class="cls-2" points="913.759 92.822 913.906 131.515 926.043 145.176 925.897 92.822 913.759 92.822"/>
  <polygon class="cls-2" points="925.127 104.975 888.526 104.828 875.603 92.69 925.127 92.837 925.127 104.975"/>
  <path class="cls-2" d="M1087.821,578.227a68.487,68.487,0,0,1-11.131-.88,56.954,56.954,0,0,1-10.211-2.651h-.014a52.54,52.54,0,0,1-9.007-4.267,45.8,45.8,0,0,1-7.647-5.711l.007-.006a43.5,43.5,0,0,1-10.693-15.481,47.663,47.663,0,0,1-2.782-9.448,57.611,57.611,0,0,1,0-20.714,46.068,46.068,0,0,1,2.823-9.429v-.011a45.949,45.949,0,0,1,4.575-8.225,43.22,43.22,0,0,1,6.111-6.992,45,45,0,0,1,7.588-5.626,51.19,51.19,0,0,1,8.92-4.16h.013a57.422,57.422,0,0,1,10.051-2.554,68.455,68.455,0,0,1,10.945-.856,75.128,75.128,0,0,1,8.587.487,64.608,64.608,0,0,1,8.084,1.438l.014.012a57.912,57.912,0,0,1,7.373,2.341,48.688,48.688,0,0,1,6.618,3.2,26.162,26.162,0,0,1,2.879,1.91s.311,15.338.334,15.61c-1.557-1.884-7.472-5.939-11.465-7.559h-.014a34.265,34.265,0,0,0-4.49-2.107,44.993,44.993,0,0,0-5.273-1.652,46.079,46.079,0,0,0-5.892-1.057,57.025,57.025,0,0,0-6.531-.353,53.738,53.738,0,0,0-8.045.578,42.725,42.725,0,0,0-7.187,1.712h-.027a33.2,33.2,0,0,0-6.24,2.788,30.218,30.218,0,0,0-5.338,3.912l-.013.012a28.654,28.654,0,0,0-4.348,4.989,32.735,32.735,0,0,0-3.3,6.173v.011a35.038,35.038,0,0,0-2.1,7.286,51.049,51.049,0,0,0,0,16.968,35.518,35.518,0,0,0,2.094,7.288v.023a33.794,33.794,0,0,0,3.306,6.247,30.335,30.335,0,0,0,9.695,9.158,35.068,35.068,0,0,0,6.367,2.936l0,0a42.708,42.708,0,0,0,7.28,1.788v0a52.371,52.371,0,0,0,8.074.594,60.281,60.281,0,0,0,11.161-.975,42.418,42.418,0,0,0,9.379-2.861l0,0a42.238,42.238,0,0,0,13.976-9.985l5.393,8.381-4.005,7.315a40.554,40.554,0,0,1-4.1,2.765l-.027.012a50.783,50.783,0,0,1-4.775,2.451,49.906,49.906,0,0,1-5.08,1.955q-2.582.841-5.223,1.447t-5.474,1.005h-.026q-2.9.385-5.559.566Q1090.632,578.225,1087.821,578.227Z" transform="translate(-207.565 -433.323)"/>
  <polygon class="cls-2" points="713.894 131.359 713.894 52.643 713.894 49.716 728.206 60.626 728.206 143.601 713.894 131.359"/>
  <path class="cls-1" d="M1368.564,566.093V487.377l.093-6.441,41.685-.075c8.855-.016,18.857,1.642,25.5,7.6,10.533,9.443,11.435,32.768-1.05,41.551-8.292,5.832-17.373,5.293-28.764,5.564l36.546,42.87H1432.7l-41.834-48.9,29.4-.775c8.382-.221,10.875-3.866,13.448-6.454,6.246-6.286,3.545-23.122-1.519-28.937-4.609-5.293-12.12-5.652-21.9-5.643l-34.68.03.105,90.572Z" transform="translate(-207.565 -433.323)"/>
  <polygon class="cls-2" points="533.266 83.783 533.266 141.809 533.266 144.736 518.953 132.388 518.953 53.778 518.953 50.851 591.494 114.822 591.494 53.778 591.494 50.851 605.807 61.761 605.807 141.809 605.807 144.736 533.266 83.783"/>
  <polygon class="cls-2" points="750.697 82.471 750.697 140.497 750.697 143.424 736.384 131.075 736.384 52.466 736.384 49.539 808.925 113.51 808.925 52.466 808.925 49.539 823.238 60.449 823.238 140.497 823.238 143.424 750.697 82.471"/>
  <polygon class="cls-2" points="511.068 143.786 449.369 143.786 433.577 131.51 433.577 52.828 433.577 49.9 436.992 49.9 499.866 49.9 511.987 62.172 508.573 62.172 447.89 62.172 447.89 88.897 504.543 88.897 507.957 88.897 507.957 91.824 507.957 98.242 507.957 101.169 504.543 101.169 447.89 101.169 447.89 131.514 501.849 131.514 514.482 143.786 511.068 143.786"/>
  <polygon class="cls-2" points="429.854 143.309 369.403 143.309 365.988 143.309 365.988 140.382 365.988 52.351 365.988 49.423 380.301 60.987 380.301 131.037 419.782 131.037 433.268 143.309 429.854 143.309"/>
  <polygon class="cls-1" points="1309.247 145.25 1248.796 145.25 1245.382 145.25 1245.211 141.603 1245.211 53.572 1245.165 48.148 1252.983 55.804 1252.636 139.056 1301.041 139.054 1307.974 145.25 1309.247 145.25"/>
  <path class="cls-1" d="M1663.057,480.91c-24.436,0-44.246,11.893-44.246,26.563,0,24.387,32.818,26.581,44.246,26.534,26.4.627,35.818,6.722,35.541,19.254s-16.023,19.257-35.787,19.257c-18.718,0-29.92-4.234-40.528-20.764l-.019,12.152c6.836,9.37,22.417,15.918,40.547,15.918,24.436,0,44.245-11.893,44.245-26.563,0-19.44-18.726-25.8-44.246-26.562-12.692-.3-35.541-2.081-35.541-19.226,0-10.635,16.023-19.257,35.787-19.257,14.618,0,25.59,3.287,34.535,12.861,7.6,8.135,5.906,10.825,6.012-4.249C1696.768,487.458,1681.188,480.91,1663.057,480.91Z" transform="translate(-207.565 -433.323)"/>
  <path class="cls-3" d="M293.065,433.323l42.7,23.684,42.7,23.685V575.43l-42.7,23.685-42.7,23.684-42.7-23.684-42.7-23.685V480.692l42.7-23.685,42.7-23.684Zm0,15.4-35.756,19.834-35.757,19.835V567.73l35.757,19.835L293.065,607.4l35.757-19.834,35.756-19.835V488.392l-35.756-19.835Z" transform="translate(-207.565 -433.323)"/>
  <polygon class="cls-4" points="157.013 55.069 85.5 15.4 85.5 0 170.895 47.369 157.013 55.069"/>
  <polygon class="cls-4" points="13.881 134.063 85.394 173.732 85.394 189.132 0 141.763 13.881 134.063"/>
  <polygon class="cls-1" points="156.638 134.251 85.125 173.919 85.125 189.32 170.519 141.951 156.638 134.251"/>
  <polygon class="cls-1" points="13.987 55.069 85.5 15.4 85.5 0 0.375 46.996 13.987 55.069"/>
  <g>
    <polygon class="cls-1" points="85.895 13.304 122.277 33.678 158.659 54.053 158.659 94.802 158.659 135.552 122.277 155.927 85.895 176.301 49.513 155.927 13.13 135.552 13.13 94.802 13.13 54.053 49.513 33.678 85.895 13.304"/>
    <polygon class="cls-5" points="21.081 66.423 85.885 95.227 88.363 96.016 88.363 97.411 83.258 97.444 83.275 95.962 67.884 100.297 56.168 104.102 55.941 104.175 56.021 103.635 51.027 105.041 45.225 97.559 42.313 93.804 40.001 90.822 36.146 85.851 21.081 66.423"/>
    <polygon class="cls-6" points="88.363 96.016 103.815 100.282 108.818 101.69 120.68 105.03 51.027 105.041 85.751 95.179 88.363 96.016"/>
    <polygon class="cls-4" points="85.873 39.674 85.866 95.231 61.792 84.52 85.873 39.674"/>
    <polygon class="cls-7" points="21.105 66.454 61.792 84.52 68.494 72.038 21.105 66.454"/>
    <polygon class="cls-8" points="150.746 66.627 110.165 84.667 103.485 72.227 150.746 66.627"/>
    <polygon class="cls-3" points="86.084 39.82 86.088 95.373 110.608 85.491 86.084 39.82"/>
    <polygon class="cls-9" points="150.876 66.569 86.08 95.373 120.93 105.188 150.876 66.569"/>
    <path class="cls-10" d="M228.914,499.862l64.4,28.639a.2.2,0,0,1,.15.185h0c0,.1-.072.22-.15.185l-64.4-28.64c-.077-.035-.15-.083-.15-.185h0C228.764,499.945,228.837,499.827,228.914,499.862Z" transform="translate(-207.565 -433.323)"/>
    <path class="cls-11" d="M358.7,499.4l-64.4,28.64c-.077.034-.15.083-.15.185h0c0,.1.073.219.15.185l64.4-28.64c.077-.035.15-.083.15-.185h0C358.847,499.483,358.775,499.366,358.7,499.4Z" transform="translate(-207.565 -433.323)"/>
    <path class="cls-12" d="M293.106,473.253l.162,55.234a.257.257,0,0,0,.09.237h0a.131.131,0,0,0,.192-.111l-.163-55.234a.258.258,0,0,0-.09-.237h0A.131.131,0,0,0,293.106,473.253Z" transform="translate(-207.565 -433.323)"/>
    <path class="cls-1" d="M274.428,532.888a52.432,52.432,0,0,0,5.26,1.109l-.115-6.343a47.407,47.407,0,0,0-5.223-1.142Z" transform="translate(-207.565 -433.323)"/>
    <path class="cls-1" d="M295.5,537.79a46.137,46.137,0,0,0,5.2,1.266,48.4,48.4,0,0,0-.286-6.374,46.447,46.447,0,0,0-5.082-1.33Z" transform="translate(-207.565 -433.323)"/>
    <path class="cls-1" d="M260.254,531.005l5.3.5-.045-6.317a36.779,36.779,0,0,0-5.288-.476Z" transform="translate(-207.565 -433.323)"/>
    <path class="cls-1" d="M253.109,530.773l5.3.1.017-6.267a38.821,38.821,0,0,0-5.314,0Z" transform="translate(-207.565 -433.323)"/>
    <path class="cls-13" d="M246.018,525.118c-.2.689-.077,5.062-.08,6.127l5.335-.416.032-6.13A34.266,34.266,0,0,0,246.018,525.118Z" transform="translate(-207.565 -433.323)"/>
    <path class="cls-13" d="M238.828,526.555l-.028,5.968c.751-.053,1.818-.407,2.6-.551a14.6,14.6,0,0,0,2.728-.486,51.109,51.109,0,0,0,.083-6.034A27.406,27.406,0,0,0,238.828,526.555Z" transform="translate(-207.565 -433.323)"/>
    <polygon class="cls-1" points="94.92 106.146 100.093 107.348 99.869 100.922 94.712 99.711 94.92 106.146"/>
    <path class="cls-1" d="M321.591,542.836c-.026-1.018-.071-5.664-.34-6.21l-5.109-.729c.058,1.913.1,4.024.239,5.909.048.672.529.479,2.28.724C319.634,542.668,320.6,542.785,321.591,542.836Z" transform="translate(-207.565 -433.323)"/>
    <path class="cls-1" d="M309.453,540.954a37.112,37.112,0,0,0,5.187.972l-.256-6.235c-.062-.015-.1-.062-.107-.042l-2.5-.526c-.8-.146-1.8-.433-2.567-.5Z" transform="translate(-207.565 -433.323)"/>
    <path class="cls-13" d="M231.591,528.763l-.044,5.9,5.4-1.681L237,527a23.893,23.893,0,0,0-2.738.834C233.294,528.138,232.442,528.469,231.591,528.763Z" transform="translate(-207.565 -433.323)"/>
    <path class="cls-1" d="M265.516,539.641l.026-6.011a35.69,35.69,0,0,0-5.322-.476c-.007.645-.072,5.689.031,5.857A50.5,50.5,0,0,0,265.516,539.641Z" transform="translate(-207.565 -433.323)"/>
    <path class="cls-13" d="M286.779,543.815l-.043-6.016a38.276,38.276,0,0,0-5.261-1.2c0,.779-.14,5.778.153,6.02C281.667,542.65,286.389,543.775,286.779,543.815Z" transform="translate(-207.565 -433.323)"/>
    <path class="cls-13" d="M328.526,543.239l-.239-6.061-5.205-.391c.073,1.919.132,3.878.243,5.795.04.691.529.491,2.29.57A26.492,26.492,0,0,0,328.526,543.239Z" transform="translate(-207.565 -433.323)"/>
    <path class="cls-13" d="M245.947,533.3l-.082,5.9c.709-.034,5.021-.289,5.307-.381a47.353,47.353,0,0,0,.074-5.879A44.08,44.08,0,0,0,245.947,533.3Z" transform="translate(-207.565 -433.323)"/>
    <path class="cls-1" d="M267.337,534.7l.005,5.057c.087.263,2.113.47,2.592.544.914.14,1.823.374,2.714.456l-.022-6.032-5.286-.883Z" transform="translate(-207.565 -433.323)"/>
    <path class="cls-1" d="M274.449,541.11l5.274,1.129-.027-5.993-1.275-.351c-1.058-.225-3.13-.742-3.986-.834Z" transform="translate(-207.565 -433.323)"/>
    <polygon class="cls-1" points="45.484 105.492 50.822 105.614 50.85 99.668 45.516 99.499 45.484 105.492"/>
    <path class="cls-13" d="M288.577,544.286l5.207,1.27a45.919,45.919,0,0,0-.084-5.943c-.15-.218-.926-.35-1.169-.411l-4-.945Z" transform="translate(-207.565 -433.323)"/>
    <path class="cls-13" d="M238.8,534.6l-.061,5.775c.912-.115,1.779-.4,2.677-.539.882-.138,1.826-.216,2.69-.4l.052-5.839A30.444,30.444,0,0,0,238.8,534.6Z" transform="translate(-207.565 -433.323)"/>
    <path class="cls-13" d="M330.1,537.14l.247,6.055a31.875,31.875,0,0,0,5.137-.194l-.178-5.945Z" transform="translate(-207.565 -433.323)"/>
    <polygon class="cls-13" points="88.044 112.635 93.235 113.92 93.181 107.888 87.963 106.619 88.044 112.635"/>
    <polygon class="cls-13" points="95.05 114.26 100.255 115.44 100.162 109.457 94.96 108.268 95.05 114.26"/>
    <path class="cls-13" d="M260.185,546.716l5.33.55a51.966,51.966,0,0,0-.017-5.722,35.668,35.668,0,0,0-5.281-.507Z" transform="translate(-207.565 -433.323)"/>
    <path class="cls-13" d="M253.026,546.4l5.353.164.031-5.692a29.183,29.183,0,0,0-5.36-.089Z" transform="translate(-207.565 -433.323)"/>
    <path class="cls-13" d="M337.076,536.824l.2,5.946a33.178,33.178,0,0,0,5.153-.788l-.155-5.771a14.245,14.245,0,0,0-2.457.338C338.979,536.671,337.945,536.75,337.076,536.824Z" transform="translate(-207.565 -433.323)"/>
    <path class="cls-13" d="M316.578,550.22a41.937,41.937,0,0,0,5.175.548l-.115-5.851-5.194-.6Z" transform="translate(-207.565 -433.323)"/>
    <path class="cls-13" d="M245.929,541.071a56.4,56.4,0,0,0-.086,5.652l5.351-.306.047-5.655A45.791,45.791,0,0,0,245.929,541.071Z" transform="translate(-207.565 -433.323)"/>
    <path class="cls-13" d="M267.321,547.546l5.308.841.037-5.722a49.826,49.826,0,0,0-5.315-.825Z" transform="translate(-207.565 -433.323)"/>
    <polygon class="cls-13" points="102.04 115.738 107.225 116.669 107.13 110.75 101.958 109.805 102.04 115.738"/>
    <path class="cls-13" d="M238.753,547.854c.715-.055,1.72-.366,2.49-.492,1.183-.194,2.74-.1,2.846-.629l.026-5.4a34.407,34.407,0,0,0-5.133.853c-.4.155-.252.643-.251,1.164C238.733,544.34,238.648,547.265,238.753,547.854Z" transform="translate(-207.565 -433.323)"/>
    <path class="cls-13" d="M281.576,550.256c.455.163,4.882,1.174,5.214,1.165l.014-5.637a41.179,41.179,0,0,0-5.264-1.214A53.25,53.25,0,0,0,281.576,550.256Z" transform="translate(-207.565 -433.323)"/>
    <polygon class="cls-13" points="66.87 115.417 72.143 116.555 72.183 110.81 66.905 109.671 66.87 115.417"/>
    <path class="cls-13" d="M323.524,550.887a38.539,38.539,0,0,0,5.169.2l-.11-5.74-5.186-.259Z" transform="translate(-207.565 -433.323)"/>
    <polygon class="cls-13" points="81.017 118.563 86.268 119.83 86.29 114.116 81.055 112.863 81.017 118.563"/>
    <path class="cls-13" d="M295.626,553.582c1.018.173,4.539,1.216,5.247,1.126l.006-5.567-5.238-1.263Z" transform="translate(-207.565 -433.323)"/>
    <path class="cls-13" d="M330.418,545.274l.081,5.721a36.512,36.512,0,0,0,5.1-.3,54.236,54.236,0,0,0-.063-5.661Z" transform="translate(-207.565 -433.323)"/>
    <path class="cls-13" d="M252.988,553.708l5.333.165a46.905,46.905,0,0,0-.009-5.466,49.805,49.805,0,0,0-5.272-.144Z" transform="translate(-207.565 -433.323)"/>
    <path class="cls-13" d="M245.833,554.009l5.34-.3.041-5.431a47.151,47.151,0,0,0-5.26.3A37.662,37.662,0,0,0,245.833,554.009Z" transform="translate(-207.565 -433.323)"/>
    <path class="cls-13" d="M302.651,555.117l5.2,1.146.028-5.574a53.3,53.3,0,0,0-5.232-1.168Z" transform="translate(-207.565 -433.323)"/>
    <polygon class="cls-13" points="102.083 123.263 107.283 124.114 107.283 118.5 102.069 117.653 102.083 123.263"/>
    <path class="cls-13" d="M337.342,544.772l.072,5.65a29.662,29.662,0,0,0,5.106-.945l-.04-5.494a10.939,10.939,0,0,0-2.489.427C339.139,544.567,338.237,544.615,337.342,544.772Z" transform="translate(-207.565 -433.323)"/>
    <path class="cls-13" d="M316.617,557.611a33.709,33.709,0,0,0,5.192.53l0-5.511-5.193-.537Z" transform="translate(-207.565 -433.323)"/>
    <path class="cls-13" d="M281.444,557.451l5.267,1.233a47.915,47.915,0,0,0,.012-5.414,44.344,44.344,0,0,0-5.207-1.146Z" transform="translate(-207.565 -433.323)"/>
    <path class="cls-13" d="M344.242,543.508l.072,5.566a33.832,33.832,0,0,0,5.109-1.638l-.017-5.4C349.178,542.046,345.2,543.322,344.242,543.508Z" transform="translate(-207.565 -433.323)"/>
    <path class="cls-13" d="M323.658,558.261l5.047.148.038-5.5-5.181-.123A44.164,44.164,0,0,0,323.658,558.261Z" transform="translate(-207.565 -433.323)"/>
    <path class="cls-13" d="M295.544,560.66a28.486,28.486,0,0,0,5.244,1.17l.075-5.253-5.219-1.218Z" transform="translate(-207.565 -433.323)"/>
    <path class="cls-13" d="M238.692,556.965l-.052,5.22c.427-.037,5.244-.85,5.265-.864l.127-5.221A28.026,28.026,0,0,0,238.692,556.965Z" transform="translate(-207.565 -433.323)"/>
    <path class="cls-13" d="M330.579,552.859l-.035,5.416a34.083,34.083,0,0,0,5.147-.374l.013-5.377Z" transform="translate(-207.565 -433.323)"/>
    <path class="cls-13" d="M267.121,561.827a9.64,9.64,0,0,0,2.616.465,21.65,21.65,0,0,0,2.67.4l.085-5.143a33.741,33.741,0,0,0-5.289-.867Z" transform="translate(-207.565 -433.323)"/>
    <path class="cls-13" d="M302.562,562.216a46.472,46.472,0,0,0,5.235,1.074l.076-5.281-5.217-1.085Z" transform="translate(-207.565 -433.323)"/>
    <path class="cls-13" d="M337.446,552.395l.018,5.212a25.242,25.242,0,0,0,5.139-.949l0-5.32-3.917.709C337.9,552.164,337.651,552.069,337.446,552.395Z" transform="translate(-207.565 -433.323)"/>
    <path class="cls-13" d="M351.168,541.3l.036,5.442a45.505,45.505,0,0,0,5.127-2.309l0-5.277C355.563,539.259,352.536,540.981,351.168,541.3Z" transform="translate(-207.565 -433.323)"/>
    <path class="cls-13" d="M274.208,563.036a50.135,50.135,0,0,0,5.271,1l.1-5.151-5.264-1.078Z" transform="translate(-207.565 -433.323)"/>
    <path class="cls-13" d="M281.278,564.453c.295.129,4.9,1.12,5.257,1.118l.113-5.108a41,41,0,0,0-5.276-1.11Z" transform="translate(-207.565 -433.323)"/>
    <path class="cls-13" d="M330.616,560.072a47.853,47.853,0,0,0-.1,5.2c.9-.013,4.584-.1,5.1-.459a38.4,38.4,0,0,0,.111-5.138Z" transform="translate(-207.565 -433.323)"/>
    <path class="cls-13" d="M259.939,567.856a43.165,43.165,0,0,0,5.313.506l.058-5.01a37.528,37.528,0,0,0-5.28-.509Z" transform="translate(-207.565 -433.323)"/>
    <path class="cls-13" d="M344.39,558.035l-.047,5.158a33.5,33.5,0,0,0,5.144-1.7l.027-5.183C349.282,556.356,344.457,557.987,344.39,558.035Z" transform="translate(-207.565 -433.323)"/>
    <path class="cls-13" d="M302.363,569.121c.909.161,4.651,1.055,5.234.976l.127-4.963-5.23-1.12Z" transform="translate(-207.565 -433.323)"/>
    <path class="cls-13" d="M309.367,570.467a41.427,41.427,0,0,0,5.207.747l.143-4.986-5.22-.814Z" transform="translate(-207.565 -433.323)"/>
    <path class="cls-13" d="M323.33,572.037a36.47,36.47,0,0,0,5.191.105l.112-5.024-5.154-.07Z" transform="translate(-207.565 -433.323)"/>
  </g>
</svg>
