<svg id="_1" data-name="1" xmlns="http://www.w3.org/2000/svg" xmlns:xlink="http://www.w3.org/1999/xlink" viewBox="0 0 226.831 163.239">
  <defs>
    <style>
      .cls-1 {
        fill: #2177ba;
      }

      .cls-1, .cls-10, .cls-11, .cls-12, .cls-2, .cls-3, .cls-4, .cls-5, .cls-6, .cls-7, .cls-8, .cls-9 {
        fill-rule: evenodd;
      }

      .cls-2 {
        fill: #07417c;
      }

      .cls-3 {
        fill: #62a2d5;
      }

      .cls-4 {
        fill: url(#GradientFill_1);
      }

      .cls-5 {
        fill: url(#GradientFill_2);
      }

      .cls-6 {
        fill: #005aa5;
      }

      .cls-7 {
        fill: #002c70;
      }

      .cls-8 {
        fill: url(#GradientFill_3);
      }

      .cls-9 {
        fill: url(#GradientFill_3-2);
      }

      .cls-10 {
        fill: url(#GradientFill_3-3);
      }

      .cls-11 {
        fill: #fff;
      }

      .cls-12 {
        fill: #065ea8;
      }
    </style>
    <linearGradient id="GradientFill_1" data-name="GradientFill 1" y1="54.698" x2="82.888" y2="54.698" gradientUnits="userSpaceOnUse">
      <stop offset="0" stop-color="#002c66"/>
      <stop offset="0.184" stop-color="#04346f"/>
      <stop offset="0.484" stop-color="#104b87"/>
      <stop offset="0.861" stop-color="#2271af"/>
      <stop offset="1" stop-color="#2a80bf"/>
    </linearGradient>
    <linearGradient id="GradientFill_2" data-name="GradientFill 2" x1="193.207" y1="31.246" x2="173.311" y2="73.822" gradientUnits="userSpaceOnUse">
      <stop offset="0" stop-color="#7bbae1"/>
      <stop offset="0.13" stop-color="#75b3db"/>
      <stop offset="0.324" stop-color="#639ec9"/>
      <stop offset="0.559" stop-color="#467dac"/>
      <stop offset="0.823" stop-color="#1e4f84"/>
      <stop offset="1" stop-color="#002c66"/>
    </linearGradient>
    <linearGradient id="GradientFill_3" data-name="GradientFill 3" x1="159.968" y1="215.532" x2="273.97" y2="215.532" gradientUnits="userSpaceOnUse">
      <stop offset="0" stop-color="#ace5f0"/>
      <stop offset="1" stop-color="#e3f6fa"/>
    </linearGradient>
    <linearGradient id="GradientFill_3-2" x1="386.323" y1="216.404" x2="273.557" y2="216.404" xlink:href="#GradientFill_3"/>
    <linearGradient id="GradientFill_3-3" x1="287.029" y1="202.916" x2="260.531" y2="193.504" xlink:href="#GradientFill_3"/>
  </defs>
  <title>logo_ob</title>
  <polygon class="cls-1" points="0.001 35.039 113.865 96.86 81.806 107.411 61.036 114.156 60.633 114.287 60.775 113.328 51.92 115.822 41.635 102.558 36.472 95.9 32.373 90.614 0.001 35.039"/>
  <polygon class="cls-2" points="175.404 115.803 51.92 115.822 113.865 96.86 175.404 115.803"/>
  <polygon class="cls-3" points="113.697 0.023 113.686 96.87 73.534 74.733 113.697 0.023"/>
  <polygon class="cls-4" points="0 34.664 73.534 74.733 82.888 57.313 0 34.664"/>
  <polygon class="cls-5" points="226.831 36.22 154.702 75.864 144.92 57.648 226.831 36.22"/>
  <polygon class="cls-6" points="113.977 0.077 114.078 96.806 157.547 81.163 113.977 0.077"/>
  <polygon class="cls-7" points="226.602 36.346 113.865 96.86 175.848 116.081 226.602 36.346"/>
  <path class="cls-8" d="M160.234,184.451,273.7,245.957c.132.071.266.149.266.328h0c0,.179-.135.4-.266.328L160.234,185.108c-.131-.071-.266-.147-.266-.328h0C159.968,184.6,160.1,184.38,160.234,184.451Z" transform="translate(-159.967 -149.74)"/>
  <path class="cls-9" d="M386.057,186.144,273.823,246.007c-.132.07-.266.149-.266.328h0c0,.179.133.4.266.328L386.057,186.8c.132-.07.266-.147.266-.327S386.188,186.075,386.057,186.144Z" transform="translate(-159.967 -149.74)"/>
  <path class="cls-10" d="M273.533,149.96l.007,96.446a.249.249,0,0,0,.258.268.257.257,0,0,0,.247-.258l-.012-96.233c0-.18-.023-.351-.16-.42h0A.237.237,0,0,0,273.533,149.96Z" transform="translate(-159.967 -149.74)"/>
  <path class="cls-11" d="M239.962,255.853a92.589,92.589,0,0,0,9.325,1.966l-.2-11.244a84.032,84.032,0,0,0-9.259-2.025Z" transform="translate(-159.967 -149.74)"/>
  <path class="cls-11" d="M277.32,264.545a81.69,81.69,0,0,0,9.22,2.244c.056-1.5-.1-10.613-.507-11.3-.589-.463-7.714-2.071-9.01-2.357Z" transform="translate(-159.967 -149.74)"/>
  <path class="cls-11" d="M214.833,252.517l9.4.882-.08-11.2a65.36,65.36,0,0,0-9.374-.844Z" transform="translate(-159.967 -149.74)"/>
  <path class="cls-11" d="M202.167,252.1l9.4.179.03-11.11a68.819,68.819,0,0,0-9.422,0Z" transform="translate(-159.967 -149.74)"/>
  <path class="cls-12" d="M189.6,242.08c-.348,1.221-.136,8.974-.142,10.862l9.458-.737.057-10.867C196.742,241.063,192.042,241.849,189.6,242.08Z" transform="translate(-159.967 -149.74)"/>
  <path class="cls-12" d="M176.85,244.627l-.051,10.58c1.332-.093,3.223-.722,4.613-.977,1.2-.22,3.993-.389,4.836-.862.374-.835.182-9.061.147-10.7C184.929,242.66,177.816,244.073,176.85,244.627Z" transform="translate(-159.967 -149.74)"/>
  <polygon class="cls-11" points="129.737 117.781 138.907 119.912 138.509 108.518 129.368 106.372 129.737 117.781"/>
  <path class="cls-11" d="M323.573,273.491c-.045-1.805-.126-10.041-.6-11.009l-9.058-1.291c.1,3.391.182,7.133.424,10.476.086,1.191.937.849,4.041,1.284C320.105,273.192,321.817,273.4,323.573,273.491Z" transform="translate(-159.967 -149.74)"/>
  <path class="cls-11" d="M302.056,270.153a65.9,65.9,0,0,0,9.2,1.723l-.454-11.053c-.11-.027-.169-.111-.189-.075l-4.43-.933c-1.426-.259-3.185-.768-4.551-.878Z" transform="translate(-159.967 -149.74)"/>
  <path class="cls-12" d="M164.02,248.541,163.942,259l9.579-2.98.081-10.609a42.426,42.426,0,0,0-4.855,1.479C167.038,247.434,165.528,248.019,164.02,248.541Z" transform="translate(-159.967 -149.74)"/>
  <path class="cls-11" d="M224.162,267.826l.046-10.655c-1.747-.258-8-1.09-9.435-.844-.012,1.143-.128,10.085.055,10.383C215,266.991,223.187,267.779,224.162,267.826Z" transform="translate(-159.967 -149.74)"/>
  <path class="cls-12" d="M261.859,275.226l-.076-10.666c-1.893-.547-7.444-2.043-9.326-2.126,0,1.381-.249,10.245.271,10.672C252.8,273.161,261.167,275.154,261.859,275.226Z" transform="translate(-159.967 -149.74)"/>
  <path class="cls-12" d="M335.868,274.206l-.424-10.746-9.229-.693c.13,3.4.235,6.876.431,10.272.071,1.225.939.872,4.06,1.011A47.1,47.1,0,0,0,335.868,274.206Z" transform="translate(-159.967 -149.74)"/>
  <path class="cls-12" d="M189.47,256.589l-.145,10.457c1.257-.06,8.9-.513,9.408-.677.354-.992.2-8.743.131-10.421A78.247,78.247,0,0,0,189.47,256.589Z" transform="translate(-159.967 -149.74)"/>
  <path class="cls-11" d="M227.391,259.06l.009,8.965c.154.466,3.746.834,4.6.963,1.621.248,3.233.663,4.811.809l-.039-10.694-9.372-1.564Z" transform="translate(-159.967 -149.74)"/>
  <path class="cls-11" d="M240,270.431l9.349,2-.049-10.625-2.259-.623c-1.875-.4-5.549-1.316-7.066-1.478Z" transform="translate(-159.967 -149.74)"/>
  <polygon class="cls-11" points="42.095 116.621 51.557 116.838 51.606 106.297 42.151 105.997 42.095 116.621"/>
  <path class="cls-12" d="M265.046,276.061l9.231,2.251c.173-1.128.124-10.018-.149-10.536-.265-.387-1.642-.62-2.073-.729l-7.1-1.675Z" transform="translate(-159.967 -149.74)"/>
  <path class="cls-12" d="M176.793,258.888l-.108,10.239c1.618-.2,3.154-.708,4.746-.956,1.564-.244,3.237-.384,4.769-.715l.093-10.351C184.584,257.192,178.015,258.3,176.793,258.888Z" transform="translate(-159.967 -149.74)"/>
  <path class="cls-12" d="M338.651,263.392l.437,10.734c1.981.3,6.953-.148,9.107-.345l-.315-10.539Z" transform="translate(-159.967 -149.74)"/>
  <polygon class="cls-12" points="117.546 129.285 126.749 131.563 126.654 120.87 117.402 118.619 117.546 129.285"/>
  <polygon class="cls-12" points="129.967 132.165 139.195 134.258 139.03 123.651 129.808 121.543 129.967 132.165"/>
  <path class="cls-12" d="M214.712,280.369l9.449.974c.012-2.119.328-8.575-.031-10.144-2.2-.284-7.394-1.107-9.363-.9Z" transform="translate(-159.967 -149.74)"/>
  <path class="cls-12" d="M202.02,279.81l9.489.29.056-10.09c-1.369-.214-8.6-.534-9.5-.158Z" transform="translate(-159.967 -149.74)"/>
  <path class="cls-12" d="M351.027,262.832l.363,10.541a58.867,58.867,0,0,0,9.136-1.4l-.275-10.231a25.134,25.134,0,0,0-4.356.6C354.4,262.561,352.567,262.7,351.027,262.832Z" transform="translate(-159.967 -149.74)"/>
  <path class="cls-12" d="M314.687,286.581a74.511,74.511,0,0,0,9.175.972l-.2-10.374-9.209-1.073Z" transform="translate(-159.967 -149.74)"/>
  <path class="cls-12" d="M189.438,270.361c-.332,1.224-.145,8.211-.152,10.02l9.486-.542.082-10.025A81.182,81.182,0,0,0,189.438,270.361Z" transform="translate(-159.967 -149.74)"/>
  <path class="cls-12" d="M227.363,281.84l9.41,1.49.066-10.145c-2.873-.384-6.575-1.43-9.423-1.463Z" transform="translate(-159.967 -149.74)"/>
  <polygon class="cls-12" points="142.358 134.785 151.551 136.437 151.382 125.944 142.212 124.267 142.358 134.785"/>
  <path class="cls-12" d="M176.715,282.387c1.268-.1,3.05-.649,4.415-.873,2.1-.343,4.858-.173,5.047-1.114l.046-9.574a61.066,61.066,0,0,0-9.1,1.512c-.7.276-.446,1.14-.445,2.065C176.68,276.157,176.531,281.341,176.715,282.387Z" transform="translate(-159.967 -149.74)"/>
  <path class="cls-12" d="M252.635,286.644c.806.289,8.656,2.081,9.244,2.065l.025-9.993a73.011,73.011,0,0,0-9.332-2.153C252.572,278.643,252.279,285.088,252.635,286.644Z" transform="translate(-159.967 -149.74)"/>
  <polygon class="cls-12" points="80.008 134.216 89.355 136.235 89.427 126.049 80.069 124.029 80.008 134.216"/>
  <path class="cls-12" d="M327,287.763c1.576.381,7.279.368,9.165.351l-.195-10.177-9.193-.459Z" transform="translate(-159.967 -149.74)"/>
  <path class="cls-12" d="M339.222,277.812l.144,10.142a64.81,64.81,0,0,0,9.042-.53,96.04,96.04,0,0,0-.112-10.035Z" transform="translate(-159.967 -149.74)"/>
  <path class="cls-12" d="M351.5,276.923l.128,10.017a52.54,52.54,0,0,0,9.052-1.675l-.07-9.739c-.843-.193-3.452.579-4.413.756C354.684,276.56,353.085,276.644,351.5,276.923Z" transform="translate(-159.967 -149.74)"/>
  <path class="cls-12" d="M363.73,274.681l.127,9.867a60.047,60.047,0,0,0,9.058-2.9l-.03-9.581C372.482,272.09,365.429,274.351,363.73,274.681Z" transform="translate(-159.967 -149.74)"/>
  <path class="cls-12" d="M376.009,270.771l.064,9.648a80.6,80.6,0,0,0,9.089-4.094l0-9.355C383.8,267.149,378.435,270.2,376.009,270.771Z" transform="translate(-159.967 -149.74)"/>
  <path class="cls-11" d="M162.93,312.734V291.825h7.062a14.934,14.934,0,0,1,6.765,1.282,9.668,9.668,0,0,1,3.955,3.766,10.478,10.478,0,0,1,1.472,5.427,10.276,10.276,0,0,1-.807,4.016,10.908,10.908,0,0,1-8.038,6.259,28.616,28.616,0,0,1-3.781.159Zm6.755-18.242h-3.75v15.575h3.837a15.385,15.385,0,0,0,3.5-.306,8.134,8.134,0,0,0,2.08-.782,7.071,7.071,0,0,0,1.523-1.16,7.762,7.762,0,0,0,2.218-5.682,7.18,7.18,0,0,0-2.279-5.5,7.327,7.327,0,0,0-1.926-1.308,8.294,8.294,0,0,0-2.064-.675,21.355,21.355,0,0,0-3.132-.164Zm14.225-2.667h3v20.909h-3V291.825Zm16.9,10.608h7.021V311.3a19.114,19.114,0,0,1-7.665,1.676,11.364,11.364,0,0,1-8.3-3.035,10.075,10.075,0,0,1-3.107-7.491,10.45,10.45,0,0,1,3.214-7.818,11.125,11.125,0,0,1,8.069-3.117,14.207,14.207,0,0,1,3.347.383,26.709,26.709,0,0,1,4.011,1.395v3.066a14.666,14.666,0,0,0-7.42-2.177,7.866,7.866,0,0,0-5.774,2.34,8.311,8.311,0,0,0,0,11.584,8.343,8.343,0,0,0,6.04,2.264,14.149,14.149,0,0,0,4.292-.823l.286-.092V305.1h-4.016v-2.667Zm9.366-10.608h3v20.909h-3V291.825Zm3.812,0h17.475v2.667h-7.3v18.242h-3V294.492h-7.174v-2.667Zm21.854-.123-8.973,21.032h3.076l2.611-6.193h8.917l2.78,6.193h3.066L237.951,291.7Zm4.435,12.172H233.72l3.163-7.578,3.4,7.578Zm7.3-12.049h3v18.181h9.412v2.729H247.578V291.825Zm25.581,12.131-2.274-1.38A10.351,10.351,0,0,1,267.834,300a4.894,4.894,0,0,1-.9-2.918,5.16,5.16,0,0,1,1.717-4.022,6.4,6.4,0,0,1,4.451-1.543,8.394,8.394,0,0,1,4.808,1.477v3.4a6.908,6.908,0,0,0-4.864-2.182,4,4,0,0,0-2.407.68,2.066,2.066,0,0,0-.945,1.737,2.671,2.671,0,0,0,.695,1.763,8.844,8.844,0,0,0,2.238,1.727l2.284,1.354q3.825,2.292,3.827,5.83a5.355,5.355,0,0,1-1.686,4.1,6.162,6.162,0,0,1-4.379,1.574,9.2,9.2,0,0,1-5.646-1.911v-3.8a7.049,7.049,0,0,0,5.611,3.076,3.51,3.51,0,0,0,2.345-.787,2.473,2.473,0,0,0,.935-1.973q0-1.916-2.754-3.628ZM280,291.825h3v20.909h-3V291.825Zm16.9,10.608h7.021V311.3a19.114,19.114,0,0,1-7.665,1.676,11.365,11.365,0,0,1-8.3-3.035,10.076,10.076,0,0,1-3.107-7.491,10.45,10.45,0,0,1,3.214-7.818,11.125,11.125,0,0,1,8.068-3.117,14.208,14.208,0,0,1,3.347.383A26.709,26.709,0,0,1,303.5,293.3v3.066a14.666,14.666,0,0,0-7.42-2.177,7.866,7.866,0,0,0-5.774,2.34,8.311,8.311,0,0,0,0,11.584,8.344,8.344,0,0,0,6.04,2.264,14.149,14.149,0,0,0,4.292-.823l.286-.092V305.1H296.9v-2.667Zm25.953-10.608h2.851v20.909h-2.58l-13.976-16.1v16.1h-2.821V291.825h2.432l14.093,16.239V291.825Zm11.952-.123h2.1l9.372,21.032h-3.066l-2.78-6.193h-8.917l-2.611,6.193h-3.076l8.973-21.032Zm4.435,12.172-3.4-7.578-3.163,7.578Zm17.383-1.441V305.1h4.016v4.359l-.286.092a14.149,14.149,0,0,1-4.292.823,8.343,8.343,0,0,1-6.04-2.264,8.311,8.311,0,0,1,0-11.584,7.866,7.866,0,0,1,5.774-2.34,14.666,14.666,0,0,1,7.42,2.177V293.3a26.709,26.709,0,0,0-4.011-1.395,14.207,14.207,0,0,0-3.347-.383,11.125,11.125,0,0,0-8.069,3.117,10.45,10.45,0,0,0-3.214,7.818,10.075,10.075,0,0,0,3.107,7.491,11.364,11.364,0,0,0,8.3,3.035,19.114,19.114,0,0,0,7.665-1.676v-8.871Zm9.335-10.608h11.865v2.667h-8.86v6.377h8.554v2.667h-8.554v6.531H378.1v2.667H365.962Z" transform="translate(-159.967 -149.74)"/>
</svg>
