<?xml version="1.0" encoding="UTF-8"?>
<!DOCTYPE svg PUBLIC "-//W3C//DTD SVG 1.1//EN" "http://www.w3.org/Graphics/SVG/1.1/DTD/svg11.dtd">
<!-- Creator: CorelDRAW 2017 -->
<svg xmlns="http://www.w3.org/2000/svg" xml:space="preserve" width="46.5666mm" height="27.0932mm" version="1.1" shape-rendering="geometricPrecision" text-rendering="geometricPrecision" image-rendering="optimizeQuality" fill-rule="evenodd" clip-rule="evenodd"
viewBox="0 0 4656.66 2709.32"
 xmlns:xlink="http://www.w3.org/1999/xlink">
 <defs>
   <linearGradient id="id0" gradientUnits="userSpaceOnUse" x1="2012.03" y1="1653.46" x2="4594.36" y2="1653.46">
    <stop offset="0" stop-opacity="1" stop-color="#3D9BE9"/>
    <stop offset="1" stop-opacity="1" stop-color="#1667CE"/>
   </linearGradient>
   <linearGradient id="id1" gradientUnits="userSpaceOnUse" x1="2256.39" y1="1280" x2="4587.33" y2="1981.39">
    <stop offset="0" stop-opacity="1" stop-color="#3D9BE9"/>
    <stop offset="1" stop-opacity="1" stop-color="#76B7ED"/>
   </linearGradient>
   <linearGradient id="id2" gradientUnits="userSpaceOnUse" x1="2308.94" y1="40.47" x2="2372.91" y2="1241.62">
    <stop offset="0" stop-opacity="1" stop-color="#E8F3FC"/>
    <stop offset="1" stop-opacity="1" stop-color="#3D9BE9"/>
   </linearGradient>
   <linearGradient id="id3" gradientUnits="userSpaceOnUse" x1="2272.54" y1="1134.82" x2="1864.14" y2="1173.56">
    <stop offset="0" stop-opacity="1" stop-color="#439EEA"/>
    <stop offset="0.368627" stop-opacity="1" stop-color="#9CCAF0"/>
    <stop offset="1" stop-opacity="1" stop-color="#3D9BE9"/>
   </linearGradient>
   <linearGradient id="id4" gradientUnits="userSpaceOnUse" x1="982.3" y1="1207.9" x2="982.3" y2="441.19">
    <stop offset="0" stop-opacity="1" stop-color="#3D9BE9"/>
    <stop offset="1" stop-opacity="1" stop-color="#78BAF0"/>
   </linearGradient>
   <linearGradient id="id5" gradientUnits="userSpaceOnUse" x1="3573.86" y1="1357.8" x2="3230.16" y2="386.59">
    <stop offset="0" stop-opacity="1" stop-color="#E8F3FC"/>
    <stop offset="1" stop-opacity="1" stop-color="#3D9BE9"/>
   </linearGradient>
 </defs>
 <g id="Слой_x0020_1">
  <metadata id="CorelCorpID_0Corel-Layer"/>
  <path fill="#1667CE" d="M356.35 1974.16c-5.3,0.65 1530.33,705.92 1530.33,705.92 45.36,2.56 86.09,11.86 126.02,5.68 -1.53,-485.35 1.05,-970.23 5.16,-1455.56 176.12,-7.67 531.24,-119.47 707.02,-163.74 219.9,-55.39 465.38,-104.78 698.46,-166.27l782.33 -187.19c175.54,-41.5 94.71,-43.95 162.53,-73.61 26.79,-11.72 44.02,-4.28 62.19,-31.47 -44.46,-37.81 -53.26,-7.67 -107.63,-8.37 -34.87,-0.45 -77.23,-15.25 -105,-20.69 -62.41,-12.23 -182.26,-10.43 -211.09,-40.12 -40.34,16.02 -35.29,35.91 -43.24,68.37 -48.22,6.63 -77.69,25.57 -122.17,30.03 66.13,116.06 316.47,7.28 452.97,7.28 -10.68,-13.93 -25.47,2.92 -29.23,21.98 -61.23,0.09 -98.22,20.7 -153.08,34.67 -43.69,11.13 -98.26,23.51 -140.77,32.01l-296.62 71.25 -1546.38 360.97c-42.56,43.35 -162.92,44.86 -229.94,30.57 0,0 -1803.41,-670.31 -1807.79,-671.94 -17.02,-6.65 -43.03,-9.79 -52.14,-39.29 0,40.19 3.91,790.17 3.91,897.71 0,66.5 -9.58,415.54 4.47,448.49 11.18,26.23 79.43,48.16 107.62,60.41 51.46,22.35 38.38,94.6 196.35,83.61 1.33,-0.09 3.85,-0.24 5.72,-0.7z"/>
  <path fill="#1667CE" d="M2223.16 2696.45c12.55,-28.38 12.22,-6.91 20.03,-54.6l-75.24 -64.06c0,0 -40.85,65.87 -294.94,78.43 -26.43,-0.26 0.72,65.95 75.77,82.3 74.3,16.19 171.69,14.61 274.38,-42.07z"/>
  <path fill="#1667CE" d="M2190.94 2658.51l2067.54 -570.13c0,0 164.08,17.82 229.15,-30.43 31.41,-23.29 12.13,-46.45 29.18,-68.28 36.86,-15.56 162.58,-49.86 124.2,-40.19 -5.44,1.37 21.92,-3.65 21.92,-43.83l-20.73 -1311.32c-11.2,358.95 -15.8,1314.97 -15.8,1314.97 0,0 -863.18,196.97 -2435.46,749.21z"/>
  <path fill="url(#id0)" d="M2012.7 2685.76c93.16,5.28 179.53,-9.71 182.27,-35.62 0,0 14.3,-1425.57 14.3,-1425.57 369.75,-93.92 733.58,-180.64 1103.04,-271.84 30.53,-7.63 1281.12,-317.08 1282.05,-332.11 1.25,-20.53 -2383.55,592.6 -2576.17,601.93 -3.46,75.4 -5.68,260.32 -5.51,357.06 0.19,121.67 0.53,243.65 0.03,365.29 -1.01,246.74 -0.79,494.14 -0.01,740.86z"/>
  <path fill="#141618" d="M4239.62 556.1c29.46,26.34 141.3,38.29 169.06,0.68 -30.27,-35 -142.78,-31.23 -169.06,-0.68z"/>
  <path fill="url(#id1)" d="M2193.53 1222.55l2448.85 -616.32c3.67,425.62 8.25,873.63 11.91,1299.24 3.91,33.71 -11.72,33.91 -28.88,38.61l-2436.61 711.08 4.73 -1432.61z"/>
  <path fill="url(#id2)" d="M2491.04 55.01c709.6,158.13 1420.59,333.55 2128.89,499.86 40.18,10.95 40.18,47.48 -25.57,65.75l-2407.3 588.13c-109.59,29.22 -175.34,29.22 -314.16,0 -589.69,-228.8 -1179.39,-457.61 -1769.08,-686.41 -78.81,-30.58 -108.54,-62.45 8.35,-88.02 767.58,-126.74 1535.17,-253.47 2302.75,-380.21 24.44,-4.03 57.07,-3.35 76.12,0.9z"/>
  <path fill="url(#id3)" d="M2274.23 1084.17l0.03 96.97 -86.53 21.14c-109.59,29.21 -175.34,29.21 -314.15,0 -25.52,-9.9 30.92,2.68 5.42,-7.2 -18.2,-7.05 -23.62,-110.59 -4.99,-104.86 189.94,58.42 144.52,59.7 400.22,-6.05z"/>
  <path fill="url(#id4)" d="M1915.9 1105.65c-80.37,43.83 -0.52,104.87 -14.44,102.15 -589.69,-228.8 -1193.64,-449.78 -1783.33,-678.58 -78.81,-30.58 -108.54,-62.46 8.35,-88.02 0,0 54.62,25.7 54.62,25.7 0,0 1734.8,638.75 1734.8,638.75z"/>
  <path fill="url(#id5)" d="M4571.36 544.35c12.79,3 25.58,6.01 38.36,9.01 40.18,10.96 40.18,47.49 -25.57,65.76l-2370.15 580.92c-57.38,-15.18 -60.65,-61.51 -19.74,-95.08 22.63,-18.55 2377.1,-560.61 2377.1,-560.61z"/>
  <g id="_2075878469104">
   <path fill="#282C30" fill-opacity="0.309804" d="M1473.65 1818.6c17.46,-17.99 18.97,-22.71 30.43,-45.27 26.98,11.28 15.73,6.42 31.06,31.63 29.02,47.72 51.12,50.31 -3.39,112.6 -13.71,-33.97 -32.56,-77.15 -58.1,-98.96zm-1110.92 -132.16c25.98,31.6 23.35,87.21 23.81,138.22l-54.11 -20.13c-1.74,-22.71 -2.31,-83.14 6.95,-101.08 14.17,-27.44 -4.74,-8.39 23.35,-17.01zm396.38 29.88c13.07,-22.04 12.41,-24.23 31.75,-41.35 14.9,8.73 35.25,43.61 44.68,64.22 15.66,34.24 -0.38,48.83 -22.76,68.87l-50.16 -86.81c-0.81,-1.12 -2.38,-3.26 -3.51,-4.93zm-114.25 -51.15c13.57,-19.35 14.04,-25.85 36.41,-39 12.91,11.99 33.92,48.46 39.37,66.43 12.62,41.61 -3.13,45.76 -24.75,65.47 -6.88,-24.54 -12.15,-31.47 -21.7,-47.09 -12.82,-20.96 -4.17,-6.59 -15.19,-22.78l-14.14 -23.03zm170.01 -21.91c13.76,-21.34 11.39,-23.54 34.45,-42.53 13.01,8.48 35.93,38.9 45.01,64.97 11.77,33.74 -9.53,51.7 -24.45,70.46 -4.3,-12.61 -13.84,-32.73 -21.06,-46.57l-33.95 -46.33zm-585.98 2.49c29.98,10.03 57.24,5.5 65.31,48.07l0.1 74.88c-22.08,-2.39 -79.41,-25.36 -95.49,-37.76 -22.45,-17.28 -27.59,-70.75 -26.58,-107.58 28.48,-4.05 9.59,-3.65 28.06,3.63l28.6 18.76zm301.71 -29.39c5.85,-6.81 7.81,-10.93 15.79,-20.06 20.76,-23.73 1.44,-10.38 26.41,-19.8 3.93,9.68 8.67,23.41 15.26,35.61 23.71,43.83 38.47,48.86 -1.2,97.68 -6.01,-10.26 -44.35,-86.41 -56.26,-93.43zm459.51 -1.58c18.15,-20.63 14.18,-32.07 40.9,-42.28 70.18,98.45 48.65,100.61 11.5,139.65 2.42,-18.74 -31.47,-76.91 -52.4,-97.37zm-289.39 -22.66c11.61,-18.55 22.9,-34.47 38.77,-43.16 42.32,83.88 67.96,70.82 14.85,135.72l-53.62 -92.56zm172.7 -28.08l31.86 -41.44c20.19,14.61 41.94,52.46 47.33,69.76 11.71,37.58 -12.05,48.93 -27.07,68.89 0.13,-14.92 -39.75,-91.14 -52.12,-97.21zm-452.73 6.16c11.67,-20.06 8.33,-24.58 34.11,-39.44l17.47 28.35c22.03,37.63 43.28,46.58 5.88,100.54 -20.68,-17.61 -13.36,-20.74 -27.91,-46.57 -7.52,-13.33 -22.24,-33.16 -29.55,-42.88zm165.38 -30.98c20.57,-15.68 16.72,-25.36 36.76,-36.52 8.68,8.63 35.54,48.41 41.22,64.41 11.65,32.81 -11.9,56.39 -26.52,69.07 -18.62,-39.24 -7.87,-38.88 -37.71,-79l-13.75 -17.96zm-276.08 -12.85c9.13,-18.76 17.03,-34.07 35.22,-42.9 46.55,52.54 56.53,92.35 14.61,128.09 -8.17,-23.9 -25.18,-66 -49.83,-85.19zm861.3 -71.38c151.3,53.38 313.43,127.18 475.44,187.58 4.15,90.44 2.71,46.94 -22.99,86.87l-388.42 -158.99c-61.4,-23.55 -66.54,-45.74 -64.03,-115.46zm-413.66 64.07c14.99,-20.64 14.67,-30.27 42.18,-44.43 6.21,11.85 33.41,56.12 37.18,65.4 11.18,27.56 -3.01,59.11 -31.51,63.7 -4.58,-31.82 -27.6,-64.94 -47.85,-84.67zm-281.24 -30.89c21.62,-16.69 13.28,-22.71 36.72,-33.4 41.14,60.59 52.72,79.5 13.1,134.61l-49.82 -101.21zm-277.42 -15.48l22.75 -26.12c12.42,-11.29 -3.26,-1.19 13.9,-9.76 54.34,70.42 42.1,88.43 22.92,128.2 -24.06,-21.75 -16.8,-37.76 -44.84,-73.99l-14.73 -18.33zm445.89 -4.78c12.55,-19.98 17.72,-31.08 36.41,-40.46l37.45 62.43c15.93,35.4 2.35,53.6 -22.83,70.17 -12.52,-43.37 -28.13,-56.94 -48.23,-87.64 -0.6,-0.92 -1.89,-2.99 -2.8,-4.5zm-278.51 -21.91c14.93,-22.25 12.68,-27.94 38.84,-37.74l41.31 81.22 -28.17 50.5 -49.38 -89.19c-0.58,-1.03 -1.82,-3.15 -2.6,-4.79zm981.29 -159.3c75.99,5.22 93.69,60.75 76.53,122.77l12.56 10.82c17.89,20.66 16.58,32.38 9.26,59.96 -43.52,4.86 -4.76,2.56 -26.21,-5.42 -1.51,-0.56 -3.41,-1.48 -4.94,-2.11 -1.56,-0.64 -3.46,-1.56 -5.03,-2.24l-15.39 -7.13c-59.06,-26.89 -49.74,-8.77 -46.78,-176.65zm-816.37 132.94c14.63,-18.24 18.28,-30.41 40.98,-39.73 32.47,71.08 59.63,74.09 14.84,132.62 -15.05,-22.04 -38.83,-79.8 -55.82,-92.89zm-275.27 -17.48c4.83,-7.84 4.48,-8.8 11.85,-18.78 1.28,-1.73 5.31,-6.96 6.73,-8.62 6.85,-8.03 4.86,-5.82 12.18,-12.31 10.55,8.35 37.19,48.88 41.09,58.45 15.7,38.56 -6.54,52.78 -23.03,72.49l-48.82 -91.23zm163.15 -30.31c16.31,-18.5 14.04,-26.94 35.65,-36.98 13.05,15.16 32.11,43.52 39.64,65.52 13.96,40.82 -6.42,47.32 -25.03,63.96 -8.59,-33.27 -23.57,-54.1 -40.91,-79.61 -5.04,-7.4 -2.42,-3.07 -9.35,-12.89zm-109.81 -42.74c10.48,-19.17 21.04,-30.14 35.87,-40.53 30.42,40.31 62.13,91.23 14.61,126.89 -10.93,-29.2 -29.01,-61.22 -50.48,-86.36zm-109.37 -43.84l24.16 -33.06c7.57,-7.07 4.75,-4.67 11.49,-9.35 39.02,38.87 59.26,90.81 14.61,128.28 -7.74,-30.89 -25.41,-66.13 -50.26,-85.87zm152.55 694.1c50.95,-1.25 51.53,-45.7 -2.46,-19.5 -6.37,-23.67 -7.85,-10.78 0,-36.52 -40.29,14.03 -12.83,-9 -26.77,28.01 -4.61,-12.99 -5.95,-23.11 -17.07,-30.47 11.72,-5.47 51.79,-25.62 2.57,-28.23 -37.52,-1.98 -3.86,1.04 -29.34,30.69 -6.01,-23.35 6.95,-17.99 -12.14,-36.54 -6.08,15.01 -5.33,22.56 -9.77,36.54 -7.42,-23.33 -0.24,-13.97 -12.42,-18.63 -16.32,-6.24 -20.07,3.11 -32.64,-16.81 -9.62,-15.26 -1.74,-22.85 -1.24,-52.24 -22.96,6.55 -16.36,5.7 -29.22,14.61 -47.59,-79.71 5.95,-6.99 -14.61,-63.36 22.16,10.37 11.97,10.37 34.14,0 -8.7,13.19 -11.41,-6.79 -6.69,15.08 8.1,37.62 14.99,21.55 23.69,28.76l13.4 -23.24c15.87,-21.83 5.01,9.38 18.28,-27.87 21.8,11.18 15.77,8.56 31.68,24.34 -0.95,0.32 2.12,5.83 -13.85,0.26 -1.28,-0.44 -3.46,-1.4 -4.85,-2l-17.82 -10.41c0,43.78 -6.68,52.74 -7.31,90.05 48.19,0 67.38,-12.15 111.98,-12.15 -13.59,-25.86 -6.95,-13.56 -37.54,-20.31l-8.71 -1.74c-30.86,-4.22 5.15,4.6 -12.21,0.13 18.09,-8.71 28.84,-9.82 49.4,-1.72l111.17 21.04c5.68,2.52 2.37,7.27 14.78,7.45l7.34 -41.37c21.62,3.21 36.66,4.72 46.26,-9.77 1.03,2.2 5.46,10.08 6.66,11.21 10.74,10.03 -0.21,1.58 12.35,8.52 20.83,11.5 24.2,-1.24 32.13,24.1l14.61 -36.52c20.34,10.15 10.22,18.7 31.09,30.67 15.56,8.93 23.11,8.61 33.73,-3.87 0.74,-0.86 1.99,-3.45 3.36,-4.85 3.72,37.91 -3.29,18.99 17.07,26.76l-19.1 9.42 -0.95 51.46c7.6,-2.21 22.84,-9.05 24.67,-9.76 15.32,-5.84 -9.58,-2.61 14.87,-4.86 6.72,26.65 2.54,11.79 -5.51,28.83 -0.79,1.65 -2.3,3.31 -3.09,5.01 -0.82,1.74 -2.24,3.54 -2.96,5.3 -0.86,2.12 -3.49,9.06 -3.77,11.01l0.44 9.35c15.62,43.25 13.18,-46.08 58.7,-19.8 0.65,0.36 2.53,1.42 3.07,1.9 1.33,1.17 9.26,-26.41 6.69,19.31 -6.34,1.48 -17.05,-13.58 -28.17,15.89 -4.67,12.35 -10.81,25.51 12.41,35.09 1.11,0.47 3.22,1.11 4.49,1.42 1.38,0.32 3.55,0.58 5.08,0.75 2.15,0.23 20.89,-1.82 25.65,-2.01 0.24,15.15 -2.59,23.16 -2.42,25.59 12.73,-21.17 20.87,-15.61 27.82,-53.4 3.88,-21.03 8.98,12.71 -1.73,-13.79l-14.98 -27c-0.81,-1.55 -1.76,-3.43 -2.56,-5 -11.21,-22.07 1.55,-14.94 -18.85,-32.42 -19.76,-16.92 -20.84,-0.8 -43.31,-10.87 37.59,-16.56 11.92,9.57 31.69,-29.23 21.48,2.69 19.94,10.62 36.52,19.46 8.79,-37.61 3.28,-4.66 12.2,-34.07 26.76,5.88 5.14,-1 29.22,9.73l-19.5 21.91c20.24,-1.93 28.1,1.6 38.93,10.9l34.13 -20.62c-16.24,-5.29 -19.61,-17.76 -21.97,-37.24 -3.84,-31.93 11.1,-27.76 22.01,-50.4 4.84,18.41 4.8,34.2 16.84,49.18 10.65,13.24 20.36,8.71 33.16,4.19 2.27,-0.8 5.53,-2.09 7.42,-4.22 -13.43,-32.9 -28.19,-65.59 -54.08,-93.02 14.64,-23.05 10.03,-29.98 40.33,-43.29 13.22,21 20.35,41.49 39.44,65.24 21.15,26.56 1.63,7.26 26.4,14.54l-0.64 -32.41 -48.78 -83.72c31.37,-33.68 14.01,-27.25 44.54,-39.42 23.39,43.87 50.55,64.72 29.68,120.52l16.37 7.3c28.68,4.15 3.36,-2.99 36.69,45.09 0.85,1.22 2.12,3 2.96,4.16l12.08 15.08c46.04,41.91 25.28,2.82 31.31,-2.74l-56.45 -98.84c5.14,-5.65 8.48,-10.55 16.27,-18.99 21.85,-23.67 -1.03,-9.75 25.6,-20.13l19.43 34.67c15.68,9.51 4.89,1.02 13.33,19.21 6.12,13.19 6.36,17.78 11.11,28.31 35.38,-9.39 15.63,5.8 28.5,-24.03 -14.17,-40.99 -30.59,-65.71 -51.95,-92.84 15.45,-24.63 17.16,-34.79 38.03,-42.82l39.96 59.9c39.48,-28.85 -12.32,23.45 8.12,-11.28 29.22,-49.68 -20.63,13.76 7.9,-15.56 8.12,4.88 -1.77,-4.3 8.41,5.49l5.29 5.33c17.87,26.79 -12.08,13.66 11.89,38.9 17.15,-11.42 20.52,-24.46 42.41,-32.54 42.58,67.4 58.69,80.34 16.59,140.36 -15.33,-16.22 -21.25,-44 -41.74,-72.27 -39.2,10.3 -19.89,-27.44 -25.06,31.35l31.86 46.6 20.62 50.84c1.59,2.58 3.41,5.08 5.22,7.54l-17.49 1.49c22.29,6.45 23.25,26.04 42.07,50.62 7.17,12.95 7.43,17.43 12.02,28.26 34.83,-9.24 15.61,6.19 27.49,-22.48 -13.4,-30.59 -32.46,-67 -54.95,-93.38 15.88,-17.31 20.7,-29.91 40.23,-41.74l46.88 78.22 27.72 7.58 -1.77 -30.74c-21.79,-54.26 -41.74,-74.27 -48.27,-94.69 19.94,-19.09 12.48,-22.76 35.69,-35.78 47.31,45.68 64.52,91.74 17.31,141.13 -0.32,21.65 -5.73,16.78 15.61,15.28 10.38,-12.91 10.15,-15.95 25.53,-29.51 9.32,6.59 36.39,44.81 45.46,62.31 23.22,44.76 -5.2,51.05 -14.58,76.68 10.62,19.74 1.82,15.16 13.7,3.71 20.64,-5.76 -6.53,-5.85 24.83,-11.3 10.07,12.98 10.84,13.71 13.43,24.53 12.62,12.05 24.25,38 34.09,59.77 58.94,0 6.17,3.6 29.15,-18.7 -17.18,-40.96 -40.33,-73.56 -57.78,-106.1 13.75,-15.8 25.05,-29.24 46.1,-37.87 6.36,12 36.93,71.24 41.31,89.61l28.82 0 0 -34.34c-14.72,-31.23 -32.63,-69.3 -55.02,-87.62l37.95 -47.24c18.57,17.19 41.91,63.89 57.96,88.9 12.25,14.55 10.25,-20.42 10.25,21.89 25.37,-42.52 11.63,-13.11 19.49,-2.46 -15.97,15.32 -8.25,21.15 -7.3,48.75 18.66,-7.49 27.24,-30.99 34.78,-44.29 0.44,-0.77 1.12,-2.87 1.58,-3.57 7.83,-11.63 19.66,-11.63 22.08,-10.58 22,13.55 10.3,-17.44 13.79,32.16l-1.56 26.28c0,-28.3 2.68,-29 7.31,-51.14 22.75,8.2 17.72,-3.47 23.19,27.78l1.11 171.87c-16.72,6.04 -33.77,-1.53 -43.84,12.22 25.05,-0.82 22.99,-6.68 56.03,-7.31 -6.37,21.57 10.18,33.53 -26.8,21.92 16.9,8.31 19.54,-12.34 18.65,49.6 -0.26,18 4.8,22 -3.12,45.85 -9.9,29.83 -0.26,1.88 -8.23,16.52l16.15 12.6c1.31,1.02 3.93,2.88 5.77,4.48 -7.81,73.99 4.9,80.7 -6.92,121.62 -6.91,23.9 13.62,137.86 6.96,241.25l31.61 9.77 13.04 2.08 3.96 -1437.78c-0.03,9.58 -1502.27,-576.38 -1795.23,-693.99 -33.53,-13.47 -36.19,-10.9 -45.26,-40.21 -9.67,37.7 -2.95,791.43 -2.95,898.63 0,66.63 -9.58,415.42 4.52,448.44 8.8,20.63 44.1,33.17 66,43.59 17.06,8.11 24.68,9.48 41.57,16.89 30.27,13.26 17.61,5.75 31.75,26.69 31.75,47.04 84.26,57.31 146.44,57.78 18.55,0.14 3.43,3.4 23.88,-1.57z"/>
   <path fill="#272B2F" fill-opacity="0.309804" d="M1638.36 2036.81c18.38,14.4 47.71,64.5 56.38,95.95 -14.95,24.14 -19.64,27.46 -33.53,44.47l-14.45 -22.74c-12.6,-23.18 -24.91,-57.09 -46.58,-69.87 13.26,-28.19 15.7,-36.36 38.18,-47.81zm-288.87 -63.15c11.36,-16.13 26.07,-35.35 40.46,-43.58l41.67 67.08c14.03,38.26 -2.66,52.08 -23.33,74.53 -7.86,-30.43 -32.06,-79.74 -58.8,-98.03zm-210.63 -149.47c14.26,7.31 44.26,48.27 50.95,64.59 17.28,42.23 -4.56,54.89 -26.34,73.17 -21.56,-61.18 -44.46,-74.04 -50.72,-99.37l26.11 -38.39zm49.96 -141.94l10.23 34.84 -36.27 40.92c-12.87,29.83 6.88,14.64 -28.5,24.03 -4.75,-10.53 -4.99,-15.12 -11.11,-28.31 -8.44,-18.19 2.35,-9.7 -13.33,-19.21 19.96,25.98 22.16,29.52 26.75,62.16 -11.63,15.6 -25.2,30.03 -31.6,41.13 -6.03,5.56 14.73,44.65 -31.31,2.74l1.87 38.06 -28.96 33.79c-12.45,-31.52 -24.96,-69.03 -55.33,-93.8 11.01,-17.14 15,-23.19 30.69,-42.38l-16.37 -7.3c-9.16,3.47 1.23,-3.78 -10.78,5.92 -1.06,0.85 -7.97,9.87 -8.45,10.81l-6.21 -14.11 0.64 32.41c-24.77,-7.28 -5.25,12.02 -26.4,-14.54 8.37,55.75 -7.25,39.15 -25.69,71.07 -1.89,2.13 -5.15,3.42 -7.42,4.22 -12.8,4.52 -22.51,9.05 -33.16,-4.19 -12.04,-14.98 -12,-30.77 -16.84,-49.18 -10.91,22.64 -25.85,18.47 -22.01,50.4 2.36,19.48 5.73,31.95 21.97,37.24l-34.13 20.62c-10.83,-9.3 -18.69,-12.83 -38.93,-10.9l19.5 -21.91c-24.08,-10.73 -2.46,-3.85 -29.22,-9.73 -8.92,29.41 -3.41,-3.54 -12.2,34.07 -16.58,-8.84 -15.04,-16.77 -36.52,-19.46 -19.77,38.8 5.9,12.67 -31.69,29.23 22.47,10.07 23.55,-6.05 43.31,10.87 20.4,17.48 7.64,10.35 18.85,32.42 0.8,1.57 1.75,3.45 2.56,5l14.98 27c10.71,26.5 5.61,-7.24 1.73,13.79 -6.95,37.79 -15.09,32.23 -27.82,53.4 -0.17,-2.43 2.66,-10.44 2.42,-25.59 -4.76,0.19 -23.5,2.24 -25.65,2.01 -1.53,-0.17 -3.7,-0.43 -5.08,-0.75 -1.27,-0.31 -3.38,-0.95 -4.49,-1.42 -23.22,-9.58 -17.08,-22.74 -12.41,-35.09 11.12,-29.47 21.83,-14.41 28.17,-15.89 2.57,-45.72 -5.36,-18.14 -6.69,-19.31 -0.54,-0.48 -2.42,-1.54 -3.07,-1.9 -45.52,-26.28 -43.08,63.05 -58.7,19.8l-0.44 -9.35c0.28,-1.95 2.91,-8.89 3.77,-11.01 0.72,-1.76 2.14,-3.56 2.96,-5.3 0.79,-1.7 2.3,-3.36 3.09,-5.01 8.05,-17.04 12.23,-2.18 5.51,-28.83 -24.45,2.25 0.45,-0.98 -14.87,4.86 -1.83,0.71 -17.07,7.55 -24.67,9.76l0.95 -51.46 19.1 -9.42c-20.36,-7.77 -13.35,11.15 -17.07,-26.76 -1.37,1.4 -2.62,3.99 -3.36,4.85 -10.62,12.48 -18.17,12.8 -33.73,3.87 -20.87,-11.97 -10.75,-20.52 -31.09,-30.67l-14.61 36.52c-7.93,-25.34 -11.3,-12.6 -32.13,-24.1 -12.56,-6.94 -1.61,1.51 -12.35,-8.52 -1.2,-1.13 -5.63,-9.01 -6.66,-11.21 -9.6,14.49 -24.64,12.98 -46.26,9.77l-7.34 41.37c-12.41,-0.18 -9.1,-4.93 -14.78,-7.45l-111.17 -21.04c-20.56,-8.1 -31.31,-6.99 -49.4,1.72 17.36,4.47 -18.65,-4.35 12.21,-0.13l8.71 1.74c30.59,6.75 23.95,-5.55 37.54,20.31 -44.6,0 -63.79,12.15 -111.98,12.15 0.63,-37.31 7.31,-46.27 7.31,-90.05l17.82 10.41c1.39,0.6 3.57,1.56 4.85,2 15.97,5.57 12.9,0.06 13.85,-0.26 -15.91,-15.78 -9.88,-13.16 -31.68,-24.34 -13.27,37.25 -2.41,6.04 -18.28,27.87l-13.4 23.24c-8.7,-7.21 -15.59,8.86 -23.69,-28.76 -4.72,-21.87 -2.01,-1.89 6.69,-15.08 -22.17,10.37 -11.98,10.37 -34.14,0 20.56,56.37 -32.98,-16.35 14.61,63.36 12.86,-8.91 6.26,-8.06 29.22,-14.61 -0.5,29.39 -8.38,36.98 1.24,52.24 12.57,19.92 16.32,10.57 32.64,16.81 12.18,4.66 5,-4.7 12.42,18.63 4.44,-13.98 3.69,-21.53 9.77,-36.54 19.09,18.55 6.13,13.19 12.14,36.54 25.48,-29.65 -8.18,-32.67 29.34,-30.69 49.22,2.61 9.15,22.76 -2.57,28.23 11.12,7.36 12.46,17.48 17.07,30.47 13.94,-37.01 -13.52,-13.98 26.77,-28.01 -7.85,25.74 -6.37,12.85 0,36.52 53.99,-26.2 53.41,18.25 2.46,19.5 11.9,18.95 0.56,6.97 17.07,19.07 7.47,5.47 17.12,8.22 25.65,11.49 16.39,6.28 28.79,12.3 44.95,20.55l1351.45 613.95c25.11,11.74 25.54,20.12 51.28,15.16l21.88 -0.77 -31.61 -9.77c6.66,-103.39 -13.87,-217.35 -6.96,-241.25 11.82,-40.92 -0.89,-47.63 6.92,-121.62 -1.84,-1.6 -4.46,-3.46 -5.77,-4.48l-16.15 -12.6c7.97,-14.64 -1.67,13.31 8.23,-16.52 7.92,-23.85 2.86,-27.85 3.12,-45.85 0.89,-61.94 -1.75,-41.29 -18.65,-49.6 36.98,11.61 20.43,-0.35 26.8,-21.92 -33.04,0.63 -30.98,6.49 -56.03,7.31 10.07,-13.75 27.12,-6.18 43.84,-12.22l-1.11 -171.87c-5.47,-31.25 -0.44,-19.58 -23.19,-27.78 -4.63,22.14 -7.31,22.84 -7.31,51.14l1.56 -26.28c-3.49,-49.6 8.21,-18.61 -13.79,-32.16 -2.42,-1.05 -14.25,-1.05 -22.08,10.58 -0.46,0.7 -1.14,2.8 -1.58,3.57 -7.54,13.3 -16.12,36.8 -34.78,44.29 -0.95,-27.6 -8.67,-33.43 7.3,-48.75 -7.86,-10.65 5.88,-40.06 -19.49,2.46 0,-42.31 2,-7.34 -10.25,-21.89 -8.23,30.42 -0.64,17.97 -23.51,41.91 -9.79,10.25 -10.54,15.64 -17.38,4.05l0 34.34 -28.82 0c6.99,21.08 5.85,9.88 -11.55,32.64 -6.36,8.32 -17.13,19.12 -18.08,21.72 -22.98,22.3 29.79,18.7 -29.15,18.7 -9.84,-21.77 -21.47,-47.72 -34.09,-59.77 44.95,70.24 48.83,62.59 -1,116.29l-50.99 -95.49c-0.76,-1.11 -2.35,-3.19 -3.45,-4.83l17.18 -29.2c-11.88,11.45 -3.08,16.03 -13.7,-3.71 -19.19,-5.81 -14.4,-11.86 -32.07,-44.87 -7.3,-13.63 -16.7,-34.94 -34.57,-44.91l10.23 -19.7c-21.34,1.5 -15.93,6.37 -15.61,-15.28l-4.73 -10.66 1.77 30.74 -27.72 -7.58 4.39 31.75c-23.55,15.08 -12.62,18.74 -36.55,25.15 -11.88,28.67 7.34,13.24 -27.49,22.48 -4.59,-10.83 -4.85,-15.31 -12.02,-28.26 22.36,54.62 -0.37,56.6 -21.91,89.6 0.27,-18.66 -24.54,-59.45 -35.94,-78.56l-16.63 -26.89 32.41 -34.77 17.49 -1.49c-1.81,-2.46 -3.63,-4.96 -5.22,-7.54l-20.62 -50.84c2.94,36.69 -6.53,47.78 -29.06,70.42 -7.9,-31.07 -39.49,-74.45 -54.85,-99.67 11.61,-15.02 15.58,-26.75 36.72,-39.76 13.34,12.62 8.58,1.79 15.33,22.41 5.17,-58.79 -14.14,-21.05 25.06,-31.35 -9.9,-24.93 -3.1,-5.21 -9.77,-18.86 -4.66,-9.55 -1.85,0.73 -7.49,-16.69 -23.97,-25.24 5.98,-12.11 -11.89,-38.9l-5.29 -5.33c-10.18,-9.79 -0.29,-0.61 -8.41,-5.49 -28.53,29.32 21.32,-34.12 -7.9,15.56 -20.44,34.73 31.36,-17.57 -8.12,11.28z"/>
   <path fill="#494D53" fill-opacity="0.309804" d="M4483.54 1341.21c-2.27,-30.28 2.05,-37.02 26.03,-40.91 12.84,30.01 3.36,41.39 -26.03,40.91zm-127.42 -336.08c26.48,-8.14 41.08,-13.66 69.72,-8.43 20.55,58.75 7.43,101.27 12.05,168.11l2.77 74.34c7.71,46.85 0.74,119.4 0.79,170.32 0.07,61.81 7.44,107.39 -37.69,134.93 -17.54,10.69 -237.83,73.68 -257.92,71.72l27.62 -2.05c-16.31,20.75 -19.45,24.72 -46.66,29.19l29.23 29.22 -16.72 4.94c-0.6,0.05 -2.73,-0.11 -3.19,-0.13 -15.89,-0.61 -2.03,-1.57 -2.19,-2.73 -0.11,-0.75 -0.28,-1.55 0.18,-2.08 13.57,14.72 12.51,19.14 16.63,42.99 -30.63,-12.15 -37.43,-1.7 -55.18,-13.76 10.86,29.12 6.39,5.79 34.35,43.07l15.94 14.29c0.93,0.38 3.28,0.27 4.26,0.66 5.1,2.06 17.12,3.07 22.54,22.34l-12.15 2.21c-76.41,5.39 -3.43,8.61 -74.71,11.55 1.69,10.01 8.78,23.99 7.35,53.61 23.31,-30.7 -8.92,-20.34 36.49,-38.11 12.3,47.63 -23.13,68.54 -57.63,66.87l-23.28 -5.73c-1.22,-2.76 -4.63,-1.47 -6.69,-2.73 4.83,-11.74 6.98,-11.38 10.21,-16.66 35.64,-58.34 -25.84,-69.78 26.32,-78.35 -6.98,11.1 -12.15,9.84 -25.92,17.88 -1.64,0.96 -3.67,1.78 -5.31,2.79 -1.63,1.01 -3.62,1.88 -5.17,2.94 -16,10.97 -3.46,1.82 -8.99,6.82 -19.31,17.44 1.24,-34.5 -9.06,13.4 -9.81,0.15 0.21,-0.78 1.25,2.77 0.28,0.99 1.71,5.24 2.04,6.85 0.23,1.07 0.75,3.56 0.96,4.78 2.94,17.31 -4.82,33.66 42.01,51.43l-33.26 13.42c-0.42,-0.1 -1.27,-1.6 -1.51,-2.8 -0.28,-1.32 -1.24,-2.25 -0.95,-3.38 -8.11,35.77 -6.51,21.42 0,58.44 -27.18,-3.62 -17.36,12.03 -29.22,-7.27l16.75 12.03c9.51,7.23 6.84,3.8 16.3,13.12 9.11,8.97 12.93,16.58 13.04,16.78 4.44,8.14 4.79,4.14 9.13,24.63 -54.59,20.05 -33.4,-1.24 -33.3,-1.65l-21.88 -28.82c-30.23,9.38 21.47,-14.81 -9.6,10.93 -11.62,9.64 -1.16,9.73 -19.6,11.39 -0.55,1.1 22.94,6.43 -13.12,2.55 -1.36,-0.15 -11.58,-3.79 -13.71,-4.97l62.49 74.67c-17.08,5.16 3.54,-0.94 -17.93,2.37l-18.81 20.47c7.53,13.82 10.33,-9.64 1.05,11.67 -26.87,-1.28 -30.73,-0.87 -36.53,-26.39l-3.38 40.41c4.82,44.73 2.43,29.33 10.65,32.72l-116.82 36.52c-4.24,5.09 -6.86,20.82 -7.31,21.89l223.72 -61.18c37.38,-12.26 68.43,-21.01 107.97,-30.83 27.44,-6.82 87.24,-22.91 106.73,-32.19 26.71,-19.3 196.81,-63.26 237.59,-69.55 -3.48,33.56 3.13,20.92 -14.39,40.32 29.29,-10.82 9.57,-3.91 22.33,-24.77l25.31 -26.36 50.66 -22.96 -0.14 -1339.14 -7.35 6.25c-14.95,25.75 -7.95,9.11 -7.86,42.11 0.2,65.84 -4.57,47.17 -37.08,65.42 -15.8,8.87 -18.79,15.19 -28.07,28.22l31.65 7.31c-5.07,17.56 -6.51,21.13 -8.53,36.53l-45.04 12.16 14.61 53.59c-18.62,-2.2 -11.65,-4.37 -23.32,1.98 -15.82,8.62 -4.21,-0.78 -13.21,15.06 -13.25,-25.25 -16.69,-25.9 -36.21,-22.75 -1.99,0.33 -21.96,5.63 -22.2,5.68 12.26,-43.56 22.36,-5.41 -0.03,-49.9l-6.9 27.81c0.25,2.04 1.33,5.05 1.66,6.81 0.33,1.83 4.35,13 5.2,15.28 -33.74,-9.68 -22.36,2.93 -36.53,-21.89 -1.63,5.5 -5.35,15.08 -5.89,17.11 -8.68,32.83 -0.1,27.27 1.58,43.06 7.1,66.82 -26.07,19.63 -2.99,68.83z"/>
   <path fill="#50545A" fill-opacity="0.309804" d="M2288.61 1918.13l-23.3 -1.26c-7.32,10.82 -10.19,12.6 -33.42,11.14 -16.25,-1.02 -6.45,-23.92 -6.35,26.83 0.01,6.52 -0.31,11.65 -0.03,20.36l-5.36 27.71c-0.27,0.48 -2.13,3.79 -2.35,2.89 -0.2,-0.88 -1.96,1.61 -2.32,2.77l7.3 0.02c-0.32,45.51 -18.59,136.4 -12.62,154.79 0.13,0.39 24.51,51.32 5.32,42.47 56.34,8.39 21.17,-16.02 36.53,29.15l-26.9 16.02c-1.24,1.26 -8.77,15.4 -12.05,22.97 0.3,-1.88 1.12,-4.42 1.63,-5.47 2.35,-4.73 4.75,-15.48 16.52,-17.31 19.54,-3.04 25.33,5.69 28.56,21.44 3.29,16.04 -5.81,39.03 -44.29,35.41 0,14.94 -4.28,51.16 -4.26,51.8l6.77 37.55c0.1,1.79 0.44,19.57 0.39,21.81 -1.02,50.4 -9.67,28.64 -4.96,63.74l1.08 19.46c-0.18,1.44 -0.81,3.52 -1.08,4.99 -1.49,8.13 -2.35,-0.71 -5.02,21.44l6.51 125.59c8.31,45.51 12.45,-35.38 0.64,11.03 43.25,-3.6 14.4,-3.77 24.08,7.92l-13.87 29.23c31.63,-28.65 8.84,-32 57.85,-48.81 25.09,-8.6 60.9,-20.75 85.37,-24.26 11.51,-31.59 41.79,-35.27 80.32,-36.52 1.28,-29.51 -1.36,-7.74 -7.34,-36.57 8.73,8.23 -20.2,17.22 13.93,0.33 0.71,-0.36 2.63,-1.61 3.3,-2.13 12.15,-9.4 13.53,-23.41 9.86,-42.93l-27.76 1.49c-0.72,0.89 -1.67,3.07 -2.1,3.9 -0.71,1.35 0.74,8.91 2.81,10.19l-33.54 -21.92c1.23,0.74 11.36,18.24 19.66,-5.72 1.61,-4.65 4.32,-5.96 6.54,-8.89 -32.08,-0.01 -25.47,6.61 -29.44,-7.34l12.64 -9.14c0.96,-0.68 2.73,-2.07 3.78,-2.78l43.84 -19.52c1.37,0.54 7.51,5.03 12.85,8.3l14.78 8.49 8.08 -52.7c0.69,-1.79 1.61,-3.51 2.35,-5.3l11.48 -27.46c-41.06,2.83 -23.01,-14.47 -44.41,20.47 -20.57,33.58 14.58,-6.12 -6.65,21.23 -1.71,-1.74 -5.64,-2.71 -6.95,-2.99 -42.7,-9.06 -22.17,2.95 -22.35,3.41 1.66,-41.01 4.89,-15.25 11.22,-16.31 0.77,-0.13 3.11,-0.11 3.96,-0.34l8.94 -3.13c1.19,-0.67 3.25,-2.02 4.37,-2.88 1.72,-1.33 10.21,-12.92 11.18,-15.52 22.17,-59.15 -7.6,44.5 1.3,-17.91 0.24,-1.64 4.07,-16.43 4.83,-18.6 4.71,-13.62 5.24,-22.12 19.99,-28.09 17.27,23.27 9.57,8.35 13.18,30.39l1.96 21.76c-0.18,1.53 -1.44,6.36 -1.68,8.12l-13.43 71.24c14.92,6.31 -0.89,2.6 21.92,7.34 -18.21,3.88 -22.83,10.93 -43.83,14.65 0.97,32.16 3.09,18.9 6.84,33.52l0.3 22.35c-0.54,1.94 -5.98,16.13 -7.14,24.42 51.59,0 46.49,-6.45 72.98,0 -1.09,-3.12 -3.39,-5.86 -5.44,-8.28 -37.19,-43.85 -27.4,-17.46 -31.09,-13.56 1.68,-1.77 1.99,-5.41 2.2,-6.84 3.86,-25.13 -9.51,-32.08 13.78,-41.35 -0.05,0.05 -22.48,-16.4 5.98,26.19l26.5 -13.09c0.38,-1.24 1.74,-1.17 2.72,-1.52 14.45,19.29 11.59,34.62 31.39,43.4 48.24,21.38 13.38,-25.72 9.2,-50.67 51.86,-20.65 10.91,-11.47 61.66,5.99 -12.2,-47.94 6.9,-39.05 14.61,-71.78 8.5,12.4 -0.86,13.08 17.25,8.67l-27.3 27.9c1.98,1.24 6.61,4.07 14.09,6.88l19.63 1.28 12.39 -57.84c1.67,-10.95 5.24,2.81 0.51,-9.63l-36.53 2.39 -11.8 -27.27c-0.1,-1.93 0.12,-35.06 -1.96,-49.46 -22.5,-5.31 -14.43,6.77 -10.47,-9.89l11.11 -20.7c2.08,-2.07 20.1,-10.74 28.72,-15.86 19.29,-11.46 2.78,-0.68 20.93,-17.16l-15.11 61.26c-0.65,-1.29 -2.87,2.94 -4.21,4.49 9.12,7.28 -10,12.06 33.93,12.44l1.43 -15.08c1.37,-6.21 -14.33,9.69 5.87,-12.83l10.34 34.36c34.66,-11.41 8.3,-11.72 40.69,-22.97l21.21 -9.73c70.65,-56.53 39.35,-25.31 74.73,-24.89 0.76,-1.67 0.87,-4.27 1.06,-5.38 0.19,-1.09 0.77,-3.98 1,-5.28 0.29,-1.78 1.25,-8.39 1.51,-10.1 2.85,-18.83 -4.95,0.21 2.03,-13.6 23.87,17.47 -1.91,-1.8 16.31,19.77 0.94,1.11 2.32,2.94 3.23,3.96l14.85 12.81c-23.94,18.16 -10,-3.07 -17.6,36.49 2.56,-0.94 5.19,-2.48 7.4,-3.5l102.79 -84.14c-24.38,-8.77 -34.57,0.9 -51.35,21.92l-51.14 -45.54c7.78,-14.33 -8.25,-8.11 13.14,-8.49l17.79 5.49c1.27,-2.17 4.63,2.18 6.88,3.39 -3.01,-33.3 -7.71,-18.43 12.48,-38.2l-32.29 -35.69c-0.85,-3.11 -3.27,-3.16 -5.1,-4.48l-8.17 39.31c-37.43,-4.81 -41.82,4.19 -59.11,25.36 -31.29,38.31 -18.6,34.36 -7.92,49.4 -26.54,-15.27 -27.84,-43.54 -67.46,-29.25 28.77,-19.59 26.45,-12.67 47.24,-14.81 1.39,-0.14 3.48,-0.35 4.91,-0.58 34.17,-5.34 -9.16,-8.21 35.06,-8.67 -1.26,-1.69 -2.64,-4 -3.38,-5.32l-20.9 -41.51c25.52,-28.25 21.04,-41.89 21.28,-42.55 19.43,11.01 7.83,24.35 36.49,42.09 6.65,-21.64 12.84,-52.49 -7.23,-72.56 -11.67,19.32 -19.3,15.32 -37.89,16.75 14.58,-12.1 28.57,-12 59.73,-9.51 -6.62,-27.17 0.95,-20.21 -15.04,-33.9 35.82,21.62 26.83,-13.81 29.66,-17.18 -22.31,-11.34 -4.8,0.13 -7.34,-21.81 -1.07,-9.24 -1.82,-15.61 -4.25,-27.65 12.35,6.32 14.13,9.65 19.54,17.8l8.54 24.17c0.29,0.68 1.69,2.42 1.96,3.15 4.98,13.79 7.83,1.96 -2.49,29.22 19.57,-3.26 31.8,-4.21 44.44,4.31 -23.99,44.7 23.04,-35.63 -13.8,15.76l-3.41 6.71c-0.2,-0.81 -1.2,2.16 -1.03,3.3 35.73,12.29 16.66,-1.81 30.67,-2.42 24.57,-1.04 -12.17,11.31 23.5,2.88 7.32,-36.15 0.05,-23.04 -18.07,-39.98 10.32,-23.92 23.37,-25.21 24.91,-27.09l-33.21 -3.74c-0.53,-1.38 -2.75,1.1 -4.17,1l-21.07 -35.93c30.25,4.94 10.55,3.4 25.44,11.66l32.12 -16.83c-7.28,35.31 7.74,10.85 10.75,11.27 17.11,2.4 -12.26,-20.61 12.77,3.87l10.55 26.98c10.37,16.09 -0.48,2.22 6.81,4.99 2.46,0.92 2.55,-0.84 6.14,0.28l26.04 15.34c-7.31,-26.77 -18.31,-55.68 34.42,-56.7l-49.86 -16.29c7.49,-25.74 -0.41,-28.51 -30.07,-36.56 1.62,-1.06 3.92,-2.24 5.02,-2.88 1.1,-0.62 3.6,-2.11 4.93,-2.87 27.71,-15.69 64.11,-22.94 90.63,-30.07 21.53,-5.79 14.91,-6.38 39.9,-8.05l-19.9 -12.18c-50.92,-1.5 -329.64,81.2 -402.18,100.92 -72.59,19.74 -349.78,104.14 -406.2,102.78l-13.92 -21.52 -8.46 -33.7 2.11 -479.61c-4.47,6.43 -6.2,8.2 -10.32,21.38l-3.66 44.36c1.25,103.75 -13.04,376.65 15.05,452.91l-24.08 -19.11 -5.92 -107.71c0.03,-2.25 0.22,-3.21 0.8,-4.46 -73.42,-1.14 -27.72,5.3 -43.79,-17.56z"/>
   <path fill="#4D5258" fill-opacity="0.309804" d="M3312.52 1841.46c-37.28,7.67 -96.01,14.51 -123.34,37.99l19.9 12.18c-24.99,1.67 -18.37,2.26 -39.9,8.05 -26.52,7.13 -62.92,14.38 -90.63,30.07 -1.33,0.76 -3.83,2.25 -4.93,2.87 -1.1,0.64 -3.4,1.82 -5.02,2.88 29.66,8.05 37.56,10.82 30.07,36.56l49.86 16.29c-52.73,1.02 -41.73,29.93 -34.42,56.7l-26.04 -15.34c-3.59,-1.12 -3.68,0.64 -6.14,-0.28 -7.29,-2.77 3.56,11.1 -6.81,-4.99l-10.55 -26.98c-25.03,-24.48 4.34,-1.47 -12.77,-3.87 -3.01,-0.42 -18.03,24.04 -10.75,-11.27l-32.12 16.83c-14.89,-8.26 4.81,-6.72 -25.44,-11.66l21.07 35.93c1.42,0.1 3.64,-2.38 4.17,-1l33.21 3.74c-1.54,1.88 -14.59,3.17 -24.91,27.09 18.12,16.94 25.39,3.83 18.07,39.98 -35.67,8.43 1.07,-3.92 -23.5,-2.88 -14.01,0.61 5.06,14.71 -30.67,2.42 -0.17,-1.14 0.83,-4.11 1.03,-3.3l3.41 -6.71c36.84,-51.39 -10.19,28.94 13.8,-15.76 -12.64,-8.52 -24.87,-7.57 -44.44,-4.31 10.32,-27.26 7.47,-15.43 2.49,-29.22 -0.27,-0.73 -1.67,-2.47 -1.96,-3.15l-8.54 -24.17c-5.41,-8.15 -7.19,-11.48 -19.54,-17.8 2.43,12.04 3.18,18.41 4.25,27.65 2.54,21.94 -14.97,10.47 7.34,21.81 -2.83,3.37 6.16,38.8 -29.66,17.18 15.99,13.69 8.42,6.73 15.04,33.9 -31.16,-2.49 -45.15,-2.59 -59.73,9.51 18.59,-1.43 26.22,2.57 37.89,-16.75 20.07,20.07 13.88,50.92 7.23,72.56 -28.66,-17.74 -17.06,-31.08 -36.49,-42.09 -0.24,0.66 4.24,14.3 -21.28,42.55l20.9 41.51c0.74,1.32 2.12,3.63 3.38,5.32 -44.22,0.46 -0.89,3.33 -35.06,8.67 -1.43,0.23 -3.52,0.44 -4.91,0.58 -20.79,2.14 -18.47,-4.78 -47.24,14.81 39.62,-14.29 40.92,13.98 67.46,29.25 -10.68,-15.04 -23.37,-11.09 7.92,-49.4 17.29,-21.17 21.68,-30.17 59.11,-25.36l8.17 -39.31c1.83,1.32 4.25,1.37 5.1,4.48l32.29 35.69c-20.19,19.77 -15.49,4.9 -12.48,38.2 -2.25,-1.21 -5.61,-5.56 -6.88,-3.39l-17.79 -5.49c-21.39,0.38 -5.36,-5.84 -13.14,8.49l51.14 45.54c16.78,-21.02 26.97,-30.69 51.35,-21.92l-102.79 84.14c-2.21,1.02 -4.84,2.56 -7.4,3.5 7.6,-39.56 -6.34,-18.33 17.6,-36.49l-14.85 -12.81c-0.91,-1.02 -2.29,-2.85 -3.23,-3.96 -18.22,-21.57 7.56,-2.3 -16.31,-19.77 -6.98,13.81 0.82,-5.23 -2.03,13.6 -0.26,1.71 -1.22,8.32 -1.51,10.1 -0.23,1.3 -0.81,4.19 -1,5.28 -0.19,1.11 -0.3,3.71 -1.06,5.38 -35.38,-0.42 -4.08,-31.64 -74.73,24.89l-21.21 9.73c-32.39,11.25 -6.03,11.56 -40.69,22.97l-10.34 -34.36c-20.2,22.52 -4.5,6.62 -5.87,12.83l-1.43 15.08c-43.93,-0.38 -24.81,-5.16 -33.93,-12.44 1.34,-1.55 3.56,-5.78 4.21,-4.49l15.11 -61.26c-18.15,16.48 -1.64,5.7 -20.93,17.16 -8.62,5.12 -26.64,13.79 -28.72,15.86l-11.11 20.7c-3.96,16.66 -12.03,4.58 10.47,9.89 2.08,14.4 1.86,47.53 1.96,49.46l11.8 27.27 36.53 -2.39c4.73,12.44 1.16,-1.32 -0.51,9.63l-12.39 57.84 -19.63 -1.28c-7.48,-2.81 -12.11,-5.64 -14.09,-6.88l27.3 -27.9c-18.11,4.41 -8.75,3.73 -17.25,-8.67 -7.71,32.73 -26.81,23.84 -14.61,71.78 -50.75,-17.46 -9.8,-26.64 -61.66,-5.99 4.18,24.95 39.04,72.05 -9.2,50.67 -19.8,-8.78 -16.94,-24.11 -31.39,-43.4 -0.98,0.35 -2.34,0.28 -2.72,1.52l-26.5 13.09c-28.46,-42.59 -6.03,-26.14 -5.98,-26.19 -23.29,9.27 -9.92,16.22 -13.78,41.35 -0.21,1.43 -0.52,5.07 -2.2,6.84 3.69,-3.9 -6.1,-30.29 31.09,13.56 2.05,2.42 4.35,5.16 5.44,8.28 -26.49,-6.45 -21.39,0 -72.98,0 1.16,-8.29 6.6,-22.48 7.14,-24.42l-0.3 -22.35c-3.75,-14.62 -5.87,-1.36 -6.84,-33.52 21,-3.72 25.62,-10.77 43.83,-14.65 -22.81,-4.74 -7,-1.03 -21.92,-7.34l13.43 -71.24c0.24,-1.76 1.5,-6.59 1.68,-8.12l-1.96 -21.76c-3.61,-22.04 4.09,-7.12 -13.18,-30.39 -14.75,5.97 -15.28,14.47 -19.99,28.09 -0.76,2.17 -4.59,16.96 -4.83,18.6 -8.9,62.41 20.87,-41.24 -1.3,17.91 -0.97,2.6 -9.46,14.19 -11.18,15.52 -1.12,0.86 -3.18,2.21 -4.37,2.88l-8.94 3.13c-0.85,0.23 -3.19,0.21 -3.96,0.34 -6.33,1.06 -9.56,-24.7 -11.22,16.31 0.18,-0.46 -20.35,-12.47 22.35,-3.41 1.31,0.28 5.24,1.25 6.95,2.99 21.23,-27.35 -13.92,12.35 6.65,-21.23 21.4,-34.94 3.35,-17.64 44.41,-20.47l-11.48 27.46c-0.74,1.79 -1.66,3.51 -2.35,5.3l-8.08 52.7 -14.78 -8.49c-5.34,-3.27 -11.48,-7.76 -12.85,-8.3l-43.84 19.52c-1.05,0.71 -2.82,2.1 -3.78,2.78l-12.64 9.14c3.97,13.95 -2.64,7.33 29.44,7.34 -2.22,2.93 -4.93,4.24 -6.54,8.89 -8.3,23.96 -18.43,6.46 -19.66,5.72l33.54 21.92c-2.07,-1.28 -3.52,-8.84 -2.81,-10.19 0.43,-0.83 1.38,-3.01 2.1,-3.9l27.76 -1.49c3.67,19.52 2.29,33.53 -9.86,42.93 -0.67,0.52 -2.59,1.77 -3.3,2.13 -34.13,16.89 -5.2,7.9 -13.93,-0.33 5.98,28.83 8.62,7.06 7.34,36.57 -38.53,1.25 -68.81,4.93 -80.32,36.52l471.68 -134.67c34.14,-9.69 65.27,-16.64 97.25,-26.96 26.64,-8.58 63.3,-19.54 90.07,-26.81 19.26,-5.24 26.83,-6.24 46.99,-11.72 19.83,-5.4 34.09,-8.7 39.21,-19.01 24.84,-23.65 40.08,-30.39 72.99,-21.96 -4.51,-17.46 -7.17,-29.13 -10.54,-51.1 15.47,-2.58 22.91,-10.19 32.45,-21.88 -18.23,-9.87 -9.32,-12.93 -23.12,-29.26 18.83,-12.03 10,9.07 12.59,-25.19 20.26,29.61 0.51,8.24 32.45,17.85 -1.15,-38.1 9.67,-35.43 -14.61,-43.84 1.47,1.93 10.7,-4.41 40.57,0.52 1.93,0.32 13.09,3.8 15.45,4.36 -2.1,-14.6 -6.18,-28.51 -4.84,-34.91 25.86,-14.62 -4.08,4.72 25.36,-2.62 0.13,-0.04 11.2,-4.59 12.68,-5.34 3.67,-1.89 6.69,1.2 8.73,-5.6 0.66,-2.17 2.83,-2.18 4.37,-3.08 10.86,6.56 24.96,33.11 40.97,4.18l7.31 -22.26c0.51,-1.11 1.74,-2.94 2.29,-4.06 25.03,-50.27 -1.87,-51.67 -22.16,-67.5 -7.91,40.42 -11.28,37.83 0.81,55.17 -17.81,-12.26 0.02,0.67 -14.59,-13.5l-30.09 -7.64c-6.95,-10.29 16.17,-28.2 -28.41,-25.15 5.65,-20.86 -7.4,-6.87 14.61,-19.5 -3.68,9.73 -20.7,-15.61 3.7,6.89l20.59 5.95c9.23,-0.76 0.86,21.75 10.06,-2.67 12.35,-32.8 6.61,23.65 8.59,-16.81l-2.22 -20.1c-2.39,-22.86 4.2,-35.76 -4.12,-47.93l17.87 39.06c0.73,-1.23 2.37,4.75 4.01,6.79 26.79,-7.42 28.9,-3.9 36.53,-33.26 10.35,37.09 25.29,12.3 50.33,29.63l-17.03 -86.83c66.83,15.55 -48.18,-17.32 23.7,12.34 28.21,11.64 24.03,10.57 39.89,-18.95 22.07,-41.09 23.86,-33.02 61.38,-21.84 -2.51,-24.48 -1.95,-13.5 3.39,-27.52 12.62,-33.15 -2.76,-2.56 15.99,-20.66 11.19,-10.81 10.51,-15.96 36.64,-15.92 -13.64,-21.54 -15.98,-7.27 -6.05,-19.36 0.24,-0.3 13.28,-11.26 13.95,-11.87l-24.93 5.24c-9.32,-19.81 9.75,-34.53 -55.99,-20.27 13.41,-36.46 6.46,3.94 -10.61,-26.03 17.03,-0.54 16.34,2.77 27.17,-5.25 17.62,-13.06 26.75,3.99 2.66,-14.83l-16.07 -1.88 -216.36 59.47z"/>
   <path fill="#52565C" fill-opacity="0.309804" d="M2873.02 1063.59c-135.55,14.05 -567.61,144.79 -673.13,155.93 -12.95,99.53 -8.77,592.43 -8.32,730.94 0.39,117.22 4.26,675.75 -5.24,721.55l29.22 -6.54c11.81,-46.41 7.67,34.48 -0.64,-11.03l-6.51 -125.59c2.67,-22.15 3.53,-13.31 5.02,-21.44 0.27,-1.47 0.9,-3.55 1.08,-4.99l-1.08 -19.46c-4.71,-35.1 3.94,-13.34 4.96,-63.74 0.05,-2.24 -0.29,-20.02 -0.39,-21.81l-6.77 -37.55c-0.02,-0.64 4.26,-36.86 4.26,-51.8 38.48,3.62 47.58,-19.37 44.29,-35.41 -3.23,-15.75 -9.02,-24.48 -28.56,-21.44 -11.77,1.83 -14.17,12.58 -16.52,17.31 -0.51,1.05 -1.33,3.59 -1.63,5.47 3.28,-7.57 10.81,-21.71 12.05,-22.97l26.9 -16.02c-15.36,-45.17 19.81,-20.76 -36.53,-29.15 19.19,8.85 -5.19,-42.08 -5.32,-42.47 -5.97,-18.39 12.3,-109.28 12.62,-154.79l-7.3 -0.02c0.36,-1.16 2.12,-3.65 2.32,-2.77 0.22,0.9 2.08,-2.41 2.35,-2.89l5.36 -27.71c-0.28,-8.71 0.04,-13.84 0.03,-20.36 -0.1,-50.75 -9.9,-27.85 6.35,-26.83 23.23,1.46 26.1,-0.32 33.42,-11.14 4.36,-13.02 4.82,-38.15 25.46,-44.92 29.69,-9.72 5.05,-0.89 18.49,2.6l0.64 33.87 -21.29 9.71c16.07,22.86 -29.63,16.42 43.79,17.56 -0.58,1.25 -0.77,2.21 -0.8,4.46l5.92 107.71 24.08 19.11c-28.09,-76.26 -13.8,-349.16 -15.05,-452.91l3.66 -44.36c4.12,-13.18 5.85,-14.95 10.32,-21.38 24.56,-74.9 102.56,-76.67 182.45,-95.07 73.84,-17.01 157.83,-45.35 232.42,-57.79 -20.97,-18.26 -15.86,3.99 -82.24,-32.16l-9.08 -4.98c15.16,-31.15 29.71,-11.66 48.55,1.58l8.84 6.23c21.61,14.35 3.97,8.98 21.18,10.43 2.06,0.17 31.2,-8.25 33.67,-8.94 -1.65,-1.37 -3.89,-2.96 -4.99,-4.06 -1.07,-1.08 -3.45,-2.85 -4.68,-4.23 -20.21,-22.6 -10.6,-5.83 -15.88,-32.21 -22.12,25.72 -33.23,16.75 -47.48,10.94 -0.29,-16.53 10.05,-18.87 17.59,-28.2 -41.79,19.64 -38.68,0.82 -41.59,-2.72l12.37 -22.53c43.68,9.76 32.12,30.98 69.28,-10.09l26.32 -25.74c-37.81,-8.07 -39.56,-40.57 -30.84,-66.45 46.29,20.82 -5.42,1.55 25.44,29.09 12.15,10.85 14.72,12.52 34.66,10.74 25.75,-41.64 -3.57,-34.93 -21.99,-52.03 -22.51,-20.87 20.65,-1.75 -17.04,-21.07 -0.72,-0.37 -2.95,-1.01 -3.71,-1.27 -53.09,-18.29 18.96,17.23 -16.36,-1.33 27.45,-11.21 13.82,-3.66 33.92,-4.81l37.64 -4.07c11.33,-0.42 -2.16,3.03 10.19,-0.82 1.54,-0.49 17.88,-9.85 22.84,-12.22l27.53 43.8c-13.48,-60.92 3.24,-1.18 3.87,-38.48 0.37,-21.57 -6.64,-13.97 -12.69,-28.91l42.38 3.69c1.6,23.35 1.52,25.21 -6.94,41.82 26.29,-13.09 13.68,-17.39 24.56,-34.85 13.37,4.88 21.04,5.9 30.33,4.79 30.8,-3.68 9.52,4.28 23.82,-9.12 0.22,-41.04 -18.91,-18.16 -48.5,-19.27 -7.67,-17.42 -1.76,-23.48 -5.65,-33.56 -11.79,13.62 -9.92,36.66 -10.32,52.47 -34.38,-13.23 -49.87,-23.63 -83.19,-3.58 -21.75,13.07 -9.09,16.15 -33.7,21.2 21.39,-29.63 4.39,-37.52 50.48,-31.9 -0.95,-2.49 -2.71,-5.35 -3.54,-7.16 -0.75,-1.63 -2.43,-4.63 -3.21,-6.43 -0.64,-1.47 -1.81,-4.06 -2.36,-5.41 -4.74,-11.56 -5.13,7.74 -1.86,-10.05z"/>
   <path fill="#0E0E0E" fill-opacity="0.309804" d="M3128.53 1327.72l8.85 7.14c0.96,0.73 3.53,2.56 4.41,3.19 0.83,0.63 3.71,4.22 4.34,2.93 0.63,-1.26 2.88,1.83 4.32,2.74 -70.95,132.33 21.12,71.55 -75.63,102.24 51.62,11.14 10.12,14.9 51.35,31.77 26.95,11.03 50.12,-2.77 37.89,32.24l9.69 9.45c13.02,21.46 4.42,131.2 3.39,158.39l-10.43 -116.28c-0.98,1.89 -2.29,3.68 -3.21,5.82 -20.94,48.47 20.25,111.91 -28.59,128.15l36.47 5.54c-70.5,36.38 -227.06,55.57 -313.95,91.14 -82.32,73.65 -160.17,89.24 -209.75,114.35 -10.87,5.5 -19.78,9.39 -29.85,14.57 -24.15,12.45 3.11,2.38 -29.43,13.37 -141.28,47.73 -159.04,-4.41 -194.81,20.22 -1.19,-2.26 -5.94,-12.79 -6.97,-14.35 -9.64,-14.66 -0.8,-2.86 -13.37,-14.88 5.69,49.94 -8.23,96.2 -6.37,136.17l13.92 21.52c56.42,1.36 333.61,-83.04 406.2,-102.78 72.54,-19.72 351.26,-102.42 402.18,-100.92 27.33,-23.48 86.06,-30.32 123.34,-37.99l-23.59 -15.55 104.09 -101.04c6.33,-5.77 8.72,-7.71 15.23,-13.99 89.06,-85.87 25.32,-23.75 82.12,-63.95 8.29,-5.86 8.52,-7.72 15.69,-12.83l30.64 -22c-52.5,10.41 -98.24,23.32 -147.43,35.81 -106.6,27.06 -93.28,28.92 -114.36,-26.53 18.41,-7.09 18.01,-1.8 29.22,-13.85 -45.59,-21 4.4,7.51 -8.58,-6.59 -16.89,-18.36 -11.66,-9.93 -10.42,-67.27l12.51 -7.69c0.88,-3.3 3.29,-4.27 5.2,-6.16 -11.78,-4.03 -28.99,4.01 -18.55,-34.03 7.92,-28.9 38.25,-23.55 94.72,-38.09 51.62,-13.3 100.48,-29.63 155,-35.81 0.45,30.58 3.82,21.02 -6.89,47.44l11.07 8.53c1.12,-2.56 4.35,-5.16 6.97,-7.25l0 -45.52c-11.27,13.91 0.6,36.05 3.86,60.49 9.5,71.11 1.52,62.62 -6.64,72.7 7.9,4.45 7.84,10.89 21.65,-1.92 -20.74,-34.09 -18.88,-113.16 -3.47,-150.38l38.02 0.99c-3.09,-32.15 22.1,16.7 -6.85,-13.36 -10.77,-11.19 -15.59,-12.97 -38.56,-9.68l-128.08 34.69c-45.5,9.36 -99.83,41.35 -117.73,6.75 -2.3,-4.43 -10.83,-19.25 -34.46,-26.14l-16.75 13.02c16.93,5.73 17.81,-3.6 19.41,-3.08 24.81,8.09 15.16,15.16 18.01,24.38 -47.21,-4.36 -31.46,-9.14 -62.53,-20.24 -17.65,20.49 -3.46,14.65 -29.22,32.74 -40.01,12.47 -58.23,-26.12 -47.85,-44.6 7.16,-12.75 56.11,-19.61 69.73,-18.76 -15.91,-17.04 18.88,-14.32 -17.04,-14.32 8.95,5.93 -13.01,11.3 13.47,2.47 9.81,-3.27 5.8,31.34 17.48,-33.23 1.33,-7.34 0.57,-12.02 0.69,-20.61l-24.33 2.6 -85.44 18.12z"/>
   <path fill="#56585E" fill-opacity="0.309804" d="M2009.28 2691.3l140.45 -8.03c27.13,-6.82 14.57,-1.55 27.88,-13.27l-36.49 2.79 5.52 -177.87c-5.51,-32.22 -4.48,-49.68 1.29,-84.72 13.39,-81.35 4.4,-175.74 -0.44,-269.99l-2.86 -523.72c0.24,-1.68 3.47,-17.34 3.81,-21.19l-5.99 -210.66c-1.13,-7.99 -2.82,-122.12 6.15,-141.92 9.42,-20.78 -3.64,-1.42 6.89,-8.63 -35.75,-0.33 -38.64,-2.09 -56.83,-20.37l-96.39 12.02c18.46,59.94 7.7,608.37 7.01,724.36 -1.5,246.6 -1.2,494.7 0,741.2z"/>
   <path fill="#4C5056" fill-opacity="0.309804" d="M3655.2 1748.62c-35.07,12.49 -84.9,15 -110.25,35.25 24.09,18.82 14.96,1.77 -2.66,14.83 -10.83,8.02 -10.14,4.71 -27.17,5.25 17.07,29.97 24.02,-10.43 10.61,26.03 65.74,-14.26 46.67,0.46 55.99,20.27l24.93 -5.24c-0.67,0.61 -13.71,11.57 -13.95,11.87 -9.93,12.09 -7.59,-2.18 6.05,19.36 -26.13,-0.04 -25.45,5.11 -36.64,15.92 -18.75,18.1 -3.37,-12.49 -15.99,20.66 -5.34,14.02 -5.9,3.04 -3.39,27.52 -37.52,-11.18 -39.31,-19.25 -61.38,21.84 -15.86,29.52 -11.68,30.59 -39.89,18.95 -71.88,-29.66 43.13,3.21 -23.7,-12.34l17.03 86.83c-25.04,-17.33 -39.98,7.46 -50.33,-29.63 -7.63,29.36 -9.74,25.84 -36.53,33.26 -1.64,-2.04 -3.28,-8.02 -4.01,-6.79l-17.87 -39.06c8.32,12.17 1.73,25.07 4.12,47.93l2.22 20.1c-1.98,40.46 3.76,-15.99 -8.59,16.81 -9.2,24.42 -0.83,1.91 -10.06,2.67l-20.59 -5.95c-24.4,-22.5 -7.38,2.84 -3.7,-6.89 -22.01,12.63 -8.96,-1.36 -14.61,19.5 44.58,-3.05 21.46,14.86 28.41,25.15l30.09 7.64c14.61,14.17 -3.22,1.24 14.59,13.5 -12.09,-17.34 -8.72,-14.75 -0.81,-55.17 20.29,15.83 47.19,17.23 22.16,67.5 -0.55,1.12 -1.78,2.95 -2.29,4.06l-7.31 22.26c-16.01,28.93 -30.11,2.38 -40.97,-4.18 -1.54,0.9 -3.71,0.91 -4.37,3.08 -2.04,6.8 -5.06,3.71 -8.73,5.6 -1.48,0.75 -12.55,5.3 -12.68,5.34 -29.44,7.34 0.5,-12 -25.36,2.62 -1.34,6.4 2.74,20.31 4.84,34.91 -2.36,-0.56 -13.52,-4.04 -15.45,-4.36 -29.87,-4.93 -39.1,1.41 -40.57,-0.52 24.28,8.41 13.46,5.74 14.61,43.84 -31.94,-9.61 -12.19,11.76 -32.45,-17.85 -2.59,34.26 6.24,13.16 -12.59,25.19 13.8,16.33 4.89,19.39 23.12,29.26 -9.54,11.69 -16.98,19.3 -32.45,21.88 3.37,21.97 6.03,33.64 10.54,51.1 -32.91,-8.43 -48.15,-1.69 -72.99,21.96 48.75,-0.78 384.07,-102.07 459.35,-125.12 31.02,-9.5 51.44,-7.35 59.37,-21l29.15 -29.19c-17.37,-3.26 -36.11,-22.84 -52.12,-8.79 -1.08,0.94 -5.57,10.1 -6.29,12.43 -10.75,-47.17 9.33,-14.72 -29.26,-40.17 38.24,9.34 12.85,-8.39 21.91,-21.91 -11.38,-8.19 -10.55,-28.45 -14.6,-43.87 14.16,15.66 6.81,-3.22 28.05,7.3 -26.05,11.87 -25.37,30.92 -20.68,58.41 32.4,-10.55 8.36,11.27 32.97,-18.76 1.18,-1.44 2.06,-3.28 2.9,-4.8l7.93 -64.11c38.25,4.05 -15.18,4.79 14.32,9.6l9.54 -2.04c1.37,-0.69 12.1,-10.6 12.67,-11.16 -7.03,16.84 -18.3,43.04 7.78,49.6 22.12,5.57 16.21,0.07 32.96,-11.35 19.08,-13.03 40.91,-24.44 51.86,-46.08l6.41 -20.24c15.8,-53.78 0.05,-26.57 -14.18,-51.51 -6.81,-11.95 -2.88,-18.24 2.81,-40.95 -18.34,7 -32.89,16.15 -18.21,23.13 -19.88,-5.62 8.21,1.59 -10.68,-7.84 -12.96,-6.48 -18.58,3.7 -22.26,-15.29 5.41,8.52 -4.41,4.04 12.63,-1.62 30.17,-10.03 -19.76,-13.97 31.21,-5.75 -1.36,-2.83 -3.36,-5.67 -4.95,-7.99l-19.39 -21.24 21.92 -46.23 -36.72 0.27c-1.6,0.11 -4.93,2.9 -6.04,0.97 -1.1,-1.91 -4.08,0.33 -5.89,1.19 -13.86,53.15 9.71,2.7 7.28,34.71l-37.6 -41.4c-16.39,-16.39 -19.91,-33.11 -45.23,-33.47 35.56,0.82 25.24,-38.67 31.72,-21.96 33.54,7.6 7.88,-5.05 21.91,40.17 21.53,-2.9 29.48,0.07 45.29,-15.44l16.94 -76.62c0.31,-42.2 -0.17,-9.21 -3.85,-11.44 12.04,1.4 16.46,11.8 11.98,26.22 -0.3,0.94 -1.7,2.76 -2.07,3.71 -0.38,1 -2.07,2.7 -2.44,3.75 -0.45,1.29 -3.4,6.57 -3.53,8.43l9.46 23.64 30.95 -50.1c11.71,-14.74 26.98,-4.19 50.63,-14.43 -18.86,-22.6 -22.84,-19.11 -51.11,-26.74 1.03,-0.98 7.79,-8.16 8.71,-9.12l26.53 -20.18c16.68,-7.08 36.07,-8.66 52.43,-17.03l9.69 15.63c1.01,1.17 4.51,4.84 5.78,6.07l25.78 13.95c1.66,-0.15 15.24,-5.85 16.96,-6.38l30.54 2.5c0.16,0.05 13.57,4.29 15.96,4.76l4.85 -43.76c-2.63,1.25 -5.1,3.25 -7.32,4.74 -26.26,17.78 -0.96,48.49 -24.06,16.54 -0.96,-1.33 -3.25,2.35 -5.12,3.02 -0.51,-1.26 0.5,-3.39 0.56,-4.05 2.28,-25 -20.84,-27.61 14.02,-27.62 -15.94,-20.65 22.75,-29.87 -23.07,-13.09 -42.25,-1.69 -218.3,54.7 -276.02,67.34z"/>
   <path fill="#4B4E55" fill-opacity="0.309804" d="M4018.01 1656.02c-19.33,-5.08 -70.78,13.78 -86.79,25.26 45.82,-16.78 7.13,-7.56 23.07,13.09 -34.86,0.01 -11.74,2.62 -14.02,27.62 -0.06,0.66 -1.07,2.79 -0.56,4.05 1.87,-0.67 4.16,-4.35 5.12,-3.02 23.1,31.95 -2.2,1.24 24.06,-16.54 2.22,-1.49 4.69,-3.49 7.32,-4.74l-4.85 43.76c-2.39,-0.47 -15.8,-4.71 -15.96,-4.76l-30.54 -2.5c-1.72,0.53 -15.3,6.23 -16.96,6.38l-25.78 -13.95c-1.27,-1.23 -4.77,-4.9 -5.78,-6.07l-9.69 -15.63c-16.36,8.37 -35.75,9.95 -52.43,17.03l-26.53 20.18c-0.92,0.96 -7.68,8.14 -8.71,9.12 28.27,7.63 32.25,4.14 51.11,26.74 -23.65,10.24 -38.92,-0.31 -50.63,14.43l-30.95 50.1 -9.46 -23.64c0.13,-1.86 3.08,-7.14 3.53,-8.43 0.37,-1.05 2.06,-2.75 2.44,-3.75 0.37,-0.95 1.77,-2.77 2.07,-3.71 4.48,-14.42 0.06,-24.82 -11.98,-26.22 3.68,2.23 4.16,-30.76 3.85,11.44l-16.94 76.62c-15.81,15.51 -23.76,12.54 -45.29,15.44 -14.03,-45.22 11.63,-32.57 -21.91,-40.17 -6.48,-16.71 3.84,22.78 -31.72,21.96 25.32,0.36 28.84,17.08 45.23,33.47l37.6 41.4c2.43,-32.01 -21.14,18.44 -7.28,-34.71 1.81,-0.86 4.79,-3.1 5.89,-1.19 1.11,1.93 4.44,-0.86 6.04,-0.97l36.72 -0.27 -21.92 46.23 19.39 21.24c1.59,2.32 3.59,5.16 4.95,7.99 -50.97,-8.22 -1.04,-4.28 -31.21,5.75 -17.04,5.66 -7.22,10.14 -12.63,1.62 3.68,18.99 9.3,8.81 22.26,15.29 18.89,9.43 -9.2,2.22 10.68,7.84 -14.68,-6.98 -0.13,-16.13 18.21,-23.13 -5.69,22.71 -9.62,29 -2.81,40.95 14.23,24.94 29.98,-2.27 14.18,51.51l-6.41 20.24c-10.95,21.64 -32.78,33.05 -51.86,46.08 -16.75,11.42 -10.84,16.92 -32.96,11.35 -26.08,-6.56 -14.81,-32.76 -7.78,-49.6 -0.57,0.56 -11.3,10.47 -12.67,11.16l-9.54 2.04c-29.5,-4.81 23.93,-5.55 -14.32,-9.6l-7.93 64.11c-0.84,1.52 -1.72,3.36 -2.9,4.8 -24.61,30.03 -0.57,8.21 -32.97,18.76 -4.69,-27.49 -5.37,-46.54 20.68,-58.41 -21.24,-10.52 -13.89,8.36 -28.05,-7.3 4.05,15.42 3.22,35.68 14.6,43.87 -9.06,13.52 16.33,31.25 -21.91,21.91 38.59,25.45 18.51,-7 29.26,40.17 0.72,-2.33 5.21,-11.49 6.29,-12.43 16.01,-14.05 34.75,5.53 52.12,8.79l-29.15 29.19c37.79,-2.22 160.53,-38.05 189.95,-51.14 0.45,-1.07 3.07,-16.8 7.31,-21.89l116.82 -36.52c-8.22,-3.39 -5.83,12.01 -10.65,-32.72l3.38 -40.41c5.8,25.52 9.66,25.11 36.53,26.39 9.28,-21.31 6.48,2.15 -1.05,-11.67l18.81 -20.47c21.47,-3.31 0.85,2.79 17.93,-2.37l-62.49 -74.67c2.13,1.18 12.35,4.82 13.71,4.97 36.06,3.88 12.57,-1.45 13.12,-2.55 18.44,-1.66 7.98,-1.75 19.6,-11.39 31.07,-25.74 -20.63,-1.55 9.6,-10.93l21.88 28.82c-0.1,0.41 -21.29,21.7 33.3,1.65 -4.34,-20.49 -4.69,-16.49 -9.13,-24.63 -0.11,-0.2 -3.93,-7.81 -13.04,-16.78 -9.46,-9.32 -6.79,-5.89 -16.3,-13.12l-16.75 -12.03c11.86,19.3 2.04,3.65 29.22,7.27 -6.51,-37.02 -8.11,-22.67 0,-58.44 -0.29,1.13 0.67,2.06 0.95,3.38 0.24,1.2 1.09,2.7 1.51,2.8l33.26 -13.42c-46.83,-17.77 -39.07,-34.12 -42.01,-51.43 -0.21,-1.22 -0.73,-3.71 -0.96,-4.78 -0.33,-1.61 -1.76,-5.86 -2.04,-6.85 -1.04,-3.55 -11.06,-2.62 -1.25,-2.77 10.3,-47.9 -10.25,4.04 9.06,-13.4 5.53,-5 -7.01,4.15 8.99,-6.82 1.55,-1.06 3.54,-1.93 5.17,-2.94 1.64,-1.01 3.67,-1.83 5.31,-2.79 13.77,-8.04 18.94,-6.78 25.92,-17.88 -52.16,8.57 9.32,20.01 -26.32,78.35 -3.23,5.28 -5.38,4.92 -10.21,16.66 2.06,1.26 5.47,-0.03 6.69,2.73l23.28 5.73c34.5,1.67 69.93,-19.24 57.63,-66.87 -45.41,17.77 -13.18,7.41 -36.49,38.11 1.43,-29.62 -5.66,-43.6 -7.35,-53.61 71.28,-2.94 -1.7,-6.16 74.71,-11.55l12.15 -2.21c-5.42,-19.27 -17.44,-20.28 -22.54,-22.34 -0.98,-0.39 -3.33,-0.28 -4.26,-0.66l-15.94 -14.29c-27.96,-37.28 -23.49,-13.95 -34.35,-43.07 17.75,12.06 24.55,1.61 55.18,13.76 -4.12,-23.85 -3.06,-28.27 -16.63,-42.99 -0.46,0.53 -0.29,1.33 -0.18,2.08 0.16,1.16 -13.7,2.12 2.19,2.73 0.46,0.02 2.59,0.18 3.19,0.13l16.72 -4.94 -29.23 -29.22c27.21,-4.47 30.35,-8.44 46.66,-29.19l-27.62 2.05 -127.83 39.9z"/>
   <path fill="#252729" fill-opacity="0.309804" d="M1864.8 2658.82l-21.88 0.77c5.6,31.33 5.84,41.66 35.04,50.33 -11.88,-12.86 -14.41,-15.34 -22.49,-38.34 46.13,3.97 92.8,13.11 140.81,21.08 36.23,6 119.52,11.14 153.45,-9.39l-140.45 8.03 -27.8 -4.51c-11.85,-45 -3.47,-622.64 -4.09,-722.07 -1.47,-237.88 -6.16,-486.67 -0.28,-723.33 -28.33,-12.47 -50.54,-10.47 -83.01,-10.73 -24.01,3.44 -5.71,1.56 -15.53,6.27 20.46,38.46 -7.45,1253.99 -0.73,1423.97l-13.04 -2.08z"/>
   <path fill="#34393B" fill-opacity="0.309804" d="M1976.77 1230.42c-5.88,236.66 -0.85,496.42 0.62,734.3 0.62,99.43 -7.76,677.07 4.09,722.07l27.8 4.51c-1.2,-246.5 -1.5,-494.6 0,-741.2 0.69,-115.99 -7.01,-724.36 -7.01,-724.36 0,0 -25.5,4.68 -25.5,4.68z"/>
   <path fill="#4A4E54" fill-opacity="0.309804" d="M4090.68 765.76c39.23,49 40.12,-4.86 41.39,20.91 1.81,36.84 -17.16,11.35 -23.31,10.9 -2.48,-0.18 -2.71,-35.12 -22.93,20.12 21.4,-8.92 36.75,-3.84 40.81,21.92 -34.12,35.13 17.61,-12.61 -29.84,7.31 2.09,0.84 5.27,-0.57 6.4,2.2 4.2,10.25 5.03,-3.52 28.89,14.83 21.97,-40.76 -1.34,-22.17 24.34,-29.23 -13.01,-14.98 17.58,-9.33 -26.77,-14.61l29.23 -35.28c0.98,1.59 2.67,2.13 2.95,4.75l0.72 46.36 32.84 5.2c1.96,0.81 8.59,5.56 17.05,8.2l4.02 -10.35c14.81,-29.58 -3.3,-6.35 19.15,-12.75 -20.8,13.24 -12.65,-6.09 -10.75,19.15 2.18,29.19 7.71,15.44 11.96,19.77 -16.3,7.02 -9.76,-5.29 -21.05,9.35 -13.17,17.09 -1.15,0.16 -2.98,10.74l-39.3 -15.21c-12.19,16.05 -9.78,21 -9.77,49.89l-70.64 -10.65c-7.93,16.81 -0.32,19.42 -7.26,47.22 -15.91,-6.68 0.59,-2.65 -11.16,0.16 -19.75,4.73 -18.24,12.9 -61.9,1.66 -16.65,22.13 -2.47,22.73 -21.91,33.46l-7.08 -40.9c0.29,-1.55 1.05,-3.72 1.4,-5.27 4.11,-17.61 11.6,-21.56 -6.52,-35.4 12.4,11.33 18.06,-11.94 4.28,17.15 -8.94,18.86 7.14,13.76 -21.34,9.65 5.14,1.36 7.34,-10.86 8.04,7.63l-8.01 24.01c-21.4,-14.66 -24.18,-12.81 -29.23,-40.77 0.54,12.3 9.58,19.03 14.58,57.81 -27.78,-1.18 -60.78,3.76 -45.05,-21.92l-8.12 28.85 78.38 -0.33c1.04,0.18 3.13,0.7 4.11,0.93l17.77 35.18c-52.21,0.45 -21.43,6.28 -61.67,8.43 -12.22,-13.2 -11.18,4.02 -14.6,-21.92 -0.48,2.39 -1.83,5.89 -2.37,6.97l-19.59 29.56c2.82,-3.48 -8.14,-14.88 16.71,-4.3 1.38,0.59 3.48,1.77 4.89,2.68l14.93 16.27c-0.59,0.31 -4.6,38.48 -29.18,-0.04l-21.96 0.02c8.91,19.75 9.79,4.57 14.65,29.28 0.07,-0.36 4.59,-8.4 5.68,-9.03l16.4 -2.72c56.66,10.02 28.91,11.79 33.62,23.24l404.54 -101.71c-23.08,-49.2 10.09,-2.01 2.99,-68.83 -1.68,-15.79 -10.26,-10.23 -1.58,-43.06 0.54,-2.03 4.26,-11.61 5.89,-17.11 14.17,24.82 2.79,12.21 36.53,21.89 -0.85,-2.28 -4.87,-13.45 -5.2,-15.28 -0.33,-1.76 -1.41,-4.77 -1.66,-6.81l6.9 -27.81c22.39,44.49 12.29,6.34 0.03,49.9 0.24,-0.05 20.21,-5.35 22.2,-5.68 19.52,-3.15 22.96,-2.5 36.21,22.75 9,-15.84 -2.61,-6.44 13.21,-15.06 11.67,-6.35 4.7,-4.18 23.32,-1.98l-14.61 -53.59 45.04 -12.16c2.02,-15.4 3.46,-18.97 8.53,-36.53l-31.65 -7.31c9.28,-13.03 12.27,-19.35 28.07,-28.22 32.51,-18.25 37.28,0.42 37.08,-65.42 -0.09,-33 -7.09,-16.36 7.86,-42.11l-484.6 113.05z"/>
   <path fill="#0B0B0B" fill-opacity="0.309804" d="M3732.2 1337.08c-18.32,-15.24 -11.09,-5.3 -29.6,-15.28l0.12 -29.23c16.29,-18.27 15.82,-7.99 29.78,-31.11 7.73,4.78 10.39,2.26 17.26,11.74 0.28,-0.37 -15.22,-9.89 20.44,-15.8 0.5,31.45 4.79,41.27 -8.92,69.51l-16.77 -5.11c-4.34,30.63 1.07,7.06 -12.31,15.28zm-288.43 -87.67l-229.8 60.19 24.33 -2.6c-0.12,8.59 0.64,13.27 -0.69,20.61 -11.68,64.57 -7.67,29.96 -17.48,33.23 -26.48,8.83 -4.52,3.46 -13.47,-2.47 35.92,0 1.13,-2.72 17.04,14.32 3.63,14.34 -7.94,0.5 7.26,10.48 5.7,-15.8 0.49,-15.94 15.29,-25.64 28.62,-18.77 25.81,0.23 27.21,0.79 -15.73,21.74 -16.11,11.9 -38.2,18.53 10.51,6.48 4.9,11.12 39.72,3.02 2.58,-0.6 22.94,-5.52 23.3,-5.53 21,-0.37 0.49,-3.93 12.95,8.69l-38.33 6.2c23.63,6.89 32.16,21.71 34.46,26.14 17.9,34.6 72.23,2.61 117.73,-6.75l128.08 -34.69c22.97,-3.29 27.79,-1.51 38.56,9.68 28.95,30.06 3.76,-18.79 6.85,13.36l-8.63 137.21c0.02,0.99 1.41,20.96 1.46,21.13 6.33,24.82 -6.74,8.17 12.76,22.82l-6.09 -154.31c7.14,-35.29 2.68,-14.77 12.87,-25.9 11.27,16.85 13.21,36.95 14.57,56.88 -25.68,-30.14 33.78,-35.33 46.82,-42.49 65.05,-35.74 36.87,5.68 136.69,-74.76 50.95,-41.05 19.8,-29.5 72.2,-37.7 -31.53,-10.56 -29.74,24.21 -31.34,-43.49 -0.43,-18.3 5.56,-33.65 9.5,-44.12 52.62,-23.78 71.91,-19.66 72.98,51.07 12.01,-28.91 4.62,-61.33 45.34,-75.94 2.15,-0.77 9.33,-2.33 11.59,-3.12l33.87 -19.49c34.71,-26.84 79.19,-66.67 121.07,-69.48 -12.83,-15.69 8.81,-26.08 -14.61,-9.49l-685.86 163.62z"/>
   <path fill="#4E5258" fill-opacity="0.309804" d="M3442.95 900.76l-23.51 7.36c9.4,3.63 13.47,-13.34 12.87,12.03 -0.04,1.43 -2.95,4.59 -4.01,7.09l-292.27 72.43c18.86,12.25 26.37,-4.29 -1.18,61.54 7.66,-15.81 8.64,-11.54 22.08,-20.25 1.43,-0.93 3.56,-1.51 4.94,-2.39 25.92,-16.64 23.29,-53.49 65.83,-42.69 16.51,4.18 28.24,21.92 31.92,26.38 -12.71,9.12 -2.99,4.1 -20.6,6.52 -70.75,9.74 32.69,-16.78 -23.35,-1.78 -16.66,4.47 -25.05,19.89 -43.61,29.52 -27.05,14.05 -14.11,22.23 -35.96,31.45 -12.04,-25.25 3.73,-44.46 -19.2,-21.79 -15.64,15.45 -2.43,0.89 -2.49,16.71 -0.05,14.03 4.01,16.01 -3.89,35.15 -0.56,1.35 -1.8,3.13 -2.41,4.38l-23.22 24.04c19.02,5.65 8.99,-2.47 16.95,11.39l5.12 17.76 -51.3 20.74c-5.03,28.03 -18.01,22.35 14.62,23.2 -9.38,24.34 -8.02,15.71 -14.12,24.13 -1.47,2.01 -3.35,3.66 -4.58,5.22l-8.64 7.14c5.69,0.5 0.82,-2.45 12.98,1.7 1.93,0.65 4.21,1.08 6.24,1.96l22.73 18.26c-20.31,23.53 -42.48,14.29 -62.69,36.53 25.9,0.09 11.03,8.09 18.85,16.05l350.68 -87.49c-2.08,-2.15 -5.2,-3.39 -7.77,-4.52 -2.44,-1.07 -4.7,-2.8 -7.6,-3.9l-13.93 -4.24c-38.99,-8.4 14.95,3.8 -15.56,0.08 -37.04,-4.53 26,16.13 -10.49,-2.97l-10.11 -7.94c-0.83,-0.62 -2.63,-2.07 -3.45,-2.67l-6.44 -4.66c-10.22,-6.15 -22.62,-9.04 -26.93,0.01 7.04,-0.93 3.14,-0.92 11.23,-19.39 2.05,-4.69 10.06,-21.22 10.73,-22.66l-1.22 18.89c16.51,5.29 38.64,6.26 42.41,7.47 49.25,15.81 -30.52,-25.77 11.9,7.19l5.39 8.43c-3.78,-4.72 8.46,-13.49 -16.32,-3.04l-20.21 17.65 58.37 0c0,-11.95 0.82,-18.1 -1.44,-29.3 -7.01,-34.85 -21.69,-30.11 -37.98,-29.47 -27.39,1.06 9.23,14.62 -14.77,-4.43 -3.58,-2.83 -1.36,-8.05 -16.41,-9.86 28.33,10.33 45.74,14.17 68,-11.27 1.21,-1.38 2.44,-3.29 3.54,-4.68 1.05,-1.32 2.17,-3.37 3.12,-4.64 0.86,-1.14 1.96,-3.22 2.74,-4.25 6.23,-8.14 2.5,-10.14 16.99,-9.47 3.03,0.14 0.33,-1.18 7.93,1.46 -8.1,6.43 -28.06,35.05 -2.93,32.72 46.64,-4.31 -15.54,-5.56 16.53,-13.31 19.59,-4.74 2.58,-1.02 35.05,6.14 -8.88,-29.34 -4.08,-19.15 -20.67,-34.07 26.47,-3.1 18.15,6.4 21.95,-17.57 6.73,-42.45 -7.49,-16.49 -12.02,-20.71 -23.45,-21.86 -26.88,-14.62 -11.15,-42.05l2.86 -2.07c0.23,-1.91 2.97,-1.89 4.45,-2.85 2.37,0.58 13.45,14.29 38.95,19.5 -1.09,-2.17 -2.18,-8.74 -2.76,-10.4 -9.02,-25.92 -14.58,-21.08 -33.76,-34.65 13.68,-17.82 6.4,-43.55 26.12,-29.31 16.42,11.86 -17.3,8.56 59.12,26.88 8.92,-55.86 -6.73,-42.81 -7.26,-64.5 30.87,-4.04 7.64,-10.33 31.61,6.06l-17 -35.32c14.71,-0.03 12.78,-7.79 21.84,-15.45 -23.27,4.97 -44.26,9.94 -67.1,16.81 -4.21,1.27 -25.28,7.53 -29.45,7.41 -38.96,-1.08 -14.63,14.28 -34.88,-13.37z"/>
   <path fill="#4B4F56" fill-opacity="0.309804" d="M3771.64 842.15c-3.26,57.01 14.95,-5.29 43.83,85.09l-30.44 -8.82c-18.61,-1.77 -7.97,0.13 -14.36,2.24 -3.45,1.14 2.46,4.35 -15.68,8.06 -40.08,8.2 11.62,4.13 -12.55,-0.72 -29.01,-5.81 2.16,-12.28 -19.88,-2.38 -30.08,13.53 9.28,9.78 -36.09,15.02 42.35,31.26 -6.79,61.49 -60.87,45.05l2.41 -23.13c-14.41,1.1 -7.38,4.88 -31.72,15.86 21.16,6.85 16.26,11.78 22.47,29.41 10.1,28.75 2.88,-2.97 20.2,29.04 10.88,-10.64 5.54,-7.34 17.25,-14.96 16.82,-10.95 -20.1,0.55 14.75,-7.37 28.59,-6.48 15.87,-4.77 43.48,6.47 -25.36,-45.18 -10.14,15.99 -21.74,-23.6 -0.96,-3.28 -3.89,-2.76 -5.63,-4.38l17.29 -21.15c16.89,-27.27 -3.86,-16.86 23.48,-29.95l4.35 18.74c1.65,18.26 -0.32,5.25 -1.01,13.75 -0.64,7.93 -0.11,18.28 -0.92,33.22 34.6,-24.45 41.62,-31.18 41.38,21.88 -60.55,10.9 -0.71,13.04 -46.22,-17 -7.82,14.4 0.64,0.29 -5.16,18.49 -9.92,31.15 -10.1,20.1 -16.35,25.51l45.81 4.72c-11.32,24.18 -19.89,24.36 -21.92,48.65 -0.18,-0.17 -52.48,12.17 -4.84,-34.07 -54.73,2.93 -19.77,9.15 -42.59,-12.15 -3.89,21.69 -5.06,17.06 -5.53,31.64 2.42,-0.27 -5.1,-6.38 12.33,-0.76 15.91,5.14 5.6,-10.34 13.95,10.54 9.34,23.33 -14.45,4.62 -3.75,41.37 47.53,0.23 3.77,-3.45 23.13,16.46l231.08 -56.08c-4.71,-11.45 23.04,-13.22 -33.62,-23.24l-16.4 2.72c-1.09,0.63 -5.61,8.67 -5.68,9.03 -4.86,-24.71 -5.74,-9.53 -14.65,-29.28l21.96 -0.02c24.58,38.52 28.59,0.35 29.18,0.04l-14.93 -16.27c-1.41,-0.91 -3.51,-2.09 -4.89,-2.68 -24.85,-10.58 -13.89,0.82 -16.71,4.3l19.59 -29.56c0.54,-1.08 1.89,-4.58 2.37,-6.97 3.42,25.94 2.38,8.72 14.6,21.92 40.24,-2.15 9.46,-7.98 61.67,-8.43l-17.77 -35.18c-0.98,-0.23 -3.07,-0.75 -4.11,-0.93l-78.38 0.33 8.12 -28.85c-15.73,25.68 17.27,20.74 45.05,21.92 -5,-38.78 -14.04,-45.51 -14.58,-57.81 5.05,27.96 7.83,26.11 29.23,40.77l8.01 -24.01c-0.7,-18.49 -2.9,-6.27 -8.04,-7.63 28.48,4.11 12.4,9.21 21.34,-9.65 13.78,-29.09 8.12,-5.82 -4.28,-17.15 18.12,13.84 10.63,17.79 6.52,35.4 -0.35,1.55 -1.11,3.72 -1.4,5.27l7.08 40.9c19.44,-10.73 5.26,-11.33 21.91,-33.46 43.66,11.24 42.15,3.07 61.9,-1.66 11.75,-2.81 -4.75,-6.84 11.16,-0.16 6.94,-27.8 -0.67,-30.41 7.26,-47.22l70.64 10.65c-0.01,-28.89 -2.42,-33.84 9.77,-49.89l39.3 15.21c1.83,-10.58 -10.19,6.35 2.98,-10.74 11.29,-14.64 4.75,-2.33 21.05,-9.35 -4.25,-4.33 -9.78,9.42 -11.96,-19.77 -1.9,-25.24 -10.05,-5.91 10.75,-19.15 -22.45,6.4 -4.34,-16.83 -19.15,12.75l-4.02 10.35c-8.46,-2.64 -15.09,-7.39 -17.05,-8.2l-32.84 -5.2 -0.72 -46.36c-0.28,-2.62 -1.97,-3.16 -2.95,-4.75l-29.23 35.28c44.35,5.28 13.76,-0.37 26.77,14.61 -25.68,7.06 -2.37,-11.53 -24.34,29.23 -23.86,-18.35 -24.69,-4.58 -28.89,-14.83 -1.13,-2.77 -4.31,-1.36 -6.4,-2.2 47.45,-19.92 -4.28,27.82 29.84,-7.31 -4.06,-25.76 -19.41,-30.84 -40.81,-21.92 20.22,-55.24 20.45,-20.3 22.93,-20.12 6.15,0.45 25.12,25.94 23.31,-10.9 -1.27,-25.77 -2.16,28.09 -41.39,-20.91l-319.04 76.39z"/>
   <path fill="#393D42" fill-opacity="0.309804" d="M4582.63 646.46l0.14 1339.14 -50.66 22.96c60.47,-3.64 85.8,-25.86 123.58,-51.15l0 -1344.32c-12.92,24.36 -38.6,23.34 -73.06,33.37z"/>
   <path fill="#1E1E1F" fill-opacity="0.309804" d="M2358.42 2027.93l8.46 33.7c-1.86,-39.97 12.06,-86.23 6.37,-136.17l12.47 -170.12c16.22,20.22 64.44,10.44 79.32,7.87l36.12 -8.48c38.82,-24.67 24.4,-15.55 69.07,-12.46 26.11,-54.01 53.3,-28.94 95.63,-35.69l72.63 -8.16c14.62,-1.39 12.34,-2.39 20.94,-6.07 38.63,-16.46 26.12,-19.26 69.79,-1.07 1.34,-1.99 2.44,-7.72 2.98,-6.56l8.04 -18.55c7.64,-16.99 -0.35,-9.41 9.43,-18.98 23.81,-16.98 0.38,0.13 16.04,-16.7 -7.98,-1.96 -38.38,11.72 -21.16,-35.21 5.96,-16.24 12.43,-14.91 27.25,-19.55 21.19,-6.61 53.61,-13.56 76.51,-19.25 39.84,-9.9 109.65,-30.65 150.6,-32.68 -0.55,37 5.77,35.38 -16.87,53.56l27.81 7.42 -0.35 -64.38c3.76,21.54 4.78,41.55 4.64,64.57 -0.2,33.64 -5.77,51.74 10.67,74.1 -4.48,-29.42 -2.96,-52.21 -3.79,-81.63 -0.04,-1 -0.61,-35.96 -0.35,-37.02 8.34,-34.25 -11.12,-19.74 22.66,-31.11 -25.3,-35.46 -111.77,14.7 -205.5,16.56 -4.24,-14.44 -1.56,-5.34 -5.13,-9.12l-9.48 -5c3.62,-16.15 1.61,-11.09 6.77,-23.07l14.22 -22.52c0.91,-1.22 2.31,-2.84 3.23,-4.05 0.92,-1.19 2.31,-2.83 3.23,-4.04l17.13 -34.88c1.89,-7.95 1.47,-12.82 3.25,-18.85 9.49,-32.06 -2.98,3.78 20.82,-30.24l-17.51 -2.17 -172.96 44.8c21.72,0.19 14.41,0.13 29.23,5.93 -1.49,1.33 -4.24,0.74 -5,3.32 -4.78,16.35 -1.7,0.08 -9.34,6.78 -22.68,19.91 -53.22,112.66 -70.62,119.77 -1.46,0.6 -8.35,3.2 -10.32,4.06 -61.71,26.98 0.65,19.19 -60.42,30.4 -30.86,5.66 -9.74,3.29 -39.23,16.07l-100.13 13.08c-0.01,0 -87.59,-12.55 -101.26,-6.54 -14.23,6.26 -8.78,-1.91 -14.22,18.79 -1,-1.45 -2.28,-5.73 -2.73,-4.5 -1.23,3.32 1.17,-5.33 -12.65,-12.84 -18.17,-9.88 8.07,7.64 -20.9,-4.58l-0.17 -43.84c0.46,67.77 -11.12,425.55 -25.22,465.3z"/>
   <path fill="#696C73" fill-opacity="0.309804" d="M2098.66 1213.72c18.19,18.28 21.08,20.04 56.83,20.37 -10.53,7.21 2.53,-12.15 -6.89,8.63 -8.97,19.8 -7.28,133.93 -6.15,141.92l5.99 210.66c-0.34,3.85 -3.57,19.51 -3.81,21.19l2.86 523.72c4.84,94.25 13.83,188.64 0.44,269.99 -5.77,35.04 -6.8,52.5 -1.29,84.72l-5.52 177.87 36.49 -2.79 8.72 2.01c9.5,-45.8 5.63,-604.33 5.24,-721.55 -0.45,-138.51 -4.63,-631.41 8.32,-730.94 105.52,-11.14 537.58,-141.88 673.13,-155.93l263.01 -63.92 292.27 -72.43c1.06,-2.5 3.97,-5.66 4.01,-7.09 0.6,-25.37 -3.47,-8.4 -12.87,-12.03 -93.34,30.98 -224.43,54.71 -325.33,78.23 -103.47,24.12 -229.5,60.91 -330.23,79.41 -109.8,20.16 -603.24,154 -665.22,147.96z"/>
   <path fill="#161616" fill-opacity="0.309804" d="M4267.77 1411.86c-44.75,-1.42 -62.2,-3.92 -67.63,-44.09 -30.35,37.41 15.68,82.23 -38.02,78.99 -3.07,-16.2 -3.06,-194.36 5.21,-227.98 9.85,-40.05 9.19,-18.88 84.2,-39.07 29.91,-8.05 55.93,-16.49 95.42,-23 -10.66,71.36 -7.84,149.4 -9.97,223.53 -19.12,17.64 -43.56,29.38 -69.21,31.62zm88.35 -406.73l-404.54 101.71 -231.08 56.08 -295.52 71.33 18.79 15.16 685.86 -163.62 179.61 -49.69c51.12,-1.68 17.56,0.28 32.26,6.82 -40.08,10.36 -46.8,0.9 -71.27,30.99l-145.97 111.2c-50.34,37.02 -81.97,85.3 -144.32,111.4 -72.28,30.26 -36.88,16.43 -114.32,63.8 -1.51,0.92 -5.92,3.81 -7.2,4.66l-7.18 5.21 6.54 5.01c11.19,12.71 17.68,19.67 22,44.5 11.39,-34.7 -8.55,-3.13 53.84,-45.41 48.08,-32.58 65.28,-5.07 108.03,-45.82 10.37,-9.88 14.82,-14.95 26.96,-23.54 65.96,-46.71 8.29,-28.27 61.05,-53.23l3.84 74.99 1.47 62.48 2.57 69.37 13.84 29.01c32.52,-5.6 69.85,-22.09 102.36,-29.96 39.18,-9.5 84.72,-7.74 100.8,-35.14 12.65,-21.57 13.51,-225.45 10.9,-261.38 8.37,-6.48 2.11,-12.06 4.41,3.46l68.04 0.29c-4.62,-66.84 8.5,-109.36 -12.05,-168.11 -28.64,-5.23 -43.24,0.29 -69.72,8.43z"/>
   <path fill="#4F5459" fill-opacity="0.309804" d="M2873.02 1063.59c-3.27,17.79 -2.88,-1.51 1.86,10.05 0.55,1.35 1.72,3.94 2.36,5.41 0.78,1.8 2.46,4.8 3.21,6.43 0.83,1.81 2.59,4.67 3.54,7.16 -46.09,-5.62 -29.09,2.27 -50.48,31.9 24.61,-5.05 11.95,-8.13 33.7,-21.2 33.32,-20.05 48.81,-9.65 83.19,3.58 0.4,-15.81 -1.47,-38.85 10.32,-52.47 3.89,10.08 -2.02,16.14 5.65,33.56 29.59,1.11 48.72,-21.77 48.5,19.27 -14.3,13.4 6.98,5.44 -23.82,9.12 -9.29,1.11 -16.96,0.09 -30.33,-4.79 -10.88,17.46 1.73,21.76 -24.56,34.85 8.46,-16.61 8.54,-18.47 6.94,-41.82l-42.38 -3.69c6.05,14.94 13.06,7.34 12.69,28.91 -0.63,37.3 -17.35,-22.44 -3.87,38.48l-27.53 -43.8c-4.96,2.37 -21.3,11.73 -22.84,12.22 -12.35,3.85 1.14,0.4 -10.19,0.82l-37.64 4.07c-20.1,1.15 -6.47,-6.4 -33.92,4.81 35.32,18.56 -36.73,-16.96 16.36,1.33 0.76,0.26 2.99,0.9 3.71,1.27 37.69,19.32 -5.47,0.2 17.04,21.07 18.42,17.1 47.74,10.39 21.99,52.03 -19.94,1.78 -22.51,0.11 -34.66,-10.74 -30.86,-27.54 20.85,-8.27 -25.44,-29.09 -8.72,25.88 -6.97,58.38 30.84,66.45l-26.32 25.74c-37.16,41.07 -25.6,19.85 -69.28,10.09l-12.37 22.53c2.91,3.54 -0.2,22.36 41.59,2.72 -7.54,9.33 -17.88,11.67 -17.59,28.2 14.25,5.81 25.36,14.78 47.48,-10.94 5.28,26.38 -4.33,9.61 15.88,32.21 1.23,1.38 3.61,3.15 4.68,4.23 1.1,1.1 3.34,2.69 4.99,4.06 -2.47,0.69 -31.61,9.11 -33.67,8.94 -17.21,-1.45 0.43,3.92 -21.18,-10.43l-8.84 -6.23c-18.84,-13.24 -33.39,-32.73 -48.55,-1.58l9.08 4.98c66.38,36.15 61.27,13.9 82.24,32.16l265.65 -64.92c-7.82,-7.96 7.05,-15.96 -18.85,-16.05 20.21,-22.24 42.38,-13 62.69,-36.53l-22.73 -18.26c-2.03,-0.88 -4.31,-1.31 -6.24,-1.96 -12.16,-4.15 -7.29,-1.2 -12.98,-1.7l8.64 -7.14c1.23,-1.56 3.11,-3.21 4.58,-5.22 6.1,-8.42 4.74,0.21 14.12,-24.13 -32.63,-0.85 -19.65,4.83 -14.62,-23.2l51.3 -20.74 -5.12 -17.76c-7.96,-13.86 2.07,-5.74 -16.95,-11.39l23.22 -24.04c0.61,-1.25 1.85,-3.03 2.41,-4.38 7.9,-19.14 3.84,-21.12 3.89,-35.15 0.06,-15.82 -13.15,-1.26 2.49,-16.71 22.93,-22.67 7.16,-3.46 19.2,21.79 21.85,-9.22 8.91,-17.4 35.96,-31.45 18.56,-9.63 26.95,-25.05 43.61,-29.52 56.04,-15 -47.4,11.52 23.35,1.78 17.61,-2.42 7.89,2.6 20.6,-6.52 -3.68,-4.46 -15.41,-22.2 -31.92,-26.38 -42.54,-10.8 -39.91,26.05 -65.83,42.69 -1.38,0.88 -3.51,1.46 -4.94,2.39 -13.44,8.71 -14.42,4.44 -22.08,20.25 27.55,-65.83 20.04,-49.29 1.18,-61.54l-263.01 63.92z"/>
   <path fill="#161616" fill-opacity="0.309804" d="M2373.25 1925.46c12.57,12.02 3.73,0.22 13.37,14.88 1.03,1.56 5.78,12.09 6.97,14.35 35.77,-24.63 53.53,27.51 194.81,-20.22 32.54,-10.99 5.28,-0.92 29.43,-13.37 10.07,-5.18 18.98,-9.07 29.85,-14.57 49.58,-25.11 127.43,-40.7 209.75,-114.35 -5.29,-12.74 -7.36,-16.62 -12.78,-26.41l-8.09 -5.65c11.08,-33.14 21.72,-27.1 29.22,-36.46l-19.48 6.53c24.41,-24.07 5.12,-0.8 3.43,-30.79 -1,-17.62 0.96,-34.2 -0.06,-52.21 -9.78,9.57 -1.79,1.99 -9.43,18.98l-8.04 18.55c-0.54,-1.16 -1.64,4.57 -2.98,6.56 -43.67,-18.19 -31.16,-15.39 -69.79,1.07 -8.6,3.68 -6.32,4.68 -20.94,6.07l-72.63 8.16c-42.33,6.75 -69.52,-18.32 -95.63,35.69 -44.67,-3.09 -30.25,-12.21 -69.07,12.46l-36.12 8.48c-14.88,2.57 -63.1,12.35 -79.32,-7.87l-12.47 170.12z"/>
   <path fill="#272727" fill-opacity="0.309804" d="M3391.73 1243.05l-350.68 87.49 -265.65 64.92c-74.59,12.44 -158.58,40.78 -232.42,57.79 -79.89,18.4 -157.89,20.17 -182.45,95.07l-2.11 479.61c14.1,-39.75 25.68,-397.53 25.22,-465.3l0.17 43.84c28.97,12.22 2.73,-5.3 20.9,4.58 13.82,7.51 11.42,16.16 12.65,12.84 0.45,-1.23 1.73,3.05 2.73,4.5 5.44,-20.7 -0.01,-12.53 14.22,-18.79 13.67,-6.01 101.25,6.54 101.26,6.54l100.13 -13.08c29.49,-12.78 8.37,-10.41 39.23,-16.07 61.07,-11.21 -1.29,-3.42 60.42,-30.4 1.97,-0.86 8.86,-3.46 10.32,-4.06 17.4,-7.11 47.94,-99.86 70.62,-119.77 7.64,-6.7 4.56,9.57 9.34,-6.78 0.76,-2.58 3.51,-1.99 5,-3.32 -14.82,-5.8 -7.51,-5.74 -29.23,-5.93l172.96 -44.8 154.17 -44.21 85.44 -18.12 229.8 -60.19 -18.79 -15.16 -33.25 8.8z"/>
   <path fill="#4D5057" fill-opacity="0.309804" d="M3574.38 889.91c-9.06,7.66 -7.13,15.42 -21.84,15.45l17 35.32c-23.97,-16.39 -0.74,-10.1 -31.61,-6.06 0.53,21.69 16.18,8.64 7.26,64.5 -76.42,-18.32 -42.7,-15.02 -59.12,-26.88 -19.72,-14.24 -12.44,11.49 -26.12,29.31 19.18,13.57 24.74,8.73 33.76,34.65 0.58,1.66 1.67,8.23 2.76,10.4 -25.5,-5.21 -36.58,-18.92 -38.95,-19.5 -1.48,0.96 -4.22,0.94 -4.45,2.85l-2.86 2.07c-15.73,27.43 -12.3,20.19 11.15,42.05 4.53,4.22 18.75,-21.74 12.02,20.71 -3.8,23.97 4.52,14.47 -21.95,17.57 16.59,14.92 11.79,4.73 20.67,34.07 -32.47,-7.16 -15.46,-10.88 -35.05,-6.14 -32.07,7.75 30.11,9 -16.53,13.31 -25.13,2.33 -5.17,-26.29 2.93,-32.72 -7.6,-2.64 -4.9,-1.32 -7.93,-1.46 -14.49,-0.67 -10.76,1.33 -16.99,9.47 -0.78,1.03 -1.88,3.11 -2.74,4.25 -0.95,1.27 -2.07,3.32 -3.12,4.64 -1.1,1.39 -2.33,3.3 -3.54,4.68 -22.26,25.44 -39.67,21.6 -68,11.27 15.05,1.81 12.83,7.03 16.41,9.86 24,19.05 -12.62,5.49 14.77,4.43 16.29,-0.64 30.97,-5.38 37.98,29.47 2.26,11.2 1.44,17.35 1.44,29.3l-58.37 0 20.21 -17.65c24.78,-10.45 12.54,-1.68 16.32,3.04l-5.39 -8.43c-42.42,-32.96 37.35,8.62 -11.9,-7.19 -3.77,-1.21 -25.9,-2.18 -42.41,-7.47l1.22 -18.89c-0.67,1.44 -8.68,17.97 -10.73,22.66 -8.09,18.47 -4.19,18.46 -11.23,19.39 4.31,-9.05 16.71,-6.16 26.93,-0.01l6.44 4.66c0.82,0.6 2.62,2.05 3.45,2.67l10.11 7.94c36.49,19.1 -26.55,-1.56 10.49,2.97 30.51,3.72 -23.43,-8.48 15.56,-0.08l13.93 4.24c2.9,1.1 5.16,2.83 7.6,3.9 2.57,1.13 5.69,2.37 7.77,4.52l33.25 -8.8 295.52 -71.33c-19.36,-19.91 24.4,-16.23 -23.13,-16.46 -10.7,-36.75 13.09,-18.04 3.75,-41.37 -8.35,-20.88 1.96,-5.4 -13.95,-10.54 -17.43,-5.62 -9.91,0.49 -12.33,0.76 0.47,-14.58 1.64,-9.95 5.53,-31.64 22.82,21.3 -12.14,15.08 42.59,12.15 -47.64,46.24 4.66,33.9 4.84,34.07 2.03,-24.29 10.6,-24.47 21.92,-48.65l-45.81 -4.72c6.25,-5.41 6.43,5.64 16.35,-25.51 5.8,-18.2 -2.66,-4.09 5.16,-18.49 45.51,30.04 -14.33,27.9 46.22,17 0.24,-53.06 -6.78,-46.33 -41.38,-21.88 0.81,-14.94 0.28,-25.29 0.92,-33.22 0.69,-8.5 2.66,4.51 1.01,-13.75l-4.35 -18.74c-27.34,13.09 -6.59,2.68 -23.48,29.95l-17.29 21.15c1.74,1.62 4.67,1.1 5.63,4.38 11.6,39.59 -3.62,-21.58 21.74,23.6 -27.61,-11.24 -14.89,-12.95 -43.48,-6.47 -34.85,7.92 2.07,-3.58 -14.75,7.37 -11.71,7.62 -6.37,4.32 -17.25,14.96 -17.32,-32.01 -10.1,-0.29 -20.2,-29.04 -6.21,-17.63 -1.31,-22.56 -22.47,-29.41 24.34,-10.98 17.31,-14.76 31.72,-15.86l-2.41 23.13c54.08,16.44 103.22,-13.79 60.87,-45.05 45.37,-5.24 6.01,-1.49 36.09,-15.02 22.04,-9.9 -9.13,-3.43 19.88,2.38 24.17,4.85 -27.53,8.92 12.55,0.72 18.14,-3.71 12.23,-6.92 15.68,-8.06 6.39,-2.11 -4.25,-4.01 14.36,-2.24l30.44 8.82c-28.88,-90.38 -47.09,-28.08 -43.83,-85.09l-197.26 47.76z"/>
   <path fill="#1B1B1B" fill-opacity="0.309804" d="M3857.78 1375.19c13.69,52.06 -3.39,63.25 -21.83,84.34l-6.64 8.14c-16.46,19.68 17.36,-2.54 -16.7,18.25 -17.28,4.21 -36.12,-20.08 -45.5,-32.65l-14.71 -11.93c-19.87,29.67 -30.53,35.17 -56.57,53.26 -23.4,16.26 -33.99,29.98 -68.41,33.08l-1.9 -72.88c-1.36,-19.93 -3.3,-40.03 -14.57,-56.88 -10.19,11.13 -5.73,-9.39 -12.87,25.9l6.09 154.31c-5.75,23.6 1.55,12.08 -29.45,20.85 -22.87,6.47 -18.71,1.1 -38.02,13.12l-30.64 22c-7.17,5.11 -7.4,6.97 -15.69,12.83 -56.8,40.2 6.94,-21.92 -82.12,63.95 -6.51,6.28 -8.9,8.22 -15.23,13.99l-104.09 101.04 23.59 15.55 216.36 -59.47c-1.36,-1.02 -3.31,-2.23 -4.21,-2.9l-9.79 -7.32c-1.36,-1.05 -4.65,-1.43 -5.71,-4.74 -1.14,-3.55 -4.03,-3.45 -6.08,-5.14 12.47,-8.51 32.34,-39.2 78.33,-62.08l75.61 -54.92c83.99,-61.23 38.83,-12.39 78.12,-59.54l161.24 -110.32c14.93,-8.51 9.63,-7.29 19.2,-16.46 30.92,-29.63 29.99,-10.26 62.28,-33.28 18.31,-13.05 20.57,-21.47 42.53,-31.63 67.82,-31.36 89.83,-80.11 113.1,-66.98l-3.84 -74.99c-52.76,24.96 4.91,6.52 -61.05,53.23 -12.14,8.59 -16.59,13.66 -26.96,23.54 -42.75,40.75 -59.95,13.24 -108.03,45.82 -62.39,42.28 -42.45,10.71 -53.84,45.41 -4.32,-24.83 -10.81,-31.79 -22,-44.5z"/>
   <path fill="#353535" fill-opacity="0.309804" d="M4137.54 1458.53l-91.2 72.21c-21.67,21.56 -5.14,17.41 -25.78,31.84 -12.32,8.61 -14.57,2.51 -34.25,17.36 -7.4,5.59 -21.35,21.24 -30.7,27.63 -20.22,13.85 -14.59,5.06 -34.58,24.4 -12.46,12.05 -15.29,18.73 -29.31,29.05l11.1 3.81c55.32,9.1 28.09,-18.39 115.19,-8.81l127.83 -39.9c20.09,1.96 240.38,-61.03 257.92,-71.72 45.13,-27.54 37.76,-73.12 37.69,-134.93 -0.05,-50.92 6.92,-123.47 -0.79,-170.32l-14.06 -6.05c-32.06,-9.69 -32.17,-1.17 -54.28,2.59 -1.9,-34.1 -8.09,-36.42 -2.47,-71.17 -2.3,-15.52 3.96,-9.94 -4.41,-3.46 2.61,35.93 1.75,239.81 -10.9,261.38 -16.08,27.4 -61.62,25.64 -100.8,35.14 -32.51,7.87 -69.84,24.36 -102.36,29.96l-13.84 -29.01z"/>
   <path fill="#101010" fill-opacity="0.309804" d="M4129.63 1085.79c23.42,-16.59 1.78,-6.2 14.61,9.49 -41.88,2.81 -86.36,42.64 -121.07,69.48l-33.87 19.49c-2.26,0.79 -9.44,2.35 -11.59,3.12 -40.72,14.61 -33.33,47.03 -45.34,75.94 -1.07,-70.73 -20.36,-74.85 -72.98,-51.07 -3.94,10.47 -9.93,25.82 -9.5,44.12 1.6,67.7 -0.19,32.93 31.34,43.49 -52.4,8.2 -21.25,-3.35 -72.2,37.7 -99.82,80.44 -71.64,39.02 -136.69,74.76 -13.04,7.16 -72.5,12.35 -46.82,42.49l1.9 72.88c34.42,-3.1 45.01,-16.82 68.41,-33.08 26.04,-18.09 36.7,-23.59 56.57,-53.26l14.71 11.93c-3.29,-45.08 12.56,-90.66 48.41,-93.45l14.6 53.51c27.63,-21.85 5.84,-18.54 21.12,-43.15l7.18 -5.21c1.28,-0.85 5.69,-3.74 7.2,-4.66 77.44,-47.37 42.04,-33.54 114.32,-63.8 62.35,-26.1 93.98,-74.38 144.32,-111.4l145.97 -111.2c24.47,-30.09 31.19,-20.63 71.27,-30.99 -14.7,-6.54 18.86,-8.5 -32.26,-6.82l-179.61 49.69z"/>
   <path fill="#2E2E2E" fill-opacity="0.309804" d="M3655.2 1748.62c57.72,-12.64 233.77,-69.03 276.02,-67.34 16.01,-11.48 67.46,-30.34 86.79,-25.26 -87.1,-9.58 -59.87,17.91 -115.19,8.81l-11.1 -3.81c14.02,-10.32 16.85,-17 29.31,-29.05 19.99,-19.34 14.36,-10.55 34.58,-24.4 9.35,-6.39 23.3,-22.04 30.7,-27.63 19.68,-14.85 21.93,-8.75 34.25,-17.36 20.64,-14.43 4.11,-10.28 25.78,-31.84l91.2 -72.21 -2.57 -69.37c-45.72,5.67 -37.53,23.63 -63.4,42.61 -13.56,9.95 -20.26,7.97 -38.82,19.94 -17.86,11.53 -15.12,14.42 -27.67,23.35 -1.31,0.93 -3.07,2.14 -4.45,3 -25.07,15.77 -22.76,5.23 -49.64,30.43l-173.42 119.18c-20.31,13.07 -13.27,11.34 -27.64,22.95 -6.8,5.51 -83.46,43.82 -123.53,87.03l28.8 10.97z"/>
   <path fill="#0B0D0D" fill-opacity="0.309804" d="M1171.29 1454.99c-2.51,69.72 2.63,91.91 64.03,115.46l388.42 158.99c25.7,-39.93 27.14,3.57 22.99,-86.87 -162.01,-60.4 -324.14,-134.2 -475.44,-187.58z"/>
   <path fill="#252525" fill-opacity="0.309804" d="M3528.88 1781.99l16.07 1.88c25.35,-20.25 75.18,-22.76 110.25,-35.25l-28.8 -10.97c40.07,-43.21 116.73,-81.52 123.53,-87.03 14.37,-11.61 7.33,-9.88 27.64,-22.95l173.42 -119.18c26.88,-25.2 24.57,-14.66 49.64,-30.43 1.38,-0.86 3.14,-2.07 4.45,-3 12.55,-8.93 9.81,-11.82 27.67,-23.35 18.56,-11.97 25.26,-9.99 38.82,-19.94 25.87,-18.98 17.68,-36.94 63.4,-42.61l-1.47 -62.48c-23.27,-13.13 -45.28,35.62 -113.1,66.98 -21.96,10.16 -24.22,18.58 -42.53,31.63 -32.29,23.02 -31.36,3.65 -62.28,33.28 -9.57,9.17 -4.27,7.95 -19.2,16.46l-161.24 110.32c-39.29,47.15 5.87,-1.69 -78.12,59.54l-75.61 54.92c-45.99,22.88 -65.86,53.57 -78.33,62.08 2.05,1.69 4.94,1.59 6.08,5.14 1.06,3.31 4.35,3.69 5.71,4.74l9.79 7.32c0.9,0.67 2.85,1.88 4.21,2.9z"/>
   <path fill="#737C84" fill-opacity="0.309804" d="M4321.23 698.09l-169.61 36.56c-40.29,17.09 -680.14,167.6 -708.67,166.11 20.25,27.65 -4.08,12.29 34.88,13.37 4.17,0.12 25.24,-6.14 29.45,-7.41 22.84,-6.87 43.83,-11.84 67.1,-16.81l197.26 -47.76 319.04 -76.39 484.6 -113.05c23.52,-20.01 63.8,-8.31 80.41,-39.62 0,0 -175.15,60.17 -334.46,85z"/>
   <path fill="#19191A" fill-opacity="0.309804" d="M2974.36 1371.93l17.51 2.17c-23.8,34.02 -11.33,-1.82 -20.82,30.24 -1.78,6.03 -1.36,10.9 -3.25,18.85l-17.13 34.88c-0.92,1.21 -2.31,2.85 -3.23,4.04 -0.92,1.21 -2.32,2.83 -3.23,4.05l-14.22 22.52c-5.16,11.98 -3.15,6.92 -6.77,23.07l9.48 5c3.57,3.78 0.89,-5.32 5.13,9.12 93.73,-1.86 180.2,-52.02 205.5,-16.56 1.68,-0.4 7.42,-1.14 20.73,0.66 12.23,-35.01 -10.94,-21.21 -37.89,-32.24 -41.23,-16.87 0.27,-20.63 -51.35,-31.77 96.75,-30.69 4.68,30.09 75.63,-102.24 -1.44,-0.91 -3.69,-4 -4.32,-2.74 -0.63,1.29 -3.51,-2.3 -4.34,-2.93 -0.88,-0.63 -3.45,-2.46 -4.41,-3.19l-8.85 -7.14 -154.17 44.21z"/>
   <path fill="#0B0806" fill-opacity="0.309804" d="M3082.04 1577.36c-28.26,-1.01 -185.28,41.21 -216.33,53.13 -15.66,16.83 7.77,-0.28 -16.04,16.7 1.02,18.01 -0.94,34.59 0.06,52.21 1.69,29.99 20.98,6.72 -3.43,30.79l19.48 -6.53c28.02,-1.88 45.94,-8.47 70.19,-14.59 21.63,-5.46 40.85,-11.23 62.93,-17.09 106.25,-28.21 94.46,1.56 129.94,1.67 4.64,-6.58 12.95,-12.76 11.19,-22.85 -3.94,-22.75 14.16,-11.07 -15.22,-11.73 -16.44,-22.36 -10.87,-40.46 -10.67,-74.1 0.14,-23.02 -0.88,-43.03 -4.64,-64.57l0.35 64.38 -27.81 -7.42z"/>
   <path fill="#050709" fill-opacity="0.309804" d="M3527.12 1459.33l-224.28 60.49c-1.91,1.89 -4.32,2.86 -5.2,6.16l-12.51 7.69c-1.24,57.34 -6.47,48.91 10.42,67.27 12.98,14.1 -37.01,-14.41 8.58,6.59 83.33,-2.07 154.25,-53.17 217.75,-36.32 31.18,8.28 17.76,24.36 53.84,-4.64 -4.32,-25.62 4.9,-12.1 -11.69,-20.21 -13.81,12.81 -13.75,6.37 -21.65,1.92 8.16,-10.08 16.14,-1.59 6.64,-72.7 -3.26,-24.44 -15.13,-46.58 -3.86,-60.49l0 45.52c-2.62,2.09 -5.85,4.69 -6.97,7.25l-11.07 -8.53z"/>
   <path fill="#3A3A3A" fill-opacity="0.309804" d="M3143.33 1509.31c-33.78,11.37 -14.32,-3.14 -22.66,31.11 -0.26,1.06 0.31,36.02 0.35,37.02 0.83,29.42 -0.69,52.21 3.79,81.63 29.38,0.66 11.28,-11.02 15.22,11.73 1.76,10.09 -6.55,16.27 -11.19,22.85 -35.48,-0.11 -23.69,-29.88 -129.94,-1.67 -22.08,5.86 -41.3,11.63 -62.93,17.09 -24.25,6.12 -42.17,12.71 -70.19,14.59 -7.5,9.36 -18.14,3.32 -29.22,36.46l8.09 5.65c5.42,9.79 7.49,13.67 12.78,26.41 86.89,-35.57 243.45,-54.76 313.95,-91.14l-36.47 -5.54c48.84,-16.24 7.65,-79.68 28.59,-128.15 0.92,-2.14 2.23,-3.93 3.21,-5.82l10.43 116.28c1.03,-27.19 9.63,-136.93 -3.39,-158.39l-9.69 -9.45c-13.31,-1.8 -19.05,-1.06 -20.73,-0.66z"/>
   <path fill="#35393E" fill-opacity="0.309804" d="M3564.03 1546.36c16.59,8.11 7.37,-5.41 11.69,20.21 -36.08,29 -22.66,12.92 -53.84,4.64 -63.5,-16.85 -134.42,34.25 -217.75,36.32 -11.21,12.05 -10.81,6.76 -29.22,13.85 21.08,55.45 7.76,53.59 114.36,26.53 49.19,-12.49 94.93,-25.4 147.43,-35.81 19.31,-12.02 15.15,-6.65 38.02,-13.12 31,-8.77 23.7,2.75 29.45,-20.85 -19.5,-14.65 -6.43,2 -12.76,-22.82 -0.05,-0.17 -1.44,-20.14 -1.46,-21.13l8.63 -137.21 -38.02 -0.99c-15.41,37.22 -17.27,116.29 3.47,150.38z"/>
   <path fill="#343434" fill-opacity="0.309804" d="M4200.14 1367.77c-7.78,-66.96 -2.62,-77.94 29.85,-122.16l21.7 -19.87c65.2,-24.76 119.62,112.13 38.86,169.4l-9.26 6.03c-12.69,9.1 -4.73,2.24 -13.52,10.69 25.65,-2.24 50.09,-13.98 69.21,-31.62 2.13,-74.13 -0.69,-152.17 9.97,-223.53 -39.49,6.51 -65.51,14.95 -95.42,23 -75.01,20.19 -74.35,-0.98 -84.2,39.07 -8.27,33.62 -8.28,211.78 -5.21,227.98 53.7,3.24 7.67,-41.58 38.02,-78.99z"/>
   <path fill="#111212" fill-opacity="0.309804" d="M2186.33 2672.01l-8.72 -2.01c-13.31,11.72 -0.75,6.45 -27.88,13.27 -33.93,20.53 -117.22,15.39 -153.45,9.39 -48.01,-7.97 -94.68,-17.11 -140.81,-21.08 8.08,23 10.61,25.48 22.49,38.34 27.12,31.19 116.2,45.27 177.02,44.23 63.5,-1.09 137.09,-17.95 170.78,-51.53l13.87 -29.23c-9.68,-11.69 19.17,-11.52 -24.08,-7.92l-29.22 6.54z"/>
   <path fill="#DD9C3A" fill-opacity="0.309804" d="M2865.71 1630.49c31.05,-11.92 188.07,-54.14 216.33,-53.13 22.64,-18.18 16.32,-16.56 16.87,-53.56 -40.95,2.03 -110.76,22.78 -150.6,32.68 -22.9,5.69 -55.32,12.64 -76.51,19.25 -14.82,4.64 -21.29,3.31 -27.25,19.55 -17.22,46.93 13.18,33.25 21.16,35.21z"/>
   <path fill="#155CAF" fill-opacity="0.309804" d="M3302.84 1519.82l224.28 -60.49c10.71,-26.42 7.34,-16.86 6.89,-47.44 -54.52,6.18 -103.38,22.51 -155,35.81 -56.47,14.54 -86.8,9.19 -94.72,38.09 -10.44,38.04 6.77,30 18.55,34.03z"/>
   <path fill="#5C5F66" fill-opacity="0.309804" d="M1389.71 1416.78c0.3,1.88 3.18,17.22 3.17,18.1 -0.14,6.26 -0.97,9.04 -2.93,13.73 -35.09,-46.22 -26.62,-8.84 -26.63,-139.74 11.52,6.13 38.7,30.16 44.18,39.25 7.54,12.49 11.51,22.69 9.07,39.41 -6.52,44.73 7.16,5.92 -26.86,29.25zm-42.07 -130.08c-2.96,167.88 -12.28,149.76 46.78,176.65l15.39 7.13c1.57,0.68 3.47,1.6 5.03,2.24 1.53,0.63 3.43,1.55 4.94,2.11 21.45,7.98 -17.31,10.28 26.21,5.42 7.32,-27.58 8.63,-39.3 -9.26,-59.96l-12.56 -10.82c17.16,-62.02 -0.54,-117.55 -76.53,-122.77z"/>
   <path fill="#161719" fill-opacity="0.309804" d="M4261.27 2088.92c1.54,0.99 4.15,0.15 5.04,2.23 2.14,5.01 158.59,22.12 218.16,-31.46 17.52,-19.4 10.91,-6.76 14.39,-40.32 -40.78,6.29 -210.88,50.25 -237.59,69.55z"/>
   <path fill="#050506" fill-opacity="0.309804" d="M3767.11 1453.27c9.38,12.57 28.22,36.86 45.5,32.65 34.06,-20.79 0.24,1.43 16.7,-18.25l6.64 -8.14c18.44,-21.09 35.52,-32.28 21.83,-84.34l-6.54 -5.01c-15.28,24.61 6.51,21.3 -21.12,43.15l-14.6 -53.51c-35.85,2.79 -51.7,48.37 -48.41,93.45z"/>
   <path fill="#2D396D" fill-opacity="0.309804" d="M4309.21 1277.96c25.33,78.6 -39.57,144.32 -83.5,101.76 -16.57,-16.06 -22.6,-58.53 -10.32,-82.07 18.34,-35.1 11.09,-6.19 25,-25.38 13.76,-18.99 -6,-9.75 20.78,-30.47 19.25,5.3 42.71,27.23 48.04,36.16zm-109.07 89.81c5.43,40.17 22.88,42.67 67.63,44.09 8.79,-8.45 0.83,-1.59 13.52,-10.69l9.26 -6.03c80.76,-57.27 26.34,-194.16 -38.86,-169.4l-21.7 19.87c-32.47,44.22 -37.63,55.2 -29.85,122.16z"/>
   <path fill="#2B6AD1" fill-opacity="0.309804" d="M4261.17 1327.47c-14.48,-20.82 -11.73,-52.88 0,-73.81 5.59,7.07 5.27,0.31 10,16.92 8.22,28.83 1.43,44.44 -10,56.89zm29.23 -46.46c67.5,58.66 -67.51,155.71 -71.9,55.01 -0.79,-18 5.45,-33.62 10.21,-45.71 14.11,16.27 8.77,-10.4 6.72,33.14 -0.93,20.02 0.7,19.81 7.77,36.61 79.64,-3.58 22.88,-64.46 47.2,-79.05zm18.81 -3.05c-5.33,-8.93 -28.79,-30.86 -48.04,-36.16 -26.78,20.72 -7.02,11.48 -20.78,30.47 -13.91,19.19 -6.66,-9.72 -25,25.38 -12.28,23.54 -6.25,66.01 10.32,82.07 43.93,42.56 108.83,-23.16 83.5,-101.76z"/>
   <path fill="#131516" fill-opacity="0.309804" d="M1492.98 1993.97l-17.18 29.2c1.1,1.64 2.69,3.72 3.45,4.83l50.99 95.49c49.83,-53.7 45.95,-46.05 1,-116.29 -2.59,-10.82 -3.36,-11.55 -13.43,-24.53 -31.36,5.45 -4.19,5.54 -24.83,11.3z"/>
   <path fill="#141618" fill-opacity="0.309804" d="M294.2 1693.82l-1.31 48.34 -73.99 -29.71c-1.22,-16.36 -3.01,-23.71 -0.76,-40.55 4.97,-37.18 2.08,-16.56 10.75,-26.15l-28.6 -18.76c-18.47,-7.28 0.42,-7.68 -28.06,-3.63 -1.01,36.83 4.13,90.3 26.58,107.58 16.08,12.4 73.41,35.37 95.49,37.76l-0.1 -74.88z"/>
   <path fill="#676767" fill-opacity="0.309804" d="M3223.7 1372.69c-13.62,-0.85 -62.57,6.01 -69.73,18.76 -10.38,18.48 7.84,57.07 47.85,44.6 25.76,-18.09 11.57,-12.25 29.22,-32.74 31.07,11.1 15.32,15.88 62.53,20.24 -2.85,-9.22 6.8,-16.29 -18.01,-24.38 -1.6,-0.52 -2.48,8.81 -19.41,3.08l16.75 -13.02 38.33 -6.2c-12.46,-12.62 8.05,-9.06 -12.95,-8.69 -0.36,0.01 -20.72,4.93 -23.3,5.53 -34.82,8.1 -29.21,3.46 -39.72,-3.02 22.09,-6.63 22.47,3.21 38.2,-18.53 -1.4,-0.56 1.41,-19.56 -27.21,-0.79 -14.8,9.7 -9.59,9.84 -15.29,25.64 -15.2,-9.98 -3.63,3.86 -7.26,-10.48z"/>
   <path fill="#121415" fill-opacity="0.309804" d="M1600.18 2084.62c21.67,12.78 33.98,46.69 46.58,69.87l14.45 22.74c13.89,-17.01 18.58,-20.33 33.53,-44.47 -8.67,-31.45 -38,-81.55 -56.38,-95.95 -22.48,11.45 -24.92,19.62 -38.18,47.81z"/>
   <path fill="#121415" fill-opacity="0.309804" d="M1652.93 1959.57c6.84,11.59 7.59,6.2 17.38,-4.05 22.87,-23.94 15.28,-11.49 23.51,-41.91 -16.05,-25.01 -39.39,-71.71 -57.96,-88.9l-37.95 47.24c22.39,18.32 40.3,56.39 55.02,87.62z"/>
   <path fill="#131516" fill-opacity="0.309804" d="M1594.48 2048.27c0.95,-2.6 11.72,-13.4 18.08,-21.72 17.4,-22.76 18.54,-11.56 11.55,-32.64 -4.38,-18.37 -34.95,-77.61 -41.31,-89.61 -21.05,8.63 -32.35,22.07 -46.1,37.87 17.45,32.54 40.6,65.14 57.78,106.1z"/>
   <path fill="#131516" fill-opacity="0.309804" d="M1422.87 1880.78l-10.23 19.7c17.87,9.97 27.27,31.28 34.57,44.91 17.67,33.01 12.88,39.06 32.07,44.87 9.38,-25.63 37.8,-31.92 14.58,-76.68 -9.07,-17.5 -36.14,-55.72 -45.46,-62.31 -15.38,13.56 -15.15,16.6 -25.53,29.51z"/>
   <path fill="#131516" fill-opacity="0.309804" d="M1473.65 1818.6c25.54,21.81 44.39,64.99 58.1,98.96 54.51,-62.29 32.41,-64.88 3.39,-112.6 -15.33,-25.21 -4.08,-20.35 -31.06,-31.63 -11.46,22.56 -12.97,27.28 -30.43,45.27z"/>
   <path fill="#131516" fill-opacity="0.309804" d="M1230.43 1705.13c5.64,17.42 2.83,7.14 7.49,16.69 6.67,13.65 -0.13,-6.07 9.77,18.86 20.49,28.27 26.41,56.05 41.74,72.27 42.1,-60.02 25.99,-72.96 -16.59,-140.36 -21.89,8.08 -25.26,21.12 -42.41,32.54z"/>
   <path fill="#131516" fill-opacity="0.309804" d="M1104.99 1837.81c6.4,-11.1 19.97,-25.53 31.6,-41.13 -4.59,-32.64 -6.79,-36.18 -26.75,-62.16l-19.43 -34.67c-26.63,10.38 -3.75,-3.54 -25.6,20.13 -7.79,8.44 -11.13,13.34 -16.27,18.99l56.45 98.84z"/>
   <path fill="#131516" fill-opacity="0.309804" d="M1402.53 1854.84l4.73 10.66c47.21,-49.39 30,-95.45 -17.31,-141.13 -23.21,13.02 -15.75,16.69 -35.69,35.78 6.53,20.42 26.48,40.43 48.27,94.69z"/>
   <path fill="#121415" fill-opacity="0.309804" d="M1344.42 1934.9c23.93,-6.41 13,-10.07 36.55,-25.15l-4.39 -31.75 -46.88 -78.22c-19.53,11.83 -24.35,24.43 -40.23,41.74 22.49,26.38 41.55,62.79 54.95,93.38z"/>
   <path fill="#131516" fill-opacity="0.309804" d="M980.14 1771.54l6.21 14.11c0.48,-0.94 7.39,-9.96 8.45,-10.81 12.01,-9.7 1.62,-2.45 10.78,-5.92 20.87,-55.8 -6.29,-76.65 -29.68,-120.52 -30.53,12.17 -13.17,5.74 -44.54,39.42l48.78 83.72z"/>
   <path fill="#131516" fill-opacity="0.309804" d="M990.11 1614.78c20.93,20.46 54.82,78.63 52.4,97.37 37.15,-39.04 58.68,-41.2 -11.5,-139.65 -26.72,10.21 -22.75,21.65 -40.9,42.28z"/>
   <path fill="#131516" fill-opacity="0.309804" d="M1254.49 1818.63l-31.86 -46.6c-6.75,-20.62 -1.99,-9.79 -15.33,-22.41 -21.14,13.01 -25.11,24.74 -36.72,39.76 15.36,25.22 46.95,68.6 54.85,99.67 22.53,-22.64 32,-33.73 29.06,-70.42z"/>
   <path fill="#131516" fill-opacity="0.309804" d="M1112.75 1862.58c6.26,25.33 29.16,38.19 50.72,99.37 21.78,-18.28 43.62,-30.94 26.34,-73.17 -6.69,-16.32 -36.69,-57.28 -50.95,-64.59l-26.11 38.39z"/>
   <path fill="#131516" fill-opacity="0.309804" d="M1304.91 1929.12c-18.82,-24.58 -19.78,-44.17 -42.07,-50.62l-32.41 34.77 16.63 26.89c11.4,19.11 36.21,59.9 35.94,78.56 21.54,-33 44.27,-34.98 21.91,-89.6z"/>
   <path fill="#131516" fill-opacity="0.309804" d="M1162.78 1758.01l36.27 -40.92 -10.23 -34.84 -39.96 -59.9c-20.87,8.03 -22.58,18.19 -38.03,42.82 21.36,27.13 37.78,51.85 51.95,92.84z"/>
   <path fill="#141618" fill-opacity="0.309804" d="M812.78 1808.06c22.38,-20.04 38.42,-34.63 22.76,-68.87 -9.43,-20.61 -29.78,-55.49 -44.68,-64.22 -19.34,17.12 -18.68,19.31 -31.75,41.35 1.13,1.67 2.7,3.81 3.51,4.93l50.16 86.81z"/>
   <path fill="#141618" fill-opacity="0.309804" d="M754.34 1684.68c53.11,-64.9 27.47,-51.84 -14.85,-135.72 -15.87,8.69 -27.16,24.61 -38.77,43.16l53.62 92.56z"/>
   <path fill="#131516" fill-opacity="0.309804" d="M869.88 1736.16c14.92,-18.76 36.22,-36.72 24.45,-70.46 -9.08,-26.07 -32,-56.49 -45.01,-64.97 -23.06,18.99 -20.69,21.19 -34.45,42.53l33.95 46.33c7.22,13.84 16.76,33.96 21.06,46.57z"/>
   <path fill="#131516" fill-opacity="0.309804" d="M1349.49 1973.66c26.74,18.29 50.94,67.6 58.8,98.03 20.67,-22.45 37.36,-36.27 23.33,-74.53l-41.67 -67.08c-14.39,8.23 -29.1,27.45 -40.46,43.58z"/>
   <path fill="#797E86" fill-opacity="0.309804" d="M362.96 1719.07c7.44,27.84 1.11,2.69 -3.14,13.62 -14.15,-13.69 -15.33,-5.47 -7.13,-25.55 4.69,3.62 7.93,3.19 10.27,11.93zm-0.23 -32.63c-28.09,8.62 -9.18,-10.43 -23.35,17.01 -9.26,17.94 -8.69,78.37 -6.95,101.08l54.11 20.13c-0.46,-51.01 2.17,-106.62 -23.81,-138.22z"/>
   <path fill="#131516" fill-opacity="0.309804" d="M1073.68 1840.55l-12.08 -15.08c-0.84,-1.16 -2.11,-2.94 -2.96,-4.16 -33.33,-48.08 -8.01,-40.94 -36.69,-45.09 -15.69,19.19 -19.68,25.24 -30.69,42.38 30.37,24.77 42.88,62.28 55.33,93.8l28.96 -33.79 -1.87 -38.06z"/>
   <path fill="#131516" fill-opacity="0.309804" d="M928.69 1860.48c18.44,-31.92 34.06,-15.32 25.69,-71.07 -19.09,-23.75 -26.22,-44.24 -39.44,-65.24 -30.3,13.31 -25.69,20.24 -40.33,43.29 25.89,27.43 40.65,60.12 54.08,93.02z"/>
   <path fill="#131516" fill-opacity="0.309804" d="M805.48 1603.73c28.5,-4.59 42.69,-36.14 31.51,-63.7 -3.77,-9.28 -30.97,-53.55 -37.18,-65.4 -27.51,14.16 -27.19,23.79 -42.18,44.43 20.25,19.73 43.27,52.85 47.85,84.67z"/>
   <path fill="#131516" fill-opacity="0.309804" d="M873.42 1564.04c12.37,6.07 52.25,82.29 52.12,97.21 15.02,-19.96 38.78,-31.31 27.07,-68.89 -5.39,-17.3 -27.14,-55.15 -47.33,-69.76l-31.86 41.44z"/>
   <path fill="#141618" fill-opacity="0.309804" d="M695.89 1758.07c21.62,-19.71 37.37,-23.86 24.75,-65.47 -5.45,-17.97 -26.46,-54.44 -39.37,-66.43 -22.37,13.15 -22.84,19.65 -36.41,39l14.14 23.03c11.02,16.19 2.37,1.82 15.19,22.78 9.55,15.62 14.82,22.55 21.7,47.09z"/>
   <path fill="#141618" fill-opacity="0.309804" d="M286.76 1362.45c-7.32,6.49 -5.33,4.28 -12.18,12.31 -1.42,1.66 -5.45,6.89 -6.73,8.62 -7.37,9.98 -7.02,10.94 -11.85,18.78l48.82 91.23c16.49,-19.71 38.73,-33.93 23.03,-72.49 -3.9,-9.57 -30.54,-50.1 -41.09,-58.45z"/>
   <path fill="#141618" fill-opacity="0.309804" d="M647.66 1472.41c20.1,30.7 35.71,44.27 48.23,87.64 25.18,-16.57 38.76,-34.77 22.83,-70.17l-37.45 -62.43c-18.69,9.38 -23.86,20.48 -36.41,40.46 0.91,1.51 2.2,3.58 2.8,4.5z"/>
   <path fill="#141618" fill-opacity="0.309804" d="M637.53 1636.18c14.62,-12.68 38.17,-36.26 26.52,-69.07 -5.68,-16 -32.54,-55.78 -41.22,-64.41 -20.04,11.16 -16.19,20.84 -36.76,36.52l13.75 17.96c29.84,40.12 19.09,39.76 37.71,79z"/>
   <path fill="#010202" fill-opacity="0.309804" d="M294.2 1693.82c-8.07,-42.57 -35.33,-38.04 -65.31,-48.07 -8.67,9.59 -5.78,-11.03 -10.75,26.15 -2.25,16.84 -0.46,24.19 0.76,40.55l73.99 29.71 1.31 -48.34z"/>
   <path fill="#141618" fill-opacity="0.309804" d="M526.21 1589.38c39.62,-55.11 28.04,-74.02 -13.1,-134.61 -23.44,10.69 -15.1,16.71 -36.72,33.4l49.82 101.21z"/>
   <path fill="#141618" fill-opacity="0.309804" d="M531.27 1419.64c16.99,13.09 40.77,70.85 55.82,92.89 44.79,-58.53 17.63,-61.54 -14.84,-132.62 -22.7,9.32 -26.35,21.49 -40.98,39.73z"/>
   <path fill="#141618" fill-opacity="0.309804" d="M588.06 1612.11c-6.59,-12.2 -11.33,-25.93 -15.26,-35.61 -24.97,9.42 -5.65,-3.93 -26.41,19.8 -7.98,9.13 -9.94,13.25 -15.79,20.06 11.91,7.02 50.25,83.17 56.26,93.43 39.67,-48.82 24.91,-53.85 1.2,-97.68z"/>
   <path fill="#141618" fill-opacity="0.309804" d="M469.41 1464.35c18.61,-16.64 38.99,-23.14 25.03,-63.96 -7.53,-22 -26.59,-50.36 -39.64,-65.52 -21.61,10.04 -19.34,18.48 -35.65,36.98 6.93,9.82 4.31,5.49 9.35,12.89 17.34,25.51 32.32,46.34 40.91,79.61z"/>
   <path fill="#141618" fill-opacity="0.309804" d="M366.35 1446c0.78,1.64 2.02,3.76 2.6,4.79l49.38 89.19 28.17 -50.5 -41.31 -81.22c-26.16,9.8 -23.91,15.49 -38.84,37.74z"/>
   <path fill="#141618" fill-opacity="0.309804" d="M309.99 1526.37c24.65,19.19 41.66,61.29 49.83,85.19 41.92,-35.74 31.94,-75.55 -14.61,-128.09 -18.19,8.83 -26.09,24.14 -35.22,42.9z"/>
   <path fill="#141618" fill-opacity="0.309804" d="M478.15 1659.65c37.4,-53.96 16.15,-62.91 -5.88,-100.54l-17.47 -28.35c-25.78,14.86 -22.44,19.38 -34.11,39.44 7.31,9.72 22.03,29.55 29.55,42.88 14.55,25.83 7.23,28.96 27.91,46.57z"/>
   <path fill="#141618" fill-opacity="0.309804" d="M309.34 1329.11c21.47,25.14 39.55,57.16 50.48,86.36 47.52,-35.66 15.81,-86.58 -14.61,-126.89 -14.83,10.39 -25.39,21.36 -35.87,40.53z"/>
   <path fill="#141618" fill-opacity="0.309804" d="M199.97 1285.27c24.85,19.74 42.52,54.98 50.26,85.87 44.65,-37.47 24.41,-89.41 -14.61,-128.28 -6.74,4.68 -3.92,2.28 -11.49,9.35l-24.16 33.06z"/>
   <path fill="#141618" fill-opacity="0.309804" d="M213.7 1491.02c28.04,36.23 20.78,52.24 44.84,73.99 19.18,-39.77 31.42,-57.78 -22.92,-128.2 -17.16,8.57 -1.48,-1.53 -13.9,9.76l-22.75 26.12 14.73 18.33z"/>
   <path fill="#262A2E" fill-opacity="0.309804" d="M1389.71 1416.78c34.02,-23.33 20.34,15.48 26.86,-29.25 2.44,-16.72 -1.53,-26.92 -9.07,-39.41 -5.48,-9.09 -32.66,-33.12 -44.18,-39.25 0.01,130.9 -8.46,93.52 26.63,139.74 1.96,-4.69 2.79,-7.47 2.93,-13.73 0.01,-0.88 -2.87,-16.22 -3.17,-18.1z"/>
   <path fill="#272727" fill-opacity="0.309804" d="M4440.66 1239.15l-2.77 -74.34 -68.04 -0.29c-5.62,34.75 0.57,37.07 2.47,71.17 22.11,-3.76 22.22,-12.28 54.28,-2.59l14.06 6.05z"/>
   <path fill="#CEE3E5" fill-opacity="0.309804" d="M4290.4 1281.01c-24.32,14.59 32.44,75.47 -47.2,79.05 -7.07,-16.8 -8.7,-16.59 -7.77,-36.61 2.05,-43.54 7.39,-16.87 -6.72,-33.14 -4.76,12.09 -11,27.71 -10.21,45.71 4.39,100.7 139.4,3.65 71.9,-55.01z"/>
   <path fill="#4C4B4B" fill-opacity="0.309804" d="M3732.5 1261.46l-0.3 75.62c13.38,-8.22 7.97,15.35 12.31,-15.28l16.77 5.11c13.71,-28.24 9.42,-38.06 8.92,-69.51 -35.66,5.91 -20.16,15.43 -20.44,15.8 -6.87,-9.48 -9.53,-6.96 -17.26,-11.74z"/>
   <path fill="#0C0E0E" fill-opacity="0.309804" d="M2265.31 1916.87l23.3 1.26 21.29 -9.71 -0.64 -33.87c-13.44,-3.49 11.2,-12.32 -18.49,-2.6 -20.64,6.77 -21.1,31.9 -25.46,44.92z"/>
   <path fill="#ACACAB" fill-opacity="0.309804" d="M3732.2 1337.08l0.3 -75.62c-13.96,23.12 -13.49,12.84 -29.78,31.11l-0.12 29.23c18.51,9.98 11.28,0.04 29.6,15.28z"/>
   <path fill="#A6E1FC" fill-opacity="0.309804" d="M4261.17 1327.47c11.43,-12.45 18.22,-28.06 10,-56.89 -4.73,-16.61 -4.41,-9.85 -10,-16.92 -11.73,20.93 -14.48,52.99 0,73.81z"/>
   <path fill="#0D0F10" fill-opacity="0.309804" d="M4483.54 1341.21c29.39,0.48 38.87,-10.9 26.03,-40.91 -23.98,3.89 -28.3,10.63 -26.03,40.91z"/>
   <path fill="#2D3235" fill-opacity="0.309804" d="M359.82 1732.69c4.25,-10.93 10.58,14.22 3.14,-13.62 -2.34,-8.74 -5.58,-8.31 -10.27,-11.93 -8.2,20.08 -7.02,11.86 7.13,25.55z"/>
  </g>
 </g>
</svg>
