<svg id="Слой_1" data-name="Слой 1" xmlns="http://www.w3.org/2000/svg" viewBox="0 0 126.015 126.015">
  <defs>
    <style>
      .cls-1 {
        fill: #dedede;
      }

      .cls-2 {
        fill: #fff;
      }

      .cls-3 {
        fill: #3d9be8;
      }

      .cls-4 {
        fill: #00005b;
        fill-opacity: 0.2;
      }
    </style>
  </defs>
  <title>pas</title>
  <g id="Слой_1-2" data-name="Слой_1">
    <g id="_1823902828288" data-name=" 1823902828288">
      <path class="cls-1" d="M133.08,69.041a63.008,63.008,0,1,0-63.008,63.008A63.008,63.008,0,0,0,133.08,69.041Z" transform="translate(-7.065 -6.034)"/>
      <path class="cls-2" d="M128.183,69.041a58.11,58.11,0,1,0-58.11,58.11A58.11,58.11,0,0,0,128.183,69.041Z" transform="translate(-7.065 -6.034)"/>
    </g>
    <path class="cls-3" d="M111.332,75.313H30.557a5.686,5.686,0,0,0-5.679,5.68V98.3a5.686,5.686,0,0,0,5.679,5.679H81.041a1.352,1.352,0,0,0,0-2.7H30.557A2.978,2.978,0,0,1,27.582,98.3V80.992a2.978,2.978,0,0,1,2.975-2.975h80.775a2.978,2.978,0,0,1,2.975,2.975V93.974a1.352,1.352,0,1,0,2.7,0V80.993a5.686,5.686,0,0,0-5.679-5.68Z" transform="translate(-7.065 -6.034)"/>
    <path class="cls-3" d="M111.549,91.8V90.042a11.449,11.449,0,1,0-22.9,0V91.8a4.244,4.244,0,0,0-2.885,4.014v14.424A4.242,4.242,0,0,0,90,114.473H110.2a4.242,4.242,0,0,0,4.237-4.237V95.812A4.243,4.243,0,0,0,111.549,91.8ZM100.1,81.3a8.754,8.754,0,0,1,8.745,8.745v1.532H91.355V90.042A8.754,8.754,0,0,1,100.1,81.3Zm11.629,28.938a1.534,1.534,0,0,1-1.532,1.532H90a1.534,1.534,0,0,1-1.532-1.532V95.812A1.534,1.534,0,0,1,90,94.279H110.2a1.534,1.534,0,0,1,1.532,1.532Z" transform="translate(-7.065 -6.034)"/>
    <path class="cls-3" d="M46.822,86.086a1.352,1.352,0,0,0-1.847-.495L42.006,87.3V83.877a1.352,1.352,0,0,0-2.7,0V87.3l-2.968-1.714a1.352,1.352,0,0,0-1.352,2.342l2.968,1.714-2.968,1.714A1.352,1.352,0,1,0,36.333,93.7L39.3,91.989v3.428a1.352,1.352,0,0,0,2.7,0V91.989L44.974,93.7a1.352,1.352,0,1,0,1.352-2.342l-2.968-1.714,2.968-1.714A1.352,1.352,0,0,0,46.822,86.086Z" transform="translate(-7.065 -6.034)"/>
    <path class="cls-3" d="M64.131,86.086a1.352,1.352,0,0,0-1.847-.495L59.315,87.3V83.877a1.352,1.352,0,0,0-2.7,0V87.3l-2.968-1.714a1.352,1.352,0,0,0-1.352,2.342l2.968,1.714L52.29,91.361A1.352,1.352,0,1,0,53.642,93.7l2.968-1.714v3.428a1.352,1.352,0,1,0,2.7,0V91.989L62.283,93.7a1.352,1.352,0,1,0,1.352-2.342l-2.968-1.714,2.968-1.714A1.352,1.352,0,0,0,64.131,86.086Z" transform="translate(-7.065 -6.034)"/>
    <path class="cls-3" d="M81.44,86.086a1.352,1.352,0,0,0-1.847-.495L76.624,87.3V83.877a1.352,1.352,0,0,0-2.7,0V87.3l-2.968-1.714A1.352,1.352,0,0,0,69.6,87.933l2.968,1.714L69.6,91.361A1.352,1.352,0,1,0,70.951,93.7l2.968-1.714v3.428a1.352,1.352,0,0,0,2.7,0V91.989L79.592,93.7a1.352,1.352,0,1,0,1.352-2.342l-2.968-1.714,2.968-1.714a1.353,1.353,0,0,0,.495-1.847Z" transform="translate(-7.065 -6.034)"/>
    <path class="cls-3" d="M100.1,97.344a4.237,4.237,0,0,0-1.352,8.252v1.755a1.352,1.352,0,0,0,2.7,0V105.6a4.237,4.237,0,0,0-1.352-8.252Zm0,5.77a1.533,1.533,0,1,1,1.533-1.532A1.534,1.534,0,0,1,100.1,103.114Z" transform="translate(-7.065 -6.034)"/>
    <path class="cls-3" d="M27.584,65.728A43.36,43.36,0,0,1,99.111,32.754a1.35,1.35,0,0,0,1.754-2.051,46.061,46.061,0,0,0-75.98,35.025c0,6.306,3.268,4.919,2.7,0Z" transform="translate(-7.065 -6.034)"/>
    <path class="cls-3" d="M105.8,35.608a1.35,1.35,0,0,0-2.042,1.766,43.355,43.355,0,0,1,10.55,28.354,38.822,38.822,0,0,1-.805,8.385c-.459,2.077,2.568,1.722,2.7.278.254-2.865.808-5.723.808-8.662A46.057,46.057,0,0,0,105.8,35.608ZM83.639,107.217a43.639,43.639,0,0,1-32.671-2.977c-2.464-1.269-2.549,1.745-1.4,2.315a47.626,47.626,0,0,0,21.378,5.24,49.5,49.5,0,0,0,13.128-1.888C86.474,109.246,84.853,106.845,83.639,107.217Z" transform="translate(-7.065 -6.034)"/>
    <path class="cls-3" d="M86.052,66.343a30.447,30.447,0,0,1-16.28,4.692,30.85,30.85,0,0,1-5.664-.523,1.349,1.349,0,1,0-.5,2.653,33.511,33.511,0,0,0,6.161.569,33.142,33.142,0,0,0,17.72-5.109,4.116,4.116,0,0,0,1.926-3.5A19.677,19.677,0,0,0,75.788,46.41a11.179,11.179,0,1,0-12.022,0A19.684,19.684,0,0,0,50.126,65.124a4.117,4.117,0,0,0,1.926,3.5,33.157,33.157,0,0,0,5.59,2.828,1.349,1.349,0,0,0,.985-2.513,30.421,30.421,0,0,1-5.134-2.6,1.433,1.433,0,0,1-.667-1.219,16.947,16.947,0,1,1,33.894,0,1.43,1.43,0,0,1-.667,1.219h0ZM61.292,36.992a8.48,8.48,0,1,1,8.48,8.482A8.491,8.491,0,0,1,61.292,36.992Z" transform="translate(-7.065 -6.034)"/>
    <path class="cls-4" d="M27.146,74.315c-4.644.967-5.655,6.017-5.293,10.675-.221,14.248,9.065,8.914,9.015,2.492-.026-3.457-.374-5.708,2.691-6.27,4.5-.824,51.645.395,51.653.395,11.959-.122,7.992-8.135,3.559-8.109-20.436.121-40.538.341-59.96.5A8.415,8.415,0,0,0,27.146,74.315Z" transform="translate(-7.065 -6.034)"/>
  </g>
</svg>
