<svg id="Слой_1" data-name="Слой 1" xmlns="http://www.w3.org/2000/svg" viewBox="0 0 126.015 126.015">
  <defs>
    <style>
      .cls-1 {
        fill: #dedede;
      }

      .cls-2 {
        fill: #fff;
      }

      .cls-3 {
        fill: #3d9be8;
      }
    </style>
  </defs>
  <title>pub_lif</title>
  <g id="Слой_1-2" data-name="Слой_1">
    <g id="_2270125248304" data-name=" 2270125248304">
      <path class="cls-1" d="M127.194,64.355a63.008,63.008,0,1,0-63.008,63.008A63.008,63.008,0,0,0,127.194,64.355Z" transform="translate(-1.178 -1.347)"/>
      <path class="cls-2" d="M122.3,64.355a58.11,58.11,0,1,0-58.11,58.11A58.11,58.11,0,0,0,122.3,64.355Z" transform="translate(-1.178 -1.347)"/>
    </g>
    <path class="cls-3" d="M24.091,57.829v1.323L27.956,94.27A4.859,4.859,0,0,0,30.008,97.9c1.252.917,2.723.92,4.5,1.063L49.94,100.39c6.838.652,13.719,1.27,20.568,1.9,3.39.313,6.8.554,10.186.927,1.993.219,8.683,1.062,10.19.622a4.318,4.318,0,0,0,1.687-1.018c1.917-1.855.679-4.549,1.042-6.892.514-3.316.976-6.576,1.428-9.875.9-6.53,1.93-13.049,2.849-19.591.445-3.168.854-6.581,1.416-9.719.275-1.535,1.129-9.073,1.491-9.766V45.513a10.5,10.5,0,0,0-.994-1.967c-1.636-1.917-4.49-1.431-7.339-1.431H63.3c-1.41,0-4.451.293-5.387-.425a6.693,6.693,0,0,1-.733-.736,8.028,8.028,0,0,0-2.621-1.78c-2.259-.829-8.393-.522-11.11-.52-1.694,0-4.117-.143-5.725.032a5.031,5.031,0,0,0-3.683,2.18C32.978,42.516,31,51.592,30.1,54.3c-1.656.029-2.834-.162-4.124.676C24.435,55.981,24.447,57.223,24.091,57.829Z" transform="translate(-1.178 -1.347)"/>
    <path class="cls-2" d="M33.2,54.408l10.138-.1c2.012-.1,2.607-3.07,4.427-3.292,1.6-.714,2.671-.583,4.636-.582h31c2.612,0,5.8-.043,6.508,3.864.251,1.373.248,3.262.406,4.733.412,3.821.762,11.378,1.252,14.466L95.4,47.369c-1.545-.194-27.827-.046-30.133-.044a65.394,65.394,0,0,1-7.354-.1c-2.707-.357-3.855-2.23-4.733-2.877-.923-.68-1.511-3.277-2.855-3.276l-13.437.078c-.215.33-3.668,12.62-3.688,13.258Z" transform="translate(-1.178 -1.347)"/>
    <g id="_2270125245712" data-name=" 2270125245712">
      <path class="cls-3" d="M56.6,18.3l33.365,5.169,9.8,14.626L91.934,88.612a2.912,2.912,0,0,1-3.314,2.425l-42.278-6.55a2.912,2.912,0,0,1-2.425-3.314l9.366-60.451A2.912,2.912,0,0,1,56.6,18.3ZM47.33,80.643,88.746,87.06l7.39-47.7-10.99-1.746,1.775-11.254L56.47,21.646Z" transform="translate(-1.178 -1.347)"/>
      <polygon class="cls-2" points="55.371 20.204 85.87 25.39 84.235 36.444 94.851 38.269 87.776 85.933 46.186 79.489 55.371 20.204"/>
    </g>
    <path class="cls-3" d="M50.214,50.423h34.54c4.255.567,4.713.669,5.324,5.3l3.429,42.917c.117,1.471-5.289.876-4.922.166.009-.018-3.417-43.184-3.9-43.184-14.318-.032-26.371-.012-33.4.039-3.5.025-1.869,4.1-10.036,3.933L40.927,54.4C47,54.3,44.25,51.062,50.214,50.423Z" transform="translate(-1.178 -1.347)"/>
    <path class="cls-2" d="M27.113,57.107l4.1,38.05,59.509,5.459L86.576,53.99l-35.822-.945c-1.78,0-1.889.5-2.737,1.624-2.374,3.221-7.289,2.545-12.525,2.545Z" transform="translate(-1.178 -1.347)"/>
  </g>
</svg>
