<svg id="Слой_1" data-name="Слой 1" xmlns="http://www.w3.org/2000/svg" xmlns:xlink="http://www.w3.org/1999/xlink" viewBox="0 0 126.015 126.015">
  <defs>
    <style>
      .cls-1 {
        fill: #dedede;
      }

      .cls-2 {
        fill: #fff;
      }

      .cls-3 {
        fill: #3d9be8;
      }

      .cls-4 {
        fill: #00005b;
        fill-opacity: 0.2;
      }

      .cls-5 {
        fill: url(#Безымянный_градиент);
      }
    </style>
    <linearGradient id="Безымянный_градиент" data-name="Безымянный градиент" x1="14089.793" y1="-13949.631" x2="12850.783" y2="-13900.372" gradientTransform="matrix(0.028, 0, 0, -0.028, -343.965, -339.929)" gradientUnits="userSpaceOnUse">
      <stop offset="0" stop-color="#d0e2f1"/>
      <stop offset="0.322" stop-color="#cddeee"/>
      <stop offset="1" stop-color="#65689e"/>
    </linearGradient>
  </defs>
  <title>renam</title>
  <g id="Слой_1-2" data-name="Слой_1">
    <g id="_1823851568240" data-name=" 1823851568240">
      <path class="cls-1" d="M133.08,69.041a63.008,63.008,0,1,0-63.008,63.008A63.008,63.008,0,0,0,133.08,69.041Z" transform="translate(-7.065 -6.034)"/>
      <path class="cls-2" d="M128.183,69.041a58.11,58.11,0,1,0-58.11,58.11A58.11,58.11,0,0,0,128.183,69.041Z" transform="translate(-7.065 -6.034)"/>
    </g>
    <g id="_1823851562640" data-name=" 1823851562640">
      <path class="cls-3" d="M112.3,56.852c7.963.955,14.623,6.8,14.623,14.738s-7.976,13.048-16.936,13.048c-.285,0-5.937.075-6.044-.012-.99-.814.061-1.436.4-1.45,19.8-.852-70.96-1.414-67.067-.538,2.494.561,3.144.992,1.922,2.052a29.175,29.175,0,0,1-4.579.165C12.9,84.854,12.839,59.1,33.8,57.1c-.965-12.8,8.326-27.287,24.085-27.287,9.164,0,18.857,6.434,23.183,13.236a27.8,27.8,0,0,1,12.8-2.68c6.617,0,16.375,7.842,18.429,16.482Z" transform="translate(-7.065 -6.034)"/>
      <path class="cls-2" d="M111,57.985c7.781.919,14.7,6.2,14.7,13.838.028,6.883-8.078,11.411-16.358,11.522-24.492-.05-49.618-.557-74.075-.126-21.22,0-19.759-24.2.6-24.359-.943-12.308,6.4-27.641,21.793-27.641,8.954,0,18.513,7.469,22.74,14.012a30.413,30.413,0,0,1,13.387-3.222C100.254,42.009,108.99,49.674,111,57.985Z" transform="translate(-7.065 -6.034)"/>
      <g>
        <path class="cls-3" d="M98.192,57.207H78.113a4.255,4.255,0,0,0-4.25,4.25,2.207,2.207,0,0,1-2.2,2.2H45.844a4.254,4.254,0,0,0-4.249,4.25v36.571a4.254,4.254,0,0,0,4.249,4.25H98.192a4.254,4.254,0,0,0,4.25-4.25V61.457a4.255,4.255,0,0,0-4.25-4.25Z" transform="translate(-7.065 -6.034)"/>
        <path class="cls-2" d="M100.62,104.482a2.207,2.207,0,0,1-2.2,2.2H46.068a2.207,2.207,0,0,1-2.2-2.2c0-9.453.084-27.677,0-28.555-.354-1.089-1.6-1.48-2.57.2v-9.5c0-1.215,3.111-3.322,4.327-3.322l12.562.224c-1.2.093-1.285,2.141-.084,2.178H71.883a4.254,4.254,0,0,0,4.249-4.25,2.207,2.207,0,0,1,2.2-2.2H98.416a2.207,2.207,0,0,1,2.2,2.2Z" transform="translate(-7.065 -6.034)"/>
        <path class="cls-3" d="M96.061,95.417H86.616c-.323,0-.586.458-.586,1.022s.262,1.023.586,1.023h9.445c.323,0,.586-.458.586-1.022S96.384,95.417,96.061,95.417Z" transform="translate(-7.065 -6.034)"/>
        <path class="cls-3" d="M96.629,99.054H80.135a1.023,1.023,0,0,0,0,2.045H96.629a1.023,1.023,0,1,0,0-2.045Z" transform="translate(-7.065 -6.034)"/>
        <g>
          <path class="cls-3" d="M52.47,63.443,42.377,72.275a.822.822,0,0,0-.077,1.159L62.231,96.212a.823.823,0,0,0,.351.236l12.735,4.371a.822.822,0,0,0,.808-.159.806.806,0,0,0,.14-.159.821.821,0,0,0,.125-.621l-2.642-13.2a.821.821,0,0,0-.187-.38L53.629,63.521a.822.822,0,0,0-1.159-.078Z" transform="translate(-7.065 -6.034)"/>
          <polygon class="cls-2" points="65.115 81.182 66.254 86.875 61.729 90.809 56.259 88.932 37.013 66.937 45.868 59.187 65.115 81.182"/>
          <polygon class="cls-2" points="67.433 92.767 63.524 91.425 66.626 88.729 67.433 92.767"/>
          <path class="cls-3" d="M46.583,56.663,36.4,65.576a.811.811,0,0,0-.278.564.822.822,0,0,0,.2.6l3.691,4.218a.821.821,0,0,0,1.16.077l10.185-8.913a.822.822,0,0,0,.077-1.16L47.741,56.74A.822.822,0,0,0,46.583,56.663Z" transform="translate(-7.065 -6.034)"/>
          <path class="cls-3" d="M68.112,86.829a.822.822,0,0,0,.077-1.159l-13.1-14.976a.821.821,0,0,0-1.237,1.081l13.1,14.976A.821.821,0,0,0,68.112,86.829Z" transform="translate(-7.065 -6.034)"/>
          <polygon class="cls-2" points="42.688 55.29 33.74 63.121 31.13 60.14 40.079 52.308 42.688 55.29"/>
        </g>
      </g>
      <g>
        <path class="cls-4" d="M102.285,40.414c4.364,2.007,10.515,9.155,11.149,15.537.38,3.823-5.163,4.15-5.906,1.093-1.023-4.21-3.192-8-8.5-11.687C96.229,43.419,97.857,38.378,102.285,40.414Z" transform="translate(-7.065 -6.034)"/>
        <path class="cls-4" d="M13.272,71.969c.058-11.826,14.3-17.293,16.161-16.93.605-29.634,34.409-39.515,51.975-18.683,4.723,4.72-2.485,10.089-6.062,5.922-13.426-15.262-27.306-8.68-33.771.293-3.3,4.578-3.819,10.007-3.709,13.6.167,5.454-1.792,7.483-7.029,8.272-5.957.9-7.614,5.109-7.533,9.005C23.418,78.981,13.224,81.653,13.272,71.969Z" transform="translate(-7.065 -6.034)"/>
        <path class="cls-5" d="M58.071,32.559a17.076,17.076,0,0,0-5.614.963A22.923,22.923,0,0,0,40.9,42.22a22.078,22.078,0,0,0-3.619,12.449c-.117,4.26.657,7.838-5.593,8.9-2.121.359-4.56,1.018-5.608,1.854a7.894,7.894,0,0,0-2.886,4c-1.2,4,.77,7.273-4.957,8.5-.592.126-.821-.632-.124-.736,2.283-.34,3.29-1.582,3.573-3.077.251-1.33.16-3.747.859-5.568,1.582-4.128,5.035-5.305,9.432-5.893,4.751-.634,4.45-3.9,4.572-7.992.128-4.287.508-8.231,3.6-12.9a23.222,23.222,0,0,1,12.057-9.094,16.934,16.934,0,0,1,5.939-.964c.929.031,1.17.854-.075.874Z" transform="translate(-7.065 -6.034)"/>
      </g>
    </g>
  </g>
</svg>
