<svg id="Слой_1" data-name="Слой 1" xmlns="http://www.w3.org/2000/svg" viewBox="0 0 177.207 175.251">
  <defs>
    <style>
      .cls-1 {
        fill: #00005c;
        fill-opacity: 0.2;
      }

      .cls-2 {
        fill: none;
      }

      .cls-2, .cls-3, .cls-4 {
        stroke: #3d9be9;
        stroke-miterlimit: 22.926;
        stroke-width: 2px;
      }

      .cls-3 {
        fill: #3d9be9;
      }

      .cls-4 {
        fill: #fff;
      }
    </style>
  </defs>
  <title>SET</title>
  <path class="cls-1" d="M14.284,115.9,1.273,91.992l13.661-7.03-1.063-6.149L0,76.222l5.371-30.5,13.871,2.59,3.727-5.11L14,32.286l23.069-20.8,8.966,10.906,5.531-1.568.142-14.1,30.747.6-.141,14.1,6.564,2.193L98.06,12.887l24.252,21.3L98.171,51.49A38.333,38.333,0,0,0,26.4,69.834c-.086,8.493,3.731,20.538,10.315,26.738Z" transform="translate(0 -6.716)"/>
  <path class="cls-2" d="M65.673,94.2A22.326,22.326,0,1,1,88,71.876,22.351,22.351,0,0,1,65.673,94.2Z" transform="translate(0 -6.716)"/>
  <path class="cls-2" d="M88.063,107.835a42.675,42.675,0,0,0,9.129-7.669l9.6,5.544,8.741-15.141-9.581-5.532a42.152,42.152,0,0,0,2.069-11.753l10.9-1.922-3.037-17.217-10.9,1.922A42.379,42.379,0,0,0,99.01,45.745l7.124-8.489L92.741,26.019,85.623,34.5A42.068,42.068,0,0,0,74.414,30.41V19.349H56.932V30.41A42.09,42.09,0,0,0,45.723,34.5l-7.117-8.481L25.213,37.256l7.123,8.488a42.4,42.4,0,0,0-5.977,10.323l-10.9-1.922L12.427,71.363l10.9,1.922a42.162,42.162,0,0,0,2.069,11.754L15.812,90.57l8.741,15.14,9.6-5.542a42.669,42.669,0,0,0,9.128,7.669l-3.79,10.41,16.428,5.979,3.784-10.4a42.4,42.4,0,0,0,11.935,0l3.784,10.4,16.428-5.98-3.789-10.411Z" transform="translate(0 -6.716)"/>
  <path class="cls-2" d="M127.36,158.53a15.982,15.982,0,1,1,13.624-18.035A16,16,0,0,1,127.36,158.53Z" transform="translate(0 -6.716)"/>
  <path class="cls-2" d="M159,125.169l-7.536,2.438a30.35,30.35,0,0,0-5.259-6.728l4.212-6.722-10.6-6.644L135.6,114.23a30.073,30.073,0,0,0-8.351-1.793l-1.093-7.843-12.395,1.728,1.093,7.842a30.117,30.117,0,0,0-7.543,4.008l-5.883-5.31-8.385,9.29,5.888,5.316a30.34,30.34,0,0,0-3.216,7.91l-7.917-.286L87.351,147.6l7.916.287a30.192,30.192,0,0,0,2.629,8.128l-6.246,4.869,7.692,9.87,6.259-4.877a30.619,30.619,0,0,0,7.23,4.535l-1.659,7.756,12.238,2.614,1.657-7.744a30.433,30.433,0,0,0,8.46-1.18l3.711,7L148.3,172.99l-3.715-7.006a30.6,30.6,0,0,0,5.714-6.34l7.353,2.981,4.7-11.6-7.339-2.976a30.316,30.316,0,0,0,.306-8.538l7.538-2.439L159,125.169Z" transform="translate(0 -6.716)"/>
  <path class="cls-3" d="M175.884,81.8l.293-9.875-6.25-.186a23.972,23.972,0,0,0-2.119-6.4l4.908-3.877-6.123-7.751-4.907,3.876a23.957,23.957,0,0,0-5.741-3.535l1.269-6.131-9.673-2-1.271,6.127a23.726,23.726,0,0,0-6.672.967l-2.963-5.5-8.7,4.685,2.963,5.5a23.821,23.821,0,0,0-4.481,5.039l-5.812-2.314L116.952,69.6l5.817,2.317a23.93,23.93,0,0,0-.206,6.736l-5.938,1.964,3.1,9.381,5.938-1.963a23.823,23.823,0,0,0,4.181,5.293l-3.285,5.32,8.406,5.191,3.292-5.33a24.15,24.15,0,0,0,6.6,1.369l.9,6.2,9.777-1.428-.9-6.189a23.978,23.978,0,0,0,5.937-3.2l4.671,4.158,6.571-7.377-4.674-4.163a24.2,24.2,0,0,0,2.487-6.263l6.259.186Z" transform="translate(0 -6.716)"/>
  <path class="cls-4" d="M152.343,87.092A12.617,12.617,0,1,1,157.47,70,12.632,12.632,0,0,1,152.343,87.092Z" transform="translate(0 -6.716)"/>
</svg>
