<svg id="_1" data-name="1" xmlns="http://www.w3.org/2000/svg" viewBox="0 0 88.463 25.127">
  <defs>
    <style>
      .cls-1 {
        fill: #fff;
        fill-rule: evenodd;
      }
    </style>
  </defs>
  <title>tilda_whr</title>
  <path class="cls-1" d="M73.534,12.681A11.9,11.9,0,0,1,76.98,4.388,12.226,12.226,0,0,1,79.474,2.5a10.8,10.8,0,0,1,2.007-.916,10.652,10.652,0,0,1,1.143-.319A11.739,11.739,0,0,1,96.709,15.349a11.722,11.722,0,0,1-18.172,6.943l-.826-.636a12.177,12.177,0,0,1-2.652-3.194,12.111,12.111,0,0,1-1.526-5.781Zm24.308-.425a11.908,11.908,0,0,0-1.2-4.95A11.549,11.549,0,0,0,95.5,5.374a12.457,12.457,0,0,0-3.1-3.04c-.319-.232-.582-.377-.925-.585A12.559,12.559,0,0,0,74.987,5.464c-.11.148-.212.3-.313.466a12.44,12.44,0,0,0-1.969,6.6,12.155,12.155,0,0,0,.322,2.991A12.774,12.774,0,0,0,74.9,19.793a12.176,12.176,0,0,0,1.01,1.279,9.4,9.4,0,0,0,.755.755,14.092,14.092,0,0,0,1.268,1.07,12.711,12.711,0,0,0,6.856,2.352H85a11.068,11.068,0,0,0,3.4-.38,11.916,11.916,0,0,0,3.215-1.315,14.623,14.623,0,0,0,1.772-1.248c.168-.131.247-.245.41-.369A13.154,13.154,0,0,0,96.679,18a12.379,12.379,0,0,0,.792-2.228,12.835,12.835,0,0,0,.37-2.7Z" transform="translate(-72.706 -0.122)"/>
  <path class="cls-1" d="M79.428,9.077v.585h1.364c0-.8.259-1.949,1.218-1.949,1.866,0,3.711,2,6.186,2a2.4,2.4,0,0,0,1.837-.794,3.628,3.628,0,0,0,.7-2.665H89.365c0,3.263-2.709,1.489-4.175.863-1.343-.573-2.679-1.359-4.2-.711A2.925,2.925,0,0,0,79.428,9.077Z" transform="translate(-72.706 -0.122)"/>
  <path class="cls-1" d="M84.3,19.161H86V10.49c0-.148-.034-.1-.135-.157l-.651-.226a4.906,4.906,0,0,0-.919-.3Z" transform="translate(-72.706 -0.122)"/>
  <path class="cls-1" d="M103.717,20.871V7.751h-4.18V6.074h10.12V7.751H105.5v13.12Zm6.531-13.706a1.125,1.125,0,0,1,.338-.814,1.139,1.139,0,0,1,.828-.338,1.1,1.1,0,0,1,.814.345,1.136,1.136,0,0,1,.338.828,1.094,1.094,0,0,1-.334.81,1.105,1.105,0,0,1-.817.335A1.134,1.134,0,0,1,110.585,8a1.123,1.123,0,0,1-.338-.831Zm.372,13.706V11.62h1.594v9.25Zm4.1,0V5.205h1.614V20.871Zm11.09-4.574a3.553,3.553,0,0,0-.858-2.49,2.912,2.912,0,0,0-2.266-.945,2.822,2.822,0,0,0-2.19.859,3.366,3.366,0,0,0-.79,2.373,4.079,4.079,0,0,0,.8,2.674,2.707,2.707,0,0,0,2.2.965,2.914,2.914,0,0,0,2.279-.91,3.623,3.623,0,0,0,.824-2.525Zm1.532-11.092V20.871h-1.532V19.2a4.005,4.005,0,0,1-1.414,1.532,3.647,3.647,0,0,1-1.942.535,4.078,4.078,0,0,1-3.208-1.37,5.259,5.259,0,0,1-1.218-3.625,5.275,5.275,0,0,1,1.193-3.625,4.013,4.013,0,0,1,3.173-1.355,3.741,3.741,0,0,1,2,.521,3.8,3.8,0,0,1,1.372,1.555V5.205Zm9.387,11.134a3.636,3.636,0,0,0-.855-2.521,3.156,3.156,0,0,0-4.449-.076,3.51,3.51,0,0,0-.8,2.456,3.775,3.775,0,0,0,.8,2.584,2.879,2.879,0,0,0,2.279.91,2.844,2.844,0,0,0,2.218-.883,3.547,3.547,0,0,0,.8-2.47Zm1.531-4.718v9.25h-1.531V19.194a4.02,4.02,0,0,1-1.421,1.538,3.609,3.609,0,0,1-1.935.532,4.083,4.083,0,0,1-3.208-1.37,5.258,5.258,0,0,1-1.218-3.625,5.308,5.308,0,0,1,1.183-3.631,3.988,3.988,0,0,1,3.162-1.349,3.565,3.565,0,0,1,3.394,2.076V11.62Zm2.475,8.26a1.209,1.209,0,0,1,1.2-1.2,1.193,1.193,0,0,1,.862.349,1.159,1.159,0,0,1,.358.855,1.122,1.122,0,0,1-.351.838,1.217,1.217,0,0,1-.869.338,1.182,1.182,0,0,1-.852-.338,1.131,1.131,0,0,1-.349-.838Zm12.06-1.2v1.842a5.006,5.006,0,0,1-1.41.558,7.306,7.306,0,0,1-1.694.186,4.564,4.564,0,0,1-3.449-1.359,4.937,4.937,0,0,1-1.311-3.573,5.019,5.019,0,0,1,1.356-3.632,4.594,4.594,0,0,1,3.466-1.41,7.017,7.017,0,0,1,1.5.162,6.1,6.1,0,0,1,1.38.476v1.7a5.2,5.2,0,0,0-1.252-.6,4.276,4.276,0,0,0-1.314-.207,3.3,3.3,0,0,0-2.5.976,3.57,3.57,0,0,0-.942,2.59,3.265,3.265,0,0,0,.945,2.387,3.2,3.2,0,0,0,2.369.959,4.041,4.041,0,0,0,1.407-.255,6.12,6.12,0,0,0,1.445-.8Zm8.379,0v1.842a5,5,0,0,1-1.41.558,7.3,7.3,0,0,1-1.693.186,4.564,4.564,0,0,1-3.449-1.359,4.938,4.938,0,0,1-1.31-3.573A5.018,5.018,0,0,1,154.66,12.7a4.593,4.593,0,0,1,3.466-1.41,7.013,7.013,0,0,1,1.5.162,6.109,6.109,0,0,1,1.38.476v1.7a5.208,5.208,0,0,0-1.253-.6,4.273,4.273,0,0,0-1.314-.207,3.3,3.3,0,0,0-2.5.976,3.569,3.569,0,0,0-.941,2.59,3.264,3.264,0,0,0,.945,2.387,3.2,3.2,0,0,0,2.37.959,4.04,4.04,0,0,0,1.407-.255A6.11,6.11,0,0,0,161.168,18.677Z" transform="translate(-72.706 -0.122)"/>
</svg>
