<svg id="_1" data-name="1" xmlns="http://www.w3.org/2000/svg" viewBox="0 0 69.238 15.848">
  <defs>
    <style>
      .cls-1 {
        fill: #fff;
      }

      .cls-1, .cls-2 {
        fill-rule: evenodd;
      }

      .cls-2 {
        fill: #ffcb29;
      }
    </style>
  </defs>
  <title>wix_whr</title>
  <path class="cls-1" d="M127.561,21.786V20.265h.755v1.521Zm7.72-5.236a2.167,2.167,0,0,0-.255-.883,1.96,1.96,0,0,0-.557-.638,2.235,2.235,0,0,0-.8-.383,3.713,3.713,0,0,0-.964-.127,2.889,2.889,0,0,0-1.254.278,2.428,2.428,0,0,0-.905.766,3.457,3.457,0,0,0-.557,1.091,4.178,4.178,0,0,0-.186,1.266,5.353,5.353,0,0,0,.174,1.4,3.183,3.183,0,0,0,.546,1.126,2.66,2.66,0,0,0,.906.743,2.99,2.99,0,0,0,1.277.267,2.6,2.6,0,0,0,.975-.174,2.558,2.558,0,0,0,.8-.488,2.39,2.39,0,0,0,.569-.743,3.645,3.645,0,0,0,.3-.952h.557a3.585,3.585,0,0,1-.372,1.207,3.016,3.016,0,0,1-.708.894,2.9,2.9,0,0,1-.952.557,3.4,3.4,0,0,1-1.149.186,3.664,3.664,0,0,1-1.591-.325,3.018,3.018,0,0,1-1.079-.894,3.914,3.914,0,0,1-.627-1.289,6.007,6.007,0,0,1-.2-1.521,4.666,4.666,0,0,1,.232-1.509,3.524,3.524,0,0,1,.673-1.231,3.118,3.118,0,0,1,1.091-.836,3.387,3.387,0,0,1,1.5-.313,4.5,4.5,0,0,1,1.149.151,2.8,2.8,0,0,1,.952.464,2.452,2.452,0,0,1,.685.778,2.913,2.913,0,0,1,.325,1.126h-.557ZM136.733,18a4.594,4.594,0,0,1,.232-1.521,3.907,3.907,0,0,1,.673-1.265,3.211,3.211,0,0,1,1.091-.871,3.387,3.387,0,0,1,1.5-.313,3.457,3.457,0,0,1,1.5.313,3.075,3.075,0,0,1,1.091.871,3.892,3.892,0,0,1,.674,1.265A5.026,5.026,0,0,1,143.722,18a4.712,4.712,0,0,1-.232,1.532,3.682,3.682,0,0,1-.674,1.265,3.145,3.145,0,0,1-1.091.848,3.385,3.385,0,0,1-1.5.314,3.457,3.457,0,0,1-1.5-.314,3.292,3.292,0,0,1-1.091-.848,3.662,3.662,0,0,1-.673-1.265A4.761,4.761,0,0,1,136.733,18Zm.546,0a4.54,4.54,0,0,0,.186,1.312,3.655,3.655,0,0,0,.557,1.1,2.579,2.579,0,0,0,2.159,1.045,2.851,2.851,0,0,0,1.254-.279,2.541,2.541,0,0,0,.905-.766,3.653,3.653,0,0,0,.557-1.1A4.366,4.366,0,0,0,143.083,18a4.9,4.9,0,0,0-.186-1.312,3.652,3.652,0,0,0-.557-1.1,2.58,2.58,0,0,0-2.159-1.045,2.85,2.85,0,0,0-1.254.279,2.542,2.542,0,0,0-.905.766,3.654,3.654,0,0,0-.557,1.1A4.966,4.966,0,0,0,137.278,18Zm7.592-3.784h.557v1.544h.023a1.775,1.775,0,0,1,.314-.673,2.251,2.251,0,0,1,.546-.557,2.73,2.73,0,0,1,.708-.371,2.974,2.974,0,0,1,1.765.012,2.263,2.263,0,0,1,.685.371,2,2,0,0,1,.441.511,1.908,1.908,0,0,1,.232.581h.023a2.774,2.774,0,0,1,.905-1.2,2.567,2.567,0,0,1,1.5-.406,3.085,3.085,0,0,1,.952.151,2.107,2.107,0,0,1,.755.464,2.412,2.412,0,0,1,.5.8,3.421,3.421,0,0,1,.174,1.149v5.155h-.569V16.562a2.273,2.273,0,0,0-.232-1.138,1.773,1.773,0,0,0-.522-.627,1.449,1.449,0,0,0-.615-.267c-.2-.023-.36-.058-.464-.058a2.525,2.525,0,0,0-.952.174,2.262,2.262,0,0,0-.755.522,2.7,2.7,0,0,0-.5.882,3.862,3.862,0,0,0-.174,1.2v4.5h-.557V16.562a2.566,2.566,0,0,0-.209-1.126,1.756,1.756,0,0,0-.5-.627,1.365,1.365,0,0,0-.592-.267,2.115,2.115,0,0,0-.487-.058,2.634,2.634,0,0,0-.824.151,2.342,2.342,0,0,0-.778.5,2.469,2.469,0,0,0-.569.871,3.4,3.4,0,0,0-.232,1.254v4.493h-.557V14.194h.012Z" transform="translate(-85.71 -6.112)"/>
  <path class="cls-2" d="M108.894,6.415c-.813.429-1.1,1.138-1.1,3.1A3.155,3.155,0,0,1,108.8,8.9a3.955,3.955,0,0,0,1.033-.557c.685-.5.778-1.138.778-2.217a4.287,4.287,0,0,0-1.718.29Z" transform="translate(-85.71 -6.112)"/>
  <path class="cls-1" d="M104.134,6.88a3.137,3.137,0,0,0-.847,1.5L101.1,16.759,99.3,9.886a5.89,5.89,0,0,0-1-2.24,2.976,2.976,0,0,0-2.055-.813,3.01,3.01,0,0,0-2.078.824,5.972,5.972,0,0,0-1,2.241l-1.8,6.873L89.216,8.377a2.981,2.981,0,0,0-.847-1.5,3.758,3.758,0,0,0-2.659-.743l4.145,15.719a4.938,4.938,0,0,0,2.055-.255c.894-.453,1.335-.813,1.88-2.96.488-1.9,1.846-7.5,1.974-7.906.058-.2.139-.673.487-.673s.43.464.488.673c.128.395,1.474,6,1.974,7.906.546,2.136.975,2.485,1.881,2.96a4.938,4.938,0,0,0,2.055.255l4.144-15.707a3.787,3.787,0,0,0-2.659.731ZM110.612,8.7a2.667,2.667,0,0,1-.847.743c-.383.209-.743.36-1.138.546a1.2,1.2,0,0,0-.836,1.207V21.856a3.678,3.678,0,0,0,1.73-.209c.882-.453,1.079-.883,1.091-2.844V8.7Zm10.356,5.329,5.259-7.848s-2.218-.383-3.32.627a12.417,12.417,0,0,0-1.5,1.788l-1.927,2.81c-.1.139-.209.3-.406.3a.484.484,0,0,1-.406-.3l-1.95-2.8a11.621,11.621,0,0,0-1.5-1.788c-1.091-1.01-3.32-.627-3.32-.627l5.271,7.825L111.9,21.832s2.322.3,3.413-.708a10.182,10.182,0,0,0,1.393-1.7l1.927-2.8c.1-.139.209-.3.406-.3a.485.485,0,0,1,.406.3l1.927,2.8a13.225,13.225,0,0,0,1.416,1.7c1.091,1.01,3.378.708,3.378.708Z" transform="translate(-85.71 -6.112)"/>
</svg>
