<svg id="Слой_1" data-name="Слой 1" xmlns="http://www.w3.org/2000/svg" viewBox="0 0 445.996 445.996">
  <defs>
    <style>
      .cls-1 {
        fill: #3d9be9;
      }

      .cls-2 {
        fill: #ddf2fc;
      }
    </style>
  </defs>
  <title>ytb</title>
  <g id="Слой_1-2" data-name="Слой_1">
    <circle id="_Path_" data-name=" Path " class="cls-1" cx="222.998" cy="222.998" r="222.998"/>
    <polygon id="Triangle" class="cls-1" points="190.947 264.958 273.722 222.071 190.947 178.884 190.947 264.958"/>
    <g id="Lozenge">
      <path class="cls-2" d="M422.231,213.305s-2.993-21.11-12.178-30.405c-11.649-12.2-24.707-12.262-30.695-12.976-42.869-3.1-107.173-3.1-107.173-3.1h-.133s-64.3,0-107.173,3.1c-5.988.713-19.041.773-30.694,12.976-9.185,9.3-12.174,30.407-12.174,30.407a463.206,463.206,0,0,0-3.064,49.58v23.241a463.287,463.287,0,0,0,3.064,49.58s2.989,21.111,12.174,30.408c11.653,12.2,26.962,11.817,33.779,13.094,24.508,2.35,104.156,3.078,104.156,3.078s64.371-.1,107.24-3.2c5.988-.714,19.044-.775,30.695-12.976,9.185-9.3,12.178-30.407,12.178-30.407a463.962,463.962,0,0,0,3.059-49.58V262.886a463.926,463.926,0,0,0-3.059-49.581ZM240.492,314.291l-.014-86.074L323.253,271.4Z" transform="translate(-49.531 -49.332)"/>
    </g>
  </g>
</svg>
